<svg width="1000" height="1350" viewBox="0 0 1000 1350" fill="none" xmlns="http://www.w3.org/2000/svg">
<g clip-path="url(#clip0_2043_2)">
<g clip-path="url(#clip1_2043_2)">
<path d="M218.404 290H211.17V270.22H218.404C224.027 270.22 228.153 274.402 228.153 280.11C228.153 285.818 224.027 290 218.404 290ZM212.809 271.803V288.418H218.376C223.179 288.418 226.485 284.773 226.485 280.11C226.485 275.448 223.179 271.803 218.376 271.803H212.809ZM232.043 269.91C232.043 269.175 232.58 268.582 233.343 268.582C234.049 268.582 234.642 269.175 234.642 269.91C234.642 270.616 234.049 271.209 233.343 271.209C232.58 271.209 232.043 270.616 232.043 269.91ZM234.162 290H232.523V275.42H234.162V290ZM240.512 294.719L241.021 293.165C242.18 293.673 243.734 294.182 245.74 294.182C250.487 294.182 251.335 291.356 251.335 288.022V286.553C250.543 287.768 248.763 289.887 245.457 289.887C241.388 289.887 238.421 286.666 238.421 282.54C238.421 278.415 241.388 275.109 245.457 275.109C249.046 275.109 250.911 277.482 251.589 278.782L251.674 275.42H252.945V287.909C252.945 293.052 250.939 295.736 245.796 295.736C243.395 295.736 241.501 295.114 240.512 294.719ZM245.74 288.333C248.933 288.333 251.363 285.705 251.363 282.54C251.363 279.46 248.933 276.691 245.74 276.691C242.406 276.691 240.06 279.206 240.06 282.54C240.06 285.903 242.406 288.333 245.74 288.333ZM258.23 269.91C258.23 269.175 258.767 268.582 259.53 268.582C260.236 268.582 260.829 269.175 260.829 269.91C260.829 270.616 260.236 271.209 259.53 271.209C258.767 271.209 258.23 270.616 258.23 269.91ZM260.349 290H258.71V275.42H260.349V290ZM273.085 288.163L273.679 289.576C272.718 290.085 271.56 290.311 270.514 290.311C267.717 290.311 266.276 288.644 266.276 285.564V276.974H264.213V275.476H266.304V272.114H267.914V275.476H273.255V276.974H267.914V285.564C267.914 287.683 268.706 288.757 270.514 288.757C271.447 288.757 272.238 288.531 273.085 288.163ZM287.662 290L287.436 287.033C286.504 289.124 284.554 290.311 281.983 290.311C279.016 290.311 276.699 288.446 276.699 285.648C276.699 282.653 279.242 281.184 282.604 281.184C284.498 281.184 285.91 281.523 287.323 281.975C287.323 277.652 286.447 276.691 283.028 276.691C281.192 276.691 279.411 277.002 278.309 277.285L277.942 275.759C278.564 275.504 281.107 275.109 283.198 275.109C287.917 275.109 288.962 277.03 288.962 281.947V290H287.662ZM287.323 283.84V283.473C285.939 282.992 284.582 282.653 282.717 282.653C280.09 282.653 278.338 283.671 278.338 285.648C278.338 287.598 279.892 288.757 282.152 288.757C285.769 288.757 287.323 286.355 287.323 283.84ZM296.028 290H294.39V268.723H296.028V290ZM311.116 290H309.505L305.04 275.42H306.736L310.353 287.542L314.563 275.42H316.202L320.384 287.542L324.001 275.42H325.696L321.231 290H319.621L315.382 277.708L311.116 290ZM338.712 290L338.486 287.033C337.553 289.124 335.604 290.311 333.032 290.311C330.065 290.311 327.748 288.446 327.748 285.648C327.748 282.653 330.291 281.184 333.654 281.184C335.547 281.184 336.96 281.523 338.373 281.975C338.373 277.652 337.497 276.691 334.078 276.691C332.241 276.691 330.461 277.002 329.359 277.285L328.992 275.759C329.613 275.504 332.156 275.109 334.247 275.109C338.966 275.109 340.012 277.03 340.012 281.947V290H338.712ZM338.373 283.84V283.473C336.988 282.992 335.632 282.653 333.767 282.653C331.139 282.653 329.387 283.671 329.387 285.648C329.387 287.598 330.941 288.757 333.202 288.757C336.819 288.757 338.373 286.355 338.373 283.84ZM352.447 288.163L353.04 289.576C352.079 290.085 350.921 290.311 349.875 290.311C347.078 290.311 345.637 288.644 345.637 285.564V276.974H343.574V275.476H345.665V272.114H347.276V275.476H352.616V276.974H347.276V285.564C347.276 287.683 348.067 288.757 349.875 288.757C350.808 288.757 351.599 288.531 352.447 288.163ZM369.826 283.501H357.365C357.704 286.468 360.106 288.757 363.158 288.757C365.305 288.757 366.379 288.192 368.018 286.948L368.894 288.248C367.029 289.633 365.503 290.311 363.158 290.311C358.919 290.311 355.67 286.92 355.67 282.738C355.67 278.528 358.976 275.109 363.129 275.109C367.396 275.109 369.826 278.641 369.826 282.795V283.501ZM357.365 282.003H368.216C368.046 279.178 366.209 276.663 363.158 276.663C360.106 276.663 357.704 278.98 357.365 282.003ZM375.721 290H374.11V275.42H375.382L375.551 278.952C376.116 277.708 377.529 274.996 381.853 275.109L381.627 276.832C377.727 276.663 375.721 279.771 375.721 282.992V290ZM393.078 290H391.439V268.723H393.078V290ZM411.494 283.501H399.032C399.371 286.468 401.773 288.757 404.825 288.757C406.972 288.757 408.046 288.192 409.685 286.948L410.561 288.248C408.696 289.633 407.17 290.311 404.825 290.311C400.587 290.311 397.337 286.92 397.337 282.738C397.337 278.528 400.643 275.109 404.797 275.109C409.063 275.109 411.494 278.641 411.494 282.795V283.501ZM399.032 282.003H409.883C409.713 279.178 407.877 276.663 404.825 276.663C401.773 276.663 399.371 278.98 399.032 282.003ZM420.95 290H419.311L413.292 275.42H415.044L420.102 287.853H420.158L425.216 275.42H426.94L420.95 290ZM442.868 283.501H430.407C430.746 286.468 433.148 288.757 436.2 288.757C438.347 288.757 439.421 288.192 441.06 286.948L441.936 288.248C440.071 289.633 438.545 290.311 436.2 290.311C431.961 290.311 428.712 286.92 428.712 282.738C428.712 278.528 432.018 275.109 436.171 275.109C440.438 275.109 442.868 278.641 442.868 282.795V283.501ZM430.407 282.003H441.258C441.088 279.178 439.251 276.663 436.2 276.663C433.148 276.663 430.746 278.98 430.407 282.003ZM448.763 290H447.124V268.723H448.763V290ZM465.325 269.91C465.325 269.175 465.862 268.582 466.625 268.582C467.331 268.582 467.925 269.175 467.925 269.91C467.925 270.616 467.331 271.209 466.625 271.209C465.862 271.209 465.325 270.616 465.325 269.91ZM467.444 290H465.805V275.42H467.444V290ZM474.812 290H473.201V275.42H474.445L474.642 278.726C475.066 277.482 476.677 275.109 479.842 275.109C482.78 275.109 485.323 277.002 485.323 281.353V290H483.685V281.693C483.685 278.104 481.848 276.691 479.418 276.691C476.705 276.691 474.812 279.234 474.812 282.06V290ZM502.534 290L502.449 286.666C501.771 287.966 499.906 290.311 496.317 290.311C492.249 290.311 489.282 286.864 489.282 282.738C489.282 278.613 492.249 275.109 496.317 275.109C499.624 275.109 501.404 277.341 502.195 278.528V268.723H503.805V290H502.534ZM496.6 288.757C499.793 288.757 502.223 285.903 502.223 282.71C502.223 279.517 499.793 276.691 496.6 276.691C493.266 276.691 490.92 279.376 490.92 282.738C490.92 286.072 493.266 288.757 496.6 288.757ZM509.09 269.91C509.09 269.175 509.627 268.582 510.39 268.582C511.096 268.582 511.689 269.175 511.689 269.91C511.689 270.616 511.096 271.209 510.39 271.209C509.627 271.209 509.09 270.616 509.09 269.91ZM511.209 290H509.57V275.42H511.209V290ZM527.223 286.892L528.353 288.022C526.686 289.633 524.934 290.311 522.956 290.311C518.746 290.311 515.497 286.92 515.497 282.738C515.497 278.528 518.746 275.109 522.956 275.109C524.934 275.109 526.799 275.872 528.325 277.398L527.223 278.528C526.121 277.454 524.736 276.691 522.956 276.691C519.65 276.691 517.135 279.376 517.135 282.738C517.135 286.072 519.65 288.757 522.956 288.757C524.68 288.757 526.008 288.107 527.223 286.892ZM542.441 290L542.215 287.033C541.282 289.124 539.333 290.311 536.761 290.311C533.794 290.311 531.477 288.446 531.477 285.648C531.477 282.653 534.02 281.184 537.383 281.184C539.276 281.184 540.689 281.523 542.102 281.975C542.102 277.652 541.226 276.691 537.807 276.691C535.97 276.691 534.19 277.002 533.088 277.285L532.721 275.759C533.342 275.504 535.885 275.109 537.976 275.109C542.695 275.109 543.741 277.03 543.741 281.947V290H542.441ZM542.102 283.84V283.473C540.717 282.992 539.361 282.653 537.496 282.653C534.868 282.653 533.116 283.671 533.116 285.648C533.116 287.598 534.67 288.757 536.931 288.757C540.548 288.757 542.102 286.355 542.102 283.84ZM556.176 288.163L556.769 289.576C555.808 290.085 554.65 290.311 553.604 290.311C550.807 290.311 549.366 288.644 549.366 285.564V276.974H547.303V275.476H549.394V272.114H551.005V275.476H556.345V276.974H551.005V285.564C551.005 287.683 551.796 288.757 553.604 288.757C554.537 288.757 555.328 288.531 556.176 288.163ZM559.398 282.738C559.398 278.528 562.648 275.109 566.858 275.109C571.097 275.109 574.346 278.528 574.346 282.738C574.346 286.92 571.097 290.311 566.858 290.311C562.648 290.311 559.398 286.92 559.398 282.738ZM566.858 288.757C570.164 288.757 572.707 286.072 572.707 282.738C572.707 279.376 570.164 276.691 566.858 276.691C563.552 276.691 561.037 279.376 561.037 282.738C561.037 286.072 563.552 288.757 566.858 288.757ZM580.25 290H578.639V275.42H579.911L580.081 278.952C580.646 277.708 582.059 274.996 586.382 275.109L586.156 276.832C582.256 276.663 580.25 279.771 580.25 282.992V290ZM597.268 290H595.996V268.723H597.607V278.528C598.398 277.341 600.178 275.109 603.484 275.109C607.553 275.109 610.52 278.613 610.52 282.738C610.52 286.864 607.553 290.311 603.484 290.311C599.896 290.311 598.031 287.966 597.353 286.666L597.268 290ZM603.202 288.757C606.536 288.757 608.881 286.072 608.881 282.738C608.881 279.376 606.536 276.691 603.202 276.691C600.009 276.691 597.607 279.517 597.607 282.71C597.607 285.903 600.009 288.757 603.202 288.757ZM625.299 290L625.158 286.892C624.705 288.107 623.038 290.311 619.874 290.311C616.935 290.311 614.533 288.587 614.533 284.236V275.42H616.144V283.868C616.144 287.513 617.896 288.757 620.297 288.757C623.01 288.757 624.931 286.185 624.931 283.36V275.42H626.57V290H625.299ZM631.802 269.91C631.802 269.175 632.339 268.582 633.101 268.582C633.808 268.582 634.401 269.175 634.401 269.91C634.401 270.616 633.808 271.209 633.101 271.209C632.339 271.209 631.802 270.616 631.802 269.91ZM633.921 290H632.282V275.42H633.921V290ZM641.289 290H639.65V268.723H641.289V290ZM654.025 288.163L654.618 289.576C653.657 290.085 652.499 290.311 651.453 290.311C648.656 290.311 647.215 288.644 647.215 285.564V276.974H645.152V275.476H647.243V272.114H648.854V275.476H654.194V276.974H648.854V285.564C648.854 287.683 649.645 288.757 651.453 288.757C652.386 288.757 653.177 288.531 654.025 288.163ZM663.894 269.91C663.894 269.175 664.431 268.582 665.194 268.582C665.9 268.582 666.494 269.175 666.494 269.91C666.494 270.616 665.9 271.209 665.194 271.209C664.431 271.209 663.894 270.616 663.894 269.91ZM666.014 290H664.375V275.42H666.014V290ZM673.381 290H671.77V275.42H673.014L673.211 278.726C673.635 277.482 675.246 275.109 678.411 275.109C681.349 275.109 683.892 277.002 683.892 281.353V290H682.254V281.693C682.254 278.104 680.417 276.691 677.987 276.691C675.274 276.691 673.381 279.234 673.381 282.06V290ZM706.76 290L706.675 286.666C705.997 287.966 704.132 290.311 700.543 290.311C696.474 290.311 693.507 286.864 693.507 282.738C693.507 278.613 696.474 275.109 700.543 275.109C703.849 275.109 705.63 277.341 706.421 278.528V268.723H708.031V290H706.76ZM700.826 288.757C704.019 288.757 706.449 285.903 706.449 282.71C706.449 279.517 704.019 276.691 700.826 276.691C697.492 276.691 695.146 279.376 695.146 282.738C695.146 286.072 697.492 288.757 700.826 288.757ZM713.315 269.91C713.315 269.175 713.852 268.582 714.615 268.582C715.322 268.582 715.915 269.175 715.915 269.91C715.915 270.616 715.322 271.209 714.615 271.209C713.852 271.209 713.315 270.616 713.315 269.91ZM715.435 290H713.796V275.42H715.435V290ZM719.807 288.361L720.627 286.892C722.35 288.107 724.074 288.757 725.939 288.757C728.934 288.757 730.036 287.485 730.036 285.988C730.036 284.292 728.652 283.84 725.798 283.444C723.085 283.077 720.344 282.54 720.344 279.489C720.344 276.889 722.379 275.109 725.685 275.109C727.323 275.109 729.386 275.561 731.251 276.804L730.46 278.274C728.821 277.115 727.182 276.691 725.685 276.691C723.142 276.691 721.955 277.708 721.955 279.404C721.955 281.156 723.339 281.523 726.137 281.89C728.849 282.286 731.647 282.879 731.647 285.903C731.647 288.418 729.641 290.311 725.911 290.311C724.328 290.311 722.011 289.915 719.807 288.361ZM737.676 295.425H736.065V275.42H737.337L737.421 278.754C738.1 277.482 739.964 275.109 743.553 275.109C747.622 275.109 750.589 278.584 750.589 282.71C750.589 286.835 747.622 290.311 743.553 290.311C740.247 290.311 738.467 288.107 737.676 286.892V295.425ZM743.27 288.757C746.605 288.757 748.95 286.072 748.95 282.71C748.95 279.376 746.605 276.691 743.27 276.691C740.077 276.691 737.676 279.517 737.676 282.71C737.676 285.903 740.077 288.757 743.27 288.757ZM756.495 290H754.856V268.723H756.495V290ZM771.888 290L771.662 287.033C770.729 289.124 768.779 290.311 766.208 290.311C763.241 290.311 760.924 288.446 760.924 285.648C760.924 282.653 763.467 281.184 766.83 281.184C768.723 281.184 770.136 281.523 771.549 281.975C771.549 277.652 770.673 276.691 767.254 276.691C765.417 276.691 763.637 277.002 762.535 277.285L762.167 275.759C762.789 275.504 765.332 275.109 767.423 275.109C772.142 275.109 773.187 277.03 773.187 281.947V290H771.888ZM771.549 283.84V283.473C770.164 282.992 768.808 282.653 766.943 282.653C764.315 282.653 762.563 283.671 762.563 285.648C762.563 287.598 764.117 288.757 766.378 288.757C769.994 288.757 771.549 286.355 771.549 283.84ZM781.582 295.425H779.858L782.119 289.887L776.185 275.42H777.909L782.967 287.853H783.023L788.081 275.42H789.805L781.582 295.425Z" fill="#FFAF5F"/>
<line y1="-1" x2="1377.04" y2="-1" transform="matrix(0.999968 0.0079821 -0.0170146 0.999855 -38 299)" stroke="#FFAF5F" stroke-width="2"/>
<path d="M358.81 816.161H356.99L365.723 796.569H367.066L375.799 816.161H373.951L371.628 810.955H361.133L358.81 816.161ZM366.367 799.228L361.86 809.304H370.901L366.394 799.228H366.367ZM380.673 816.161H379.078V801.719H380.309L380.505 804.993C380.925 803.762 382.52 801.411 385.655 801.411C388.566 801.411 391.085 803.286 391.085 807.596V816.161H389.461V807.932C389.461 804.378 387.642 802.978 385.235 802.978C382.548 802.978 380.673 805.497 380.673 808.296V816.161ZM403.402 814.342L403.99 815.741C403.038 816.245 401.89 816.469 400.855 816.469C398.084 816.469 396.656 814.817 396.656 811.767V803.258H394.613V801.775H396.684V798.444H398.28V801.775H403.57V803.258H398.28V811.767C398.28 813.866 399.063 814.929 400.855 814.929C401.778 814.929 402.562 814.705 403.402 814.342ZM407.574 796.261C407.574 795.533 408.106 794.945 408.861 794.945C409.561 794.945 410.149 795.533 410.149 796.261C410.149 796.961 409.561 797.548 408.861 797.548C408.106 797.548 407.574 796.961 407.574 796.261ZM409.673 816.161H408.05V801.719H409.673V816.161ZM425.283 807.037H415.907V805.469H425.283V807.037ZM430.158 814.538L430.969 813.082C432.677 814.286 434.384 814.929 436.231 814.929C439.198 814.929 440.29 813.67 440.29 812.186C440.29 810.507 438.918 810.059 436.091 809.667C433.404 809.304 430.689 808.772 430.689 805.749C430.689 803.174 432.705 801.411 435.979 801.411C437.603 801.411 439.646 801.859 441.493 803.09L440.709 804.546C439.086 803.398 437.463 802.978 435.979 802.978C433.46 802.978 432.285 803.986 432.285 805.665C432.285 807.4 433.656 807.764 436.427 808.128C439.114 808.52 441.885 809.108 441.885 812.103C441.885 814.594 439.898 816.469 436.203 816.469C434.636 816.469 432.341 816.077 430.158 814.538ZM447.857 816.161H446.233V795.085H447.857V816.161ZM466.098 809.723H453.755C454.091 812.662 456.47 814.929 459.493 814.929C461.62 814.929 462.684 814.37 464.307 813.138L465.175 814.426C463.327 815.797 461.816 816.469 459.493 816.469C455.295 816.469 452.076 813.11 452.076 808.968C452.076 804.797 455.351 801.411 459.465 801.411C463.691 801.411 466.098 804.909 466.098 809.024V809.723ZM453.755 808.24H464.503C464.335 805.441 462.516 802.95 459.493 802.95C456.47 802.95 454.091 805.245 453.755 808.24ZM482.881 809.723H470.538C470.873 812.662 473.252 814.929 476.275 814.929C478.402 814.929 479.466 814.37 481.089 813.138L481.957 814.426C480.11 815.797 478.598 816.469 476.275 816.469C472.077 816.469 468.858 813.11 468.858 808.968C468.858 804.797 472.133 801.411 476.247 801.411C480.474 801.411 482.881 804.909 482.881 809.024V809.723ZM470.538 808.24H481.285C481.117 805.441 479.298 802.95 476.275 802.95C473.252 802.95 470.873 805.245 470.538 808.24ZM488.719 821.535H487.124V801.719H488.383L488.467 805.021C489.139 803.762 490.986 801.411 494.541 801.411C498.571 801.411 501.51 804.853 501.51 808.94C501.51 813.026 498.571 816.469 494.541 816.469C491.266 816.469 489.503 814.286 488.719 813.082V821.535ZM494.261 814.929C497.564 814.929 499.887 812.27 499.887 808.94C499.887 805.637 497.564 802.978 494.261 802.978C491.098 802.978 488.719 805.777 488.719 808.94C488.719 812.103 491.098 814.929 494.261 814.929ZM513.327 816.161H511.732V803.258H509.353V801.775H511.732V799.116C511.732 796.317 513.215 794.777 515.762 794.777C516.742 794.777 517.778 794.973 518.841 795.449L518.309 796.877C517.274 796.485 516.63 796.317 515.762 796.317C514.167 796.317 513.327 797.213 513.327 799.144V801.775H518.365V803.258H513.327V816.161ZM534.239 809.723H521.896C522.232 812.662 524.611 814.929 527.634 814.929C529.761 814.929 530.824 814.37 532.448 813.138L533.315 814.426C531.468 815.797 529.957 816.469 527.634 816.469C523.435 816.469 520.216 813.11 520.216 808.968C520.216 804.797 523.491 801.411 527.606 801.411C531.832 801.411 534.239 804.909 534.239 809.024V809.723ZM521.896 808.24H532.644C532.476 805.441 530.656 802.95 527.634 802.95C524.611 802.95 522.232 805.245 521.896 808.24ZM551.021 809.723H538.678C539.014 812.662 541.393 814.929 544.416 814.929C546.543 814.929 547.607 814.37 549.23 813.138L550.098 814.426C548.25 815.797 546.739 816.469 544.416 816.469C540.218 816.469 536.999 813.11 536.999 808.968C536.999 804.797 540.274 801.411 544.388 801.411C548.614 801.411 551.021 804.909 551.021 809.024V809.723ZM538.678 808.24H549.426C549.258 805.441 547.439 802.95 544.416 802.95C541.393 802.95 539.014 805.245 538.678 808.24ZM562.178 814.342L562.765 815.741C561.814 816.245 560.666 816.469 559.631 816.469C556.86 816.469 555.432 814.817 555.432 811.767V803.258H553.389V801.775H555.46V798.444H557.056V801.775H562.346V803.258H557.056V811.767C557.056 813.866 557.839 814.929 559.631 814.929C560.554 814.929 561.338 814.705 562.178 814.342Z" fill="#FFAF5F"/>
<line x1="-38" y1="835.105" x2="957" y2="835.105" stroke="#FFAF5F" stroke-width="2"/>
<path d="M362.302 392.175H354.661V372.582H361.603C364.793 372.582 368.404 373.898 368.404 377.816C368.404 380.783 366.165 381.875 364.989 382.211V382.239C365.969 382.49 369.104 383.526 369.104 387.053C369.104 390.691 365.997 392.175 362.302 392.175ZM356.285 374.15V381.483H362.274C364.793 381.483 366.753 380.363 366.753 377.9C366.753 375.269 364.653 374.15 361.463 374.15H356.285ZM356.285 383.05V390.607H362.134C365.857 390.607 367.452 389.208 367.452 386.969C367.452 384.478 365.269 383.05 362.442 383.05H356.285ZM372.252 384.981C372.252 380.811 375.47 377.424 379.641 377.424C383.839 377.424 387.058 380.811 387.058 384.981C387.058 389.124 383.839 392.482 379.641 392.482C375.47 392.482 372.252 389.124 372.252 384.981ZM379.641 390.943C382.915 390.943 385.434 388.284 385.434 384.981C385.434 381.651 382.915 378.992 379.641 378.992C376.366 378.992 373.875 381.651 373.875 384.981C373.875 388.284 376.366 390.943 379.641 390.943ZM390.806 372.275C390.806 371.547 391.338 370.959 392.094 370.959C392.793 370.959 393.381 371.547 393.381 372.275C393.381 372.974 392.793 373.562 392.094 373.562C391.338 373.562 390.806 372.974 390.806 372.275ZM392.905 392.175H391.282V377.732H392.905V392.175ZM400.203 392.175H398.58V371.099H400.203V392.175ZM415.814 383.05H406.438V381.483H415.814V383.05ZM433.703 392.175L433.619 388.872C432.947 390.159 431.1 392.482 427.545 392.482C423.515 392.482 420.576 389.068 420.576 384.981C420.576 380.895 423.515 377.424 427.545 377.424C430.82 377.424 432.583 379.636 433.367 380.811V371.099H434.962V392.175H433.703ZM427.825 390.943C430.988 390.943 433.395 388.116 433.395 384.953C433.395 381.791 430.988 378.992 427.825 378.992C424.522 378.992 422.199 381.651 422.199 384.981C422.199 388.284 424.522 390.943 427.825 390.943ZM442.296 392.175H440.7V377.732H441.96L442.128 381.231C442.688 379.999 444.087 377.313 448.369 377.424L448.145 379.132C444.283 378.964 442.296 382.043 442.296 385.233V392.175ZM455.2 397.548H453.493L455.732 392.063L449.854 377.732H451.562L456.572 390.047H456.628L461.638 377.732H463.345L455.2 397.548ZM473.81 397.548H472.215V377.732H473.475L473.558 381.035C474.23 379.776 476.077 377.424 479.632 377.424C483.662 377.424 486.601 380.867 486.601 384.953C486.601 389.04 483.662 392.482 479.632 392.482C476.357 392.482 474.594 390.299 473.81 389.096V397.548ZM479.352 390.943C482.655 390.943 484.978 388.284 484.978 384.953C484.978 381.651 482.655 378.992 479.352 378.992C476.189 378.992 473.81 381.791 473.81 384.953C473.81 388.116 476.189 390.943 479.352 390.943ZM492.451 392.175H490.856V377.732H492.115L492.283 381.231C492.843 379.999 494.243 377.313 498.525 377.424L498.301 379.132C494.439 378.964 492.451 382.043 492.451 385.233V392.175ZM500.688 384.981C500.688 380.811 503.907 377.424 508.077 377.424C512.276 377.424 515.494 380.811 515.494 384.981C515.494 389.124 512.276 392.482 508.077 392.482C503.907 392.482 500.688 389.124 500.688 384.981ZM508.077 390.943C511.352 390.943 513.871 388.284 513.871 384.981C513.871 381.651 511.352 378.992 508.077 378.992C504.803 378.992 502.312 381.651 502.312 384.981C502.312 388.284 504.803 390.943 508.077 390.943ZM526.66 390.355L527.248 391.755C526.296 392.259 525.149 392.482 524.113 392.482C521.342 392.482 519.915 390.831 519.915 387.78V379.272H517.871V377.788H519.943V374.458H521.538V377.788H526.828V379.272H521.538V387.78C521.538 389.879 522.322 390.943 524.113 390.943C525.037 390.943 525.82 390.719 526.66 390.355ZM543.875 385.737H531.532C531.868 388.676 534.247 390.943 537.269 390.943C539.397 390.943 540.46 390.383 542.084 389.152L542.951 390.439C541.104 391.811 539.593 392.482 537.269 392.482C533.071 392.482 529.852 389.124 529.852 384.981C529.852 380.811 533.127 377.424 537.241 377.424C541.468 377.424 543.875 380.923 543.875 385.037V385.737ZM531.532 384.254H542.279C542.112 381.455 540.292 378.964 537.269 378.964C534.247 378.964 531.868 381.259 531.532 384.254ZM558.278 389.096L559.398 390.215C557.746 391.811 556.011 392.482 554.052 392.482C549.881 392.482 546.663 389.124 546.663 384.981C546.663 380.811 549.881 377.424 554.052 377.424C556.011 377.424 557.858 378.18 559.37 379.692L558.278 380.811C557.187 379.748 555.815 378.992 554.052 378.992C550.777 378.992 548.286 381.651 548.286 384.981C548.286 388.284 550.777 390.943 554.052 390.943C555.759 390.943 557.075 390.299 558.278 389.096ZM570.365 390.355L570.953 391.755C570.001 392.259 568.854 392.482 567.818 392.482C565.047 392.482 563.62 390.831 563.62 387.78V379.272H561.577V377.788H563.648V374.458H565.243V377.788H570.533V379.272H565.243V387.78C565.243 389.879 566.027 390.943 567.818 390.943C568.742 390.943 569.525 390.719 570.365 390.355ZM574.537 372.275C574.537 371.547 575.069 370.959 575.825 370.959C576.524 370.959 577.112 371.547 577.112 372.275C577.112 372.974 576.524 373.562 575.825 373.562C575.069 373.562 574.537 372.974 574.537 372.275ZM576.636 392.175H575.013V377.732H576.636V392.175ZM580.855 384.981C580.855 380.811 584.074 377.424 588.244 377.424C592.443 377.424 595.661 380.811 595.661 384.981C595.661 389.124 592.443 392.482 588.244 392.482C584.074 392.482 580.855 389.124 580.855 384.981ZM588.244 390.943C591.519 390.943 594.038 388.284 594.038 384.981C594.038 381.651 591.519 378.992 588.244 378.992C584.97 378.992 582.479 381.651 582.479 384.981C582.479 388.284 584.97 390.943 588.244 390.943ZM601.509 392.175H599.914V377.732H601.145L601.341 381.007C601.761 379.776 603.356 377.424 606.491 377.424C609.402 377.424 611.921 379.3 611.921 383.61V392.175H610.298V383.946C610.298 380.391 608.478 378.992 606.071 378.992C603.384 378.992 601.509 381.511 601.509 384.31V392.175Z" fill="#FFAF5F"/>
<line x1="-38" y1="409.476" x2="957" y2="409.476" stroke="#FFAF5F" stroke-width="2"/>
<path d="M184.559 941.056H182.739L191.472 921.464H192.815L201.548 941.056H199.7L197.377 935.85H186.882L184.559 941.056ZM192.115 924.123L187.609 934.199H196.65L192.143 924.123H192.115ZM215.21 941.056L215.07 937.978C214.623 939.181 212.971 941.364 209.837 941.364C206.926 941.364 204.547 939.657 204.547 935.347V926.614H206.142V934.983C206.142 938.593 207.877 939.825 210.256 939.825C212.943 939.825 214.847 937.278 214.847 934.479V926.614H216.47V941.056H215.21ZM229.069 939.237L229.656 940.637C228.705 941.14 227.557 941.364 226.522 941.364C223.751 941.364 222.323 939.713 222.323 936.662V928.154H220.28V926.67H222.351V923.34H223.947V926.67H229.237V928.154H223.947V936.662C223.947 938.761 224.73 939.825 226.522 939.825C227.445 939.825 228.229 939.601 229.069 939.237ZM232.261 933.863C232.261 929.693 235.48 926.306 239.65 926.306C243.849 926.306 247.067 929.693 247.067 933.863C247.067 938.006 243.849 941.364 239.65 941.364C235.48 941.364 232.261 938.006 232.261 933.863ZM239.65 939.825C242.925 939.825 245.444 937.166 245.444 933.863C245.444 930.533 242.925 927.874 239.65 927.874C236.376 927.874 233.885 930.533 233.885 933.863C233.885 937.166 236.376 939.825 239.65 939.825ZM255.551 939.433L256.363 937.978C258.07 939.181 259.778 939.825 261.625 939.825C264.592 939.825 265.683 938.565 265.683 937.082C265.683 935.403 264.312 934.955 261.485 934.563C258.798 934.199 256.083 933.667 256.083 930.645C256.083 928.07 258.098 926.306 261.373 926.306C262.996 926.306 265.04 926.754 266.887 927.986L266.103 929.441C264.48 928.294 262.856 927.874 261.373 927.874C258.854 927.874 257.678 928.881 257.678 930.561C257.678 932.296 259.05 932.66 261.821 933.024C264.508 933.415 267.279 934.003 267.279 936.998C267.279 939.489 265.291 941.364 261.597 941.364C260.03 941.364 257.734 940.972 255.551 939.433ZM273.278 941.056H271.655V919.981H273.278V929.525C273.67 928.545 275.182 926.306 278.232 926.306C281.171 926.306 283.662 928.182 283.662 932.492V941.056H282.067V932.828C282.067 929.273 280.248 927.874 277.841 927.874C275.154 927.874 273.278 930.393 273.278 933.192V941.056ZM299.45 941.056L299.31 937.978C298.862 939.181 297.211 941.364 294.076 941.364C291.165 941.364 288.786 939.657 288.786 935.347V926.614H290.382V934.983C290.382 938.593 292.117 939.825 294.496 939.825C297.183 939.825 299.086 937.278 299.086 934.479V926.614H300.709V941.056H299.45ZM313.308 939.237L313.896 940.637C312.944 941.14 311.797 941.364 310.761 941.364C307.99 941.364 306.563 939.713 306.563 936.662V928.154H304.52V926.67H306.591V923.34H308.186V926.67H313.476V928.154H308.186V936.662C308.186 938.761 308.97 939.825 310.761 939.825C311.685 939.825 312.469 939.601 313.308 939.237ZM327.892 931.932H318.516V930.365H327.892V931.932ZM332.654 933.863C332.654 929.693 335.873 926.306 340.043 926.306C344.242 926.306 347.46 929.693 347.46 933.863C347.46 938.006 344.242 941.364 340.043 941.364C335.873 941.364 332.654 938.006 332.654 933.863ZM340.043 939.825C343.318 939.825 345.837 937.166 345.837 933.863C345.837 930.533 343.318 927.874 340.043 927.874C336.769 927.874 334.278 930.533 334.278 933.863C334.278 937.166 336.769 939.825 340.043 939.825ZM353.672 941.056H352.077V928.098H349.698V926.614H352.077V924.011C352.077 921.212 353.56 919.673 356.107 919.673C357.087 919.673 358.122 919.869 359.186 920.345L358.654 921.772C357.618 921.38 356.975 921.212 356.107 921.212C354.512 921.212 353.672 922.108 353.672 924.039V926.614H362.041V924.011C362.041 921.212 363.524 919.673 366.099 919.673C367.051 919.673 368.114 919.869 369.178 920.345L368.618 921.772C367.61 921.38 366.939 921.212 366.071 921.212C364.476 921.212 363.664 922.108 363.664 924.039V926.614H368.674V928.098H363.664V941.056H362.041V928.098H353.672V941.056ZM381.345 941.056H379.749L375.327 926.614H377.007L380.589 938.621L384.759 926.614H386.383L390.525 938.621L394.108 926.614H395.787L391.365 941.056H389.769L385.571 928.881L381.345 941.056ZM400.758 941.056H399.135V919.981H400.758V929.525C401.15 928.545 402.662 926.306 405.712 926.306C408.651 926.306 411.142 928.182 411.142 932.492V941.056H409.547V932.828C409.547 929.273 407.728 927.874 405.321 927.874C402.634 927.874 400.758 930.393 400.758 933.192V941.056ZM429.085 934.619H416.742C417.078 937.558 419.457 939.825 422.48 939.825C424.607 939.825 425.67 939.265 427.294 938.034L428.161 939.321C426.314 940.693 424.803 941.364 422.48 941.364C418.281 941.364 415.063 938.006 415.063 933.863C415.063 929.693 418.337 926.306 422.452 926.306C426.678 926.306 429.085 929.805 429.085 933.919V934.619ZM416.742 933.136H427.49C427.322 930.337 425.503 927.846 422.48 927.846C419.457 927.846 417.078 930.141 416.742 933.136ZM434.924 941.056H433.328V926.614H434.56L434.756 929.889C435.176 928.657 436.771 926.306 439.906 926.306C442.817 926.306 445.336 928.182 445.336 932.492V941.056H443.712V932.828C443.712 929.273 441.893 927.874 439.486 927.874C436.799 927.874 434.924 930.393 434.924 933.192V941.056ZM465.584 941.056H463.989L459.567 926.614H461.246L464.829 938.621L468.999 926.614H470.622L474.765 938.621L478.347 926.614H480.027L475.604 941.056H474.009L469.811 928.881L465.584 941.056ZM492.919 941.056L492.695 938.118C491.771 940.189 489.84 941.364 487.293 941.364C484.354 941.364 482.059 939.517 482.059 936.746C482.059 933.779 484.578 932.324 487.909 932.324C489.784 932.324 491.184 932.66 492.583 933.108C492.583 928.825 491.715 927.874 488.329 927.874C486.509 927.874 484.746 928.182 483.655 928.461L483.291 926.95C483.906 926.698 486.425 926.306 488.497 926.306C493.171 926.306 494.206 928.21 494.206 933.08V941.056H492.919ZM492.583 934.955V934.591C491.212 934.115 489.868 933.779 488.021 933.779C485.418 933.779 483.683 934.787 483.683 936.746C483.683 938.677 485.222 939.825 487.461 939.825C491.044 939.825 492.583 937.446 492.583 934.955ZM506.524 939.237L507.111 940.637C506.16 941.14 505.012 941.364 503.977 941.364C501.206 941.364 499.778 939.713 499.778 936.662V928.154H497.735V926.67H499.806V923.34H501.402V926.67H506.692V928.154H501.402V936.662C501.402 938.761 502.185 939.825 503.977 939.825C504.9 939.825 505.684 939.601 506.524 939.237ZM523.738 934.619H511.395C511.731 937.558 514.11 939.825 517.133 939.825C519.26 939.825 520.324 939.265 521.947 938.034L522.815 939.321C520.968 940.693 519.456 941.364 517.133 941.364C512.935 941.364 509.716 938.006 509.716 933.863C509.716 929.693 512.991 926.306 517.105 926.306C521.331 926.306 523.738 929.805 523.738 933.919V934.619ZM511.395 933.136H522.143C521.975 930.337 520.156 927.846 517.133 927.846C514.11 927.846 511.731 930.141 511.395 933.136ZM529.577 941.056H527.982V926.614H529.241L529.409 930.113C529.969 928.881 531.368 926.194 535.651 926.306L535.427 928.014C531.564 927.846 529.577 930.924 529.577 934.115V941.056ZM544.67 921.156C544.67 920.429 545.202 919.841 545.958 919.841C546.657 919.841 547.245 920.429 547.245 921.156C547.245 921.856 546.657 922.444 545.958 922.444C545.202 922.444 544.67 921.856 544.67 921.156ZM546.769 941.056H545.146V926.614H546.769V941.056ZM551.1 939.433L551.912 937.978C553.619 939.181 555.327 939.825 557.174 939.825C560.141 939.825 561.232 938.565 561.232 937.082C561.232 935.403 559.861 934.955 557.034 934.563C554.347 934.199 551.632 933.667 551.632 930.645C551.632 928.07 553.647 926.306 556.922 926.306C558.545 926.306 560.589 926.754 562.436 927.986L561.652 929.441C560.029 928.294 558.405 927.874 556.922 927.874C554.403 927.874 553.228 928.881 553.228 930.561C553.228 932.296 554.599 932.66 557.37 933.024C560.057 933.415 562.828 934.003 562.828 936.998C562.828 939.489 560.84 941.364 557.146 941.364C555.579 941.364 553.284 940.972 551.1 939.433ZM574.403 941.056H572.807V926.614H574.039L574.235 929.889C574.655 928.657 576.25 926.306 579.385 926.306C582.296 926.306 584.815 928.182 584.815 932.492V941.056H583.191V932.828C583.191 929.273 581.372 927.874 578.965 927.874C576.278 927.874 574.403 930.393 574.403 933.192V941.056ZM588.735 933.863C588.735 929.693 591.954 926.306 596.124 926.306C600.322 926.306 603.541 929.693 603.541 933.863C603.541 938.006 600.322 941.364 596.124 941.364C591.954 941.364 588.735 938.006 588.735 933.863ZM596.124 939.825C599.399 939.825 601.918 937.166 601.918 933.863C601.918 930.533 599.399 927.874 596.124 927.874C592.849 927.874 590.358 930.533 590.358 933.863C590.358 937.166 592.849 939.825 596.124 939.825ZM614.707 939.237L615.294 940.637C614.343 941.14 613.195 941.364 612.16 941.364C609.389 941.364 607.961 939.713 607.961 936.662V928.154H605.918V926.67H607.989V923.34H609.585V926.67H614.875V928.154H609.585V936.662C609.585 938.761 610.368 939.825 612.16 939.825C613.083 939.825 613.867 939.601 614.707 939.237ZM636.629 941.056L636.545 937.754C635.873 939.041 634.026 941.364 630.472 941.364C626.441 941.364 623.502 937.95 623.502 933.863C623.502 929.777 626.441 926.306 630.472 926.306C633.746 926.306 635.51 928.517 636.293 929.693V919.981H637.889V941.056H636.629ZM630.751 939.825C633.914 939.825 636.321 936.998 636.321 933.835C636.321 930.673 633.914 927.874 630.751 927.874C627.449 927.874 625.126 930.533 625.126 933.863C625.126 937.166 627.449 939.825 630.751 939.825ZM656.166 934.619H643.823C644.158 937.558 646.538 939.825 649.56 939.825C651.687 939.825 652.751 939.265 654.374 938.034L655.242 939.321C653.395 940.693 651.883 941.364 649.56 941.364C645.362 941.364 642.143 938.006 642.143 933.863C642.143 929.693 645.418 926.306 649.532 926.306C653.759 926.306 656.166 929.805 656.166 933.919V934.619ZM643.823 933.136H654.57C654.402 930.337 652.583 927.846 649.56 927.846C646.538 927.846 644.158 930.141 643.823 933.136ZM670.569 937.978L671.688 939.097C670.037 940.693 668.302 941.364 666.343 941.364C662.172 941.364 658.954 938.006 658.954 933.863C658.954 929.693 662.172 926.306 666.343 926.306C668.302 926.306 670.149 927.062 671.66 928.573L670.569 929.693C669.477 928.629 668.106 927.874 666.343 927.874C663.068 927.874 660.577 930.533 660.577 933.863C660.577 937.166 663.068 939.825 666.343 939.825C668.05 939.825 669.365 939.181 670.569 937.978ZM688.282 934.619H675.938C676.274 937.558 678.653 939.825 681.676 939.825C683.803 939.825 684.867 939.265 686.49 938.034L687.358 939.321C685.511 940.693 683.999 941.364 681.676 941.364C677.478 941.364 674.259 938.006 674.259 933.863C674.259 929.693 677.534 926.306 681.648 926.306C685.874 926.306 688.282 929.805 688.282 933.919V934.619ZM675.938 933.136H686.686C686.518 930.337 684.699 927.846 681.676 927.846C678.653 927.846 676.274 930.141 675.938 933.136ZM699.438 939.237L700.026 940.637C699.074 941.14 697.927 941.364 696.891 941.364C694.12 941.364 692.693 939.713 692.693 936.662V928.154H690.65V926.67H692.721V923.34H694.316V926.67H699.606V928.154H694.316V936.662C694.316 938.761 695.1 939.825 696.891 939.825C697.815 939.825 698.599 939.601 699.438 939.237ZM716.653 934.619H704.31C704.646 937.558 707.025 939.825 710.048 939.825C712.175 939.825 713.238 939.265 714.862 938.034L715.729 939.321C713.882 940.693 712.371 941.364 710.048 941.364C705.849 941.364 702.631 938.006 702.631 933.863C702.631 929.693 705.905 926.306 710.02 926.306C714.246 926.306 716.653 929.805 716.653 933.919V934.619ZM704.31 933.136H715.058C714.89 930.337 713.07 927.846 710.048 927.846C707.025 927.846 704.646 930.141 704.31 933.136ZM732.54 941.056L732.456 937.754C731.784 939.041 729.937 941.364 726.382 941.364C722.352 941.364 719.413 937.95 719.413 933.863C719.413 929.777 722.352 926.306 726.382 926.306C729.657 926.306 731.42 928.517 732.204 929.693V919.981H733.799V941.056H732.54ZM726.662 939.825C729.825 939.825 732.232 936.998 732.232 933.835C732.232 930.673 729.825 927.874 726.662 927.874C723.359 927.874 721.036 930.533 721.036 933.863C721.036 937.166 723.359 939.825 726.662 939.825Z" fill="#FFAF5F"/>
<line x1="-38" y1="960" x2="957" y2="960" stroke="#FFAF5F" stroke-width="2"/>
</g>
</g>
<defs>
<clipPath id="clip0_2043_2">
<rect width="1000" height="1350" fill="white"/>
</clipPath>
<clipPath id="clip1_2043_2">
<rect width="877" height="1184" fill="white" transform="translate(61 -60)"/>
</clipPath>
</defs>
</svg>
