<svg width="1000" height="1351" viewBox="0 0 1000 1351" fill="none" xmlns="http://www.w3.org/2000/svg">
<g clip-path="url(#clip0_2045_29)">
<g clip-path="url(#clip1_2045_29)">
<g clip-path="url(#clip2_2045_29)">
<path d="M352.077 340.639L353.226 341.906C351.34 344.057 348.335 345.383 345.388 345.383C339.496 345.383 334.84 340.639 334.84 334.688C334.84 328.736 339.496 323.992 345.388 323.992C348.423 323.992 351.34 325.348 353.285 327.469L352.047 328.765C350.662 327.145 348.335 325.642 345.388 325.642C340.439 325.642 336.579 329.797 336.579 334.688C336.579 339.579 340.439 343.733 345.388 343.733C348.335 343.733 350.574 342.319 352.077 340.639ZM356.043 337.428C356.043 333.038 359.431 329.473 363.821 329.473C368.241 329.473 371.629 333.038 371.629 337.428C371.629 341.788 368.241 345.324 363.821 345.324C359.431 345.324 356.043 341.788 356.043 337.428ZM363.821 343.704C367.269 343.704 369.92 340.905 369.92 337.428C369.92 333.922 367.269 331.123 363.821 331.123C360.374 331.123 357.752 333.922 357.752 337.428C357.752 340.905 360.374 343.704 363.821 343.704ZM377.785 345H376.105V329.797H377.402L377.608 333.244C378.05 331.948 379.729 329.473 383.029 329.473C386.094 329.473 388.745 331.447 388.745 335.984V345H387.036V336.338C387.036 332.596 385.121 331.123 382.587 331.123C379.759 331.123 377.785 333.774 377.785 336.721V345ZM405.129 341.759L406.308 342.938C404.569 344.617 402.743 345.324 400.68 345.324C396.29 345.324 392.902 341.788 392.902 337.428C392.902 333.038 396.29 329.473 400.68 329.473C402.743 329.473 404.687 330.268 406.278 331.859L405.129 333.038C403.98 331.918 402.536 331.123 400.68 331.123C397.233 331.123 394.611 333.922 394.611 337.428C394.611 340.905 397.233 343.704 400.68 343.704C402.478 343.704 403.862 343.026 405.129 341.759ZM423.775 338.223H410.782C411.135 341.317 413.64 343.704 416.822 343.704C419.061 343.704 420.181 343.114 421.89 341.818L422.803 343.173C420.859 344.617 419.267 345.324 416.822 345.324C412.402 345.324 409.014 341.788 409.014 337.428C409.014 333.038 412.461 329.473 416.793 329.473C421.242 329.473 423.775 333.156 423.775 337.487V338.223ZM410.782 336.662H422.096C421.919 333.715 420.004 331.093 416.822 331.093C413.64 331.093 411.135 333.509 410.782 336.662ZM438.462 345L438.227 341.906C437.254 344.087 435.221 345.324 432.54 345.324C429.446 345.324 427.03 343.379 427.03 340.463C427.03 337.339 429.682 335.807 433.188 335.807C435.162 335.807 436.636 336.161 438.109 336.632C438.109 332.124 437.195 331.123 433.63 331.123C431.715 331.123 429.859 331.447 428.71 331.741L428.327 330.15C428.975 329.885 431.627 329.473 433.807 329.473C438.727 329.473 439.818 331.476 439.818 336.603V345H438.462ZM438.109 338.577V338.194C436.665 337.693 435.251 337.339 433.306 337.339C430.566 337.339 428.739 338.4 428.739 340.463C428.739 342.496 430.36 343.704 432.717 343.704C436.488 343.704 438.109 341.199 438.109 338.577ZM447.186 345H445.477V322.814H447.186V345ZM466.389 338.223H453.395C453.749 341.317 456.253 343.704 459.435 343.704C461.674 343.704 462.794 343.114 464.503 341.818L465.416 343.173C463.472 344.617 461.881 345.324 459.435 345.324C455.016 345.324 451.627 341.788 451.627 337.428C451.627 333.038 455.074 329.473 459.406 329.473C463.855 329.473 466.389 333.156 466.389 337.487V338.223ZM453.395 336.662H464.709C464.532 333.715 462.617 331.093 459.435 331.093C456.253 331.093 453.749 333.509 453.395 336.662ZM483.112 345L483.024 341.523C482.317 342.879 480.372 345.324 476.63 345.324C472.388 345.324 469.294 341.73 469.294 337.428C469.294 333.126 472.388 329.473 476.63 329.473C480.078 329.473 481.934 331.8 482.759 333.038V322.814H484.438V345H483.112ZM476.925 343.704C480.254 343.704 482.788 340.728 482.788 337.398C482.788 334.069 480.254 331.123 476.925 331.123C473.448 331.123 471.003 333.922 471.003 337.428C471.003 340.905 473.448 343.704 476.925 343.704ZM498.086 345H496.377V322.814H498.086V332.861C498.499 331.83 500.09 329.473 503.301 329.473C506.395 329.473 509.017 331.447 509.017 335.984V345H507.338V336.338C507.338 332.596 505.423 331.123 502.889 331.123C500.06 331.123 498.086 333.774 498.086 336.721V345ZM527.905 338.223H514.912C515.266 341.317 517.77 343.704 520.952 343.704C523.191 343.704 524.311 343.114 526.02 341.818L526.933 343.173C524.989 344.617 523.398 345.324 520.952 345.324C516.532 345.324 513.144 341.788 513.144 337.428C513.144 333.038 516.591 329.473 520.923 329.473C525.372 329.473 527.905 333.156 527.905 337.487V338.223ZM514.912 336.662H526.226C526.049 333.715 524.134 331.093 520.952 331.093C517.77 331.093 515.266 333.509 514.912 336.662ZM542.592 345L542.357 341.906C541.384 344.087 539.351 345.324 536.67 345.324C533.576 345.324 531.16 343.379 531.16 340.463C531.16 337.339 533.812 335.807 537.318 335.807C539.292 335.807 540.766 336.161 542.239 336.632C542.239 332.124 541.325 331.123 537.76 331.123C535.845 331.123 533.989 331.447 532.84 331.741L532.457 330.15C533.105 329.885 535.757 329.473 537.937 329.473C542.857 329.473 543.948 331.476 543.948 336.603V345H542.592ZM542.239 338.577V338.194C540.795 337.693 539.381 337.339 537.436 337.339C534.696 337.339 532.869 338.4 532.869 340.463C532.869 342.496 534.49 343.704 536.847 343.704C540.618 343.704 542.239 341.199 542.239 338.577ZM556.914 343.085L557.533 344.558C556.531 345.088 555.323 345.324 554.233 345.324C551.316 345.324 549.813 343.586 549.813 340.374V331.417H547.662V329.856H549.843V326.349H551.522V329.856H557.091V331.417H551.522V340.374C551.522 342.584 552.347 343.704 554.233 343.704C555.205 343.704 556.03 343.468 556.914 343.085ZM561.306 324.051C561.306 323.285 561.866 322.666 562.661 322.666C563.398 322.666 564.017 323.285 564.017 324.051C564.017 324.788 563.398 325.407 562.661 325.407C561.866 325.407 561.306 324.788 561.306 324.051ZM563.516 345H561.807V329.797H563.516V345ZM571.198 345H569.519V329.797H570.815L571.021 333.244C571.463 331.948 573.143 329.473 576.443 329.473C579.507 329.473 582.159 331.447 582.159 335.984V345H580.45V336.338C580.45 332.596 578.535 331.123 576.001 331.123C573.172 331.123 571.198 333.774 571.198 336.721V345ZM588.466 349.92L588.996 348.3C590.204 348.83 591.825 349.361 593.917 349.361C598.867 349.361 599.751 346.414 599.751 342.938V341.405C598.926 342.672 597.069 344.882 593.622 344.882C589.379 344.882 586.286 341.523 586.286 337.222C586.286 332.92 589.379 329.473 593.622 329.473C597.364 329.473 599.309 331.948 600.016 333.303L600.104 329.797H601.43V342.82C601.43 348.182 599.338 350.981 593.976 350.981C591.471 350.981 589.497 350.333 588.466 349.92ZM593.917 343.262C597.246 343.262 599.78 340.522 599.78 337.222C599.78 334.01 597.246 331.123 593.917 331.123C590.44 331.123 587.995 333.745 587.995 337.222C587.995 340.728 590.44 343.262 593.917 343.262ZM626.569 338.223H613.575C613.929 341.317 616.433 343.704 619.615 343.704C621.855 343.704 622.974 343.114 624.683 341.818L625.597 343.173C623.652 344.617 622.061 345.324 619.615 345.324C615.196 345.324 611.807 341.788 611.807 337.428C611.807 333.038 615.255 329.473 619.586 329.473C624.035 329.473 626.569 333.156 626.569 337.487V338.223ZM613.575 336.662H624.889C624.713 333.715 622.797 331.093 619.615 331.093C616.433 331.093 613.929 333.509 613.575 336.662ZM632.715 345H631.006V322.814H632.715V345ZM651.918 338.223H638.924C639.278 341.317 641.782 343.704 644.964 343.704C647.204 343.704 648.323 343.114 650.032 341.818L650.946 343.173C649.001 344.617 647.41 345.324 644.964 345.324C640.545 345.324 637.156 341.788 637.156 337.428C637.156 333.038 640.604 329.473 644.935 329.473C649.384 329.473 651.918 333.156 651.918 337.487V338.223ZM638.924 336.662H650.238C650.062 333.715 648.146 331.093 644.964 331.093C641.782 331.093 639.278 333.509 638.924 336.662ZM658.064 345H656.385V329.797H657.711L657.858 333.244C658.33 331.948 659.714 329.473 663.014 329.473C665.43 329.473 667.228 330.681 667.846 333.421C668.347 331.83 669.85 329.473 673.091 329.473C676.155 329.473 678.218 331.447 678.218 335.984V345H676.509V336.338C676.509 332.596 675.183 331.123 672.649 331.123C670.115 331.123 668.465 333.273 668.141 335.866V345H666.462V336.338C666.462 332.596 665.106 331.123 662.572 331.123C659.744 331.123 658.064 333.774 658.064 336.721V345ZM697.121 338.223H684.127C684.481 341.317 686.985 343.704 690.167 343.704C692.406 343.704 693.526 343.114 695.235 341.818L696.148 343.173C694.204 344.617 692.613 345.324 690.167 345.324C685.748 345.324 682.359 341.788 682.359 337.428C682.359 333.038 685.807 329.473 690.138 329.473C694.587 329.473 697.121 333.156 697.121 337.487V338.223ZM684.127 336.662H695.441C695.264 333.715 693.349 331.093 690.167 331.093C686.985 331.093 684.481 333.509 684.127 336.662ZM703.267 345H701.588V329.797H702.884L703.09 333.244C703.532 331.948 705.212 329.473 708.512 329.473C711.576 329.473 714.227 331.447 714.227 335.984V345H712.519V336.338C712.519 332.596 710.603 331.123 708.07 331.123C705.241 331.123 703.267 333.774 703.267 336.721V345ZM727.194 343.085L727.812 344.558C726.811 345.088 725.603 345.324 724.512 345.324C721.595 345.324 720.093 343.586 720.093 340.374V331.417H717.942V329.856H720.122V326.349H721.802V329.856H727.37V331.417H721.802V340.374C721.802 342.584 722.627 343.704 724.512 343.704C725.485 343.704 726.31 343.468 727.194 343.085Z" fill="#FFAF5F"/>
<line x1="30" y1="358.897" x2="989.128" y2="358.898" stroke="#FFAF5F" stroke-width="2"/>
<path d="M113.164 832.128H111.249L120.442 811.503H121.856L131.049 832.128H129.104L126.658 826.648H115.61L113.164 832.128ZM121.119 814.302L116.376 824.909H125.892L121.149 814.302H121.119ZM145.431 832.128L145.284 828.887C144.812 830.154 143.074 832.452 139.774 832.452C136.71 832.452 134.206 830.655 134.206 826.117V816.925H135.885V825.734C135.885 829.535 137.712 830.832 140.216 830.832C143.045 830.832 145.048 828.15 145.048 825.204V816.925H146.757V832.128H145.431ZM160.02 830.213L160.639 831.686C159.637 832.216 158.429 832.452 157.339 832.452C154.422 832.452 152.919 830.714 152.919 827.502V818.545H150.768V816.984H152.949V813.477H154.628V816.984H160.197V818.545H154.628V827.502C154.628 829.712 155.453 830.832 157.339 830.832C158.311 830.832 159.136 830.596 160.02 830.213ZM163.381 824.556C163.381 820.166 166.769 816.601 171.159 816.601C175.579 816.601 178.967 820.166 178.967 824.556C178.967 828.916 175.579 832.452 171.159 832.452C166.769 832.452 163.381 828.916 163.381 824.556ZM171.159 830.832C174.606 830.832 177.258 828.032 177.258 824.556C177.258 821.05 174.606 818.251 171.159 818.251C167.712 818.251 165.089 821.05 165.089 824.556C165.089 828.032 167.712 830.832 171.159 830.832ZM185.123 832.128H183.443V816.925H184.769L184.916 820.372C185.388 819.076 186.773 816.601 190.073 816.601C192.489 816.601 194.286 817.809 194.905 820.549C195.406 818.958 196.908 816.601 200.149 816.601C203.213 816.601 205.276 818.575 205.276 823.112V832.128H203.567V823.466C203.567 819.724 202.241 818.251 199.707 818.251C197.173 818.251 195.523 820.401 195.199 822.994V832.128H193.52V823.466C193.52 819.724 192.165 818.251 189.631 818.251C186.802 818.251 185.123 820.902 185.123 823.849V832.128ZM209.418 824.556C209.418 820.166 212.806 816.601 217.196 816.601C221.616 816.601 225.004 820.166 225.004 824.556C225.004 828.916 221.616 832.452 217.196 832.452C212.806 832.452 209.418 828.916 209.418 824.556ZM217.196 830.832C220.643 830.832 223.295 828.032 223.295 824.556C223.295 821.05 220.643 818.251 217.196 818.251C213.749 818.251 211.127 821.05 211.127 824.556C211.127 828.032 213.749 830.832 217.196 830.832ZM236.758 830.213L237.377 831.686C236.375 832.216 235.167 832.452 234.077 832.452C231.16 832.452 229.657 830.714 229.657 827.502V818.545H227.506V816.984H229.687V813.477H231.366V816.984H236.935V818.545H231.366V827.502C231.366 829.712 232.191 830.832 234.077 830.832C235.049 830.832 235.874 830.596 236.758 830.213ZM241.15 811.179C241.15 810.413 241.71 809.794 242.505 809.794C243.242 809.794 243.861 810.413 243.861 811.179C243.861 811.916 243.242 812.535 242.505 812.535C241.71 812.535 241.15 811.916 241.15 811.179ZM243.36 832.128H241.651V816.925H243.36V832.128ZM254.784 832.128H253.075L246.799 816.925H248.626L253.9 829.889H253.959L259.233 816.925H261.03L254.784 832.128ZM277.64 825.351H264.646C265 828.445 267.504 830.832 270.686 830.832C272.925 830.832 274.045 830.242 275.754 828.946L276.667 830.301C274.723 831.745 273.132 832.452 270.686 832.452C266.267 832.452 262.878 828.916 262.878 824.556C262.878 820.166 266.325 816.601 270.657 816.601C275.106 816.601 277.64 820.284 277.64 824.615V825.351ZM264.646 823.79H275.96C275.783 820.843 273.868 818.221 270.686 818.221C267.504 818.221 265 820.637 264.646 823.79ZM286.797 830.007L287.769 828.504C289.92 830.007 292.454 830.861 294.752 830.861C298.406 830.861 300.645 829.152 300.645 826.471C300.645 823.672 297.875 823.083 294.929 822.611C291.275 821.992 287.327 821.727 287.327 817.131C287.327 813.507 290.392 811.12 294.634 811.12C297.257 811.12 299.201 811.621 301.794 813.183L300.91 814.685C298.671 813.301 296.785 812.77 294.693 812.77C291.334 812.77 289.036 814.361 289.036 817.131C289.036 820.077 291.806 820.313 294.929 820.784C298.465 821.315 302.354 822.051 302.354 826.412C302.354 830.095 299.407 832.511 294.841 832.511C291.983 832.511 289.154 831.686 286.797 830.007ZM314.474 830.213L315.093 831.686C314.091 832.216 312.883 832.452 311.793 832.452C308.876 832.452 307.373 830.714 307.373 827.502V818.545H305.223V816.984H307.403V813.477H309.082V816.984H314.651V818.545H309.082V827.502C309.082 829.712 309.907 830.832 311.793 830.832C312.765 830.832 313.59 830.596 314.474 830.213ZM329.674 832.128L329.438 829.034C328.466 831.215 326.433 832.452 323.752 832.452C320.658 832.452 318.242 830.507 318.242 827.591C318.242 824.467 320.894 822.935 324.4 822.935C326.374 822.935 327.847 823.289 329.32 823.76C329.32 819.252 328.407 818.251 324.842 818.251C322.927 818.251 321.07 818.575 319.921 818.869L319.538 817.278C320.187 817.013 322.838 816.601 325.019 816.601C329.939 816.601 331.029 818.604 331.029 823.731V832.128H329.674ZM329.32 825.705V825.322C327.877 824.821 326.462 824.467 324.518 824.467C321.778 824.467 319.951 825.528 319.951 827.591C319.951 829.624 321.571 830.832 323.928 830.832C327.7 830.832 329.32 828.327 329.32 825.705ZM336.188 811.179C336.188 810.413 336.747 809.794 337.543 809.794C338.279 809.794 338.898 810.413 338.898 811.179C338.898 811.916 338.279 812.535 337.543 812.535C336.747 812.535 336.188 811.916 336.188 811.179ZM338.397 832.128H336.688V816.925H338.397V832.128ZM346.08 832.128H344.4V816.925H345.697L345.903 820.372C346.345 819.076 348.024 816.601 351.324 816.601C354.389 816.601 357.04 818.575 357.04 823.112V832.128H355.331V823.466C355.331 819.724 353.416 818.251 350.882 818.251C348.054 818.251 346.08 820.902 346.08 823.849V832.128ZM364.408 832.128H362.699V809.942H364.408V832.128ZM383.611 825.351H370.618C370.971 828.445 373.476 830.832 376.658 830.832C378.897 830.832 380.017 830.242 381.725 828.946L382.639 830.301C380.694 831.745 379.103 832.452 376.658 832.452C372.238 832.452 368.85 828.916 368.85 824.556C368.85 820.166 372.297 816.601 376.628 816.601C381.077 816.601 383.611 820.284 383.611 824.615V825.351ZM370.618 823.79H381.932C381.755 820.843 379.84 818.221 376.658 818.221C373.476 818.221 370.971 820.637 370.618 823.79ZM386.634 830.419L387.489 828.887C389.286 830.154 391.083 830.832 393.028 830.832C396.151 830.832 397.3 829.506 397.3 827.944C397.3 826.176 395.856 825.705 392.881 825.292C390.052 824.909 387.194 824.35 387.194 821.167C387.194 818.457 389.315 816.601 392.763 816.601C394.472 816.601 396.622 817.072 398.567 818.368L397.742 819.9C396.033 818.692 394.324 818.251 392.763 818.251C390.111 818.251 388.873 819.311 388.873 821.079C388.873 822.906 390.317 823.289 393.234 823.672C396.063 824.084 398.98 824.703 398.98 827.856C398.98 830.478 396.888 832.452 392.998 832.452C391.348 832.452 388.932 832.04 386.634 830.419ZM402.143 830.419L402.998 828.887C404.795 830.154 406.592 830.832 408.537 830.832C411.66 830.832 412.809 829.506 412.809 827.944C412.809 826.176 411.365 825.705 408.389 825.292C405.561 824.909 402.703 824.35 402.703 821.167C402.703 818.457 404.824 816.601 408.272 816.601C409.981 816.601 412.131 817.072 414.076 818.368L413.251 819.9C411.542 818.692 409.833 818.251 408.272 818.251C405.62 818.251 404.382 819.311 404.382 821.079C404.382 822.906 405.826 823.289 408.743 823.672C411.572 824.084 414.488 824.703 414.488 827.856C414.488 830.478 412.397 832.452 408.507 832.452C406.857 832.452 404.441 832.04 402.143 830.419ZM423.55 830.419L424.405 828.887C426.202 830.154 427.999 830.832 429.944 830.832C433.067 830.832 434.216 829.506 434.216 827.944C434.216 826.176 432.772 825.705 429.797 825.292C426.968 824.909 424.11 824.35 424.11 821.167C424.11 818.457 426.232 816.601 429.679 816.601C431.388 816.601 433.539 817.072 435.483 818.368L434.658 819.9C432.949 818.692 431.24 818.251 429.679 818.251C427.027 818.251 425.79 819.311 425.79 821.079C425.79 822.906 427.233 823.289 430.15 823.672C432.979 824.084 435.896 824.703 435.896 827.856C435.896 830.478 433.804 832.452 429.915 832.452C428.265 832.452 425.849 832.04 423.55 830.419ZM447.78 830.213L448.399 831.686C447.397 832.216 446.189 832.452 445.099 832.452C442.182 832.452 440.68 830.714 440.68 827.502V818.545H438.529V816.984H440.709V813.477H442.389V816.984H447.957V818.545H442.389V827.502C442.389 829.712 443.213 830.832 445.099 830.832C446.071 830.832 446.896 830.596 447.78 830.213ZM465.902 825.351H452.909C453.262 828.445 455.767 830.832 458.949 830.832C461.188 830.832 462.308 830.242 464.017 828.946L464.93 830.301C462.985 831.745 461.394 832.452 458.949 832.452C454.529 832.452 451.141 828.916 451.141 824.556C451.141 820.166 454.588 816.601 458.919 816.601C463.368 816.601 465.902 820.284 465.902 824.615V825.351ZM452.909 823.79H464.223C464.046 820.843 462.131 818.221 458.949 818.221C455.767 818.221 453.262 820.637 452.909 823.79ZM483.569 825.351H470.576C470.929 828.445 473.434 830.832 476.616 830.832C478.855 830.832 479.975 830.242 481.683 828.946L482.597 830.301C480.652 831.745 479.061 832.452 476.616 832.452C472.196 832.452 468.808 828.916 468.808 824.556C468.808 820.166 472.255 816.601 476.586 816.601C481.035 816.601 483.569 820.284 483.569 824.615V825.351ZM470.576 823.79H481.89C481.713 820.843 479.798 818.221 476.616 818.221C473.434 818.221 470.929 820.637 470.576 823.79ZM489.716 832.128H488.007V809.942H489.716V832.128ZM503.296 832.128H501.617V816.925H502.943L503.09 820.372C503.562 819.076 504.946 816.601 508.246 816.601C510.662 816.601 512.46 817.809 513.078 820.549C513.579 818.958 515.082 816.601 518.323 816.601C521.387 816.601 523.45 818.575 523.45 823.112V832.128H521.741V823.466C521.741 819.724 520.415 818.251 517.881 818.251C515.347 818.251 513.697 820.401 513.373 822.994V832.128H511.693V823.466C511.693 819.724 510.338 818.251 507.804 818.251C504.976 818.251 503.296 820.902 503.296 823.849V832.128ZM539.2 832.128L538.964 829.034C537.992 831.215 535.959 832.452 533.278 832.452C530.184 832.452 527.768 830.507 527.768 827.591C527.768 824.467 530.42 822.935 533.926 822.935C535.9 822.935 537.373 823.289 538.846 823.76C538.846 819.252 537.933 818.251 534.368 818.251C532.453 818.251 530.597 818.575 529.447 818.869L529.064 817.278C529.713 817.013 532.364 816.601 534.545 816.601C539.465 816.601 540.555 818.604 540.555 823.731V832.128H539.2ZM538.846 825.705V825.322C537.403 824.821 535.988 824.467 534.044 824.467C531.304 824.467 529.477 825.528 529.477 827.591C529.477 829.624 531.097 830.832 533.455 830.832C537.226 830.832 538.846 828.327 538.846 825.705ZM553.522 830.213L554.14 831.686C553.139 832.216 551.931 832.452 550.841 832.452C547.924 832.452 546.421 830.714 546.421 827.502V818.545H544.27V816.984H546.45V813.477H548.13V816.984H553.698V818.545H548.13V827.502C548.13 829.712 548.955 830.832 550.841 830.832C551.813 830.832 552.638 830.596 553.522 830.213ZM565.722 830.213L566.34 831.686C565.339 832.216 564.131 832.452 563.04 832.452C560.123 832.452 558.621 830.714 558.621 827.502V818.545H556.47V816.984H558.65V813.477H560.33V816.984H565.898V818.545H560.33V827.502C560.33 829.712 561.155 830.832 563.04 830.832C564.013 830.832 564.838 830.596 565.722 830.213ZM583.844 825.351H570.85C571.204 828.445 573.708 830.832 576.89 830.832C579.129 830.832 580.249 830.242 581.958 828.946L582.871 830.301C580.927 831.745 579.336 832.452 576.89 832.452C572.471 832.452 569.082 828.916 569.082 824.556C569.082 820.166 572.53 816.601 576.861 816.601C581.31 816.601 583.844 820.284 583.844 824.615V825.351ZM570.85 823.79H582.164C581.987 820.843 580.072 818.221 576.89 818.221C573.708 818.221 571.204 820.637 570.85 823.79ZM595.888 837.785H594.209V816.925H595.535L595.623 820.401C596.33 819.076 598.275 816.601 602.017 816.601C606.26 816.601 609.353 820.225 609.353 824.526C609.353 828.828 606.26 832.452 602.017 832.452C598.57 832.452 596.713 830.154 595.888 828.887V837.785ZM601.722 830.832C605.199 830.832 607.644 828.032 607.644 824.526C607.644 821.05 605.199 818.251 601.722 818.251C598.393 818.251 595.888 821.197 595.888 824.526C595.888 827.856 598.393 830.832 601.722 830.832ZM612.271 824.556C612.271 820.166 615.659 816.601 620.049 816.601C624.469 816.601 627.857 820.166 627.857 824.556C627.857 828.916 624.469 832.452 620.049 832.452C615.659 832.452 612.271 828.916 612.271 824.556ZM620.049 830.832C623.496 830.832 626.148 828.032 626.148 824.556C626.148 821.05 623.496 818.251 620.049 818.251C616.602 818.251 613.98 821.05 613.98 824.556C613.98 828.032 616.602 830.832 620.049 830.832ZM636.164 832.128H634.484L629.829 816.925H631.597L635.368 829.565L639.758 816.925H641.467L645.828 829.565L649.599 816.925H651.367L646.712 832.128H645.032L640.613 819.311L636.164 832.128ZM667.148 832.128L667.06 828.651C666.353 830.007 664.408 832.452 660.666 832.452C656.424 832.452 653.33 828.857 653.33 824.556C653.33 820.254 656.424 816.601 660.666 816.601C664.114 816.601 665.97 818.928 666.795 820.166V809.942H668.474V832.128H667.148ZM660.961 830.832C664.291 830.832 666.824 827.856 666.824 824.526C666.824 821.197 664.291 818.251 660.961 818.251C657.484 818.251 655.039 821.05 655.039 824.556C655.039 828.032 657.484 830.832 660.961 830.832ZM687.715 825.351H674.721C675.075 828.445 677.579 830.832 680.761 830.832C683 830.832 684.12 830.242 685.829 828.946L686.742 830.301C684.798 831.745 683.207 832.452 680.761 832.452C676.342 832.452 672.953 828.916 672.953 824.556C672.953 820.166 676.401 816.601 680.732 816.601C685.181 816.601 687.715 820.284 687.715 824.615V825.351ZM674.721 823.79H686.035C685.858 820.843 683.943 818.221 680.761 818.221C677.579 818.221 675.075 820.637 674.721 823.79ZM693.861 832.128H692.182V816.925H693.507L693.684 820.608C694.274 819.311 695.747 816.483 700.255 816.601L700.019 818.398C695.953 818.221 693.861 821.462 693.861 824.821V832.128ZM720.975 828.887L722.154 830.065C720.416 831.745 718.589 832.452 716.526 832.452C712.136 832.452 708.748 828.916 708.748 824.556C708.748 820.166 712.136 816.601 716.526 816.601C718.589 816.601 720.534 817.396 722.125 818.987L720.975 820.166C719.826 819.046 718.383 818.251 716.526 818.251C713.079 818.251 710.457 821.05 710.457 824.556C710.457 828.032 713.079 830.832 716.526 830.832C718.324 830.832 719.709 830.154 720.975 828.887ZM724.86 824.556C724.86 820.166 728.248 816.601 732.638 816.601C737.058 816.601 740.446 820.166 740.446 824.556C740.446 828.916 737.058 832.452 732.638 832.452C728.248 832.452 724.86 828.916 724.86 824.556ZM732.638 830.832C736.086 830.832 738.737 828.032 738.737 824.556C738.737 821.05 736.086 818.251 732.638 818.251C729.191 818.251 726.569 821.05 726.569 824.556C726.569 828.032 729.191 830.832 732.638 830.832ZM755.143 832.128L754.907 829.034C753.935 831.215 751.902 832.452 749.22 832.452C746.127 832.452 743.711 830.507 743.711 827.591C743.711 824.467 746.362 822.935 749.869 822.935C751.843 822.935 753.316 823.289 754.789 823.76C754.789 819.252 753.876 818.251 750.31 818.251C748.395 818.251 746.539 818.575 745.39 818.869L745.007 817.278C745.655 817.013 748.307 816.601 750.487 816.601C755.408 816.601 756.498 818.604 756.498 823.731V832.128H755.143ZM754.789 825.705V825.322C753.345 824.821 751.931 824.467 749.986 824.467C747.246 824.467 745.419 825.528 745.419 827.591C745.419 829.624 747.04 830.832 749.397 830.832C753.168 830.832 754.789 828.327 754.789 825.705ZM769.464 830.213L770.083 831.686C769.081 832.216 767.873 832.452 766.783 832.452C763.866 832.452 762.364 830.714 762.364 827.502V818.545H760.213V816.984H762.393V813.477H764.072V816.984H769.641V818.545H764.072V827.502C764.072 829.712 764.897 830.832 766.783 830.832C767.755 830.832 768.58 830.596 769.464 830.213ZM787.586 825.351H774.593C774.946 828.445 777.451 830.832 780.633 830.832C782.872 830.832 783.992 830.242 785.701 828.946L786.614 830.301C784.669 831.745 783.078 832.452 780.633 832.452C776.213 832.452 772.825 828.916 772.825 824.556C772.825 820.166 776.272 816.601 780.603 816.601C785.052 816.601 787.586 820.284 787.586 824.615V825.351ZM774.593 823.79H785.907C785.73 820.843 783.815 818.221 780.633 818.221C777.451 818.221 774.946 820.637 774.593 823.79ZM804.31 832.128L804.222 828.651C803.515 830.007 801.57 832.452 797.828 832.452C793.585 832.452 790.492 828.857 790.492 824.556C790.492 820.254 793.585 816.601 797.828 816.601C801.275 816.601 803.132 818.928 803.956 820.166V809.942H805.636V832.128H804.31ZM798.123 830.832C801.452 830.832 803.986 827.856 803.986 824.526C803.986 821.197 801.452 818.251 798.123 818.251C794.646 818.251 792.2 821.05 792.2 824.556C792.2 828.032 794.646 830.832 798.123 830.832ZM818.901 832.128H817.575V809.942H819.254V820.166C820.079 818.928 821.936 816.601 825.383 816.601C829.626 816.601 832.719 820.254 832.719 824.556C832.719 828.857 829.626 832.452 825.383 832.452C821.641 832.452 819.696 830.007 818.989 828.651L818.901 832.128ZM825.088 830.832C828.565 830.832 831.01 828.032 831.01 824.556C831.01 821.05 828.565 818.251 825.088 818.251C821.759 818.251 819.254 821.197 819.254 824.526C819.254 827.856 821.759 830.832 825.088 830.832ZM835.637 824.556C835.637 820.166 839.025 816.601 843.415 816.601C847.835 816.601 851.223 820.166 851.223 824.556C851.223 828.916 847.835 832.452 843.415 832.452C839.025 832.452 835.637 828.916 835.637 824.556ZM843.415 830.832C846.863 830.832 849.514 828.032 849.514 824.556C849.514 821.05 846.863 818.251 843.415 818.251C839.968 818.251 837.346 821.05 837.346 824.556C837.346 828.032 839.968 830.832 843.415 830.832ZM867.956 832.128L867.868 828.651C867.161 830.007 865.216 832.452 861.474 832.452C857.232 832.452 854.138 828.857 854.138 824.556C854.138 820.254 857.232 816.601 861.474 816.601C864.922 816.601 866.778 818.928 867.603 820.166V809.942H869.282V832.128H867.956ZM861.769 830.832C865.098 830.832 867.632 827.856 867.632 824.526C867.632 821.197 865.098 818.251 861.769 818.251C858.292 818.251 855.847 821.05 855.847 824.556C855.847 828.032 858.292 830.832 861.769 830.832ZM878.387 837.785H876.59L878.947 832.01L872.76 816.925H874.557L879.831 829.889H879.89L885.164 816.925H886.961L878.387 837.785Z" fill="#FFAF5F"/>
<line x1="30" y1="846.025" x2="989.128" y2="846.025" stroke="#FFAF5F" stroke-width="2"/>
<path d="M406.365 437.46L407.514 438.727C405.628 440.878 402.623 442.204 399.677 442.204C393.784 442.204 389.129 437.46 389.129 431.508C389.129 425.557 393.784 420.813 399.677 420.813C402.711 420.813 405.628 422.168 407.573 424.29L406.335 425.586C404.951 423.966 402.623 422.463 399.677 422.463C394.727 422.463 390.867 426.617 390.867 431.508C390.867 436.399 394.727 440.554 399.677 440.554C402.623 440.554 404.862 439.139 406.365 437.46ZM422.285 441.821L422.049 438.727C421.077 440.907 419.044 442.145 416.363 442.145C413.269 442.145 410.853 440.2 410.853 437.283C410.853 434.16 413.505 432.628 417.011 432.628C418.985 432.628 420.458 432.981 421.931 433.453C421.931 428.945 421.018 427.943 417.453 427.943C415.538 427.943 413.682 428.267 412.532 428.562L412.149 426.971C412.798 426.706 415.449 426.293 417.63 426.293C422.55 426.293 423.64 428.297 423.64 433.423V441.821H422.285ZM421.931 435.397V435.014C420.488 434.514 419.073 434.16 417.129 434.16C414.389 434.16 412.562 435.221 412.562 437.283C412.562 439.316 414.182 440.524 416.54 440.524C420.311 440.524 421.931 438.02 421.931 435.397ZM431.009 447.478H429.329V426.617H430.655L430.743 430.094C431.45 428.768 433.395 426.293 437.137 426.293C441.38 426.293 444.473 429.917 444.473 434.219C444.473 438.521 441.38 442.145 437.137 442.145C433.69 442.145 431.834 439.846 431.009 438.58V447.478ZM436.842 440.524C440.319 440.524 442.765 437.725 442.765 434.219C442.765 430.742 440.319 427.943 436.842 427.943C433.513 427.943 431.009 430.89 431.009 434.219C431.009 437.548 433.513 440.524 436.842 440.524ZM459.172 441.821L458.936 438.727C457.964 440.907 455.931 442.145 453.25 442.145C450.156 442.145 447.74 440.2 447.74 437.283C447.74 434.16 450.392 432.628 453.898 432.628C455.872 432.628 457.345 432.981 458.819 433.453C458.819 428.945 457.905 427.943 454.34 427.943C452.425 427.943 450.569 428.267 449.42 428.562L449.037 426.971C449.685 426.706 452.337 426.293 454.517 426.293C459.437 426.293 460.527 428.297 460.527 433.423V441.821H459.172ZM458.819 435.397V435.014C457.375 434.514 455.961 434.16 454.016 434.16C451.276 434.16 449.449 435.221 449.449 437.283C449.449 439.316 451.07 440.524 453.427 440.524C457.198 440.524 458.819 438.02 458.819 435.397ZM476.912 438.58L478.09 439.758C476.352 441.438 474.525 442.145 472.463 442.145C468.073 442.145 464.684 438.609 464.684 434.248C464.684 429.858 468.073 426.293 472.463 426.293C474.525 426.293 476.47 427.089 478.061 428.68L476.912 429.858C475.763 428.739 474.319 427.943 472.463 427.943C469.015 427.943 466.393 430.742 466.393 434.248C466.393 437.725 469.015 440.524 472.463 440.524C474.26 440.524 475.645 439.846 476.912 438.58ZM481.828 420.872C481.828 420.106 482.387 419.487 483.183 419.487C483.92 419.487 484.538 420.106 484.538 420.872C484.538 421.608 483.92 422.227 483.183 422.227C482.387 422.227 481.828 421.608 481.828 420.872ZM484.037 441.821H482.329V426.617H484.037V441.821ZM497.318 439.905L497.937 441.379C496.935 441.909 495.727 442.145 494.637 442.145C491.72 442.145 490.217 440.406 490.217 437.195V428.238H488.066V426.676H490.247V423.17H491.926V426.676H497.495V428.238H491.926V437.195C491.926 439.405 492.751 440.524 494.637 440.524C495.609 440.524 496.434 440.288 497.318 439.905ZM505.305 447.478H503.507L505.864 441.703L499.677 426.617H501.474L506.748 439.581H506.807L512.081 426.617H513.878L505.305 447.478ZM521.654 434.248C521.654 429.858 525.043 426.293 529.433 426.293C533.852 426.293 537.241 429.858 537.241 434.248C537.241 438.609 533.852 442.145 529.433 442.145C525.043 442.145 521.654 438.609 521.654 434.248ZM529.433 440.524C532.88 440.524 535.532 437.725 535.532 434.248C535.532 430.742 532.88 427.943 529.433 427.943C525.986 427.943 523.363 430.742 523.363 434.248C523.363 437.725 525.986 440.524 529.433 440.524ZM543.78 441.821H542.1V428.238H539.596V426.676H542.1V423.877C542.1 420.931 543.662 419.31 546.343 419.31C547.374 419.31 548.464 419.517 549.584 420.017L549.024 421.52C547.934 421.108 547.256 420.931 546.343 420.931C544.663 420.931 543.78 421.874 543.78 423.907V426.676H549.083V428.238H543.78V441.821ZM563.175 441.821H561.466V423.229L557.4 424.761L556.81 423.199L562.055 421.196H563.175V441.821ZM568.808 440.671C568.808 439.846 569.426 439.198 570.281 439.198C571.106 439.198 571.754 439.846 571.754 440.671C571.754 441.467 571.106 442.145 570.281 442.145C569.426 442.145 568.808 441.467 568.808 440.671ZM580.23 431.273V431.214C579.493 430.978 576.311 429.917 576.311 426.411C576.311 423.141 578.875 420.813 583.088 420.813C587.272 420.813 589.864 423.141 589.864 426.411C589.864 429.917 586.653 430.978 585.916 431.214V431.273C586.741 431.479 590.395 432.569 590.395 436.458C590.395 439.581 588.185 442.204 583.088 442.204C577.961 442.204 575.751 439.581 575.751 436.458C575.751 432.569 579.405 431.479 580.23 431.273ZM578.02 426.47C578.02 429.122 580.377 430.448 583.088 430.448C585.769 430.448 588.126 429.122 588.126 426.47C588.126 424.054 586.152 422.463 583.088 422.463C579.994 422.463 578.02 424.054 578.02 426.47ZM577.49 436.399C577.49 438.668 579.051 440.554 583.088 440.554C587.095 440.554 588.656 438.668 588.656 436.399C588.656 433.541 586.123 432.098 583.088 432.098C580.024 432.098 577.49 433.541 577.49 436.399ZM602.583 441.821H600.874V419.634H602.583V441.821ZM608.056 420.872C608.056 420.106 608.615 419.487 609.411 419.487C610.148 419.487 610.766 420.106 610.766 420.872C610.766 421.608 610.148 422.227 609.411 422.227C608.615 422.227 608.056 421.608 608.056 420.872ZM610.265 441.821H608.556V426.617H610.265V441.821ZM623.546 439.905L624.165 441.379C623.163 441.909 621.955 442.145 620.865 442.145C617.948 442.145 616.445 440.406 616.445 437.195V428.238H614.294V426.676H616.475V423.17H618.154V426.676H623.723V428.238H618.154V437.195C618.154 439.405 618.979 440.524 620.865 440.524C621.837 440.524 622.662 440.288 623.546 439.905ZM641.668 435.044H628.675C629.028 438.138 631.532 440.524 634.715 440.524C636.954 440.524 638.073 439.935 639.782 438.638L640.696 439.994C638.751 441.438 637.16 442.145 634.715 442.145C630.295 442.145 626.907 438.609 626.907 434.248C626.907 429.858 630.354 426.293 634.685 426.293C639.134 426.293 641.668 429.976 641.668 434.307V435.044ZM628.675 433.482H639.989C639.812 430.536 637.897 427.914 634.715 427.914C631.532 427.914 629.028 430.33 628.675 433.482ZM647.814 441.821H646.135V426.617H647.461L647.638 430.3C648.227 429.004 649.7 426.175 654.208 426.293L653.972 428.09C649.906 427.914 647.814 431.155 647.814 434.514V441.821ZM656.891 440.112L657.745 438.58C659.543 439.846 661.34 440.524 663.285 440.524C666.408 440.524 667.557 439.198 667.557 437.637C667.557 435.869 666.113 435.397 663.137 434.985C660.309 434.602 657.451 434.042 657.451 430.86C657.451 428.149 659.572 426.293 663.019 426.293C664.728 426.293 666.879 426.765 668.824 428.061L667.999 429.593C666.29 428.385 664.581 427.943 663.019 427.943C660.368 427.943 659.13 429.004 659.13 430.772C659.13 432.598 660.574 432.981 663.491 433.364C666.319 433.777 669.236 434.396 669.236 437.548C669.236 440.171 667.144 442.145 663.255 442.145C661.605 442.145 659.189 441.732 656.891 440.112Z" fill="#FFAF5F"/>
<line x1="30" y1="454.205" x2="989.128" y2="454.205" stroke="#FFAF5F" stroke-width="2"/>
<path d="M320.19 947.103H318.481V926.478H320.19V947.103ZM328.097 947.103H326.418V931.899H327.714L327.92 935.347C328.362 934.05 330.042 931.575 333.341 931.575C336.406 931.575 339.057 933.549 339.057 938.087V947.103H337.349V938.44C337.349 934.698 335.433 933.225 332.9 933.225C330.071 933.225 328.097 935.877 328.097 938.823V947.103ZM352.024 945.187L352.642 946.661C351.641 947.191 350.433 947.427 349.342 947.427C346.425 947.427 344.923 945.688 344.923 942.477V933.52H342.772V931.958H344.952V928.452H346.632V931.958H352.2V933.52H346.632V942.477C346.632 944.687 347.457 945.806 349.342 945.806C350.315 945.806 351.14 945.57 352.024 945.187ZM370.146 940.326H357.152C357.506 943.42 360.01 945.806 363.192 945.806C365.431 945.806 366.551 945.217 368.26 943.92L369.173 945.276C367.229 946.72 365.638 947.427 363.192 947.427C358.773 947.427 355.384 943.891 355.384 939.53C355.384 935.14 358.832 931.575 363.163 931.575C367.612 931.575 370.146 935.258 370.146 939.589V940.326ZM357.152 938.764H368.466C368.289 935.818 366.374 933.196 363.192 933.196C360.01 933.196 357.506 935.612 357.152 938.764ZM376.292 947.103H374.613V931.899H375.938L376.115 935.582C376.704 934.286 378.178 931.457 382.686 931.575L382.45 933.372C378.384 933.196 376.292 936.437 376.292 939.796V947.103ZM397.22 943.862L398.399 945.04C396.66 946.72 394.833 947.427 392.771 947.427C388.381 947.427 384.993 943.891 384.993 939.53C384.993 935.14 388.381 931.575 392.771 931.575C394.833 931.575 396.778 932.371 398.369 933.962L397.22 935.14C396.071 934.021 394.627 933.225 392.771 933.225C389.324 933.225 386.701 936.024 386.701 939.53C386.701 943.007 389.324 945.806 392.771 945.806C394.568 945.806 395.953 945.128 397.22 943.862ZM404.375 947.103H402.666V924.916H404.375V934.963C404.788 933.932 406.379 931.575 409.59 931.575C412.684 931.575 415.306 933.549 415.306 938.087V947.103H413.627V938.44C413.627 934.698 411.712 933.225 409.178 933.225C406.349 933.225 404.375 935.877 404.375 938.823V947.103ZM431.042 947.103L430.806 944.009C429.834 946.189 427.801 947.427 425.12 947.427C422.026 947.427 419.61 945.482 419.61 942.565C419.61 939.442 422.262 937.91 425.768 937.91C427.742 937.91 429.215 938.263 430.688 938.735C430.688 934.227 429.775 933.225 426.21 933.225C424.295 933.225 422.439 933.549 421.29 933.844L420.907 932.253C421.555 931.988 424.206 931.575 426.387 931.575C431.307 931.575 432.397 933.579 432.397 938.705V947.103H431.042ZM430.688 940.679V940.296C429.245 939.796 427.83 939.442 425.886 939.442C423.146 939.442 421.319 940.503 421.319 942.565C421.319 944.598 422.939 945.806 425.297 945.806C429.068 945.806 430.688 943.302 430.688 940.679ZM439.766 947.103H438.086V931.899H439.383L439.589 935.347C440.031 934.05 441.71 931.575 445.01 931.575C448.074 931.575 450.726 933.549 450.726 938.087V947.103H449.017V938.44C449.017 934.698 447.102 933.225 444.568 933.225C441.74 933.225 439.766 935.877 439.766 938.823V947.103ZM457.033 952.023L457.564 950.402C458.772 950.933 460.392 951.463 462.484 951.463C467.434 951.463 468.318 948.517 468.318 945.04V943.508C467.493 944.775 465.637 946.985 462.189 946.985C457.947 946.985 454.853 943.626 454.853 939.324C454.853 935.022 457.947 931.575 462.189 931.575C465.931 931.575 467.876 934.05 468.583 935.405L468.672 931.899H469.997V944.922C469.997 950.285 467.905 953.084 462.543 953.084C460.039 953.084 458.065 952.435 457.033 952.023ZM462.484 945.364C465.814 945.364 468.347 942.624 468.347 939.324C468.347 936.113 465.814 933.225 462.484 933.225C459.007 933.225 456.562 935.847 456.562 939.324C456.562 942.83 459.007 945.364 462.484 945.364ZM489.238 940.326H476.244C476.598 943.42 479.102 945.806 482.284 945.806C484.524 945.806 485.643 945.217 487.352 943.92L488.265 945.276C486.321 946.72 484.73 947.427 482.284 947.427C477.865 947.427 474.476 943.891 474.476 939.53C474.476 935.14 477.924 931.575 482.255 931.575C486.704 931.575 489.238 935.258 489.238 939.589V940.326ZM476.244 938.764H487.558C487.382 935.818 485.466 933.196 482.284 933.196C479.102 933.196 476.598 935.612 476.244 938.764ZM495.031 947.103H493.705V924.916H495.384V935.14C496.209 933.903 498.065 931.575 501.513 931.575C505.755 931.575 508.849 935.229 508.849 939.53C508.849 943.832 505.755 947.427 501.513 947.427C497.771 947.427 495.826 944.981 495.119 943.626L495.031 947.103ZM501.218 945.806C504.695 945.806 507.14 943.007 507.14 939.53C507.14 936.024 504.695 933.225 501.218 933.225C497.889 933.225 495.384 936.171 495.384 939.501C495.384 942.83 497.889 945.806 501.218 945.806ZM515.007 947.103H513.299V924.916H515.007V947.103ZM534.21 940.326H521.217C521.57 943.42 524.075 945.806 527.257 945.806C529.496 945.806 530.616 945.217 532.324 943.92L533.238 945.276C531.293 946.72 529.702 947.427 527.257 947.427C522.837 947.427 519.449 943.891 519.449 939.53C519.449 935.14 522.896 931.575 527.227 931.575C531.676 931.575 534.21 935.258 534.21 939.589V940.326ZM521.217 938.764H532.531C532.354 935.818 530.439 933.196 527.257 933.196C524.075 933.196 521.57 935.612 521.217 938.764ZM548.406 947.103H546.726L542.071 931.899H543.839L547.61 944.539L552 931.899H553.709L558.07 944.539L561.841 931.899H563.609L558.954 947.103H557.274L552.855 934.286L548.406 947.103ZM565.572 939.53C565.572 935.14 568.961 931.575 573.351 931.575C577.77 931.575 581.159 935.14 581.159 939.53C581.159 943.891 577.77 947.427 573.351 947.427C568.961 947.427 565.572 943.891 565.572 939.53ZM573.351 945.806C576.798 945.806 579.45 943.007 579.45 939.53C579.45 936.024 576.798 933.225 573.351 933.225C569.903 933.225 567.281 936.024 567.281 939.53C567.281 943.007 569.903 945.806 573.351 945.806ZM584.073 939.53C584.073 935.14 587.462 931.575 591.852 931.575C596.271 931.575 599.66 935.14 599.66 939.53C599.66 943.891 596.271 947.427 591.852 947.427C587.462 947.427 584.073 943.891 584.073 939.53ZM591.852 945.806C595.299 945.806 597.951 943.007 597.951 939.53C597.951 936.024 595.299 933.225 591.852 933.225C588.405 933.225 585.782 936.024 585.782 939.53C585.782 943.007 588.405 945.806 591.852 945.806ZM616.393 947.103L616.305 943.626C615.598 944.981 613.653 947.427 609.911 947.427C605.668 947.427 602.575 943.832 602.575 939.53C602.575 935.229 605.668 931.575 609.911 931.575C613.358 931.575 615.214 933.903 616.039 935.14V924.916H617.719V947.103H616.393ZM610.206 945.806C613.535 945.806 616.069 942.83 616.069 939.501C616.069 936.171 613.535 933.225 610.206 933.225C606.729 933.225 604.283 936.024 604.283 939.53C604.283 943.007 606.729 945.806 610.206 945.806ZM631.337 947.103H629.628V924.916H631.337V947.103ZM650.54 940.326H637.547C637.9 943.42 640.405 945.806 643.587 945.806C645.826 945.806 646.945 945.217 648.654 943.92L649.568 945.276C647.623 946.72 646.032 947.427 643.587 947.427C639.167 947.427 635.779 943.891 635.779 939.53C635.779 935.14 639.226 931.575 643.557 931.575C648.006 931.575 650.54 935.258 650.54 939.589V940.326ZM637.547 938.764H648.861C648.684 935.818 646.769 933.196 643.587 933.196C640.405 933.196 637.9 935.612 637.547 938.764ZM655.626 952.023L656.156 950.402C657.364 950.933 658.985 951.463 661.077 951.463C666.026 951.463 666.91 948.517 666.91 945.04V943.508C666.085 944.775 664.229 946.985 660.782 946.985C656.539 946.985 653.445 943.626 653.445 939.324C653.445 935.022 656.539 931.575 660.782 931.575C664.524 931.575 666.468 934.05 667.176 935.405L667.264 931.899H668.59V944.922C668.59 950.285 666.498 953.084 661.135 953.084C658.631 953.084 656.657 952.435 655.626 952.023ZM661.077 945.364C664.406 945.364 666.94 942.624 666.94 939.324C666.94 936.113 664.406 933.225 661.077 933.225C657.6 933.225 655.154 935.847 655.154 939.324C655.154 942.83 657.6 945.364 661.077 945.364ZM673.187 945.394L674.041 943.862C675.838 945.128 677.636 945.806 679.58 945.806C682.703 945.806 683.853 944.48 683.853 942.919C683.853 941.151 682.409 940.679 679.433 940.267C676.604 939.884 673.747 939.324 673.747 936.142C673.747 933.431 675.868 931.575 679.315 931.575C681.024 931.575 683.175 932.047 685.12 933.343L684.295 934.875C682.586 933.667 680.877 933.225 679.315 933.225C676.663 933.225 675.426 934.286 675.426 936.054C675.426 937.88 676.87 938.263 679.787 938.646C682.615 939.059 685.532 939.678 685.532 942.83C685.532 945.453 683.44 947.427 679.551 947.427C677.901 947.427 675.485 947.014 673.187 945.394Z" fill="#FFAF5F"/>
<line x1="30" y1="961" x2="989.128" y2="961" stroke="#FFAF5F" stroke-width="2"/>
</g>
</g>
</g>
<defs>
<clipPath id="clip0_2045_29">
<rect width="1000" height="1351" fill="white"/>
</clipPath>
<clipPath id="clip1_2045_29">
<rect width="877" height="1350" fill="white" transform="translate(61 -33)"/>
</clipPath>
<clipPath id="clip2_2045_29">
<rect width="979" height="1132" fill="white" transform="translate(10 110)"/>
</clipPath>
</defs>
</svg>
