<svg width="2496" height="1317" viewBox="0 0 2496 1317" fill="none" xmlns="http://www.w3.org/2000/svg">
<path d="M1513 558.245L1380.86 364.022H658" stroke="#FFAF5F" stroke-width="4"/>
<path d="M1421.02 689.181L1306.74 883.5H658" stroke="#FFAF5F" stroke-width="4"/>
<path d="M1412.6 247.432L1280.47 115.295H658.001" stroke="#FFAF5F" stroke-width="4"/>
<path d="M1388.64 1002.68L1260.7 1134.82H658.001" stroke="#FFAF5F" stroke-width="4"/>
<path d="M730.084 91.4058L731.558 93.0312C729.139 95.7905 725.283 97.4914 721.504 97.4914C713.944 97.4914 707.972 91.4058 707.972 83.7706C707.972 76.1353 713.944 70.0497 721.504 70.0497C725.397 70.0497 729.139 71.7884 731.634 74.5099L730.046 76.1731C728.27 74.0942 725.283 72.1664 721.504 72.1664C715.153 72.1664 710.202 77.496 710.202 83.7706C710.202 90.0451 715.153 95.3747 721.504 95.3747C725.283 95.3747 728.156 93.5603 730.084 91.4058ZM735.172 87.2858C735.172 81.6538 739.519 77.0802 745.151 77.0802C750.82 77.0802 755.167 81.6538 755.167 87.2858C755.167 92.88 750.82 97.4158 745.151 97.4158C739.519 97.4158 735.172 92.88 735.172 87.2858ZM745.151 95.3369C749.573 95.3369 752.975 91.746 752.975 87.2858C752.975 82.7878 749.573 79.1969 745.151 79.1969C740.728 79.1969 737.364 82.7878 737.364 87.2858C737.364 91.746 740.728 95.3369 745.151 95.3369ZM763.064 97H760.91V77.496H762.573L762.838 81.9184C763.405 80.2553 765.559 77.0802 769.793 77.0802C773.724 77.0802 777.126 79.6127 777.126 85.4337V97H774.933V85.8873C774.933 81.0869 772.476 79.1969 769.226 79.1969C765.597 79.1969 763.064 82.5988 763.064 86.3786V97ZM798.144 92.8422L799.656 94.3541C797.426 96.5086 795.082 97.4158 792.437 97.4158C786.805 97.4158 782.458 92.88 782.458 87.2858C782.458 81.6538 786.805 77.0802 792.437 77.0802C795.082 77.0802 797.577 78.1008 799.618 80.1419L798.144 81.6538C796.67 80.2175 794.818 79.1969 792.437 79.1969C788.014 79.1969 784.65 82.7878 784.65 87.2858C784.65 91.746 788.014 95.3369 792.437 95.3369C794.742 95.3369 796.519 94.4675 798.144 92.8422ZM822.065 88.3064H805.396C805.849 92.2752 809.062 95.3369 813.144 95.3369C816.017 95.3369 817.454 94.5809 819.646 92.9178L820.818 94.6565C818.323 96.5086 816.282 97.4158 813.144 97.4158C807.475 97.4158 803.128 92.88 803.128 87.2858C803.128 81.6538 807.55 77.0802 813.107 77.0802C818.814 77.0802 822.065 81.805 822.065 87.3614V88.3064ZM805.396 86.303H819.91C819.684 82.5232 817.227 79.1591 813.144 79.1591C809.062 79.1591 805.849 82.2586 805.396 86.303ZM840.906 97L840.604 93.0312C839.357 95.8282 836.748 97.4158 833.309 97.4158C829.34 97.4158 826.24 94.9211 826.24 91.179C826.24 87.1724 829.642 85.2069 834.14 85.2069C836.673 85.2069 838.563 85.6605 840.453 86.2652C840.453 80.4821 839.281 79.1969 834.707 79.1969C832.25 79.1969 829.869 79.6127 828.395 79.9907L827.904 77.9496C828.735 77.6094 832.137 77.0802 834.934 77.0802C841.246 77.0802 842.645 79.6505 842.645 86.2274V97H840.906ZM840.453 88.7599V88.2686C838.601 87.626 836.786 87.1724 834.292 87.1724C830.776 87.1724 828.433 88.5332 828.433 91.179C828.433 93.7871 830.512 95.3369 833.536 95.3369C838.374 95.3369 840.453 92.124 840.453 88.7599ZM852.098 97H849.905V68.5378H852.098V97ZM876.732 88.3064H860.063C860.517 92.2752 863.73 95.3369 867.812 95.3369C870.685 95.3369 872.121 94.5809 874.313 92.9178L875.485 94.6565C872.99 96.5086 870.949 97.4158 867.812 97.4158C862.142 97.4158 857.795 92.88 857.795 87.2858C857.795 81.6538 862.218 77.0802 867.774 77.0802C873.482 77.0802 876.732 81.805 876.732 87.3614V88.3064ZM860.063 86.303H874.578C874.351 82.5232 871.894 79.1591 867.812 79.1591C863.73 79.1591 860.517 82.2586 860.063 86.303ZM898.187 97L898.074 92.5398C897.167 94.2785 894.672 97.4158 889.872 97.4158C884.429 97.4158 880.46 92.8044 880.46 87.2858C880.46 81.7672 884.429 77.0802 889.872 77.0802C894.294 77.0802 896.675 80.0663 897.734 81.6538V68.5378H899.888V97H898.187ZM890.25 95.3369C894.521 95.3369 897.771 91.5192 897.771 87.248C897.771 82.9768 894.521 79.1969 890.25 79.1969C885.789 79.1969 882.652 82.7878 882.652 87.2858C882.652 91.746 885.789 95.3369 890.25 95.3369ZM917.397 97H915.204V68.5378H917.397V81.427C917.926 80.1041 919.967 77.0802 924.087 77.0802C928.056 77.0802 931.42 79.6127 931.42 85.4337V97H929.265V85.8873C929.265 81.0869 926.809 79.1969 923.558 79.1969C919.929 79.1969 917.397 82.5988 917.397 86.3786V97ZM955.651 88.3064H938.982C939.436 92.2752 942.649 95.3369 946.731 95.3369C949.604 95.3369 951.04 94.5809 953.232 92.9178L954.404 94.6565C951.909 96.5086 949.868 97.4158 946.731 97.4158C941.061 97.4158 936.714 92.88 936.714 87.2858C936.714 81.6538 941.137 77.0802 946.693 77.0802C952.401 77.0802 955.651 81.805 955.651 87.3614V88.3064ZM938.982 86.303H953.497C953.27 82.5232 950.813 79.1591 946.731 79.1591C942.649 79.1591 939.436 82.2586 938.982 86.303ZM974.493 97L974.19 93.0312C972.943 95.8282 970.335 97.4158 966.895 97.4158C962.926 97.4158 959.827 94.9211 959.827 91.179C959.827 87.1724 963.229 85.2069 967.727 85.2069C970.259 85.2069 972.149 85.6605 974.039 86.2652C974.039 80.4821 972.867 79.1969 968.294 79.1969C965.837 79.1969 963.456 79.6127 961.982 79.9907L961.49 77.9496C962.322 77.6094 965.724 77.0802 968.521 77.0802C974.833 77.0802 976.232 79.6505 976.232 86.2274V97H974.493ZM974.039 88.7599V88.2686C972.187 87.626 970.373 87.1724 967.878 87.1724C964.363 87.1724 962.019 88.5332 962.019 91.179C962.019 93.7871 964.098 95.3369 967.122 95.3369C971.96 95.3369 974.039 92.124 974.039 88.7599ZM992.866 94.5431L993.659 96.433C992.374 97.1134 990.824 97.4158 989.426 97.4158C985.684 97.4158 983.756 95.1857 983.756 91.0656V79.5749H980.997V77.5716H983.794V73.0736H985.948V77.5716H993.092V79.5749H985.948V91.0656C985.948 93.9005 987.007 95.3369 989.426 95.3369C990.673 95.3369 991.732 95.0345 992.866 94.5431ZM998.5 70.1253C998.5 69.1426 999.218 68.3488 1000.24 68.3488C1001.18 68.3488 1001.98 69.1426 1001.98 70.1253C1001.98 71.0703 1001.18 71.864 1000.24 71.864C999.218 71.864 998.5 71.0703 998.5 70.1253ZM1001.33 97H999.143V77.496H1001.33V97ZM1011.19 97H1009.04V77.496H1010.7L1010.96 81.9184C1011.53 80.2553 1013.69 77.0802 1017.92 77.0802C1021.85 77.0802 1025.25 79.6127 1025.25 85.4337V97H1023.06V85.8873C1023.06 81.0869 1020.6 79.1969 1017.35 79.1969C1013.72 79.1969 1011.19 82.5988 1011.19 86.3786V97ZM1033.34 103.312L1034.02 101.233C1035.57 101.914 1037.65 102.594 1040.34 102.594C1046.69 102.594 1047.82 98.8143 1047.82 94.3541V92.3886C1046.76 94.0139 1044.38 96.8488 1039.96 96.8488C1034.51 96.8488 1030.55 92.5398 1030.55 87.0212C1030.55 81.5026 1034.51 77.0802 1039.96 77.0802C1044.76 77.0802 1047.25 80.2553 1048.16 81.994L1048.27 77.496H1049.97V94.2029C1049.97 101.082 1047.29 104.673 1040.41 104.673C1037.2 104.673 1034.67 103.842 1033.34 103.312ZM1040.34 94.7699C1044.61 94.7699 1047.86 91.2546 1047.86 87.0212C1047.86 82.9012 1044.61 79.1969 1040.34 79.1969C1035.88 79.1969 1032.74 82.561 1032.74 87.0212C1032.74 91.5192 1035.88 94.7699 1040.34 94.7699ZM1082.22 88.3064H1065.56C1066.01 92.2752 1069.22 95.3369 1073.3 95.3369C1076.18 95.3369 1077.61 94.5809 1079.81 92.9178L1080.98 94.6565C1078.48 96.5086 1076.44 97.4158 1073.3 97.4158C1067.63 97.4158 1063.29 92.88 1063.29 87.2858C1063.29 81.6538 1067.71 77.0802 1073.27 77.0802C1078.97 77.0802 1082.22 81.805 1082.22 87.3614V88.3064ZM1065.56 86.303H1080.07C1079.84 82.5232 1077.39 79.1591 1073.3 79.1591C1069.22 79.1591 1066.01 82.2586 1065.56 86.303ZM1090.11 97H1087.92V68.5378H1090.11V97ZM1114.74 88.3064H1098.08C1098.53 92.2752 1101.74 95.3369 1105.82 95.3369C1108.7 95.3369 1110.13 94.5809 1112.33 92.9178L1113.5 94.6565C1111 96.5086 1108.96 97.4158 1105.82 97.4158C1100.15 97.4158 1095.81 92.88 1095.81 87.2858C1095.81 81.6538 1100.23 77.0802 1105.79 77.0802C1111.49 77.0802 1114.74 81.805 1114.74 87.3614V88.3064ZM1098.08 86.303H1112.59C1112.36 82.5232 1109.91 79.1591 1105.82 79.1591C1101.74 79.1591 1098.53 82.2586 1098.08 86.303ZM1122.63 97H1120.48V77.496H1122.18L1122.36 81.9184C1122.97 80.2553 1124.75 77.0802 1128.98 77.0802C1132.08 77.0802 1134.38 78.63 1135.18 82.1452C1135.82 80.1041 1137.75 77.0802 1141.91 77.0802C1145.84 77.0802 1148.48 79.6127 1148.48 85.4337V97H1146.29V85.8873C1146.29 81.0869 1144.59 79.1969 1141.34 79.1969C1138.09 79.1969 1135.97 81.9562 1135.56 85.2825V97H1133.4V85.8873C1133.4 81.0869 1131.66 79.1969 1128.41 79.1969C1124.78 79.1969 1122.63 82.5988 1122.63 86.3786V97ZM1172.73 88.3064H1156.06C1156.52 92.2752 1159.73 95.3369 1163.81 95.3369C1166.69 95.3369 1168.12 94.5809 1170.31 92.9178L1171.49 94.6565C1168.99 96.5086 1166.95 97.4158 1163.81 97.4158C1158.14 97.4158 1153.8 92.88 1153.8 87.2858C1153.8 81.6538 1158.22 77.0802 1163.78 77.0802C1169.48 77.0802 1172.73 81.805 1172.73 87.3614V88.3064ZM1156.06 86.303H1170.58C1170.35 82.5232 1167.9 79.1591 1163.81 79.1591C1159.73 79.1591 1156.52 82.2586 1156.06 86.303ZM1180.62 97H1178.46V77.496H1180.13L1180.39 81.9184C1180.96 80.2553 1183.11 77.0802 1187.35 77.0802C1191.28 77.0802 1194.68 79.6127 1194.68 85.4337V97H1192.49V85.8873C1192.49 81.0869 1190.03 79.1969 1186.78 79.1969C1183.15 79.1969 1180.62 82.5988 1180.62 86.3786V97ZM1211.31 94.5431L1212.11 96.433C1210.82 97.1134 1209.27 97.4158 1207.87 97.4158C1204.13 97.4158 1202.2 95.1857 1202.2 91.0656V79.5749H1199.45V77.5716H1202.24V73.0736H1204.4V77.5716H1211.54V79.5749H1204.4V91.0656C1204.4 93.9005 1205.46 95.3369 1207.87 95.3369C1209.12 95.3369 1210.18 95.0345 1211.31 94.5431Z" fill="#FFAF5F"/>
<path d="M739.468 801.727H737.011L748.804 775.268H750.618L762.411 801.727H759.916L756.779 794.696H742.605L739.468 801.727ZM749.673 778.859L743.588 792.466H755.796L749.711 778.859H749.673ZM780.862 801.727L780.673 797.569C780.069 799.194 777.839 802.142 773.605 802.142C769.674 802.142 766.461 799.837 766.461 794.016V782.223H768.616V793.524C768.616 798.4 770.959 800.063 774.172 800.063C777.801 800.063 780.371 796.624 780.371 792.844V782.223H782.563V801.727H780.862ZM799.578 799.27L800.372 801.16C799.087 801.84 797.537 802.142 796.138 802.142C792.396 802.142 790.469 799.912 790.469 795.792V784.301H787.709V782.298H790.506V777.8H792.661V782.298H799.805V784.301H792.661V795.792C792.661 798.627 793.719 800.063 796.138 800.063C797.386 800.063 798.444 799.761 799.578 799.27ZM803.889 792.012C803.889 786.38 808.236 781.807 813.868 781.807C819.538 781.807 823.885 786.38 823.885 792.012C823.885 797.607 819.538 802.142 813.868 802.142C808.236 802.142 803.889 797.607 803.889 792.012ZM813.868 800.063C818.291 800.063 821.692 796.473 821.692 792.012C821.692 787.514 818.291 783.924 813.868 783.924C809.446 783.924 806.082 787.514 806.082 792.012C806.082 796.473 809.446 800.063 813.868 800.063ZM831.782 801.727H829.627V782.223H831.328L831.517 786.645C832.122 784.982 833.899 781.807 838.132 781.807C841.231 781.807 843.537 783.357 844.331 786.872C844.974 784.831 846.901 781.807 851.059 781.807C854.99 781.807 857.636 784.339 857.636 790.16V801.727H855.444V790.614C855.444 785.813 853.743 783.924 850.492 783.924C847.241 783.924 845.125 786.683 844.709 790.009V801.727H842.554V790.614C842.554 785.813 840.816 783.924 837.565 783.924C833.936 783.924 831.782 787.325 831.782 791.105V801.727ZM862.949 792.012C862.949 786.38 867.296 781.807 872.928 781.807C878.598 781.807 882.945 786.38 882.945 792.012C882.945 797.607 878.598 802.142 872.928 802.142C867.296 802.142 862.949 797.607 862.949 792.012ZM872.928 800.063C877.351 800.063 880.752 796.473 880.752 792.012C880.752 787.514 877.351 783.924 872.928 783.924C868.506 783.924 865.142 787.514 865.142 792.012C865.142 796.473 868.506 800.063 872.928 800.063ZM898.024 799.27L898.817 801.16C897.532 801.84 895.982 802.142 894.584 802.142C890.842 802.142 888.914 799.912 888.914 795.792V784.301H886.155V782.298H888.952V777.8H891.107V782.298H898.25V784.301H891.107V795.792C891.107 798.627 892.165 800.063 894.584 800.063C895.831 800.063 896.89 799.761 898.024 799.27ZM903.658 774.852C903.658 773.869 904.376 773.075 905.397 773.075C906.342 773.075 907.135 773.869 907.135 774.852C907.135 775.797 906.342 776.591 905.397 776.591C904.376 776.591 903.658 775.797 903.658 774.852ZM906.493 801.727H904.3V782.223H906.493V801.727ZM921.149 801.727H918.957L910.906 782.223H913.249L920.015 798.854H920.091L926.856 782.223H929.162L921.149 801.727ZM950.47 793.033H933.801C934.254 797.002 937.467 800.063 941.549 800.063C944.422 800.063 945.858 799.307 948.051 797.644L949.222 799.383C946.728 801.235 944.687 802.142 941.549 802.142C935.88 802.142 931.533 797.607 931.533 792.012C931.533 786.38 935.955 781.807 941.512 781.807C947.219 781.807 950.47 786.532 950.47 792.088V793.033ZM933.801 791.03H948.315C948.088 787.25 945.632 783.886 941.549 783.886C937.467 783.886 934.254 786.985 933.801 791.03ZM962.218 799.005L963.465 797.077C966.224 799.005 969.475 800.101 972.423 800.101C977.11 800.101 979.983 797.909 979.983 794.469C979.983 790.878 976.43 790.122 972.65 789.518C967.963 788.724 962.898 788.384 962.898 782.487C962.898 777.838 966.829 774.776 972.272 774.776C975.636 774.776 978.131 775.419 981.457 777.422L980.323 779.35C977.45 777.573 975.031 776.893 972.348 776.893C968.039 776.893 965.09 778.934 965.09 782.487C965.09 786.267 968.643 786.569 972.65 787.174C977.186 787.855 982.175 788.8 982.175 794.394C982.175 799.118 978.395 802.218 972.537 802.218C968.87 802.218 965.242 801.16 962.218 799.005ZM997.724 799.27L998.518 801.16C997.233 801.84 995.683 802.142 994.285 802.142C990.543 802.142 988.615 799.912 988.615 795.792V784.301H985.856V782.298H988.653V777.8H990.807V782.298H997.951V784.301H990.807V795.792C990.807 798.627 991.866 800.063 994.285 800.063C995.532 800.063 996.59 799.761 997.724 799.27ZM1017.22 801.727L1016.92 797.758C1015.67 800.555 1013.07 802.142 1009.63 802.142C1005.66 802.142 1002.56 799.648 1002.56 795.906C1002.56 791.899 1005.96 789.933 1010.46 789.933C1012.99 789.933 1014.88 790.387 1016.77 790.992C1016.77 785.209 1015.6 783.924 1011.02 783.924C1008.57 783.924 1006.19 784.339 1004.71 784.717L1004.22 782.676C1005.05 782.336 1008.45 781.807 1011.25 781.807C1017.56 781.807 1018.96 784.377 1018.96 790.954V801.727H1017.22ZM1016.77 793.487V792.995C1014.92 792.353 1013.1 791.899 1010.61 791.899C1007.09 791.899 1004.75 793.26 1004.75 795.906C1004.75 798.514 1006.83 800.063 1009.85 800.063C1014.69 800.063 1016.77 796.851 1016.77 793.487ZM1025.58 774.852C1025.58 773.869 1026.3 773.075 1027.32 773.075C1028.26 773.075 1029.06 773.869 1029.06 774.852C1029.06 775.797 1028.26 776.591 1027.32 776.591C1026.3 776.591 1025.58 775.797 1025.58 774.852ZM1028.41 801.727H1026.22V782.223H1028.41V801.727ZM1038.27 801.727H1036.12V782.223H1037.78L1038.04 786.645C1038.61 784.982 1040.77 781.807 1045 781.807C1048.93 781.807 1052.33 784.339 1052.33 790.16V801.727H1050.14V790.614C1050.14 785.813 1047.68 783.924 1044.43 783.924C1040.8 783.924 1038.27 787.325 1038.27 791.105V801.727ZM1061.78 801.727H1059.59V773.264H1061.78V801.727ZM1086.42 793.033H1069.75C1070.2 797.002 1073.42 800.063 1077.5 800.063C1080.37 800.063 1081.81 799.307 1084 797.644L1085.17 799.383C1082.68 801.235 1080.64 802.142 1077.5 802.142C1071.83 802.142 1067.48 797.607 1067.48 792.012C1067.48 786.38 1071.9 781.807 1077.46 781.807C1083.17 781.807 1086.42 786.532 1086.42 792.088V793.033ZM1069.75 791.03H1084.26C1084.04 787.25 1081.58 783.886 1077.5 783.886C1073.42 783.886 1070.2 786.985 1069.75 791.03ZM1090.3 799.534L1091.39 797.569C1093.7 799.194 1096 800.063 1098.5 800.063C1102.51 800.063 1103.98 798.363 1103.98 796.359C1103.98 794.091 1102.13 793.487 1098.31 792.957C1094.68 792.466 1091.02 791.748 1091.02 787.666C1091.02 784.188 1093.74 781.807 1098.16 781.807C1100.35 781.807 1103.11 782.412 1105.61 784.075L1104.55 786.04C1102.35 784.49 1100.16 783.924 1098.16 783.924C1094.76 783.924 1093.17 785.284 1093.17 787.552C1093.17 789.896 1095.02 790.387 1098.76 790.878C1102.39 791.408 1106.13 792.201 1106.13 796.246C1106.13 799.61 1103.45 802.142 1098.46 802.142C1096.34 802.142 1093.25 801.613 1090.3 799.534ZM1110.19 799.534L1111.29 797.569C1113.59 799.194 1115.9 800.063 1118.39 800.063C1122.4 800.063 1123.88 798.363 1123.88 796.359C1123.88 794.091 1122.02 793.487 1118.21 792.957C1114.58 792.466 1110.91 791.748 1110.91 787.666C1110.91 784.188 1113.63 781.807 1118.05 781.807C1120.25 781.807 1123.01 782.412 1125.5 784.075L1124.44 786.04C1122.25 784.49 1120.06 783.924 1118.05 783.924C1114.65 783.924 1113.07 785.284 1113.07 787.552C1113.07 789.896 1114.92 790.387 1118.66 790.878C1122.29 791.408 1126.03 792.201 1126.03 796.246C1126.03 799.61 1123.35 802.142 1118.36 802.142C1116.24 802.142 1113.14 801.613 1110.19 799.534ZM1137.66 799.534L1138.75 797.569C1141.06 799.194 1143.36 800.063 1145.86 800.063C1149.86 800.063 1151.34 798.363 1151.34 796.359C1151.34 794.091 1149.49 793.487 1145.67 792.957C1142.04 792.466 1138.37 791.748 1138.37 787.666C1138.37 784.188 1141.1 781.807 1145.52 781.807C1147.71 781.807 1150.47 782.412 1152.96 784.075L1151.91 786.04C1149.71 784.49 1147.52 783.924 1145.52 783.924C1142.12 783.924 1140.53 785.284 1140.53 787.552C1140.53 789.896 1142.38 790.387 1146.12 790.878C1149.75 791.408 1153.49 792.201 1153.49 796.246C1153.49 799.61 1150.81 802.142 1145.82 802.142C1143.7 802.142 1140.6 801.613 1137.66 799.534ZM1168.74 799.27L1169.53 801.16C1168.25 801.84 1166.7 802.142 1165.3 802.142C1161.56 802.142 1159.63 799.912 1159.63 795.792V784.301H1156.87V782.298H1159.67V777.8H1161.82V782.298H1168.97V784.301H1161.82V795.792C1161.82 798.627 1162.88 800.063 1165.3 800.063C1166.55 800.063 1167.61 799.761 1168.74 799.27ZM1191.99 793.033H1175.32C1175.77 797.002 1178.99 800.063 1183.07 800.063C1185.94 800.063 1187.38 799.307 1189.57 797.644L1190.74 799.383C1188.25 801.235 1186.21 802.142 1183.07 802.142C1177.4 802.142 1173.05 797.607 1173.05 792.012C1173.05 786.38 1177.47 781.807 1183.03 781.807C1188.74 781.807 1191.99 786.532 1191.99 792.088V793.033ZM1175.32 791.03H1189.83C1189.61 787.25 1187.15 783.886 1183.07 783.886C1178.99 783.886 1175.77 786.985 1175.32 791.03ZM1214.65 793.033H1197.98C1198.44 797.002 1201.65 800.063 1205.73 800.063C1208.6 800.063 1210.04 799.307 1212.23 797.644L1213.41 799.383C1210.91 801.235 1208.87 802.142 1205.73 802.142C1200.06 802.142 1195.72 797.607 1195.72 792.012C1195.72 786.38 1200.14 781.807 1205.69 781.807C1211.4 781.807 1214.65 786.532 1214.65 792.088V793.033ZM1197.98 791.03H1212.5C1212.27 787.25 1209.81 783.886 1205.73 783.886C1201.65 783.886 1198.44 786.985 1197.98 791.03ZM1222.54 801.727H1220.35V773.264H1222.54V801.727ZM741.826 863.727H739.672V844.223H741.372L741.561 848.645C742.166 846.982 743.943 843.807 748.176 843.807C751.276 843.807 753.581 845.357 754.375 848.872C755.018 846.831 756.945 843.807 761.103 843.807C765.034 843.807 767.68 846.339 767.68 852.16V863.727H765.488V852.614C765.488 847.813 763.787 845.924 760.536 845.924C757.286 845.924 755.169 848.683 754.753 852.009V863.727H752.599V852.614C752.599 847.813 750.86 845.924 747.609 845.924C743.981 845.924 741.826 849.325 741.826 853.105V863.727ZM787.886 863.727L787.584 859.758C786.336 862.555 783.728 864.142 780.289 864.142C776.32 864.142 773.22 861.648 773.22 857.906C773.22 853.899 776.622 851.933 781.12 851.933C783.653 851.933 785.543 852.387 787.433 852.992C787.433 847.209 786.261 845.924 781.687 845.924C779.23 845.924 776.849 846.339 775.375 846.717L774.883 844.676C775.715 844.336 779.117 843.807 781.914 843.807C788.226 843.807 789.625 846.377 789.625 852.954V863.727H787.886ZM787.433 855.487V854.995C785.58 854.353 783.766 853.899 781.271 853.899C777.756 853.899 775.413 855.26 775.413 857.906C775.413 860.514 777.492 862.063 780.515 862.063C785.354 862.063 787.433 858.851 787.433 855.487ZM806.259 861.27L807.053 863.16C805.768 863.84 804.218 864.142 802.819 864.142C799.077 864.142 797.15 861.912 797.15 857.792V846.301H794.39V844.298H797.187V839.8H799.342V844.298H806.486V846.301H799.342V857.792C799.342 860.627 800.4 862.063 802.819 862.063C804.067 862.063 805.125 861.761 806.259 861.27ZM821.91 861.27L822.704 863.16C821.419 863.84 819.869 864.142 818.47 864.142C814.728 864.142 812.801 861.912 812.801 857.792V846.301H810.041V844.298H812.838V839.8H814.993V844.298H822.137V846.301H814.993V857.792C814.993 860.627 816.051 862.063 818.47 862.063C819.718 862.063 820.776 861.761 821.91 861.27ZM845.158 855.033H828.489C828.943 859.002 832.156 862.063 836.238 862.063C839.111 862.063 840.547 861.307 842.739 859.644L843.911 861.383C841.416 863.235 839.375 864.142 836.238 864.142C830.568 864.142 826.221 859.607 826.221 854.012C826.221 848.38 830.644 843.807 836.2 843.807C841.908 843.807 845.158 848.532 845.158 854.088V855.033ZM828.489 853.03H843.004C842.777 849.25 840.32 845.886 836.238 845.886C832.156 845.886 828.943 848.985 828.489 853.03ZM860.611 870.984H858.456V844.223H860.157L860.27 848.683C861.178 846.982 863.672 843.807 868.473 843.807C873.916 843.807 877.884 848.456 877.884 853.975C877.884 859.493 873.916 864.142 868.473 864.142C864.05 864.142 861.669 861.194 860.611 859.569V870.984ZM868.095 862.063C872.555 862.063 875.692 858.473 875.692 853.975C875.692 849.514 872.555 845.924 868.095 845.924C863.823 845.924 860.611 849.703 860.611 853.975C860.611 858.246 863.823 862.063 868.095 862.063ZM881.627 854.012C881.627 848.38 885.974 843.807 891.606 843.807C897.276 843.807 901.622 848.38 901.622 854.012C901.622 859.607 897.276 864.142 891.606 864.142C885.974 864.142 881.627 859.607 881.627 854.012ZM891.606 862.063C896.028 862.063 899.43 858.473 899.43 854.012C899.43 849.514 896.028 845.924 891.606 845.924C887.183 845.924 883.819 849.514 883.819 854.012C883.819 858.473 887.183 862.063 891.606 862.063ZM912.279 863.727H910.124L904.152 844.223H906.42L911.258 860.438L916.89 844.223H919.083L924.677 860.438L929.515 844.223H931.783L925.811 863.727H923.656L917.987 847.284L912.279 863.727ZM952.029 863.727L951.915 859.266C951.008 861.005 948.513 864.142 943.713 864.142C938.27 864.142 934.301 859.531 934.301 854.012C934.301 848.494 938.27 843.807 943.713 843.807C948.135 843.807 950.517 846.793 951.575 848.38V835.264H953.73V863.727H952.029ZM944.091 862.063C948.362 862.063 951.613 858.246 951.613 853.975C951.613 849.703 948.362 845.924 944.091 845.924C939.631 845.924 936.494 849.514 936.494 854.012C936.494 858.473 939.631 862.063 944.091 862.063ZM978.413 855.033H961.743C962.197 859.002 965.41 862.063 969.492 862.063C972.365 862.063 973.801 861.307 975.993 859.644L977.165 861.383C974.671 863.235 972.629 864.142 969.492 864.142C963.822 864.142 959.476 859.607 959.476 854.012C959.476 848.38 963.898 843.807 969.454 843.807C975.162 843.807 978.413 848.532 978.413 854.088V855.033ZM961.743 853.03H976.258C976.031 849.25 973.574 845.886 969.492 845.886C965.41 845.886 962.197 848.985 961.743 853.03ZM986.298 863.727H984.143V844.223H985.844L986.071 848.947C986.827 847.284 988.717 843.656 994.5 843.807L994.198 846.113C988.981 845.886 986.298 850.044 986.298 854.353V863.727ZM1021.08 859.569L1022.59 861.081C1020.36 863.235 1018.02 864.142 1015.37 864.142C1009.74 864.142 1005.4 859.607 1005.4 854.012C1005.4 848.38 1009.74 843.807 1015.37 843.807C1018.02 843.807 1020.52 844.827 1022.56 846.868L1021.08 848.38C1019.61 846.944 1017.76 845.924 1015.37 845.924C1010.95 845.924 1007.59 849.514 1007.59 854.012C1007.59 858.473 1010.95 862.063 1015.37 862.063C1017.68 862.063 1019.46 861.194 1021.08 859.569ZM1026.07 854.012C1026.07 848.38 1030.41 843.807 1036.04 843.807C1041.71 843.807 1046.06 848.38 1046.06 854.012C1046.06 859.607 1041.71 864.142 1036.04 864.142C1030.41 864.142 1026.07 859.607 1026.07 854.012ZM1036.04 862.063C1040.47 862.063 1043.87 858.473 1043.87 854.012C1043.87 849.514 1040.47 845.924 1036.04 845.924C1031.62 845.924 1028.26 849.514 1028.26 854.012C1028.26 858.473 1031.62 862.063 1036.04 862.063ZM1064.91 863.727L1064.61 859.758C1063.36 862.555 1060.76 864.142 1057.32 864.142C1053.35 864.142 1050.25 861.648 1050.25 857.906C1050.25 853.899 1053.65 851.933 1058.15 851.933C1060.68 851.933 1062.57 852.387 1064.46 852.992C1064.46 847.209 1063.29 845.924 1058.72 845.924C1056.26 845.924 1053.88 846.339 1052.4 846.717L1051.91 844.676C1052.74 844.336 1056.15 843.807 1058.94 843.807C1065.25 843.807 1066.65 846.377 1066.65 852.954V863.727H1064.91ZM1064.46 855.487V854.995C1062.61 854.353 1060.79 853.899 1058.3 853.899C1054.78 853.899 1052.44 855.26 1052.44 857.906C1052.44 860.514 1054.52 862.063 1057.54 862.063C1062.38 862.063 1064.46 858.851 1064.46 855.487ZM1083.29 861.27L1084.08 863.16C1082.8 863.84 1081.25 864.142 1079.85 864.142C1076.11 864.142 1074.18 861.912 1074.18 857.792V846.301H1071.42V844.298H1074.22V839.8H1076.37V844.298H1083.51V846.301H1076.37V857.792C1076.37 860.627 1077.43 862.063 1079.85 862.063C1081.1 862.063 1082.15 861.761 1083.29 861.27ZM1106.54 855.033H1089.87C1090.32 859.002 1093.53 862.063 1097.62 862.063C1100.49 862.063 1101.92 861.307 1104.12 859.644L1105.29 861.383C1102.79 863.235 1100.75 864.142 1097.62 864.142C1091.95 864.142 1087.6 859.607 1087.6 854.012C1087.6 848.38 1092.02 843.807 1097.58 843.807C1103.29 843.807 1106.54 848.532 1106.54 854.088V855.033ZM1089.87 853.03H1104.38C1104.15 849.25 1101.7 845.886 1097.62 845.886C1093.53 845.886 1090.32 848.985 1089.87 853.03ZM1127.99 863.727L1127.88 859.266C1126.97 861.005 1124.48 864.142 1119.68 864.142C1114.23 864.142 1110.26 859.531 1110.26 854.012C1110.26 848.494 1114.23 843.807 1119.68 843.807C1124.1 843.807 1126.48 846.793 1127.54 848.38V835.264H1129.69V863.727H1127.99ZM1120.05 862.063C1124.32 862.063 1127.57 858.246 1127.57 853.975C1127.57 849.703 1124.32 845.924 1120.05 845.924C1115.59 845.924 1112.46 849.514 1112.46 854.012C1112.46 858.473 1115.59 862.063 1120.05 862.063ZM1146.71 863.727H1145.01V835.264H1147.16V848.38C1148.22 846.793 1150.6 843.807 1155.02 843.807C1160.47 843.807 1164.44 848.494 1164.44 854.012C1164.44 859.531 1160.47 864.142 1155.02 864.142C1150.22 864.142 1147.73 861.005 1146.82 859.266L1146.71 863.727ZM1154.65 862.063C1159.11 862.063 1162.24 858.473 1162.24 854.012C1162.24 849.514 1159.11 845.924 1154.65 845.924C1150.38 845.924 1147.16 849.703 1147.16 853.975C1147.16 858.246 1150.38 862.063 1154.65 862.063ZM1168.18 854.012C1168.18 848.38 1172.53 843.807 1178.16 843.807C1183.83 843.807 1188.17 848.38 1188.17 854.012C1188.17 859.607 1183.83 864.142 1178.16 864.142C1172.53 864.142 1168.18 859.607 1168.18 854.012ZM1178.16 862.063C1182.58 862.063 1185.98 858.473 1185.98 854.012C1185.98 849.514 1182.58 845.924 1178.16 845.924C1173.74 845.924 1170.37 849.514 1170.37 854.012C1170.37 858.473 1173.74 862.063 1178.16 862.063ZM1209.64 863.727L1209.53 859.266C1208.62 861.005 1206.13 864.142 1201.33 864.142C1195.88 864.142 1191.91 859.531 1191.91 854.012C1191.91 848.494 1195.88 843.807 1201.33 843.807C1205.75 843.807 1208.13 846.793 1209.19 848.38V835.264H1211.34V863.727H1209.64ZM1201.7 862.063C1205.97 862.063 1209.23 858.246 1209.23 853.975C1209.23 849.703 1205.97 845.924 1201.7 845.924C1197.24 845.924 1194.11 849.514 1194.11 854.012C1194.11 858.473 1197.24 862.063 1201.7 862.063ZM1223.02 870.984H1220.72L1223.74 863.575L1215.8 844.223H1218.11L1224.87 860.854H1224.95L1231.72 844.223H1234.02L1223.02 870.984Z" fill="#FFAF5F"/>
<path d="M703.177 1116.52H700.984V1090.06H703.177V1116.52ZM713.32 1116.52H711.166V1097.02H712.829L713.094 1101.44C713.661 1099.78 715.815 1096.6 720.049 1096.6C723.98 1096.6 727.381 1099.14 727.381 1104.96V1116.52H725.189V1105.41C725.189 1100.61 722.732 1098.72 719.482 1098.72C715.853 1098.72 713.32 1102.12 713.32 1105.9V1116.52ZM744.015 1114.07L744.809 1115.96C743.524 1116.64 741.974 1116.94 740.576 1116.94C736.834 1116.94 734.906 1114.71 734.906 1110.59V1099.1H732.147V1097.09H734.944V1092.6H737.098V1097.09H744.242V1099.1H737.098V1110.59C737.098 1113.42 738.157 1114.86 740.576 1114.86C741.823 1114.86 742.882 1114.56 744.015 1114.07ZM767.264 1107.83H750.595C751.048 1111.8 754.261 1114.86 758.343 1114.86C761.216 1114.86 762.652 1114.1 764.845 1112.44L766.016 1114.18C763.522 1116.03 761.481 1116.94 758.343 1116.94C752.674 1116.94 748.327 1112.4 748.327 1106.81C748.327 1101.18 752.749 1096.6 758.306 1096.6C764.013 1096.6 767.264 1101.33 767.264 1106.88V1107.83ZM750.595 1105.83H765.109C764.883 1102.05 762.426 1098.68 758.343 1098.68C754.261 1098.68 751.048 1101.78 750.595 1105.83ZM775.149 1116.52H772.994V1097.02H774.695L774.922 1101.74C775.678 1100.08 777.568 1096.45 783.351 1096.6L783.049 1098.91C777.833 1098.68 775.149 1102.84 775.149 1107.15V1116.52ZM801.997 1112.36L803.509 1113.88C801.279 1116.03 798.935 1116.94 796.29 1116.94C790.658 1116.94 786.311 1112.4 786.311 1106.81C786.311 1101.18 790.658 1096.6 796.29 1096.6C798.935 1096.6 801.43 1097.62 803.471 1099.66L801.997 1101.18C800.523 1099.74 798.671 1098.72 796.29 1098.72C791.867 1098.72 788.503 1102.31 788.503 1106.81C788.503 1111.27 791.867 1114.86 796.29 1114.86C798.595 1114.86 800.372 1113.99 801.997 1112.36ZM811.176 1116.52H808.984V1088.06H811.176V1100.95C811.706 1099.63 813.747 1096.6 817.867 1096.6C821.836 1096.6 825.2 1099.14 825.2 1104.96V1116.52H823.045V1105.41C823.045 1100.61 820.588 1098.72 817.338 1098.72C813.709 1098.72 811.176 1102.12 811.176 1105.9V1116.52ZM845.387 1116.52L845.084 1112.55C843.837 1115.35 841.229 1116.94 837.789 1116.94C833.82 1116.94 830.721 1114.44 830.721 1110.7C830.721 1106.69 834.123 1104.73 838.621 1104.73C841.153 1104.73 843.043 1105.18 844.933 1105.79C844.933 1100 843.761 1098.72 839.188 1098.72C836.731 1098.72 834.35 1099.14 832.875 1099.51L832.384 1097.47C833.216 1097.13 836.617 1096.6 839.415 1096.6C845.727 1096.6 847.125 1099.17 847.125 1105.75V1116.52H845.387ZM844.933 1108.28V1107.79C843.081 1107.15 841.267 1106.69 838.772 1106.69C835.257 1106.69 832.913 1108.06 832.913 1110.7C832.913 1113.31 834.992 1114.86 838.016 1114.86C842.854 1114.86 844.933 1111.65 844.933 1108.28ZM856.578 1116.52H854.424V1097.02H856.087L856.351 1101.44C856.918 1099.78 859.073 1096.6 863.306 1096.6C867.237 1096.6 870.639 1099.14 870.639 1104.96V1116.52H868.447V1105.41C868.447 1100.61 865.99 1098.72 862.739 1098.72C859.111 1098.72 856.578 1102.12 856.578 1105.9V1116.52ZM878.731 1122.83L879.411 1120.76C880.961 1121.44 883.04 1122.12 885.723 1122.12C892.073 1122.12 893.207 1118.34 893.207 1113.88V1111.91C892.149 1113.54 889.768 1116.37 885.345 1116.37C879.902 1116.37 875.933 1112.06 875.933 1106.54C875.933 1101.03 879.902 1096.6 885.345 1096.6C890.146 1096.6 892.64 1099.78 893.548 1101.52L893.661 1097.02H895.362V1113.73C895.362 1120.6 892.678 1124.2 885.799 1124.2C882.586 1124.2 880.053 1123.36 878.731 1122.83ZM885.723 1114.29C889.994 1114.29 893.245 1110.78 893.245 1106.54C893.245 1102.42 889.994 1098.72 885.723 1098.72C881.263 1098.72 878.126 1102.08 878.126 1106.54C878.126 1111.04 881.263 1114.29 885.723 1114.29ZM920.045 1107.83H903.376C903.829 1111.8 907.042 1114.86 911.124 1114.86C913.997 1114.86 915.433 1114.1 917.626 1112.44L918.797 1114.18C916.303 1116.03 914.262 1116.94 911.124 1116.94C905.455 1116.94 901.108 1112.4 901.108 1106.81C901.108 1101.18 905.53 1096.6 911.087 1096.6C916.794 1096.6 920.045 1101.33 920.045 1106.88V1107.83ZM903.376 1105.83H917.89C917.663 1102.05 915.207 1098.68 911.124 1098.68C907.042 1098.68 903.829 1101.78 903.376 1105.83ZM927.476 1116.52H925.775V1088.06H927.93V1101.18C928.988 1099.59 931.37 1096.6 935.792 1096.6C941.235 1096.6 945.204 1101.29 945.204 1106.81C945.204 1112.33 941.235 1116.94 935.792 1116.94C930.992 1116.94 928.497 1113.8 927.59 1112.06L927.476 1116.52ZM935.414 1114.86C939.874 1114.86 943.011 1111.27 943.011 1106.81C943.011 1102.31 939.874 1098.72 935.414 1098.72C931.143 1098.72 927.93 1102.5 927.93 1106.77C927.93 1111.04 931.143 1114.86 935.414 1114.86ZM953.104 1116.52H950.912V1088.06H953.104V1116.52ZM977.739 1107.83H961.07C961.524 1111.8 964.736 1114.86 968.819 1114.86C971.691 1114.86 973.128 1114.1 975.32 1112.44L976.492 1114.18C973.997 1116.03 971.956 1116.94 968.819 1116.94C963.149 1116.94 958.802 1112.4 958.802 1106.81C958.802 1101.18 963.225 1096.6 968.781 1096.6C974.488 1096.6 977.739 1101.33 977.739 1106.88V1107.83ZM961.07 1105.83H975.585C975.358 1102.05 972.901 1098.68 968.819 1098.68C964.736 1098.68 961.524 1101.78 961.07 1105.83ZM995.95 1116.52H993.796L987.824 1097.02H990.092L994.93 1113.23L1000.56 1097.02H1002.75L1008.35 1113.23L1013.19 1097.02H1015.45L1009.48 1116.52H1007.33L1001.66 1100.08L995.95 1116.52ZM1017.97 1106.81C1017.97 1101.18 1022.32 1096.6 1027.95 1096.6C1033.62 1096.6 1037.97 1101.18 1037.97 1106.81C1037.97 1112.4 1033.62 1116.94 1027.95 1116.94C1022.32 1116.94 1017.97 1112.4 1017.97 1106.81ZM1027.95 1114.86C1032.37 1114.86 1035.78 1111.27 1035.78 1106.81C1035.78 1102.31 1032.37 1098.72 1027.95 1098.72C1023.53 1098.72 1020.17 1102.31 1020.17 1106.81C1020.17 1111.27 1023.53 1114.86 1027.95 1114.86ZM1041.71 1106.81C1041.71 1101.18 1046.05 1096.6 1051.69 1096.6C1057.36 1096.6 1061.7 1101.18 1061.7 1106.81C1061.7 1112.4 1057.36 1116.94 1051.69 1116.94C1046.05 1116.94 1041.71 1112.4 1041.71 1106.81ZM1051.69 1114.86C1056.11 1114.86 1059.51 1111.27 1059.51 1106.81C1059.51 1102.31 1056.11 1098.72 1051.69 1098.72C1047.26 1098.72 1043.9 1102.31 1043.9 1106.81C1043.9 1111.27 1047.26 1114.86 1051.69 1114.86ZM1083.17 1116.52L1083.06 1112.06C1082.15 1113.8 1079.65 1116.94 1074.85 1116.94C1069.41 1116.94 1065.44 1112.33 1065.44 1106.81C1065.44 1101.29 1069.41 1096.6 1074.85 1096.6C1079.28 1096.6 1081.66 1099.59 1082.72 1101.18V1088.06H1084.87V1116.52H1083.17ZM1075.23 1114.86C1079.5 1114.86 1082.75 1111.04 1082.75 1106.77C1082.75 1102.5 1079.5 1098.72 1075.23 1098.72C1070.77 1098.72 1067.63 1102.31 1067.63 1106.81C1067.63 1111.27 1070.77 1114.86 1075.23 1114.86ZM1102.34 1116.52H1100.15V1088.06H1102.34V1116.52ZM1126.98 1107.83H1110.31C1110.76 1111.8 1113.97 1114.86 1118.06 1114.86C1120.93 1114.86 1122.37 1114.1 1124.56 1112.44L1125.73 1114.18C1123.23 1116.03 1121.19 1116.94 1118.06 1116.94C1112.39 1116.94 1108.04 1112.4 1108.04 1106.81C1108.04 1101.18 1112.46 1096.6 1118.02 1096.6C1123.73 1096.6 1126.98 1101.33 1126.98 1106.88V1107.83ZM1110.31 1105.83H1124.82C1124.6 1102.05 1122.14 1098.68 1118.06 1098.68C1113.97 1098.68 1110.76 1101.78 1110.31 1105.83ZM1133.5 1122.83L1134.18 1120.76C1135.73 1121.44 1137.81 1122.12 1140.49 1122.12C1146.84 1122.12 1147.98 1118.34 1147.98 1113.88V1111.91C1146.92 1113.54 1144.54 1116.37 1140.12 1116.37C1134.67 1116.37 1130.7 1112.06 1130.7 1106.54C1130.7 1101.03 1134.67 1096.6 1140.12 1096.6C1144.92 1096.6 1147.41 1099.78 1148.32 1101.52L1148.43 1097.02H1150.13V1113.73C1150.13 1120.6 1147.45 1124.2 1140.57 1124.2C1137.36 1124.2 1134.82 1123.36 1133.5 1122.83ZM1140.49 1114.29C1144.76 1114.29 1148.02 1110.78 1148.02 1106.54C1148.02 1102.42 1144.76 1098.72 1140.49 1098.72C1136.03 1098.72 1132.9 1102.08 1132.9 1106.54C1132.9 1111.04 1136.03 1114.29 1140.49 1114.29ZM1156.03 1114.33L1157.13 1112.36C1159.43 1113.99 1161.74 1114.86 1164.23 1114.86C1168.24 1114.86 1169.71 1113.16 1169.71 1111.16C1169.71 1108.89 1167.86 1108.28 1164.04 1107.75C1160.41 1107.26 1156.75 1106.54 1156.75 1102.46C1156.75 1098.98 1159.47 1096.6 1163.89 1096.6C1166.08 1096.6 1168.84 1097.21 1171.34 1098.87L1170.28 1100.84C1168.09 1099.29 1165.89 1098.72 1163.89 1098.72C1160.49 1098.72 1158.9 1100.08 1158.9 1102.35C1158.9 1104.69 1160.75 1105.18 1164.5 1105.67C1168.12 1106.2 1171.87 1107 1171.87 1111.04C1171.87 1114.41 1169.18 1116.94 1164.19 1116.94C1162.08 1116.94 1158.98 1116.41 1156.03 1114.33Z" fill="#FFAF5F"/>
<path d="M837.608 340.133L839.082 341.758C836.663 344.518 832.808 346.218 829.028 346.218C821.468 346.218 815.496 340.133 815.496 332.498C815.496 324.862 821.468 318.777 829.028 318.777C832.921 318.777 836.663 320.516 839.158 323.237L837.57 324.9C835.794 322.821 832.808 320.893 829.028 320.893C822.678 320.893 817.726 326.223 817.726 332.498C817.726 338.772 822.678 344.102 829.028 344.102C832.808 344.102 835.681 342.287 837.608 340.133ZM858.032 345.727L857.729 341.758C856.482 344.555 853.874 346.143 850.434 346.143C846.466 346.143 843.366 343.648 843.366 339.906C843.366 335.899 846.768 333.934 851.266 333.934C853.798 333.934 855.688 334.388 857.578 334.992C857.578 329.209 856.406 327.924 851.833 327.924C849.376 327.924 846.995 328.34 845.521 328.718L845.029 326.677C845.861 326.336 849.263 325.807 852.06 325.807C858.372 325.807 859.771 328.378 859.771 334.955V345.727H858.032ZM857.578 337.487V336.996C855.726 336.353 853.912 335.899 851.417 335.899C847.902 335.899 845.558 337.26 845.558 339.906C845.558 342.514 847.637 344.064 850.661 344.064C855.499 344.064 857.578 340.851 857.578 337.487ZM869.223 352.984H867.069V326.223H868.77L868.883 330.683C869.79 328.982 872.285 325.807 877.085 325.807C882.528 325.807 886.497 330.456 886.497 335.975C886.497 341.494 882.528 346.143 877.085 346.143C872.663 346.143 870.281 343.195 869.223 341.569V352.984ZM876.707 344.064C881.167 344.064 884.305 340.473 884.305 335.975C884.305 331.515 881.167 327.924 876.707 327.924C872.436 327.924 869.223 331.704 869.223 335.975C869.223 340.246 872.436 344.064 876.707 344.064ZM905.354 345.727L905.051 341.758C903.804 344.555 901.196 346.143 897.756 346.143C893.787 346.143 890.688 343.648 890.688 339.906C890.688 335.899 894.09 333.934 898.588 333.934C901.12 333.934 903.01 334.388 904.9 334.992C904.9 329.209 903.728 327.924 899.155 327.924C896.698 327.924 894.317 328.34 892.842 328.718L892.351 326.677C893.183 326.336 896.584 325.807 899.382 325.807C905.694 325.807 907.092 328.378 907.092 334.955V345.727H905.354ZM904.9 337.487V336.996C903.048 336.353 901.234 335.899 898.739 335.899C895.224 335.899 892.88 337.26 892.88 339.906C892.88 342.514 894.959 344.064 897.983 344.064C902.821 344.064 904.9 340.851 904.9 337.487ZM928.111 341.569L929.623 343.081C927.393 345.236 925.05 346.143 922.404 346.143C916.772 346.143 912.425 341.607 912.425 336.013C912.425 330.381 916.772 325.807 922.404 325.807C925.05 325.807 927.544 326.828 929.585 328.869L928.111 330.381C926.637 328.945 924.785 327.924 922.404 327.924C917.981 327.924 914.617 331.515 914.617 336.013C914.617 340.473 917.981 344.064 922.404 344.064C924.709 344.064 926.486 343.195 928.111 341.569ZM934.418 318.852C934.418 317.87 935.136 317.076 936.157 317.076C937.102 317.076 937.895 317.87 937.895 318.852C937.895 319.797 937.102 320.591 936.157 320.591C935.136 320.591 934.418 319.797 934.418 318.852ZM937.253 345.727H935.061V326.223H937.253V345.727ZM954.29 343.27L955.084 345.16C953.799 345.84 952.249 346.143 950.851 346.143C947.108 346.143 945.181 343.913 945.181 339.793V328.302H942.421V326.299H945.219V321.801H947.373V326.299H954.517V328.302H947.373V339.793C947.373 342.628 948.431 344.064 950.851 344.064C952.098 344.064 953.156 343.762 954.29 343.27ZM964.536 352.984H962.23L965.254 345.576L957.317 326.223H959.622L966.388 342.854H966.464L973.23 326.223H975.535L964.536 352.984ZM985.511 336.013C985.511 330.381 989.858 325.807 995.49 325.807C1001.16 325.807 1005.51 330.381 1005.51 336.013C1005.51 341.607 1001.16 346.143 995.49 346.143C989.858 346.143 985.511 341.607 985.511 336.013ZM995.49 344.064C999.912 344.064 1003.31 340.473 1003.31 336.013C1003.31 331.515 999.912 327.924 995.49 327.924C991.067 327.924 987.703 331.515 987.703 336.013C987.703 340.473 991.067 344.064 995.49 344.064ZM1013.89 345.727H1011.74V328.302H1008.53V326.299H1011.74V322.708C1011.74 318.928 1013.74 316.849 1017.18 316.849C1018.51 316.849 1019.9 317.114 1021.34 317.756L1020.62 319.684C1019.22 319.155 1018.36 318.928 1017.18 318.928C1015.03 318.928 1013.89 320.138 1013.89 322.746V326.299H1020.7V328.302H1013.89V345.727ZM1038.78 345.727H1036.58V321.876L1031.37 323.842L1030.61 321.838L1037.34 319.268H1038.78V345.727ZM1046 344.253C1046 343.195 1046.8 342.363 1047.89 342.363C1048.95 342.363 1049.78 343.195 1049.78 344.253C1049.78 345.273 1048.95 346.143 1047.89 346.143C1046.8 346.143 1046 345.273 1046 344.253ZM1060.66 332.195V332.12C1059.71 331.817 1055.63 330.456 1055.63 325.958C1055.63 321.763 1058.92 318.777 1064.32 318.777C1069.69 318.777 1073.02 321.763 1073.02 325.958C1073.02 330.456 1068.9 331.817 1067.95 332.12V332.195C1069.01 332.46 1073.7 333.858 1073.7 338.848C1073.7 342.854 1070.86 346.218 1064.32 346.218C1057.75 346.218 1054.91 342.854 1054.91 338.848C1054.91 333.858 1059.6 332.46 1060.66 332.195ZM1057.82 326.034C1057.82 329.436 1060.85 331.137 1064.32 331.137C1067.76 331.137 1070.79 329.436 1070.79 326.034C1070.79 322.935 1068.25 320.893 1064.32 320.893C1060.35 320.893 1057.82 322.935 1057.82 326.034ZM1057.14 338.772C1057.14 341.683 1059.14 344.102 1064.32 344.102C1069.46 344.102 1071.47 341.683 1071.47 338.772C1071.47 335.106 1068.22 333.254 1064.32 333.254C1060.39 333.254 1057.14 335.106 1057.14 338.772ZM1089.33 345.727H1087.14V317.265H1089.33V345.727ZM1096.35 318.852C1096.35 317.87 1097.07 317.076 1098.09 317.076C1099.04 317.076 1099.83 317.87 1099.83 318.852C1099.83 319.797 1099.04 320.591 1098.09 320.591C1097.07 320.591 1096.35 319.797 1096.35 318.852ZM1099.19 345.727H1097V326.223H1099.19V345.727ZM1116.23 343.27L1117.02 345.16C1115.73 345.84 1114.18 346.143 1112.79 346.143C1109.04 346.143 1107.12 343.913 1107.12 339.793V328.302H1104.36V326.299H1107.15V321.801H1109.31V326.299H1116.45V328.302H1109.31V339.793C1109.31 342.628 1110.37 344.064 1112.79 344.064C1114.03 344.064 1115.09 343.762 1116.23 343.27ZM1139.47 337.033H1122.8C1123.26 341.002 1126.47 344.064 1130.55 344.064C1133.43 344.064 1134.86 343.308 1137.05 341.645L1138.23 343.384C1135.73 345.236 1133.69 346.143 1130.55 346.143C1124.88 346.143 1120.54 341.607 1120.54 336.013C1120.54 330.381 1124.96 325.807 1130.52 325.807C1136.22 325.807 1139.47 330.532 1139.47 336.088V337.033ZM1122.8 335.03H1137.32C1137.09 331.25 1134.64 327.886 1130.55 327.886C1126.47 327.886 1123.26 330.986 1122.8 335.03ZM1147.36 345.727H1145.2V326.223H1146.91L1147.13 330.948C1147.89 329.285 1149.78 325.656 1155.56 325.807L1155.26 328.113C1150.04 327.886 1147.36 332.044 1147.36 336.353V345.727ZM1159 343.535L1160.1 341.569C1162.41 343.195 1164.71 344.064 1167.21 344.064C1171.21 344.064 1172.69 342.363 1172.69 340.36C1172.69 338.092 1170.83 337.487 1167.02 336.958C1163.39 336.466 1159.72 335.748 1159.72 331.666C1159.72 328.189 1162.44 325.807 1166.87 325.807C1169.06 325.807 1171.82 326.412 1174.31 328.075L1173.25 330.041C1171.06 328.491 1168.87 327.924 1166.87 327.924C1163.46 327.924 1161.88 329.285 1161.88 331.553C1161.88 333.896 1163.73 334.388 1167.47 334.879C1171.1 335.408 1174.84 336.202 1174.84 340.246C1174.84 343.61 1172.16 346.143 1167.17 346.143C1165.05 346.143 1161.95 345.614 1159 343.535Z" fill="#FFAF5F"/>
</svg>
