<svg width="2497" height="1910" viewBox="0 0 2497 1910" fill="none" xmlns="http://www.w3.org/2000/svg">
<path d="M1319.67 931.103C1318.22 1056.67 1279.25 1181 1197.78 1278.15C1121.81 1368.89 1017.95 1422.84 904.761 1446.1C904.657 1447.65 904.554 1449.3 904.554 1450.85C1019.29 1427.49 1124.5 1373.03 1201.41 1281.15C1283.5 1183.17 1322.89 1057.81 1324.34 931.103C1322.37 931.103 1321.44 931.103 1319.67 931.103Z" fill="#FFAF5F"/>
<path d="M1252.2 1077.45C1237.27 1091.81 1221.83 1105.56 1205.04 1117.86C1205.14 1118.89 1205.24 1119.41 1205.35 1120.44C1207.73 1140.7 1208.56 1161.16 1208.04 1181.52C1226.7 1169.74 1244.32 1157.13 1261.52 1143.28C1259.66 1121.06 1256.55 1099.25 1252.2 1077.45ZM1213.53 1171.7C1213.64 1154.55 1212.5 1137.39 1210.63 1120.44C1224 1110.42 1236.86 1099.67 1248.98 1088.2C1252.2 1105.66 1254.37 1123.13 1255.93 1140.8C1242.25 1151.65 1228.25 1162.09 1213.53 1171.7Z" fill="#FFAF5F"/>
<path d="M1215.82 1122.82C1215.92 1123.85 1216.02 1124.37 1216.13 1125.5C1217.47 1138.01 1218.2 1150.62 1218.41 1163.23C1229.7 1155.58 1240.69 1147.42 1251.37 1138.84C1250.23 1125.09 1248.57 1111.35 1246.29 1097.7C1236.44 1106.39 1226.28 1114.86 1215.82 1122.82ZM1245.77 1136.25C1236.96 1143.38 1232.5 1146.69 1223.49 1153.1C1222.97 1141.83 1222.55 1136.25 1221.41 1125.3C1230.02 1118.79 1234.16 1115.27 1242.56 1108.14C1244.11 1119.2 1244.73 1124.78 1245.77 1136.25Z" fill="#FFAF5F"/>
<path d="M1258 1054.92C1272.72 1038.48 1286.19 1021.43 1298.94 1003.34C1291.27 982.572 1282.67 962.625 1272.72 942.782C1262.15 960.765 1250.85 978.231 1238 994.767C1238.41 995.697 1238.62 996.214 1239.03 997.144C1246.6 1015.95 1252.92 1035.28 1258 1054.92ZM1292.83 1002.52C1282.67 1016.78 1271.99 1030.73 1260.49 1043.96C1255.93 1027.53 1250.33 1011.41 1243.91 995.594C1254.06 982.261 1263.7 968.309 1272.31 953.944C1279.98 969.859 1286.71 986.085 1292.83 1002.52Z" fill="#FFAF5F"/>
<path d="M1250.54 999.004C1255.1 1010.68 1259.25 1022.57 1262.87 1034.56C1271.68 1024.01 1280.08 1013.16 1287.85 1002C1283.19 989.083 1277.9 976.371 1272.1 963.969C1265.05 975.13 1257.48 986.085 1249.5 996.627C1250.02 997.454 1250.23 997.971 1250.54 999.004ZM1281.95 1001.07C1275.42 1010.37 1272 1014.82 1265.05 1023.5C1261.53 1012.85 1259.66 1007.58 1255.62 997.351C1262.15 988.669 1265.26 984.225 1271.37 974.924C1275.83 985.155 1278.01 990.426 1281.95 1001.07Z" fill="#FFAF5F"/>
<path d="M1195.81 1201.57C1177.26 1211.29 1158.29 1220.17 1138.49 1227.2C1138.28 1228.23 1138.18 1228.75 1138.08 1229.78C1134.45 1250.04 1128.75 1269.78 1122.22 1289.21C1143.99 1283.22 1165.03 1275.98 1185.96 1267.4C1190.63 1245.6 1193.94 1223.89 1195.81 1201.57ZM1130.61 1281.46C1136 1265.03 1140.05 1248.28 1143.16 1231.34C1159.01 1225.44 1174.56 1218.73 1189.7 1211.08C1187.93 1228.85 1184.93 1246.22 1181.3 1263.68C1164.61 1270.3 1147.82 1276.19 1130.61 1281.46Z" fill="#FFAF5F"/>
<path d="M1147.51 1235.06C1147.3 1236.09 1147.2 1236.61 1146.99 1237.64C1144.61 1250.15 1141.5 1262.44 1137.97 1274.64C1151.35 1270.51 1164.51 1265.75 1177.36 1260.38C1180.37 1246.84 1182.65 1233.09 1184.31 1219.35C1172.28 1225.13 1160.05 1230.41 1147.51 1235.06ZM1172.7 1256.35C1162.02 1260.69 1156.74 1262.75 1145.96 1266.37C1148.86 1255.42 1150.1 1249.94 1152.28 1238.98C1162.54 1235.06 1167.62 1232.99 1177.78 1228.34C1176.12 1239.5 1175.08 1245.18 1172.7 1256.35Z" fill="#FFAF5F"/>
<path d="M1103.87 1305.23C1082.21 1309.36 1060.65 1312.15 1038.68 1313.71C1038.16 1314.64 1037.85 1315.15 1037.33 1316.08C1026.76 1334.69 1014.21 1351.94 1000.74 1368.58C1024.79 1369 1048.52 1368.17 1072.47 1365.79C1084.39 1346.16 1094.75 1326.31 1103.87 1305.23ZM1012.04 1363.31C1022.82 1348.95 1032.98 1334.38 1041.99 1318.77C1059.72 1317.63 1077.23 1315.36 1094.85 1312.46C1087.08 1329 1078.69 1344.92 1069.15 1360.52C1050.08 1362.38 1031.11 1363.31 1012.04 1363.31Z" fill="#FFAF5F"/>
<path d="M1045 1323.73C1044.48 1324.66 1044.17 1325.18 1043.65 1326.11C1037.02 1337.48 1029.66 1348.43 1021.89 1358.97C1036.81 1358.66 1051.53 1357.84 1066.35 1356.49C1073.71 1344.3 1080.66 1331.9 1086.87 1319.08C1072.99 1321.25 1058.99 1322.8 1045 1323.73ZM1062.93 1351.33C1052.88 1352.36 1042.82 1352.98 1032.67 1353.29C1038.16 1345.43 1043.45 1337.17 1048.32 1328.9C1057.96 1328.28 1067.7 1327.24 1077.24 1325.9C1072.88 1334.48 1068.01 1343.06 1062.93 1351.33Z" fill="#FFAF5F"/>
<path d="M908.389 1368.79C908.389 1370.65 908.285 1372.51 908.078 1374.27C926.839 1377.99 945.599 1380.99 964.567 1383.16C950.264 1396.9 935.545 1409.61 919.79 1421.81C915.333 1420.98 910.876 1420.16 906.523 1419.23C906.419 1421.09 906.212 1422.95 906.005 1424.7C911.084 1425.74 916.266 1426.67 921.345 1427.6C940.935 1412.61 959.592 1396.8 976.487 1378.82C953.477 1376.65 930.985 1373.34 908.389 1368.79Z" fill="#FFAF5F"/>
<path d="M933.68 1357.11C937.307 1357.73 939.173 1358.04 942.801 1358.56C956.483 1360.52 970.268 1362.07 984.054 1362.9C994.315 1350.6 1003.85 1337.99 1012.87 1324.76C987.267 1337.89 961.147 1348.43 933.68 1357.11ZM981.566 1357.32C971.098 1356.6 965.915 1356.08 955.55 1354.84C969.646 1349.67 983.432 1344.09 997.114 1337.89C991.309 1345.74 988.2 1349.67 981.566 1357.32Z" fill="#FFAF5F"/>
<path d="M1036.71 1384.4C1022.3 1384.71 1008 1384.71 993.588 1383.98C981.565 1397.21 968.712 1409.41 955.237 1421.19C986.747 1411.27 1016.91 1399.07 1046.35 1383.98C1042.41 1384.19 1040.54 1384.29 1036.71 1384.4ZM996.076 1389.67C1007.06 1390.18 1012.66 1390.29 1023.65 1390.18C1008.41 1397.42 992.655 1403.72 976.797 1409.41C984.881 1401.55 988.716 1397.63 996.076 1389.67Z" fill="#FFAF5F"/>
<path d="M1059.3 1296.14C1062.62 1295.72 1064.38 1295.52 1067.7 1295.1C1080.34 1293.45 1092.99 1291.18 1105.43 1288.38C1110.51 1273.92 1114.86 1259.55 1118.59 1244.67C1100.14 1263.58 1080.66 1280.43 1059.3 1296.14ZM1101.39 1283.84C1091.85 1285.9 1087.08 1286.83 1077.65 1288.28C1088.43 1279.81 1098.9 1270.82 1108.75 1261.2C1106.15 1270.3 1104.6 1274.74 1101.39 1283.84Z" fill="#FFAF5F"/>
<path d="M1159.64 1295C1146.89 1299.24 1134.04 1302.96 1120.98 1306.06C1114.76 1321.46 1107.81 1336.65 1099.83 1351.22C1124.4 1333.24 1146.89 1313.71 1168.14 1292C1164.82 1293.24 1163.06 1293.86 1159.64 1295ZM1125.12 1310.71C1135.07 1308.23 1140.05 1306.88 1149.89 1303.89C1138.49 1314.53 1126.88 1324.66 1114.76 1334.38C1119.21 1324.97 1121.29 1320.22 1125.12 1310.71Z" fill="#FFAF5F"/>
<path d="M1151.86 1205.08C1154.87 1203.84 1156.32 1203.12 1159.22 1201.78C1170.42 1196.71 1181.4 1191.13 1192.08 1185.14C1192.39 1169.95 1192.18 1155.06 1191.35 1139.87C1179.74 1162.81 1166.79 1184.21 1151.86 1205.08ZM1187 1181.93C1178.81 1186.48 1174.67 1188.65 1166.37 1192.68C1173.84 1181.62 1180.78 1170.15 1187.1 1158.47C1187.31 1167.78 1187.31 1172.43 1187 1181.93Z" fill="#FFAF5F"/>
<path d="M1244.63 1176.56C1234.06 1184.1 1223.07 1191.13 1211.88 1197.64C1210.84 1213.97 1209.08 1230.2 1206.28 1246.32C1223.49 1222.34 1238.51 1197.64 1251.78 1171.39C1248.88 1173.46 1247.43 1174.49 1244.63 1176.56ZM1216.96 1200.95C1225.45 1195.89 1229.7 1193.3 1238 1187.72C1230.64 1200.85 1222.86 1213.66 1214.57 1226.37C1215.82 1216.04 1216.33 1210.98 1216.96 1200.95Z" fill="#FFAF5F"/>
<path d="M1217.47 1087.89C1226.7 1079.93 1235.61 1071.56 1244.22 1062.87C1240.38 1048.3 1236.03 1034.04 1231.16 1019.78C1226.18 1044.79 1219.65 1068.97 1211.36 1093.16C1213.74 1090.99 1214.99 1089.95 1217.47 1087.89ZM1238.31 1061.12C1231.78 1067.73 1228.36 1070.94 1221.62 1077.14C1225.66 1064.42 1229.08 1051.61 1231.98 1038.59C1234.68 1047.48 1235.92 1052.02 1238.31 1061.12Z" fill="#FFAF5F"/>
<path d="M1291.9 1039.93C1283.81 1050.06 1275.21 1059.88 1266.29 1069.28C1269.82 1085.2 1272.62 1101.22 1274.59 1117.44C1284.23 1089.75 1291.69 1061.84 1297.39 1033.01C1295.21 1035.8 1294.07 1037.24 1291.9 1039.93ZM1272.2 1071.04C1278.94 1063.91 1282.26 1060.19 1288.68 1052.54C1285.26 1067.22 1281.32 1081.58 1276.97 1096.05C1275.31 1085.82 1274.38 1080.86 1272.2 1071.04Z" fill="#FFAF5F"/>
<path d="M908.492 1379.64C907.766 1380.26 907.248 1380.57 906.626 1381.09C906.626 1381.19 906.626 1381.3 906.73 1381.3C907.663 1383.16 907.974 1385.22 907.766 1387.19C908.492 1386.57 909.321 1386.05 910.047 1385.43C920.412 1387.6 930.88 1389.46 941.453 1390.91C933.575 1397.94 925.283 1404.76 916.888 1411.06C913.467 1410.44 910.047 1409.72 906.73 1408.99C906.73 1409.2 906.73 1409.3 906.73 1409.41C906.73 1410.96 906.626 1412.41 906.419 1413.85C906.523 1414.06 906.523 1414.37 906.523 1414.68C910.461 1415.51 914.4 1416.23 918.339 1416.85C930.57 1407.34 942.386 1397.42 953.787 1386.98C938.654 1385.12 923.521 1382.64 908.492 1379.64Z" fill="#FFAF5F"/>
<path d="M1261.63 931.103C1259.25 931.103 1258 931.103 1255.52 931.103C1250.85 939.268 1248.47 943.299 1243.49 951.153C1243.8 943.195 1243.91 939.165 1243.91 931.103C1242.04 931.103 1241.11 931.103 1239.35 931.103C1239.35 943.815 1238.83 956.424 1237.89 969.136C1246.29 956.734 1254.17 944.125 1261.63 931.103Z" fill="#FFAF5F"/>
<path d="M1306.82 931.103C1304.96 931.103 1304.02 931.103 1302.26 931.103C1302.26 940.095 1302.16 944.642 1301.85 953.737C1297.6 944.539 1295.32 939.991 1290.65 931.103C1288.27 931.103 1287.02 931.103 1284.54 931.103C1292.1 945.366 1299.05 959.938 1305.16 974.82C1306.1 960.248 1306.61 945.779 1306.82 931.103Z" fill="#FFAF5F"/>
<path d="M1232.3 994.147C1247.64 973.994 1261.11 953.22 1273.45 931.103H1267.33C1256.97 949.5 1245.98 967.379 1233.23 984.225C1234.99 966.552 1235.93 948.88 1236.13 931.103H1231.57C1230.12 1035.9 1197.99 1139.25 1129.99 1220.38C1071.74 1289.94 994.109 1333.34 908.701 1355.05C908.597 1355.87 908.597 1356.7 908.493 1357.42C908.39 1358.04 908.39 1358.56 908.39 1359.18C908.39 1359.28 908.39 1359.28 908.39 1359.39C908.804 1360.63 908.908 1361.97 908.908 1363.21C935.442 1368.58 961.873 1372.2 988.926 1374.06C1006.55 1353.5 1021.78 1332.21 1035.36 1308.74C1061.79 1306.99 1087.5 1303.27 1113.41 1297.69C1122.32 1273.4 1129.06 1249.11 1133.93 1223.58C1157.77 1214.7 1180.26 1204.26 1202.45 1191.96C1203.38 1166.22 1202.55 1141.11 1199.65 1115.58C1219.76 1100.49 1238.1 1084.27 1255.83 1066.49C1249.5 1041.69 1241.94 1017.81 1232.3 994.147ZM986.335 1368.38C962.392 1366.62 938.863 1363.52 915.334 1359.08C954.307 1348.33 990.792 1333.76 1026.03 1314.02C1014.11 1333.24 1001.05 1351.12 986.335 1368.38ZM1109.26 1293.04C1087.7 1297.69 1066.15 1300.89 1044.17 1302.85C1074.96 1282.08 1102.11 1258.52 1127.09 1231.13C1122.53 1252.21 1116.62 1272.68 1109.26 1293.04ZM1197.16 1188.65C1178.61 1198.78 1159.74 1208.19 1139.94 1215.63C1161.92 1187.1 1180.06 1157.13 1195.29 1124.57C1197.26 1145.97 1197.89 1167.16 1197.16 1188.65ZM1230.74 1003.97C1238.62 1023.71 1244.63 1044.07 1249.92 1064.74C1235.2 1079.51 1219.86 1093.67 1203.17 1106.28C1215.82 1072.9 1224.83 1039.1 1230.74 1003.97Z" fill="#FFAF5F"/>
<path d="M1222.76 931.103C1221.31 1033.73 1189.8 1135.01 1123.26 1214.59C1066.77 1282.08 991.62 1324.35 908.907 1345.85C908.907 1346.05 908.907 1346.26 908.907 1346.47C908.907 1347.81 908.907 1349.26 908.907 1350.6C992.968 1329 1069.46 1286.11 1126.78 1217.59C1194.05 1137.29 1225.87 1034.87 1227.32 931.103H1222.76Z" fill="#FFAF5F"/>
<path d="M1310.34 931.103C1310.34 951.463 1309.31 971.927 1307.03 992.183C1298.94 971.307 1289.92 951.05 1279.56 931.103C1277.18 931.103 1275.93 931.103 1273.44 931.103C1285.88 954.874 1296.45 978.955 1305.58 1004.17C1305.58 1004.48 1305.47 1004.69 1305.47 1005C1290.24 1026.7 1273.86 1046.96 1255.72 1066.39C1261.52 1092.64 1265.36 1118.79 1267.54 1145.66C1267.43 1145.97 1267.33 1146.18 1267.23 1146.49C1246.6 1163.33 1225.25 1178.21 1202.44 1191.86C1200.68 1218.93 1196.95 1245.18 1191.04 1271.64C1190.83 1271.95 1190.73 1272.06 1190.52 1272.37C1165.34 1282.8 1140.05 1291.18 1113.62 1297.79C1103.25 1323.52 1091.02 1347.5 1076.4 1371.07C1076.09 1371.27 1075.89 1371.38 1075.58 1371.58C1046.66 1374.48 1018.05 1375.3 989.027 1373.96C968.919 1395.97 947.153 1415.51 923.209 1433.49C922.795 1433.59 922.587 1433.59 922.173 1433.7C916.783 1432.77 911.393 1431.73 906.107 1430.59C906.107 1432.56 905.796 1434.42 905.381 1436.28C906.211 1436.49 907.04 1436.59 907.869 1436.8C906.936 1437 906.107 1437.11 905.174 1437.31C905.174 1437.93 905.07 1438.55 904.967 1439.07C905.278 1437.31 905.07 1440.41 905.07 1441.14C1016.81 1417.88 1119.32 1364.55 1194.26 1274.95C1274.9 1178.63 1313.56 1055.43 1315.01 931C1313.14 931.103 1312.21 931.103 1310.34 931.103ZM937.098 1430.08C956.481 1414.58 974.827 1398.14 991.411 1379.64C1015.87 1380.57 1039.92 1380.16 1064.38 1378.3C1023.85 1400.93 981.772 1417.78 937.098 1430.08ZM1087.08 1364.14C1098.69 1344.09 1108.74 1323.83 1117.45 1302.44C1139.53 1296.76 1160.98 1289.94 1182.34 1281.67C1153.73 1313.19 1122.43 1340.27 1087.08 1364.14ZM1198.71 1262.24C1203.07 1239.91 1205.97 1217.8 1207.52 1195.16C1226.59 1183.69 1244.73 1171.19 1262.25 1157.54C1244.84 1194.96 1223.9 1229.58 1198.71 1262.24ZM1271.99 1134.6C1269.71 1112.17 1266.29 1090.26 1261.52 1068.15C1276.66 1051.82 1290.55 1034.87 1303.71 1016.99C1297.08 1057.4 1286.71 1096.26 1271.99 1134.6Z" fill="#FFAF5F"/>
<path d="M1201.3 581.056C1118.28 481.943 1002.3 426.237 876.982 406.394C877.19 406.807 877.293 407.324 877.501 407.841C877.501 407.944 877.501 408.048 877.501 408.254C878.434 409.184 879.263 410.321 879.781 411.562C1002.61 431.715 1116.21 486.8 1197.78 584.053C1279.15 681.202 1318.22 805.533 1319.67 931.103C1321.54 931.103 1322.47 931.103 1324.23 931.103C1322.78 804.396 1283.4 679.032 1201.3 581.056Z" fill="#FFAF5F"/>
<path d="M1000.53 493.622C1014.53 511.088 1026.86 528.967 1038.16 548.294C1039.3 548.397 1039.82 548.397 1040.85 548.501C1062 550.154 1082.83 552.945 1103.67 556.975C1094.44 535.788 1083.87 515.842 1071.74 496.205C1048.01 493.828 1024.48 493.105 1000.53 493.622ZM1094.54 549.534C1076.92 546.537 1059.3 544.47 1041.48 543.126C1032.56 527.624 1022.51 513.051 1011.73 498.789C1030.7 498.789 1049.46 499.616 1068.42 501.269C1078.06 516.979 1086.77 532.895 1094.54 549.534Z" fill="#FFAF5F"/>
<path d="M1044.69 538.269C1045.83 538.373 1046.35 538.373 1047.49 538.476C1060.65 539.406 1073.71 540.956 1086.67 543.023C1080.45 530.105 1073.3 517.703 1065.83 505.404C1051.11 504.164 1036.5 503.44 1021.68 503.13C1029.97 514.499 1037.64 526.177 1044.69 538.269ZM1062.52 510.675C1067.7 518.943 1072.57 527.521 1077.03 536.202C1067.39 534.859 1057.64 533.825 1048 533.205C1042.3 523.387 1039.19 518.529 1032.46 508.814C1042.51 509.021 1052.57 509.641 1062.52 510.675Z" fill="#FFAF5F"/>
<path d="M920.516 435.022C913.053 436.366 905.694 437.916 898.335 439.466C898.335 439.57 898.439 439.673 898.439 439.673C899.061 440.81 899.475 442.05 899.682 443.187C899.993 443.6 900.304 444.117 900.512 444.53C906.627 443.29 912.742 442.05 918.961 440.913C934.82 453.005 949.746 465.821 964.153 479.67C950.989 481.22 937.826 483.08 924.869 485.354C925.18 485.974 925.491 486.594 925.802 487.214C926.321 488.248 926.735 489.384 926.942 490.418C943.216 487.627 959.592 485.457 976.176 484.01C959.178 465.924 940.313 450.008 920.516 435.022Z" fill="#FFAF5F"/>
<path d="M917.82 445.771C912.845 446.598 907.973 447.631 902.998 448.665C903.724 449.595 904.242 450.525 904.656 451.558C905.278 452.178 905.797 452.902 906.211 453.625C909.528 452.902 912.948 452.282 916.265 451.662C924.765 458.069 933.16 464.787 941.038 471.918C933.679 472.952 926.319 474.192 918.96 475.536C920.1 477.189 921.137 478.843 922.173 480.496C932.642 478.636 943.111 476.983 953.579 475.742C942.074 465.201 930.258 455.279 917.82 445.771Z" fill="#FFAF5F"/>
<path d="M1122.01 572.685C1128.75 592.941 1134.55 613.405 1138.18 634.488C1139.12 634.798 1139.63 635.005 1140.67 635.418C1159.64 642.343 1178.09 650.817 1195.81 660.429C1193.74 638.002 1190.32 616.092 1185.45 594.078C1164.61 585.707 1143.68 578.576 1122.01 572.685ZM1189.49 651.024C1174.36 643.273 1158.7 636.452 1142.85 630.561C1139.74 613.715 1135.69 596.972 1130.41 580.643C1147.61 585.5 1164.2 591.494 1180.78 598.109C1184.51 615.678 1187.42 633.144 1189.49 651.024Z" fill="#FFAF5F"/>
<path d="M1147.3 626.84C1148.34 627.253 1148.75 627.357 1149.79 627.77C1161.5 632.214 1173.01 637.175 1184.2 642.652C1182.44 628.804 1180.06 614.955 1176.95 601.312C1164.09 596.042 1151.03 591.391 1137.77 587.36C1141.6 600.382 1144.82 613.508 1147.3 626.84ZM1172.39 605.446C1174.87 616.815 1175.91 622.396 1177.57 633.661C1167.41 629.01 1162.23 626.84 1151.97 622.913C1149.89 612.061 1148.65 606.583 1145.75 595.628C1156.42 599.142 1161.71 601.106 1172.39 605.446Z" fill="#FFAF5F"/>
<path d="M1207.94 680.582C1208.15 701.769 1207.52 722.853 1204.83 743.936C1205.66 744.556 1206.07 744.866 1206.9 745.486C1222.76 757.785 1237.69 770.704 1252.2 784.656C1256.45 762.642 1259.45 740.732 1261.21 718.408C1244.11 704.663 1226.6 692.157 1207.94 680.582ZM1248.88 773.908C1236.75 762.332 1223.8 751.481 1210.43 741.456C1212.4 724.506 1213.43 707.453 1213.43 690.401C1228.05 699.805 1242.25 709.934 1255.72 720.889C1254.17 738.665 1252.09 756.338 1248.88 773.908Z" fill="#FFAF5F"/>
<path d="M1215.71 739.078C1216.54 739.698 1216.95 740.008 1217.78 740.628C1227.63 748.173 1237.06 756.131 1246.18 764.399C1248.46 750.653 1250.12 736.805 1251.16 722.956C1240.59 714.481 1229.7 706.42 1218.41 698.875C1218.09 712.311 1217.16 725.746 1215.71 739.078ZM1245.56 725.539C1244.63 737.011 1244.01 742.696 1242.45 753.857C1234.16 746.623 1229.91 743.109 1221.31 736.598C1222.45 725.643 1222.86 720.165 1223.38 708.9C1232.4 715.204 1236.75 718.512 1245.56 725.539Z" fill="#FFAF5F"/>
<path d="M1258.62 807.083C1253.03 827.443 1246.7 847.493 1238.51 866.923C1239.14 867.75 1239.45 868.163 1240.07 868.99C1252.3 884.906 1263.39 901.855 1273.34 919.321C1283.19 899.375 1291.79 879.118 1299.46 858.138C1286.82 840.362 1273.24 823.412 1258.62 807.083ZM1273.03 908.159C1264.43 893.587 1254.79 879.635 1244.63 866.199C1250.95 850.49 1256.65 834.367 1261.21 818.038C1272.72 831.164 1283.29 844.909 1293.55 859.172C1287.33 875.708 1280.7 892.14 1273.03 908.159Z" fill="#FFAF5F"/>
<path d="M1231.16 842.429C1232.19 839.328 1232.81 837.778 1233.75 834.677C1237.69 822.896 1241.11 810.907 1244.01 798.918C1233.44 788.48 1222.66 778.662 1211.25 769.05C1219.65 793.234 1226.18 817.418 1231.16 842.429ZM1238.2 800.675C1235.92 809.873 1234.68 814.421 1231.88 823.412C1228.98 810.39 1225.45 797.575 1221.52 784.863C1228.36 790.96 1231.67 794.164 1238.2 800.675Z" fill="#FFAF5F"/>
<path d="M1273.45 753.547C1271.58 766.569 1269.2 779.592 1266.29 792.407C1277.18 804.292 1287.44 816.384 1297.39 828.993C1291.69 800.262 1284.23 772.254 1274.59 744.556C1274.17 748.277 1273.96 750.033 1273.45 753.547ZM1272.2 790.753C1274.38 781.039 1275.31 776.078 1276.97 766.053C1281.32 780.418 1285.26 794.887 1288.68 809.563C1282.26 801.812 1278.94 798.091 1272.2 790.753Z" fill="#FFAF5F"/>
<path d="M1191.35 722.232C1191.56 719.028 1191.67 717.375 1191.77 714.068C1192.39 701.666 1192.39 689.16 1191.87 676.655C1178.71 669.627 1165.44 663.116 1151.76 657.018C1166.69 677.895 1179.75 699.392 1191.35 722.232ZM1186.79 679.962C1187.1 689.47 1187.21 694.224 1187 703.629C1180.57 691.951 1173.63 680.479 1166.27 669.42C1174.46 673.348 1178.61 675.415 1186.79 679.962Z" fill="#FFAF5F"/>
<path d="M1207.73 624.566C1209.7 637.692 1211.05 650.817 1211.77 664.046C1225.56 672.417 1238.83 681.202 1251.89 690.607C1238.51 664.356 1223.49 639.552 1206.28 615.678C1206.9 619.192 1207.21 620.949 1207.73 624.566ZM1216.96 660.739C1216.33 650.714 1215.82 645.65 1214.67 635.521C1222.97 648.13 1230.74 660.946 1238.1 674.174C1229.7 668.594 1225.45 665.906 1216.96 660.739Z" fill="#FFAF5F"/>
<path d="M1118.59 617.435C1117.87 614.231 1117.45 612.681 1116.52 609.477C1113.31 597.282 1109.47 585.293 1105.01 573.511C1089.78 570.411 1074.54 567.93 1059.1 565.967C1080.55 581.676 1100.04 598.522 1118.59 617.435ZM1101.08 578.162C1104.39 587.257 1105.95 591.804 1108.64 600.796C1098.69 591.288 1088.33 582.296 1077.44 573.821C1086.88 575.268 1091.64 576.095 1101.08 578.162Z" fill="#FFAF5F"/>
<path d="M1103.87 519.149C1109.99 531.138 1115.59 543.437 1120.46 555.942C1136.52 559.869 1152.38 564.52 1167.93 570.204C1146.68 548.501 1124.19 528.968 1099.62 510.985C1101.39 514.292 1102.22 515.945 1103.87 519.149ZM1124.6 551.395C1120.87 541.99 1118.8 537.236 1114.34 527.831C1126.47 537.649 1138.08 547.674 1149.48 558.319C1139.53 555.219 1134.55 553.875 1124.6 551.395Z" fill="#FFAF5F"/>
<path d="M936.269 506.024C962.7 514.498 988.094 524.833 1012.87 537.442C1011 534.652 1010.07 533.205 1008.1 530.414C1000.53 519.562 992.448 509.227 983.741 499.202C967.779 500.236 951.817 502.2 935.958 504.783C935.958 505.197 936.062 505.61 936.269 506.024ZM996.904 524.316C983.223 518.115 969.437 512.535 955.341 507.367C965.602 506.023 970.785 505.507 981.15 504.783C987.783 512.535 990.996 516.462 996.904 524.316Z" fill="#FFAF5F"/>
<path d="M962.598 447.631C973.17 457.346 983.431 467.371 993.071 478.016C1010.8 477.396 1028.42 477.396 1046.24 478.222C1016.81 463.133 986.645 450.938 955.135 441.016C958.141 443.6 959.592 444.944 962.598 447.631ZM995.558 472.435C988.303 464.477 984.468 460.55 976.487 452.798C992.449 458.379 1008.1 464.787 1023.34 471.918C1012.25 471.918 1006.65 472.021 995.558 472.435Z" fill="#FFAF5F"/>
<path d="M1250.23 865.372C1250.85 866.199 1251.16 866.613 1251.78 867.439C1259.25 877.464 1266.19 887.696 1272.82 898.238C1278.63 885.629 1283.81 872.814 1288.58 859.792C1280.7 848.63 1272.41 837.881 1263.6 827.443C1259.66 840.362 1255.2 852.97 1250.23 865.372ZM1282.57 860.722C1278.63 871.47 1276.56 876.741 1272.1 887.076C1265.98 877.774 1262.87 873.227 1256.34 864.546C1260.39 854.417 1262.25 849.146 1265.78 838.501C1272.62 847.079 1276.04 851.523 1282.57 860.722Z" fill="#FFAF5F"/>
<path d="M1237.79 893.07C1238.83 905.679 1239.24 918.391 1239.24 931.103C1241.11 931.103 1242.04 931.103 1243.8 931.103C1243.8 923.145 1243.7 919.115 1243.39 911.053C1248.36 918.805 1250.75 922.835 1255.41 931.103C1257.79 931.103 1259.04 931.103 1261.53 931.103C1261.01 930.07 1260.7 929.656 1260.18 928.623C1253.34 916.427 1245.87 904.542 1237.79 893.07Z" fill="#FFAF5F"/>
<path d="M1284.54 931.103C1286.92 931.103 1288.16 931.103 1290.65 931.103C1295.32 922.318 1297.49 917.771 1301.85 908.469C1302.26 917.461 1302.26 922.008 1302.26 931.103C1304.13 931.103 1305.06 931.103 1306.82 931.103C1306.72 916.427 1306.1 901.958 1305.16 887.386C1299.05 902.268 1292 916.841 1284.54 931.103Z" fill="#FFAF5F"/>
<path d="M1273.55 931.103C1261.21 908.986 1247.74 888.213 1232.4 868.059C1241.94 844.392 1249.61 820.518 1255.72 795.817C1238 777.938 1219.55 761.609 1199.44 746.519C1202.24 721.095 1203.17 695.981 1202.24 670.35C1180.06 657.948 1157.56 647.51 1133.72 638.622C1128.96 613.094 1122.22 588.807 1113.31 564.52C1087.29 558.836 1061.58 555.115 1035.05 553.358C1021.57 530.001 1006.34 508.711 988.821 488.247C969.231 489.591 949.848 491.865 930.569 495.068C932.02 496.515 932.953 498.169 933.575 499.926C951.092 497.135 968.505 495.068 986.333 493.725C1000.95 510.984 1014.01 528.761 1025.82 547.984C997.839 532.275 969.024 519.976 938.861 510.158C939.691 512.225 940.105 514.188 940.312 516.359C1013.18 540.129 1079.1 580.952 1130.1 641.826C1198.09 722.956 1230.22 826.306 1231.67 931.103H1236.23C1236.03 913.327 1235.09 895.654 1233.33 877.981C1246.08 894.827 1257.07 912.707 1267.43 931.103C1269.82 931.103 1271.06 931.103 1273.55 931.103ZM1043.96 559.249C1066.04 561.213 1087.6 564.416 1109.37 569.067C1116.73 589.427 1122.53 609.89 1127.09 631.077C1102.01 603.586 1074.75 580.022 1043.96 559.249ZM1195.29 737.425C1180.06 704.973 1161.92 675.001 1140.05 646.58C1159.84 654.021 1178.61 663.426 1197.16 673.658C1197.68 695.051 1197.16 716.134 1195.29 737.425ZM1230.74 858.241C1224.83 822.999 1215.82 789.203 1203.07 755.821C1219.75 768.533 1235.09 782.692 1249.92 797.471C1244.63 818.141 1238.62 838.501 1230.74 858.241Z" fill="#FFAF5F"/>
<path d="M1126.78 644.617C1076.92 585.19 1012.77 545.09 941.765 521.423C942.801 523.18 943.838 525.04 944.46 527.211C1013.08 550.775 1074.96 590.048 1123.26 647.717C1189.9 727.193 1221.31 828.476 1222.76 931.207H1227.32C1225.87 827.34 1194.05 724.92 1126.78 644.617Z" fill="#FFAF5F"/>
<path d="M1194.15 587.153C1114.34 491.865 1003.54 437.502 883.409 416.832C883.513 416.936 883.616 417.039 883.824 417.246C885.068 418.486 885.897 420.036 886.519 421.586C893.671 422.723 900.719 423.963 907.871 425.41C902.17 426.547 896.469 427.787 890.768 429.028C891.701 430.268 892.634 431.508 893.36 432.852C893.671 433.265 894.085 433.575 894.396 433.988C903.621 432.025 912.846 430.164 922.071 428.511C922.485 428.614 922.693 428.614 923.107 428.718C946.947 446.7 968.714 466.13 988.925 488.247C1017.84 486.904 1046.45 487.627 1075.27 490.521C1075.58 490.728 1075.78 490.831 1076.1 491.038C1090.81 514.705 1103.04 538.786 1113.51 564.52C1139.94 571.031 1165.23 579.402 1190.53 589.841C1190.73 590.151 1190.84 590.254 1191.04 590.564C1196.95 617.022 1200.79 643.273 1202.55 670.35C1225.35 683.889 1246.6 698.875 1267.12 715.618C1267.23 715.928 1267.33 716.134 1267.43 716.445C1265.36 743.419 1261.53 769.567 1255.72 795.921C1273.86 815.351 1290.24 835.607 1305.47 857.311C1305.47 857.621 1305.58 857.828 1305.58 858.138C1296.46 883.355 1285.88 907.436 1273.45 931.206C1275.83 931.206 1277.07 931.206 1279.56 931.206C1289.93 911.26 1298.94 891.106 1307.03 870.126C1309.21 890.383 1310.35 910.846 1310.35 931.206C1312.21 931.206 1313.14 931.206 1314.91 931.206C1313.56 806.669 1274.9 683.476 1194.15 587.153ZM991.309 482.666C974.725 464.167 956.379 447.734 936.996 432.231C981.67 444.53 1023.65 461.273 1063.97 483.907C1039.71 482.046 1015.67 481.633 991.309 482.666ZM1117.45 559.869C1108.64 538.372 1098.59 518.012 1086.88 497.859C1122.22 521.733 1153.73 548.914 1182.34 580.436C1160.99 572.271 1139.53 565.45 1117.45 559.869ZM1207.63 666.94C1205.97 644.306 1203.07 622.189 1198.61 599.969C1223.8 632.628 1244.73 667.043 1262.15 704.353C1244.63 690.814 1226.6 678.412 1207.63 666.94ZM1261.53 794.061C1266.29 771.944 1269.71 749.93 1271.89 727.4C1286.51 765.743 1296.97 804.706 1303.71 845.116C1290.65 827.339 1276.66 810.39 1261.53 794.061Z" fill="#FFAF5F"/>
<path d="M1534.64 317H1524.62V289.617H1534.64C1542.42 289.617 1548.13 295.407 1548.13 303.309C1548.13 311.211 1542.42 317 1534.64 317ZM1526.89 291.808V314.809H1534.6C1541.25 314.809 1545.82 309.763 1545.82 303.309C1545.82 296.854 1541.25 291.808 1534.6 291.808H1526.89ZM1553.52 289.187C1553.52 288.17 1554.26 287.348 1555.32 287.348C1556.29 287.348 1557.12 288.17 1557.12 289.187C1557.12 290.165 1556.29 290.986 1555.32 290.986C1554.26 290.986 1553.52 290.165 1553.52 289.187ZM1556.45 317H1554.18V296.815H1556.45V317ZM1565.24 323.533L1565.95 321.381C1567.55 322.085 1569.7 322.789 1572.48 322.789C1579.05 322.789 1580.23 318.878 1580.23 314.262V312.228C1579.13 313.91 1576.67 316.844 1572.09 316.844C1566.46 316.844 1562.35 312.384 1562.35 306.673C1562.35 300.962 1566.46 296.385 1572.09 296.385C1577.06 296.385 1579.64 299.671 1580.58 301.47L1580.69 296.815H1582.45V314.105C1582.45 321.225 1579.68 324.941 1572.56 324.941C1569.23 324.941 1566.61 324.08 1565.24 323.533ZM1572.48 314.692C1576.9 314.692 1580.26 311.054 1580.26 306.673C1580.26 302.409 1576.9 298.575 1572.48 298.575C1567.86 298.575 1564.62 302.057 1564.62 306.673C1564.62 311.328 1567.86 314.692 1572.48 314.692ZM1589.77 289.187C1589.77 288.17 1590.51 287.348 1591.57 287.348C1592.55 287.348 1593.37 288.17 1593.37 289.187C1593.37 290.165 1592.55 290.986 1591.57 290.986C1590.51 290.986 1589.77 290.165 1589.77 289.187ZM1592.7 317H1590.44V296.815H1592.7V317ZM1610.34 314.457L1611.16 316.413C1609.83 317.117 1608.22 317.43 1606.78 317.43C1602.9 317.43 1600.91 315.122 1600.91 310.858V298.966H1598.05V296.893H1600.95V292.238H1603.18V296.893H1610.57V298.966H1603.18V310.858C1603.18 313.792 1604.27 315.279 1606.78 315.279C1608.07 315.279 1609.16 314.966 1610.34 314.457ZM1630.52 317L1630.2 312.893C1628.91 315.787 1626.21 317.43 1622.65 317.43C1618.55 317.43 1615.34 314.848 1615.34 310.976C1615.34 306.829 1618.86 304.795 1623.51 304.795C1626.14 304.795 1628.09 305.265 1630.05 305.89C1630.05 299.905 1628.83 298.575 1624.1 298.575C1621.56 298.575 1619.09 299.006 1617.57 299.397L1617.06 297.284C1617.92 296.932 1621.44 296.385 1624.34 296.385C1630.87 296.385 1632.32 299.045 1632.32 305.851V317H1630.52ZM1630.05 308.472V307.964C1628.13 307.299 1626.25 306.829 1623.67 306.829C1620.03 306.829 1617.61 308.238 1617.61 310.976C1617.61 313.675 1619.76 315.279 1622.89 315.279C1627.9 315.279 1630.05 311.954 1630.05 308.472ZM1642.1 317H1639.83V287.544H1642.1V317ZM1662.99 317H1660.76L1654.58 296.815H1656.92L1661.93 313.597L1667.76 296.815H1670.03L1675.82 313.597L1680.82 296.815H1683.17L1676.99 317H1674.76L1668.89 299.984L1662.99 317ZM1701.19 317L1700.88 312.893C1699.59 315.787 1696.89 317.43 1693.33 317.43C1689.22 317.43 1686.01 314.848 1686.01 310.976C1686.01 306.829 1689.53 304.795 1694.19 304.795C1696.81 304.795 1698.76 305.265 1700.72 305.89C1700.72 299.905 1699.51 298.575 1694.77 298.575C1692.23 298.575 1689.77 299.006 1688.24 299.397L1687.73 297.284C1688.59 296.932 1692.11 296.385 1695.01 296.385C1701.54 296.385 1702.99 299.045 1702.99 305.851V317H1701.19ZM1700.72 308.472V307.964C1698.8 307.299 1696.93 306.829 1694.34 306.829C1690.71 306.829 1688.28 308.238 1688.28 310.976C1688.28 313.675 1690.43 315.279 1693.56 315.279C1698.57 315.279 1700.72 311.954 1700.72 308.472ZM1720.2 314.457L1721.03 316.413C1719.7 317.117 1718.09 317.43 1716.64 317.43C1712.77 317.43 1710.78 315.122 1710.78 310.858V298.966H1707.92V296.893H1710.82V292.238H1713.05V296.893H1720.44V298.966H1713.05V310.858C1713.05 313.792 1714.14 315.279 1716.64 315.279C1717.93 315.279 1719.03 314.966 1720.2 314.457ZM1744.26 308.003H1727.01C1727.48 312.11 1730.81 315.279 1735.03 315.279C1738.01 315.279 1739.49 314.496 1741.76 312.775L1742.97 314.575C1740.39 316.491 1738.28 317.43 1735.03 317.43C1729.16 317.43 1724.67 312.736 1724.67 306.947C1724.67 301.118 1729.24 296.385 1734.99 296.385C1740.9 296.385 1744.26 301.274 1744.26 307.025V308.003ZM1727.01 305.93H1742.03C1741.8 302.018 1739.26 298.536 1735.03 298.536C1730.81 298.536 1727.48 301.744 1727.01 305.93ZM1752.42 317H1750.19V296.815H1751.96L1752.19 301.705C1752.97 299.984 1754.93 296.228 1760.91 296.385L1760.6 298.771C1755.2 298.536 1752.42 302.839 1752.42 307.299V317ZM1776.45 317H1774.18V287.544H1776.45V317ZM1801.95 308.003H1784.7C1785.17 312.11 1788.49 315.279 1792.72 315.279C1795.69 315.279 1797.18 314.496 1799.44 312.775L1800.66 314.575C1798.08 316.491 1795.96 317.43 1792.72 317.43C1786.85 317.43 1782.35 312.736 1782.35 306.947C1782.35 301.118 1786.93 296.385 1792.68 296.385C1798.58 296.385 1801.95 301.274 1801.95 307.025V308.003ZM1784.7 305.93H1799.72C1799.48 302.018 1796.94 298.536 1792.72 298.536C1788.49 298.536 1785.17 301.744 1784.7 305.93ZM1815.04 317H1812.77L1804.44 296.815H1806.86L1813.86 314.027H1813.94L1820.95 296.815H1823.33L1815.04 317ZM1845.38 308.003H1828.13C1828.6 312.11 1831.93 315.279 1836.15 315.279C1839.12 315.279 1840.61 314.496 1842.88 312.775L1844.09 314.575C1841.51 316.491 1839.4 317.43 1836.15 317.43C1830.28 317.43 1825.78 312.736 1825.78 306.947C1825.78 301.118 1830.36 296.385 1836.11 296.385C1842.02 296.385 1845.38 301.274 1845.38 307.025V308.003ZM1828.13 305.93H1843.15C1842.92 302.018 1840.38 298.536 1836.15 298.536C1831.93 298.536 1828.6 301.744 1828.13 305.93ZM1853.54 317H1851.27V287.544H1853.54V317ZM1469.61 353.187C1469.61 352.17 1470.35 351.348 1471.41 351.348C1472.39 351.348 1473.21 352.17 1473.21 353.187C1473.21 354.165 1472.39 354.986 1471.41 354.986C1470.35 354.986 1469.61 354.165 1469.61 353.187ZM1472.54 381H1470.27V360.815H1472.54V381ZM1482.74 381H1480.51V360.815H1482.23L1482.51 365.392C1483.09 363.671 1485.32 360.385 1489.7 360.385C1493.77 360.385 1497.29 363.006 1497.29 369.03V381H1495.02V369.499C1495.02 364.531 1492.48 362.575 1489.12 362.575C1485.36 362.575 1482.74 366.096 1482.74 370.008V381ZM1521.12 381L1521 376.384C1520.06 378.183 1517.48 381.43 1512.51 381.43C1506.88 381.43 1502.77 376.658 1502.77 370.947C1502.77 365.235 1506.88 360.385 1512.51 360.385C1517.09 360.385 1519.55 363.475 1520.65 365.118V351.544H1522.88V381H1521.12ZM1512.9 379.279C1517.32 379.279 1520.69 375.328 1520.69 370.907C1520.69 366.487 1517.32 362.575 1512.9 362.575C1508.29 362.575 1505.04 366.292 1505.04 370.947C1505.04 375.563 1508.29 379.279 1512.9 379.279ZM1530.2 353.187C1530.2 352.17 1530.94 351.348 1531.99 351.348C1532.97 351.348 1533.79 352.17 1533.79 353.187C1533.79 354.165 1532.97 354.986 1531.99 354.986C1530.94 354.986 1530.2 354.165 1530.2 353.187ZM1533.13 381H1530.86V360.815H1533.13V381ZM1555.3 376.697L1556.86 378.262C1554.56 380.491 1552.13 381.43 1549.39 381.43C1543.56 381.43 1539.07 376.736 1539.07 370.947C1539.07 365.118 1543.56 360.385 1549.39 360.385C1552.13 360.385 1554.71 361.441 1556.82 363.553L1555.3 365.118C1553.77 363.631 1551.86 362.575 1549.39 362.575C1544.82 362.575 1541.33 366.292 1541.33 370.947C1541.33 375.563 1544.82 379.279 1549.39 379.279C1551.78 379.279 1553.62 378.379 1555.3 376.697ZM1576.37 381L1576.05 376.893C1574.76 379.787 1572.06 381.43 1568.5 381.43C1564.4 381.43 1561.19 378.848 1561.19 374.976C1561.19 370.829 1564.71 368.795 1569.36 368.795C1571.99 368.795 1573.94 369.265 1575.9 369.89C1575.9 363.905 1574.68 362.575 1569.95 362.575C1567.41 362.575 1564.94 363.006 1563.42 363.397L1562.91 361.284C1563.77 360.932 1567.29 360.385 1570.19 360.385C1576.72 360.385 1578.17 363.045 1578.17 369.851V381H1576.37ZM1575.9 372.472V371.964C1573.98 371.299 1572.1 370.829 1569.52 370.829C1565.88 370.829 1563.46 372.238 1563.46 374.976C1563.46 377.675 1565.61 379.279 1568.74 379.279C1573.75 379.279 1575.9 375.954 1575.9 372.472ZM1595.38 378.457L1596.2 380.413C1594.87 381.117 1593.27 381.43 1591.82 381.43C1587.95 381.43 1585.95 379.122 1585.95 374.858V362.966H1583.1V360.893H1585.99V356.238H1588.22V360.893H1595.62V362.966H1588.22V374.858C1588.22 377.792 1589.32 379.279 1591.82 379.279C1593.11 379.279 1594.21 378.966 1595.38 378.457ZM1599.84 370.947C1599.84 365.118 1604.34 360.385 1610.17 360.385C1616.04 360.385 1620.54 365.118 1620.54 370.947C1620.54 376.736 1616.04 381.43 1610.17 381.43C1604.34 381.43 1599.84 376.736 1599.84 370.947ZM1610.17 379.279C1614.75 379.279 1618.27 375.563 1618.27 370.947C1618.27 366.292 1614.75 362.575 1610.17 362.575C1605.59 362.575 1602.11 366.292 1602.11 370.947C1602.11 375.563 1605.59 379.279 1610.17 379.279ZM1628.71 381H1626.48V360.815H1628.24L1628.47 365.705C1629.26 363.984 1631.21 360.228 1637.2 360.385L1636.88 362.771C1631.49 362.536 1628.71 366.839 1628.71 371.299V381ZM1652.27 381H1650.51V351.544H1652.74V365.118C1653.83 363.475 1656.3 360.385 1660.87 360.385C1666.51 360.385 1670.61 365.235 1670.61 370.947C1670.61 376.658 1666.51 381.43 1660.87 381.43C1655.91 381.43 1653.32 378.183 1652.39 376.384L1652.27 381ZM1660.48 379.279C1665.1 379.279 1668.35 375.563 1668.35 370.947C1668.35 366.292 1665.1 362.575 1660.48 362.575C1656.06 362.575 1652.74 366.487 1652.74 370.907C1652.74 375.328 1656.06 379.279 1660.48 379.279ZM1691.07 381L1690.88 376.697C1690.25 378.379 1687.94 381.43 1683.56 381.43C1679.5 381.43 1676.17 379.044 1676.17 373.02V360.815H1678.4V372.511C1678.4 377.558 1680.83 379.279 1684.15 379.279C1687.91 379.279 1690.57 375.719 1690.57 371.807V360.815H1692.83V381H1691.07ZM1700.08 353.187C1700.08 352.17 1700.82 351.348 1701.88 351.348C1702.85 351.348 1703.68 352.17 1703.68 353.187C1703.68 354.165 1702.85 354.986 1701.88 354.986C1700.82 354.986 1700.08 354.165 1700.08 353.187ZM1703.01 381H1700.74V360.815H1703.01V381ZM1713.21 381H1710.94V351.544H1713.21V381ZM1730.84 378.457L1731.66 380.413C1730.33 381.117 1728.73 381.43 1727.28 381.43C1723.41 381.43 1721.42 379.122 1721.42 374.858V362.966H1718.56V360.893H1721.45V356.238H1723.68V360.893H1731.08V362.966H1723.68V374.858C1723.68 377.792 1724.78 379.279 1727.28 379.279C1728.57 379.279 1729.67 378.966 1730.84 378.457ZM1744.51 353.187C1744.51 352.17 1745.25 351.348 1746.3 351.348C1747.28 351.348 1748.1 352.17 1748.1 353.187C1748.1 354.165 1747.28 354.986 1746.3 354.986C1745.25 354.986 1744.51 354.165 1744.51 353.187ZM1747.44 381H1745.17V360.815H1747.44V381ZM1757.64 381H1755.41V360.815H1757.13L1757.4 365.392C1757.99 363.671 1760.22 360.385 1764.6 360.385C1768.67 360.385 1772.19 363.006 1772.19 369.03V381H1769.92V369.499C1769.92 364.531 1767.38 362.575 1764.02 362.575C1760.26 362.575 1757.64 366.096 1757.64 370.008V381ZM1803.85 381L1803.73 376.384C1802.79 378.183 1800.21 381.43 1795.24 381.43C1789.61 381.43 1785.5 376.658 1785.5 370.947C1785.5 365.235 1789.61 360.385 1795.24 360.385C1799.82 360.385 1802.28 363.475 1803.38 365.118V351.544H1805.61V381H1803.85ZM1795.63 379.279C1800.05 379.279 1803.42 375.328 1803.42 370.907C1803.42 366.487 1800.05 362.575 1795.63 362.575C1791.02 362.575 1787.77 366.292 1787.77 370.947C1787.77 375.563 1791.02 379.279 1795.63 379.279ZM1812.92 353.187C1812.92 352.17 1813.67 351.348 1814.72 351.348C1815.7 351.348 1816.52 352.17 1816.52 353.187C1816.52 354.165 1815.7 354.986 1814.72 354.986C1813.67 354.986 1812.92 354.165 1812.92 353.187ZM1815.86 381H1813.59V360.815H1815.86V381ZM1821.91 378.731L1823.05 376.697C1825.43 378.379 1827.82 379.279 1830.4 379.279C1834.55 379.279 1836.07 377.518 1836.07 375.445C1836.07 373.098 1834.15 372.472 1830.2 371.925C1826.45 371.416 1822.65 370.673 1822.65 366.448C1822.65 362.849 1825.47 360.385 1830.05 360.385C1832.32 360.385 1835.17 361.011 1837.75 362.732L1836.66 364.766C1834.39 363.162 1832.12 362.575 1830.05 362.575C1826.53 362.575 1824.88 363.984 1824.88 366.331C1824.88 368.756 1826.8 369.265 1830.67 369.773C1834.43 370.321 1838.3 371.142 1838.3 375.328C1838.3 378.809 1835.52 381.43 1830.36 381.43C1828.17 381.43 1824.96 380.883 1821.91 378.731ZM1846.65 388.511H1844.42V360.815H1846.18L1846.3 365.431C1847.24 363.671 1849.82 360.385 1854.78 360.385C1860.42 360.385 1864.53 365.196 1864.53 370.907C1864.53 376.619 1860.42 381.43 1854.78 381.43C1850.21 381.43 1847.74 378.379 1846.65 376.697V388.511ZM1854.39 379.279C1859.01 379.279 1862.26 375.563 1862.26 370.907C1862.26 366.292 1859.01 362.575 1854.39 362.575C1849.97 362.575 1846.65 366.487 1846.65 370.907C1846.65 375.328 1849.97 379.279 1854.39 379.279ZM1872.7 381H1870.43V351.544H1872.7V381ZM1894.01 381L1893.7 376.893C1892.41 379.787 1889.71 381.43 1886.15 381.43C1882.04 381.43 1878.83 378.848 1878.83 374.976C1878.83 370.829 1882.35 368.795 1887.01 368.795C1889.63 368.795 1891.59 369.265 1893.54 369.89C1893.54 363.905 1892.33 362.575 1887.6 362.575C1885.05 362.575 1882.59 363.006 1881.06 363.397L1880.55 361.284C1881.41 360.932 1884.94 360.385 1887.83 360.385C1894.36 360.385 1895.81 363.045 1895.81 369.851V381H1894.01ZM1893.54 372.472V371.964C1891.62 371.299 1889.75 370.829 1887.17 370.829C1883.53 370.829 1881.1 372.238 1881.1 374.976C1881.1 377.675 1883.25 379.279 1886.38 379.279C1891.39 379.279 1893.54 375.954 1893.54 372.472ZM1907.43 388.511H1905.05L1908.17 380.844L1899.96 360.815H1902.35L1909.35 378.027H1909.43L1916.43 360.815H1918.81L1907.43 388.511Z" fill="#FFAF5F"/>
<path d="M1500.79 1413.61H1498.24L1510.45 1386.23H1512.33L1524.53 1413.61H1521.95L1518.7 1406.34H1504.03L1500.79 1413.61ZM1511.35 1389.95L1505.05 1404.03H1517.69L1511.39 1389.95H1511.35ZM1543.63 1413.61L1543.43 1409.31C1542.81 1410.99 1540.5 1414.05 1536.12 1414.05C1532.05 1414.05 1528.72 1411.66 1528.72 1405.63V1393.43H1530.95V1405.13C1530.95 1410.17 1533.38 1411.89 1536.7 1411.89C1540.46 1411.89 1543.12 1408.33 1543.12 1404.42V1393.43H1545.39V1413.61H1543.63ZM1563 1411.07L1563.82 1413.03C1562.49 1413.73 1560.88 1414.05 1559.44 1414.05C1555.56 1414.05 1553.57 1411.74 1553.57 1407.47V1395.58H1550.71V1393.51H1553.61V1388.85H1555.84V1393.51H1563.23V1395.58H1555.84V1407.47C1555.84 1410.41 1556.93 1411.89 1559.44 1411.89C1560.73 1411.89 1561.82 1411.58 1563 1411.07ZM1567.46 1403.56C1567.46 1397.73 1571.96 1393 1577.79 1393C1583.65 1393 1588.15 1397.73 1588.15 1403.56C1588.15 1409.35 1583.65 1414.05 1577.79 1414.05C1571.96 1414.05 1567.46 1409.35 1567.46 1403.56ZM1577.79 1411.89C1582.36 1411.89 1585.88 1408.18 1585.88 1403.56C1585.88 1398.91 1582.36 1395.19 1577.79 1395.19C1573.21 1395.19 1569.73 1398.91 1569.73 1403.56C1569.73 1408.18 1573.21 1411.89 1577.79 1411.89ZM1600.01 1411.35L1601.14 1409.31C1603.53 1410.99 1605.92 1411.89 1608.5 1411.89C1612.65 1411.89 1614.17 1410.13 1614.17 1408.06C1614.17 1405.71 1612.25 1405.09 1608.3 1404.54C1604.55 1404.03 1600.75 1403.29 1600.75 1399.06C1600.75 1395.46 1603.57 1393 1608.15 1393C1610.42 1393 1613.27 1393.63 1615.85 1395.35L1614.76 1397.38C1612.49 1395.78 1610.22 1395.19 1608.15 1395.19C1604.63 1395.19 1602.98 1396.6 1602.98 1398.95C1602.98 1401.37 1604.9 1401.88 1608.77 1402.39C1612.53 1402.94 1616.4 1403.76 1616.4 1407.94C1616.4 1411.42 1613.62 1414.05 1608.46 1414.05C1606.27 1414.05 1603.06 1413.5 1600.01 1411.35ZM1624.79 1413.61H1622.52V1384.16H1624.79V1397.5C1625.33 1396.13 1627.45 1393 1631.71 1393C1635.82 1393 1639.3 1395.62 1639.3 1401.64V1413.61H1637.07V1402.11C1637.07 1397.15 1634.53 1395.19 1631.16 1395.19C1627.41 1395.19 1624.79 1398.71 1624.79 1402.62V1413.61ZM1661.36 1413.61L1661.17 1409.31C1660.54 1410.99 1658.24 1414.05 1653.85 1414.05C1649.79 1414.05 1646.46 1411.66 1646.46 1405.63V1393.43H1648.69V1405.13C1648.69 1410.17 1651.12 1411.89 1654.44 1411.89C1658.2 1411.89 1660.86 1408.33 1660.86 1404.42V1393.43H1663.12V1413.61H1661.36ZM1680.73 1411.07L1681.56 1413.03C1680.23 1413.73 1678.62 1414.05 1677.17 1414.05C1673.3 1414.05 1671.31 1411.74 1671.31 1407.47V1395.58H1668.45V1393.51H1671.35V1388.85H1673.58V1393.51H1680.97V1395.58H1673.58V1407.47C1673.58 1410.41 1674.67 1411.89 1677.17 1411.89C1678.46 1411.89 1679.56 1411.58 1680.73 1411.07ZM1701.12 1400.86H1688.01V1398.67H1701.12V1400.86ZM1707.77 1403.56C1707.77 1397.73 1712.27 1393 1718.1 1393C1723.97 1393 1728.47 1397.73 1728.47 1403.56C1728.47 1409.35 1723.97 1414.05 1718.1 1414.05C1712.27 1414.05 1707.77 1409.35 1707.77 1403.56ZM1718.1 1411.89C1722.68 1411.89 1726.2 1408.18 1726.2 1403.56C1726.2 1398.91 1722.68 1395.19 1718.1 1395.19C1713.52 1395.19 1710.04 1398.91 1710.04 1403.56C1710.04 1408.18 1713.52 1411.89 1718.1 1411.89ZM1737.15 1413.61H1734.92V1395.5H1731.59V1393.43H1734.92V1389.79C1734.92 1385.88 1736.99 1383.73 1740.55 1383.73C1741.92 1383.73 1743.37 1384 1744.85 1384.67L1744.11 1386.66C1742.66 1386.11 1741.76 1385.88 1740.55 1385.88C1738.32 1385.88 1737.15 1387.13 1737.15 1389.83V1393.43H1748.84V1389.79C1748.84 1385.88 1750.92 1383.73 1754.52 1383.73C1755.85 1383.73 1757.33 1384 1758.82 1384.67L1758.04 1386.66C1756.63 1386.11 1755.69 1385.88 1754.48 1385.88C1752.25 1385.88 1751.11 1387.13 1751.11 1389.83V1393.43H1758.12V1395.5H1751.11V1413.61H1748.84V1395.5H1737.15V1413.61ZM1775.82 1413.61H1773.59L1767.41 1393.43H1769.76L1774.77 1410.21L1780.6 1393.43H1782.87L1788.66 1410.21L1793.66 1393.43H1796.01L1789.83 1413.61H1787.6L1781.73 1396.6L1775.82 1413.61ZM1802.96 1413.61H1800.69V1384.16H1802.96V1397.5C1803.51 1396.13 1805.62 1393 1809.88 1393C1813.99 1393 1817.47 1395.62 1817.47 1401.64V1413.61H1815.24V1402.11C1815.24 1397.15 1812.7 1395.19 1809.33 1395.19C1805.58 1395.19 1802.96 1398.71 1802.96 1402.62V1413.61ZM1842.55 1404.62H1825.3C1825.77 1408.72 1829.09 1411.89 1833.32 1411.89C1836.29 1411.89 1837.78 1411.11 1840.04 1409.39L1841.26 1411.19C1838.68 1413.11 1836.56 1414.05 1833.32 1414.05C1827.45 1414.05 1822.95 1409.35 1822.95 1403.56C1822.95 1397.73 1827.53 1393 1833.28 1393C1839.18 1393 1842.55 1397.89 1842.55 1403.64V1404.62ZM1825.3 1402.54H1840.32C1840.08 1398.63 1837.54 1395.15 1833.32 1395.15C1829.09 1395.15 1825.77 1398.36 1825.3 1402.54ZM1850.71 1413.61H1848.48V1393.43H1850.2L1850.47 1398.01C1851.06 1396.29 1853.29 1393 1857.67 1393C1861.74 1393 1865.26 1395.62 1865.26 1401.64V1413.61H1862.99V1402.11C1862.99 1397.15 1860.45 1395.19 1857.08 1395.19C1853.33 1395.19 1850.71 1398.71 1850.71 1402.62V1413.61ZM1506.73 1477.61H1504.5L1498.32 1457.43H1500.67L1505.68 1474.21L1511.51 1457.43H1513.77L1519.56 1474.21L1524.57 1457.43H1526.92L1520.74 1477.61H1518.51L1512.64 1460.6L1506.73 1477.61ZM1544.94 1477.61L1544.62 1473.51C1543.33 1476.4 1540.63 1478.05 1537.07 1478.05C1532.97 1478.05 1529.76 1475.46 1529.76 1471.59C1529.76 1467.44 1533.28 1465.41 1537.94 1465.41C1540.56 1465.41 1542.51 1465.88 1544.47 1466.51C1544.47 1460.52 1543.26 1459.19 1538.52 1459.19C1535.98 1459.19 1533.51 1459.62 1531.99 1460.01L1531.48 1457.9C1532.34 1457.55 1535.86 1457 1538.76 1457C1545.29 1457 1546.74 1459.66 1546.74 1466.47V1477.61H1544.94ZM1544.47 1469.09V1468.58C1542.55 1467.91 1540.67 1467.44 1538.09 1467.44C1534.45 1467.44 1532.03 1468.85 1532.03 1471.59C1532.03 1474.29 1534.18 1475.89 1537.31 1475.89C1542.32 1475.89 1544.47 1472.57 1544.47 1469.09ZM1563.95 1475.07L1564.77 1477.03C1563.44 1477.73 1561.84 1478.05 1560.39 1478.05C1556.52 1478.05 1554.52 1475.74 1554.52 1471.47V1459.58H1551.67V1457.51H1554.56V1452.85H1556.79V1457.51H1564.19V1459.58H1556.79V1471.47C1556.79 1474.41 1557.89 1475.89 1560.39 1475.89C1561.68 1475.89 1562.78 1475.58 1563.95 1475.07ZM1588.01 1468.62H1570.76C1571.23 1472.72 1574.56 1475.89 1578.78 1475.89C1581.75 1475.89 1583.24 1475.11 1585.51 1473.39L1586.72 1475.19C1584.14 1477.11 1582.03 1478.05 1578.78 1478.05C1572.91 1478.05 1568.41 1473.35 1568.41 1467.56C1568.41 1461.73 1572.99 1457 1578.74 1457C1584.65 1457 1588.01 1461.89 1588.01 1467.64V1468.62ZM1570.76 1466.54H1585.78C1585.55 1462.63 1583.01 1459.15 1578.78 1459.15C1574.56 1459.15 1571.23 1462.36 1570.76 1466.54ZM1596.17 1477.61H1593.94V1457.43H1595.7L1595.94 1462.32C1596.72 1460.6 1598.68 1456.84 1604.66 1457L1604.35 1459.39C1598.95 1459.15 1596.17 1463.45 1596.17 1467.91V1477.61ZM1617.27 1449.8C1617.27 1448.78 1618.01 1447.96 1619.07 1447.96C1620.04 1447.96 1620.87 1448.78 1620.87 1449.8C1620.87 1450.78 1620.04 1451.6 1619.07 1451.6C1618.01 1451.6 1617.27 1450.78 1617.27 1449.8ZM1620.2 1477.61H1617.93V1457.43H1620.2V1477.61ZM1626.25 1475.35L1627.39 1473.31C1629.78 1474.99 1632.16 1475.89 1634.74 1475.89C1638.89 1475.89 1640.42 1474.13 1640.42 1472.06C1640.42 1469.71 1638.5 1469.09 1634.55 1468.54C1630.79 1468.03 1627 1467.29 1627 1463.06C1627 1459.46 1629.81 1457 1634.39 1457C1636.66 1457 1639.52 1457.63 1642.1 1459.35L1641 1461.38C1638.73 1459.78 1636.46 1459.19 1634.39 1459.19C1630.87 1459.19 1629.23 1460.6 1629.23 1462.95C1629.23 1465.37 1631.14 1465.88 1635.02 1466.39C1638.77 1466.94 1642.65 1467.76 1642.65 1471.94C1642.65 1475.42 1639.87 1478.05 1634.7 1478.05C1632.51 1478.05 1629.31 1477.5 1626.25 1475.35ZM1658.82 1477.61H1656.59V1457.43H1658.31L1658.59 1462.01C1659.17 1460.29 1661.4 1457 1665.79 1457C1669.85 1457 1673.37 1459.62 1673.37 1465.64V1477.61H1671.11V1466.11C1671.11 1461.15 1668.56 1459.19 1665.2 1459.19C1661.44 1459.19 1658.82 1462.71 1658.82 1466.62V1477.61ZM1678.85 1467.56C1678.85 1461.73 1683.35 1457 1689.18 1457C1695.05 1457 1699.55 1461.73 1699.55 1467.56C1699.55 1473.35 1695.05 1478.05 1689.18 1478.05C1683.35 1478.05 1678.85 1473.35 1678.85 1467.56ZM1689.18 1475.89C1693.76 1475.89 1697.28 1472.18 1697.28 1467.56C1697.28 1462.91 1693.76 1459.19 1689.18 1459.19C1684.6 1459.19 1681.12 1462.91 1681.12 1467.56C1681.12 1472.18 1684.6 1475.89 1689.18 1475.89ZM1715.15 1475.07L1715.97 1477.03C1714.64 1477.73 1713.04 1478.05 1711.59 1478.05C1707.72 1478.05 1705.73 1475.74 1705.73 1471.47V1459.58H1702.87V1457.51H1705.76V1452.85H1707.99V1457.51H1715.39V1459.58H1707.99V1471.47C1707.99 1474.41 1709.09 1475.89 1711.59 1475.89C1712.88 1475.89 1713.98 1475.58 1715.15 1475.07ZM1745.79 1477.61L1745.68 1473C1744.74 1474.8 1742.15 1478.05 1737.19 1478.05C1731.55 1478.05 1727.45 1473.27 1727.45 1467.56C1727.45 1461.85 1731.55 1457 1737.19 1457C1741.76 1457 1744.23 1460.09 1745.32 1461.73V1448.16H1747.55V1477.61H1745.79ZM1737.58 1475.89C1742 1475.89 1745.36 1471.94 1745.36 1467.52C1745.36 1463.1 1742 1459.19 1737.58 1459.19C1732.96 1459.19 1729.72 1462.91 1729.72 1467.56C1729.72 1472.18 1732.96 1475.89 1737.58 1475.89ZM1773.1 1468.62H1755.85C1756.32 1472.72 1759.64 1475.89 1763.87 1475.89C1766.84 1475.89 1768.33 1475.11 1770.59 1473.39L1771.81 1475.19C1769.23 1477.11 1767.11 1478.05 1763.87 1478.05C1758 1478.05 1753.5 1473.35 1753.5 1467.56C1753.5 1461.73 1758.08 1457 1763.83 1457C1769.73 1457 1773.1 1461.89 1773.1 1467.64V1468.62ZM1755.85 1466.54H1770.87C1770.63 1462.63 1768.09 1459.15 1763.87 1459.15C1759.64 1459.15 1756.32 1462.36 1755.85 1466.54ZM1793.23 1473.31L1794.79 1474.88C1792.49 1477.11 1790.06 1478.05 1787.32 1478.05C1781.49 1478.05 1776.99 1473.35 1776.99 1467.56C1776.99 1461.73 1781.49 1457 1787.32 1457C1790.06 1457 1792.64 1458.06 1794.75 1460.17L1793.23 1461.73C1791.7 1460.25 1789.79 1459.19 1787.32 1459.19C1782.74 1459.19 1779.26 1462.91 1779.26 1467.56C1779.26 1472.18 1782.74 1475.89 1787.32 1475.89C1789.71 1475.89 1791.55 1474.99 1793.23 1473.31ZM1817.98 1468.62H1800.73C1801.2 1472.72 1804.53 1475.89 1808.75 1475.89C1811.73 1475.89 1813.21 1475.11 1815.48 1473.39L1816.69 1475.19C1814.11 1477.11 1812 1478.05 1808.75 1478.05C1802.88 1478.05 1798.39 1473.35 1798.39 1467.56C1798.39 1461.73 1802.96 1457 1808.71 1457C1814.62 1457 1817.98 1461.89 1817.98 1467.64V1468.62ZM1800.73 1466.54H1815.75C1815.52 1462.63 1812.98 1459.15 1808.75 1459.15C1804.53 1459.15 1801.2 1462.36 1800.73 1466.54ZM1833.58 1475.07L1834.4 1477.03C1833.07 1477.73 1831.46 1478.05 1830.02 1478.05C1826.14 1478.05 1824.15 1475.74 1824.15 1471.47V1459.58H1821.29V1457.51H1824.19V1452.85H1826.42V1457.51H1833.81V1459.58H1826.42V1471.47C1826.42 1474.41 1827.51 1475.89 1830.02 1475.89C1831.31 1475.89 1832.4 1475.58 1833.58 1475.07ZM1857.64 1468.62H1840.39C1840.86 1472.72 1844.18 1475.89 1848.41 1475.89C1851.38 1475.89 1852.87 1475.11 1855.13 1473.39L1856.35 1475.19C1853.76 1477.11 1851.65 1478.05 1848.41 1478.05C1842.54 1478.05 1838.04 1473.35 1838.04 1467.56C1838.04 1461.73 1842.62 1457 1848.37 1457C1854.27 1457 1857.64 1461.89 1857.64 1467.64V1468.62ZM1840.39 1466.54H1855.41C1855.17 1462.63 1852.63 1459.15 1848.41 1459.15C1844.18 1459.15 1840.86 1462.36 1840.39 1466.54ZM1879.84 1477.61L1879.72 1473C1878.79 1474.8 1876.2 1478.05 1871.24 1478.05C1865.6 1478.05 1861.5 1473.27 1861.5 1467.56C1861.5 1461.85 1865.6 1457 1871.24 1457C1875.81 1457 1878.28 1460.09 1879.37 1461.73V1448.16H1881.6V1477.61H1879.84ZM1871.63 1475.89C1876.05 1475.89 1879.41 1471.94 1879.41 1467.52C1879.41 1463.1 1876.05 1459.19 1871.63 1459.19C1867.01 1459.19 1863.76 1462.91 1863.76 1467.56C1863.76 1472.18 1867.01 1475.89 1871.63 1475.89Z" fill="#FFAF5F"/>
<path d="M1599.97 702.967H1589.29V675.584H1598.99C1603.45 675.584 1608.49 677.422 1608.49 682.899C1608.49 687.045 1605.36 688.571 1603.72 689.04V689.08C1605.09 689.432 1609.47 690.879 1609.47 695.808C1609.47 700.893 1605.13 702.967 1599.97 702.967ZM1591.56 677.774V688.023H1599.93C1603.45 688.023 1606.19 686.459 1606.19 683.016C1606.19 679.339 1603.25 677.774 1598.79 677.774H1591.56ZM1591.56 690.214V700.776H1599.73C1604.93 700.776 1607.16 698.82 1607.16 695.691C1607.16 692.209 1604.11 690.214 1600.16 690.214H1591.56ZM1613.87 692.913C1613.87 687.085 1618.37 682.351 1624.2 682.351C1630.07 682.351 1634.56 687.085 1634.56 692.913C1634.56 698.703 1630.07 703.397 1624.2 703.397C1618.37 703.397 1613.87 698.703 1613.87 692.913ZM1624.2 701.245C1628.78 701.245 1632.3 697.529 1632.3 692.913C1632.3 688.258 1628.78 684.542 1624.2 684.542C1619.62 684.542 1616.14 688.258 1616.14 692.913C1616.14 697.529 1619.62 701.245 1624.2 701.245ZM1639.8 675.153C1639.8 674.136 1640.55 673.315 1641.6 673.315C1642.58 673.315 1643.4 674.136 1643.4 675.153C1643.4 676.131 1642.58 676.953 1641.6 676.953C1640.55 676.953 1639.8 676.131 1639.8 675.153ZM1642.74 702.967H1640.47V682.782H1642.74V702.967ZM1652.94 702.967H1650.67V673.511H1652.94V702.967ZM1674.76 690.214H1661.65V688.023H1674.76V690.214ZM1699.76 702.967L1699.64 698.351C1698.7 700.15 1696.12 703.397 1691.15 703.397C1685.52 703.397 1681.41 698.624 1681.41 692.913C1681.41 687.202 1685.52 682.351 1691.15 682.351C1695.73 682.351 1698.19 685.442 1699.29 687.085V673.511H1701.52V702.967H1699.76ZM1691.54 701.245C1695.96 701.245 1699.33 697.294 1699.33 692.874C1699.33 688.454 1695.96 684.542 1691.54 684.542C1686.93 684.542 1683.68 688.258 1683.68 692.913C1683.68 697.529 1686.93 701.245 1691.54 701.245ZM1711.77 702.967H1709.54V682.782H1711.3L1711.53 687.671C1712.32 685.95 1714.27 682.195 1720.26 682.351L1719.94 684.737C1714.55 684.503 1711.77 688.806 1711.77 693.265V702.967ZM1729.8 710.477H1727.42L1730.55 702.81L1722.33 682.782H1724.72L1731.72 699.994H1731.8L1738.8 682.782H1741.19L1729.8 710.477ZM1755.81 710.477H1753.58V682.782H1755.34L1755.46 687.397C1756.4 685.637 1758.98 682.351 1763.95 682.351C1769.58 682.351 1773.69 687.163 1773.69 692.874C1773.69 698.585 1769.58 703.397 1763.95 703.397C1759.37 703.397 1756.91 700.346 1755.81 698.664V710.477ZM1763.56 701.245C1768.18 701.245 1771.42 697.529 1771.42 692.874C1771.42 688.258 1768.18 684.542 1763.56 684.542C1759.14 684.542 1755.81 688.454 1755.81 692.874C1755.81 697.294 1759.14 701.245 1763.56 701.245ZM1781.87 702.967H1779.64V682.782H1781.4L1781.63 687.671C1782.41 685.95 1784.37 682.195 1790.36 682.351L1790.04 684.737C1784.64 684.503 1781.87 688.806 1781.87 693.265V702.967ZM1793.38 692.913C1793.38 687.085 1797.88 682.351 1803.71 682.351C1809.57 682.351 1814.07 687.085 1814.07 692.913C1814.07 698.703 1809.57 703.397 1803.71 703.397C1797.88 703.397 1793.38 698.703 1793.38 692.913ZM1803.71 701.245C1808.28 701.245 1811.8 697.529 1811.8 692.913C1811.8 688.258 1808.28 684.542 1803.71 684.542C1799.13 684.542 1795.65 688.258 1795.65 692.913C1795.65 697.529 1799.13 701.245 1803.71 701.245ZM1829.68 700.424L1830.5 702.38C1829.17 703.084 1827.57 703.397 1826.12 703.397C1822.25 703.397 1820.25 701.089 1820.25 696.825V684.933H1817.4V682.86H1820.29V678.205H1822.52V682.86H1829.91V684.933H1822.52V696.825C1822.52 699.759 1823.62 701.245 1826.12 701.245C1827.41 701.245 1828.51 700.932 1829.68 700.424ZM1853.74 693.969H1836.49C1836.96 698.077 1840.28 701.245 1844.51 701.245C1847.48 701.245 1848.97 700.463 1851.24 698.742L1852.45 700.541C1849.87 702.458 1847.75 703.397 1844.51 703.397C1838.64 703.397 1834.14 698.703 1834.14 692.913C1834.14 687.085 1838.72 682.351 1844.47 682.351C1850.37 682.351 1853.74 687.241 1853.74 692.991V693.969ZM1836.49 691.896H1851.51C1851.27 687.984 1848.73 684.503 1844.51 684.503C1840.28 684.503 1836.96 687.71 1836.49 691.896ZM1873.87 698.664L1875.43 700.228C1873.13 702.458 1870.7 703.397 1867.96 703.397C1862.13 703.397 1857.64 698.703 1857.64 692.913C1857.64 687.085 1862.13 682.351 1867.96 682.351C1870.7 682.351 1873.28 683.407 1875.4 685.52L1873.87 687.085C1872.34 685.598 1870.43 684.542 1867.96 684.542C1863.39 684.542 1859.9 688.258 1859.9 692.913C1859.9 697.529 1863.39 701.245 1867.96 701.245C1870.35 701.245 1872.19 700.346 1873.87 698.664ZM1890.76 700.424L1891.58 702.38C1890.25 703.084 1888.65 703.397 1887.2 703.397C1883.33 703.397 1881.34 701.089 1881.34 696.825V684.933H1878.48V682.86H1881.37V678.205H1883.6V682.86H1891V684.933H1883.6V696.825C1883.6 699.759 1884.7 701.245 1887.2 701.245C1888.49 701.245 1889.59 700.932 1890.76 700.424ZM1896.59 675.153C1896.59 674.136 1897.34 673.315 1898.39 673.315C1899.37 673.315 1900.19 674.136 1900.19 675.153C1900.19 676.131 1899.37 676.953 1898.39 676.953C1897.34 676.953 1896.59 676.131 1896.59 675.153ZM1899.53 702.967H1897.26V682.782H1899.53V702.967ZM1905.42 692.913C1905.42 687.085 1909.92 682.351 1915.75 682.351C1921.62 682.351 1926.12 687.085 1926.12 692.913C1926.12 698.703 1921.62 703.397 1915.75 703.397C1909.92 703.397 1905.42 698.703 1905.42 692.913ZM1915.75 701.245C1920.33 701.245 1923.85 697.529 1923.85 692.913C1923.85 688.258 1920.33 684.542 1915.75 684.542C1911.17 684.542 1907.69 688.258 1907.69 692.913C1907.69 697.529 1911.17 701.245 1915.75 701.245ZM1934.29 702.967H1932.06V682.782H1933.78L1934.06 687.358C1934.64 685.637 1936.87 682.351 1941.25 682.351C1945.32 682.351 1948.84 684.972 1948.84 690.996V702.967H1946.57V691.466C1946.57 686.498 1944.03 684.542 1940.67 684.542C1936.91 684.542 1934.29 688.063 1934.29 691.974V702.967Z" fill="#FFAF5F"/>
<path d="M1609.01 1150.22H1606.47L1618.68 1122.84H1620.55L1632.76 1150.22H1630.18L1626.93 1142.94H1612.26L1609.01 1150.22ZM1619.58 1126.55L1613.28 1140.63H1625.91L1619.62 1126.55H1619.58ZM1639.57 1150.22H1637.34V1130.03H1639.06L1639.34 1134.61C1639.92 1132.89 1642.15 1129.6 1646.53 1129.6C1650.6 1129.6 1654.12 1132.22 1654.12 1138.25V1150.22H1651.85V1138.72C1651.85 1133.75 1649.31 1131.79 1645.95 1131.79C1642.19 1131.79 1639.57 1135.31 1639.57 1139.23V1150.22ZM1671.34 1147.68L1672.16 1149.63C1670.83 1150.34 1669.23 1150.65 1667.78 1150.65C1663.91 1150.65 1661.91 1148.34 1661.91 1144.08V1132.19H1659.06V1130.11H1661.95V1125.46H1664.18V1130.11H1671.57V1132.19H1664.18V1144.08C1664.18 1147.01 1665.27 1148.5 1667.78 1148.5C1669.07 1148.5 1670.16 1148.18 1671.34 1147.68ZM1677.17 1122.41C1677.17 1121.39 1677.91 1120.57 1678.97 1120.57C1679.95 1120.57 1680.77 1121.39 1680.77 1122.41C1680.77 1123.38 1679.95 1124.21 1678.97 1124.21C1677.91 1124.21 1677.17 1123.38 1677.17 1122.41ZM1680.1 1150.22H1677.83V1130.03H1680.1V1150.22ZM1701.92 1137.47H1688.82V1135.28H1701.92V1137.47ZM1708.73 1147.95L1709.87 1145.92C1712.25 1147.6 1714.64 1148.5 1717.22 1148.5C1721.37 1148.5 1722.89 1146.74 1722.89 1144.66C1722.89 1142.32 1720.98 1141.69 1717.03 1141.14C1713.27 1140.63 1709.48 1139.89 1709.48 1135.67C1709.48 1132.07 1712.29 1129.6 1716.87 1129.6C1719.14 1129.6 1721.99 1130.23 1724.58 1131.95L1723.48 1133.98C1721.21 1132.38 1718.94 1131.79 1716.87 1131.79C1713.35 1131.79 1711.71 1133.2 1711.71 1135.55C1711.71 1137.97 1713.62 1138.48 1717.5 1138.99C1721.25 1139.54 1725.12 1140.36 1725.12 1144.55C1725.12 1148.03 1722.35 1150.65 1717.18 1150.65C1714.99 1150.65 1711.78 1150.1 1708.73 1147.95ZM1733.47 1150.22H1731.2V1120.76H1733.47V1150.22ZM1758.97 1141.22H1741.71C1742.18 1145.33 1745.51 1148.5 1749.73 1148.5C1752.71 1148.5 1754.19 1147.72 1756.46 1145.99L1757.67 1147.79C1755.09 1149.71 1752.98 1150.65 1749.73 1150.65C1743.87 1150.65 1739.37 1145.95 1739.37 1140.17C1739.37 1134.34 1743.94 1129.6 1749.69 1129.6C1755.6 1129.6 1758.97 1134.49 1758.97 1140.24V1141.22ZM1741.71 1139.15H1756.74C1756.5 1135.24 1753.96 1131.75 1749.73 1131.75C1745.51 1131.75 1742.18 1134.96 1741.71 1139.15ZM1782.42 1141.22H1765.17C1765.64 1145.33 1768.96 1148.5 1773.19 1148.5C1776.16 1148.5 1777.65 1147.72 1779.92 1145.99L1781.13 1147.79C1778.55 1149.71 1776.44 1150.65 1773.19 1150.65C1767.32 1150.65 1762.82 1145.95 1762.82 1140.17C1762.82 1134.34 1767.4 1129.6 1773.15 1129.6C1779.06 1129.6 1782.42 1134.49 1782.42 1140.24V1141.22ZM1765.17 1139.15H1780.19C1779.96 1135.24 1777.41 1131.75 1773.19 1131.75C1768.96 1131.75 1765.64 1134.96 1765.17 1139.15ZM1790.58 1157.73H1788.35V1130.03H1790.11L1790.23 1134.65C1791.17 1132.89 1793.75 1129.6 1798.72 1129.6C1804.35 1129.6 1808.46 1134.41 1808.46 1140.13C1808.46 1145.84 1804.35 1150.65 1798.72 1150.65C1794.14 1150.65 1791.68 1147.6 1790.58 1145.92V1157.73ZM1798.33 1148.5C1802.94 1148.5 1806.19 1144.78 1806.19 1140.13C1806.19 1135.51 1802.94 1131.79 1798.33 1131.79C1793.91 1131.79 1790.58 1135.71 1790.58 1140.13C1790.58 1144.55 1793.91 1148.5 1798.33 1148.5ZM1824.97 1150.22H1822.74V1132.19H1819.42V1130.11H1822.74V1126.4C1822.74 1122.48 1824.82 1120.33 1828.38 1120.33C1829.75 1120.33 1831.19 1120.61 1832.68 1121.27L1831.94 1123.27C1830.49 1122.72 1829.59 1122.48 1828.38 1122.48C1826.15 1122.48 1824.97 1123.74 1824.97 1126.43V1130.11H1832.02V1132.19H1824.97V1150.22ZM1854.2 1141.22H1836.95C1837.42 1145.33 1840.74 1148.5 1844.97 1148.5C1847.94 1148.5 1849.43 1147.72 1851.7 1145.99L1852.91 1147.79C1850.33 1149.71 1848.22 1150.65 1844.97 1150.65C1839.1 1150.65 1834.6 1145.95 1834.6 1140.17C1834.6 1134.34 1839.18 1129.6 1844.93 1129.6C1850.84 1129.6 1854.2 1134.49 1854.2 1140.24V1141.22ZM1836.95 1139.15H1851.97C1851.74 1135.24 1849.19 1131.75 1844.97 1131.75C1840.74 1131.75 1837.42 1134.96 1836.95 1139.15ZM1877.66 1141.22H1860.41C1860.88 1145.33 1864.2 1148.5 1868.43 1148.5C1871.4 1148.5 1872.88 1147.72 1875.15 1145.99L1876.37 1147.79C1873.78 1149.71 1871.67 1150.65 1868.43 1150.65C1862.56 1150.65 1858.06 1145.95 1858.06 1140.17C1858.06 1134.34 1862.64 1129.6 1868.39 1129.6C1874.29 1129.6 1877.66 1134.49 1877.66 1140.24V1141.22ZM1860.41 1139.15H1875.43C1875.19 1135.24 1872.65 1131.75 1868.43 1131.75C1864.2 1131.75 1860.88 1134.96 1860.41 1139.15ZM1893.25 1147.68L1894.07 1149.63C1892.74 1150.34 1891.14 1150.65 1889.69 1150.65C1885.82 1150.65 1883.82 1148.34 1883.82 1144.08V1132.19H1880.97V1130.11H1883.86V1125.46H1886.09V1130.11H1893.48V1132.19H1886.09V1144.08C1886.09 1147.01 1887.19 1148.5 1889.69 1148.5C1890.98 1148.5 1892.08 1148.18 1893.25 1147.68Z" fill="#FFAF5F"/>
<path d="M1211.71 594.066L1349.2 398.57H2101.3" stroke="#FFAF5F" stroke-width="4"/>
<path d="M1183.41 1299.59L1320.89 1495.09H2101.3" stroke="#FFAF5F" stroke-width="4"/>
<path d="M1318.87 853.646L1456.35 720.644H2104" stroke="#FFAF5F" stroke-width="4"/>
<path d="M1316.85 1034.89L1454.33 1167.9H2101.98" stroke="#FFAF5F" stroke-width="4"/>
</svg>
