<svg width="2497" height="1317" viewBox="0 0 2497 1317" fill="none" xmlns="http://www.w3.org/2000/svg">
<path d="M1528.87 558.96L1398.91 367.947H688" stroke="#FFAF5F" stroke-width="4"/>
<path d="M1438.41 687.731L1326.01 878.837H688" stroke="#FFAF5F" stroke-width="4"/>
<path d="M1430.13 253.284L1300.18 123.332H688" stroke="#FFAF5F" stroke-width="4"/>
<path d="M1406.56 996.049L1280.73 1126H688.001" stroke="#FFAF5F" stroke-width="4"/>
<path d="M789.17 93.56L790.34 94.85C788.42 97.04 785.36 98.39 782.36 98.39C776.36 98.39 771.62 93.56 771.62 87.5C771.62 81.44 776.36 76.61 782.36 76.61C785.45 76.61 788.42 77.99 790.4 80.15L789.14 81.47C787.73 79.82 785.36 78.29 782.36 78.29C777.32 78.29 773.39 82.52 773.39 87.5C773.39 92.48 777.32 96.71 782.36 96.71C785.36 96.71 787.64 95.27 789.17 93.56ZM793.208 90.29C793.208 85.82 796.658 82.19 801.128 82.19C805.628 82.19 809.078 85.82 809.078 90.29C809.078 94.73 805.628 98.33 801.128 98.33C796.658 98.33 793.208 94.73 793.208 90.29ZM801.128 96.68C804.638 96.68 807.338 93.83 807.338 90.29C807.338 86.72 804.638 83.87 801.128 83.87C797.618 83.87 794.948 86.72 794.948 90.29C794.948 93.83 797.618 96.68 801.128 96.68ZM815.346 98H813.636V82.52H814.956L815.166 86.03C815.616 84.71 817.326 82.19 820.686 82.19C823.806 82.19 826.506 84.2 826.506 88.82V98H824.766V89.18C824.766 85.37 822.816 83.87 820.236 83.87C817.356 83.87 815.346 86.57 815.346 89.57V98ZM843.188 94.7L844.388 95.9C842.618 97.61 840.758 98.33 838.658 98.33C834.188 98.33 830.738 94.73 830.738 90.29C830.738 85.82 834.188 82.19 838.658 82.19C840.758 82.19 842.738 83 844.358 84.62L843.188 85.82C842.018 84.68 840.548 83.87 838.658 83.87C835.148 83.87 832.478 86.72 832.478 90.29C832.478 93.83 835.148 96.68 838.658 96.68C840.488 96.68 841.898 95.99 843.188 94.7ZM862.174 91.1H848.944C849.304 94.25 851.854 96.68 855.094 96.68C857.374 96.68 858.514 96.08 860.254 94.76L861.184 96.14C859.204 97.61 857.584 98.33 855.094 98.33C850.594 98.33 847.144 94.73 847.144 90.29C847.144 85.82 850.654 82.19 855.064 82.19C859.594 82.19 862.174 85.94 862.174 90.35V91.1ZM848.944 89.51H860.464C860.284 86.51 858.334 83.84 855.094 83.84C851.854 83.84 849.304 86.3 848.944 89.51ZM877.128 98L876.888 94.85C875.898 97.07 873.828 98.33 871.098 98.33C867.948 98.33 865.488 96.35 865.488 93.38C865.488 90.2 868.188 88.64 871.758 88.64C873.768 88.64 875.268 89 876.768 89.48C876.768 84.89 875.838 83.87 872.208 83.87C870.258 83.87 868.368 84.2 867.198 84.5L866.808 82.88C867.468 82.61 870.168 82.19 872.388 82.19C877.398 82.19 878.508 84.23 878.508 89.45V98H877.128ZM876.768 91.46V91.07C875.298 90.56 873.858 90.2 871.878 90.2C869.088 90.2 867.228 91.28 867.228 93.38C867.228 95.45 868.878 96.68 871.278 96.68C875.118 96.68 876.768 94.13 876.768 91.46ZM886.01 98H884.27V75.41H886.01V98ZM905.563 91.1H892.333C892.693 94.25 895.243 96.68 898.483 96.68C900.763 96.68 901.903 96.08 903.643 94.76L904.573 96.14C902.593 97.61 900.973 98.33 898.483 98.33C893.983 98.33 890.533 94.73 890.533 90.29C890.533 85.82 894.043 82.19 898.453 82.19C902.983 82.19 905.563 85.94 905.563 90.35V91.1ZM892.333 89.51H903.853C903.673 86.51 901.723 83.84 898.483 83.84C895.243 83.84 892.693 86.3 892.333 89.51ZM922.591 98L922.501 94.46C921.781 95.84 919.801 98.33 915.991 98.33C911.671 98.33 908.521 94.67 908.521 90.29C908.521 85.91 911.671 82.19 915.991 82.19C919.501 82.19 921.391 84.56 922.231 85.82V75.41H923.941V98H922.591ZM916.291 96.68C919.681 96.68 922.261 93.65 922.261 90.26C922.261 86.87 919.681 83.87 916.291 83.87C912.751 83.87 910.261 86.72 910.261 90.29C910.261 93.83 912.751 96.68 916.291 96.68ZM937.837 98H936.097V75.41H937.837V85.64C938.257 84.59 939.877 82.19 943.147 82.19C946.297 82.19 948.967 84.2 948.967 88.82V98H947.257V89.18C947.257 85.37 945.307 83.87 942.727 83.87C939.847 83.87 937.837 86.57 937.837 89.57V98ZM968.199 91.1H954.969C955.329 94.25 957.879 96.68 961.119 96.68C963.399 96.68 964.539 96.08 966.279 94.76L967.209 96.14C965.229 97.61 963.609 98.33 961.119 98.33C956.619 98.33 953.169 94.73 953.169 90.29C953.169 85.82 956.679 82.19 961.089 82.19C965.619 82.19 968.199 85.94 968.199 90.35V91.1ZM954.969 89.51H966.489C966.309 86.51 964.359 83.84 961.119 83.84C957.879 83.84 955.329 86.3 954.969 89.51ZM983.153 98L982.913 94.85C981.923 97.07 979.853 98.33 977.123 98.33C973.973 98.33 971.513 96.35 971.513 93.38C971.513 90.2 974.213 88.64 977.783 88.64C979.793 88.64 981.293 89 982.793 89.48C982.793 84.89 981.863 83.87 978.233 83.87C976.283 83.87 974.393 84.2 973.223 84.5L972.833 82.88C973.493 82.61 976.193 82.19 978.413 82.19C983.423 82.19 984.533 84.23 984.533 89.45V98H983.153ZM982.793 91.46V91.07C981.323 90.56 979.883 90.2 977.903 90.2C975.113 90.2 973.253 91.28 973.253 93.38C973.253 95.45 974.903 96.68 977.303 96.68C981.143 96.68 982.793 94.13 982.793 91.46ZM997.736 96.05L998.366 97.55C997.346 98.09 996.116 98.33 995.006 98.33C992.036 98.33 990.506 96.56 990.506 93.29V84.17H988.316V82.58H990.536V79.01H992.246V82.58H997.916V84.17H992.246V93.29C992.246 95.54 993.086 96.68 995.006 96.68C995.996 96.68 996.836 96.44 997.736 96.05ZM1002.21 76.67C1002.21 75.89 1002.78 75.26 1003.59 75.26C1004.34 75.26 1004.97 75.89 1004.97 76.67C1004.97 77.42 1004.34 78.05 1003.59 78.05C1002.78 78.05 1002.21 77.42 1002.21 76.67ZM1004.46 98H1002.72V82.52H1004.46V98ZM1012.28 98H1010.57V82.52H1011.89L1012.1 86.03C1012.55 84.71 1014.26 82.19 1017.62 82.19C1020.74 82.19 1023.44 84.2 1023.44 88.82V98H1021.7V89.18C1021.7 85.37 1019.75 83.87 1017.17 83.87C1014.29 83.87 1012.28 86.57 1012.28 89.57V98ZM1029.86 103.01L1030.4 101.36C1031.63 101.9 1033.28 102.44 1035.41 102.44C1040.45 102.44 1041.35 99.44 1041.35 95.9V94.34C1040.51 95.63 1038.62 97.88 1035.11 97.88C1030.79 97.88 1027.64 94.46 1027.64 90.08C1027.64 85.7 1030.79 82.19 1035.11 82.19C1038.92 82.19 1040.9 84.71 1041.62 86.09L1041.71 82.52H1043.06V95.78C1043.06 101.24 1040.93 104.09 1035.47 104.09C1032.92 104.09 1030.91 103.43 1029.86 103.01ZM1035.41 96.23C1038.8 96.23 1041.38 93.44 1041.38 90.08C1041.38 86.81 1038.8 83.87 1035.41 83.87C1031.87 83.87 1029.38 86.54 1029.38 90.08C1029.38 93.65 1031.87 96.23 1035.41 96.23ZM1068.66 91.1H1055.43C1055.79 94.25 1058.34 96.68 1061.58 96.68C1063.86 96.68 1065 96.08 1066.74 94.76L1067.67 96.14C1065.69 97.61 1064.07 98.33 1061.58 98.33C1057.08 98.33 1053.63 94.73 1053.63 90.29C1053.63 85.82 1057.14 82.19 1061.55 82.19C1066.08 82.19 1068.66 85.94 1068.66 90.35V91.1ZM1055.43 89.51H1066.95C1066.77 86.51 1064.82 83.84 1061.58 83.84C1058.34 83.84 1055.79 86.3 1055.43 89.51ZM1074.92 98H1073.18V75.41H1074.92V98ZM1094.47 91.1H1081.24C1081.6 94.25 1084.15 96.68 1087.39 96.68C1089.67 96.68 1090.81 96.08 1092.55 94.76L1093.48 96.14C1091.5 97.61 1089.88 98.33 1087.39 98.33C1082.89 98.33 1079.44 94.73 1079.44 90.29C1079.44 85.82 1082.95 82.19 1087.36 82.19C1091.89 82.19 1094.47 85.94 1094.47 90.35V91.1ZM1081.24 89.51H1092.76C1092.58 86.51 1090.63 83.84 1087.39 83.84C1084.15 83.84 1081.6 86.3 1081.24 89.51ZM1100.73 98H1099.02V82.52H1100.37L1100.52 86.03C1101 84.71 1102.41 82.19 1105.77 82.19C1108.23 82.19 1110.06 83.42 1110.69 86.21C1111.2 84.59 1112.73 82.19 1116.03 82.19C1119.15 82.19 1121.25 84.2 1121.25 88.82V98H1119.51V89.18C1119.51 85.37 1118.16 83.87 1115.58 83.87C1113 83.87 1111.32 86.06 1110.99 88.7V98H1109.28V89.18C1109.28 85.37 1107.9 83.87 1105.32 83.87C1102.44 83.87 1100.73 86.57 1100.73 89.57V98ZM1140.49 91.1H1127.26C1127.62 94.25 1130.17 96.68 1133.41 96.68C1135.69 96.68 1136.83 96.08 1138.57 94.76L1139.5 96.14C1137.52 97.61 1135.9 98.33 1133.41 98.33C1128.91 98.33 1125.46 94.73 1125.46 90.29C1125.46 85.82 1128.97 82.19 1133.38 82.19C1137.91 82.19 1140.49 85.94 1140.49 90.35V91.1ZM1127.26 89.51H1138.78C1138.6 86.51 1136.65 83.84 1133.41 83.84C1130.17 83.84 1127.62 86.3 1127.26 89.51ZM1146.75 98H1145.04V82.52H1146.36L1146.57 86.03C1147.02 84.71 1148.73 82.19 1152.09 82.19C1155.21 82.19 1157.91 84.2 1157.91 88.82V98H1156.17V89.18C1156.17 85.37 1154.22 83.87 1151.64 83.87C1148.76 83.87 1146.75 86.57 1146.75 89.57V98ZM1171.11 96.05L1171.74 97.55C1170.72 98.09 1169.49 98.33 1168.38 98.33C1165.41 98.33 1163.88 96.56 1163.88 93.29V84.17H1161.69V82.58H1163.91V79.01H1165.62V82.58H1171.29V84.17H1165.62V93.29C1165.62 95.54 1166.46 96.68 1168.38 96.68C1169.37 96.68 1170.21 96.44 1171.11 96.05Z" fill="#FFAF5F"/>
<path d="M787.628 791H785.678L795.038 770H796.478L805.838 791H803.858L801.368 785.42H790.118L787.628 791ZM795.728 772.85L790.898 783.65H800.588L795.758 772.85H795.728ZM820.482 791L820.332 787.7C819.852 788.99 818.082 791.33 814.722 791.33C811.602 791.33 809.052 789.5 809.052 784.88V775.52H810.762V784.49C810.762 788.36 812.622 789.68 815.172 789.68C818.052 789.68 820.092 786.95 820.092 783.95V775.52H821.832V791H820.482ZM835.337 789.05L835.967 790.55C834.947 791.09 833.717 791.33 832.607 791.33C829.637 791.33 828.107 789.56 828.107 786.29V777.17H825.917V775.58H828.137V772.01H829.847V775.58H835.517V777.17H829.847V786.29C829.847 788.54 830.687 789.68 832.607 789.68C833.597 789.68 834.437 789.44 835.337 789.05ZM838.759 783.29C838.759 778.82 842.209 775.19 846.679 775.19C851.179 775.19 854.629 778.82 854.629 783.29C854.629 787.73 851.179 791.33 846.679 791.33C842.209 791.33 838.759 787.73 838.759 783.29ZM846.679 789.68C850.189 789.68 852.889 786.83 852.889 783.29C852.889 779.72 850.189 776.87 846.679 776.87C843.169 776.87 840.499 779.72 840.499 783.29C840.499 786.83 843.169 789.68 846.679 789.68ZM860.896 791H859.186V775.52H860.536L860.686 779.03C861.166 777.71 862.576 775.19 865.936 775.19C868.396 775.19 870.226 776.42 870.856 779.21C871.366 777.59 872.896 775.19 876.196 775.19C879.316 775.19 881.416 777.2 881.416 781.82V791H879.676V782.18C879.676 778.37 878.326 776.87 875.746 776.87C873.166 776.87 871.486 779.06 871.156 781.7V791H869.446V782.18C869.446 778.37 868.066 776.87 865.486 776.87C862.606 776.87 860.896 779.57 860.896 782.57V791ZM885.634 783.29C885.634 778.82 889.084 775.19 893.554 775.19C898.054 775.19 901.504 778.82 901.504 783.29C901.504 787.73 898.054 791.33 893.554 791.33C889.084 791.33 885.634 787.73 885.634 783.29ZM893.554 789.68C897.064 789.68 899.764 786.83 899.764 783.29C899.764 779.72 897.064 776.87 893.554 776.87C890.044 776.87 887.374 779.72 887.374 783.29C887.374 786.83 890.044 789.68 893.554 789.68ZM913.471 789.05L914.101 790.55C913.081 791.09 911.851 791.33 910.741 791.33C907.771 791.33 906.241 789.56 906.241 786.29V777.17H904.051V775.58H906.271V772.01H907.981V775.58H913.651V777.17H907.981V786.29C907.981 788.54 908.821 789.68 910.741 789.68C911.731 789.68 912.571 789.44 913.471 789.05ZM917.943 769.67C917.943 768.89 918.513 768.26 919.323 768.26C920.073 768.26 920.703 768.89 920.703 769.67C920.703 770.42 920.073 771.05 919.323 771.05C918.513 771.05 917.943 770.42 917.943 769.67ZM920.193 791H918.453V775.52H920.193V791ZM931.826 791H930.086L923.696 775.52H925.556L930.926 788.72H930.986L936.356 775.52H938.186L931.826 791ZM955.097 784.1H941.867C942.227 787.25 944.777 789.68 948.017 789.68C950.297 789.68 951.437 789.08 953.177 787.76L954.107 789.14C952.127 790.61 950.507 791.33 948.017 791.33C943.517 791.33 940.067 787.73 940.067 783.29C940.067 778.82 943.577 775.19 947.987 775.19C952.517 775.19 955.097 778.94 955.097 783.35V784.1ZM941.867 782.51H953.387C953.207 779.51 951.257 776.84 948.017 776.84C944.777 776.84 942.227 779.3 941.867 782.51ZM964.421 788.84L965.411 787.31C967.601 788.84 970.181 789.71 972.521 789.71C976.241 789.71 978.521 787.97 978.521 785.24C978.521 782.39 975.701 781.79 972.701 781.31C968.981 780.68 964.961 780.41 964.961 775.73C964.961 772.04 968.081 769.61 972.401 769.61C975.071 769.61 977.051 770.12 979.691 771.71L978.791 773.24C976.511 771.83 974.591 771.29 972.461 771.29C969.041 771.29 966.701 772.91 966.701 775.73C966.701 778.73 969.521 778.97 972.701 779.45C976.301 779.99 980.261 780.74 980.261 785.18C980.261 788.93 977.261 791.39 972.611 791.39C969.701 791.39 966.821 790.55 964.421 788.84ZM992.602 789.05L993.232 790.55C992.212 791.09 990.982 791.33 989.872 791.33C986.902 791.33 985.372 789.56 985.372 786.29V777.17H983.182V775.58H985.402V772.01H987.112V775.58H992.782V777.17H987.112V786.29C987.112 788.54 987.952 789.68 989.872 789.68C990.862 789.68 991.702 789.44 992.602 789.05ZM1008.08 791L1007.84 787.85C1006.85 790.07 1004.78 791.33 1002.05 791.33C998.899 791.33 996.439 789.35 996.439 786.38C996.439 783.2 999.139 781.64 1002.71 781.64C1004.72 781.64 1006.22 782 1007.72 782.48C1007.72 777.89 1006.79 776.87 1003.16 776.87C1001.21 776.87 999.319 777.2 998.149 777.5L997.759 775.88C998.419 775.61 1001.12 775.19 1003.34 775.19C1008.35 775.19 1009.46 777.23 1009.46 782.45V791H1008.08ZM1007.72 784.46V784.07C1006.25 783.56 1004.81 783.2 1002.83 783.2C1000.04 783.2 998.179 784.28 998.179 786.38C998.179 788.45 999.829 789.68 1002.23 789.68C1006.07 789.68 1007.72 787.13 1007.72 784.46ZM1014.71 769.67C1014.71 768.89 1015.28 768.26 1016.09 768.26C1016.84 768.26 1017.47 768.89 1017.47 769.67C1017.47 770.42 1016.84 771.05 1016.09 771.05C1015.28 771.05 1014.71 770.42 1014.71 769.67ZM1016.96 791H1015.22V775.52H1016.96V791ZM1024.78 791H1023.07V775.52H1024.39L1024.6 779.03C1025.05 777.71 1026.76 775.19 1030.12 775.19C1033.24 775.19 1035.94 777.2 1035.94 781.82V791H1034.2V782.18C1034.2 778.37 1032.25 776.87 1029.67 776.87C1026.79 776.87 1024.78 779.57 1024.78 782.57V791ZM1043.45 791H1041.71V768.41H1043.45V791ZM1063 784.1H1049.77C1050.13 787.25 1052.68 789.68 1055.92 789.68C1058.2 789.68 1059.34 789.08 1061.08 787.76L1062.01 789.14C1060.03 790.61 1058.41 791.33 1055.92 791.33C1051.42 791.33 1047.97 787.73 1047.97 783.29C1047.97 778.82 1051.48 775.19 1055.89 775.19C1060.42 775.19 1063 778.94 1063 783.35V784.1ZM1049.77 782.51H1061.29C1061.11 779.51 1059.16 776.84 1055.92 776.84C1052.68 776.84 1050.13 779.3 1049.77 782.51ZM1066.08 789.26L1066.95 787.7C1068.78 788.99 1070.61 789.68 1072.59 789.68C1075.77 789.68 1076.94 788.33 1076.94 786.74C1076.94 784.94 1075.47 784.46 1072.44 784.04C1069.56 783.65 1066.65 783.08 1066.65 779.84C1066.65 777.08 1068.81 775.19 1072.32 775.19C1074.06 775.19 1076.25 775.67 1078.23 776.99L1077.39 778.55C1075.65 777.32 1073.91 776.87 1072.32 776.87C1069.62 776.87 1068.36 777.95 1068.36 779.75C1068.36 781.61 1069.83 782 1072.8 782.39C1075.68 782.81 1078.65 783.44 1078.65 786.65C1078.65 789.32 1076.52 791.33 1072.56 791.33C1070.88 791.33 1068.42 790.91 1066.08 789.26ZM1081.87 789.26L1082.74 787.7C1084.57 788.99 1086.4 789.68 1088.38 789.68C1091.56 789.68 1092.73 788.33 1092.73 786.74C1092.73 784.94 1091.26 784.46 1088.23 784.04C1085.35 783.65 1082.44 783.08 1082.44 779.84C1082.44 777.08 1084.6 775.19 1088.11 775.19C1089.85 775.19 1092.04 775.67 1094.02 776.99L1093.18 778.55C1091.44 777.32 1089.7 776.87 1088.11 776.87C1085.41 776.87 1084.15 777.95 1084.15 779.75C1084.15 781.61 1085.62 782 1088.59 782.39C1091.47 782.81 1094.44 783.44 1094.44 786.65C1094.44 789.32 1092.31 791.33 1088.35 791.33C1086.67 791.33 1084.21 790.91 1081.87 789.26ZM1103.66 789.26L1104.53 787.7C1106.36 788.99 1108.19 789.68 1110.17 789.68C1113.35 789.68 1114.52 788.33 1114.52 786.74C1114.52 784.94 1113.05 784.46 1110.02 784.04C1107.14 783.65 1104.23 783.08 1104.23 779.84C1104.23 777.08 1106.39 775.19 1109.9 775.19C1111.64 775.19 1113.83 775.67 1115.81 776.99L1114.97 778.55C1113.23 777.32 1111.49 776.87 1109.9 776.87C1107.2 776.87 1105.94 777.95 1105.94 779.75C1105.94 781.61 1107.41 782 1110.38 782.39C1113.26 782.81 1116.23 783.44 1116.23 786.65C1116.23 789.32 1114.1 791.33 1110.14 791.33C1108.46 791.33 1106 790.91 1103.66 789.26ZM1128.33 789.05L1128.96 790.55C1127.94 791.09 1126.71 791.33 1125.6 791.33C1122.63 791.33 1121.1 789.56 1121.1 786.29V777.17H1118.91V775.58H1121.13V772.01H1122.84V775.58H1128.51V777.17H1122.84V786.29C1122.84 788.54 1123.68 789.68 1125.6 789.68C1126.59 789.68 1127.43 789.44 1128.33 789.05ZM1146.79 784.1H1133.56C1133.92 787.25 1136.47 789.68 1139.71 789.68C1141.99 789.68 1143.13 789.08 1144.87 787.76L1145.8 789.14C1143.82 790.61 1142.2 791.33 1139.71 791.33C1135.21 791.33 1131.76 787.73 1131.76 783.29C1131.76 778.82 1135.27 775.19 1139.68 775.19C1144.21 775.19 1146.79 778.94 1146.79 783.35V784.1ZM1133.56 782.51H1145.08C1144.9 779.51 1142.95 776.84 1139.71 776.84C1136.47 776.84 1133.92 779.3 1133.56 782.51ZM1164.77 784.1H1151.54C1151.9 787.25 1154.45 789.68 1157.69 789.68C1159.97 789.68 1161.11 789.08 1162.85 787.76L1163.78 789.14C1161.8 790.61 1160.18 791.33 1157.69 791.33C1153.19 791.33 1149.74 787.73 1149.74 783.29C1149.74 778.82 1153.25 775.19 1157.66 775.19C1162.19 775.19 1164.77 778.94 1164.77 783.35V784.1ZM1151.54 782.51H1163.06C1162.88 779.51 1160.93 776.84 1157.69 776.84C1154.45 776.84 1151.9 779.3 1151.54 782.51ZM1171.03 791H1169.29V768.41H1171.03V791ZM789.5 840H787.79V824.52H789.14L789.29 828.03C789.77 826.71 791.18 824.19 794.54 824.19C797 824.19 798.83 825.42 799.46 828.21C799.97 826.59 801.5 824.19 804.8 824.19C807.92 824.19 810.02 826.2 810.02 830.82V840H808.28V831.18C808.28 827.37 806.93 825.87 804.35 825.87C801.77 825.87 800.09 828.06 799.76 830.7V840H798.05V831.18C798.05 827.37 796.67 825.87 794.09 825.87C791.21 825.87 789.5 828.57 789.5 831.57V840ZM826.057 840L825.817 836.85C824.827 839.07 822.757 840.33 820.027 840.33C816.877 840.33 814.417 838.35 814.417 835.38C814.417 832.2 817.117 830.64 820.687 830.64C822.697 830.64 824.197 831 825.697 831.48C825.697 826.89 824.767 825.87 821.137 825.87C819.187 825.87 817.297 826.2 816.127 826.5L815.737 824.88C816.397 824.61 819.097 824.19 821.317 824.19C826.327 824.19 827.437 826.23 827.437 831.45V840H826.057ZM825.697 833.46V833.07C824.227 832.56 822.787 832.2 820.807 832.2C818.017 832.2 816.157 833.28 816.157 835.38C816.157 837.45 817.807 838.68 820.207 838.68C824.047 838.68 825.697 836.13 825.697 833.46ZM840.639 838.05L841.269 839.55C840.249 840.09 839.019 840.33 837.909 840.33C834.939 840.33 833.409 838.56 833.409 835.29V826.17H831.219V824.58H833.439V821.01H835.149V824.58H840.819V826.17H835.149V835.29C835.149 837.54 835.989 838.68 837.909 838.68C838.899 838.68 839.739 838.44 840.639 838.05ZM853.061 838.05L853.691 839.55C852.671 840.09 851.441 840.33 850.331 840.33C847.361 840.33 845.831 838.56 845.831 835.29V826.17H843.641V824.58H845.861V821.01H847.571V824.58H853.241V826.17H847.571V835.29C847.571 837.54 848.411 838.68 850.331 838.68C851.321 838.68 852.161 838.44 853.061 838.05ZM871.513 833.1H858.283C858.643 836.25 861.193 838.68 864.433 838.68C866.713 838.68 867.853 838.08 869.593 836.76L870.523 838.14C868.543 839.61 866.923 840.33 864.433 840.33C859.933 840.33 856.483 836.73 856.483 832.29C856.483 827.82 859.993 824.19 864.403 824.19C868.933 824.19 871.513 827.94 871.513 832.35V833.1ZM858.283 831.51H869.803C869.623 828.51 867.673 825.84 864.433 825.84C861.193 825.84 858.643 828.3 858.283 831.51ZM883.777 845.76H882.067V824.52H883.417L883.507 828.06C884.227 826.71 886.207 824.19 890.017 824.19C894.337 824.19 897.487 827.88 897.487 832.26C897.487 836.64 894.337 840.33 890.017 840.33C886.507 840.33 884.617 837.99 883.777 836.7V845.76ZM889.717 838.68C893.257 838.68 895.747 835.83 895.747 832.26C895.747 828.72 893.257 825.87 889.717 825.87C886.327 825.87 883.777 828.87 883.777 832.26C883.777 835.65 886.327 838.68 889.717 838.68ZM900.458 832.29C900.458 827.82 903.908 824.19 908.378 824.19C912.878 824.19 916.328 827.82 916.328 832.29C916.328 836.73 912.878 840.33 908.378 840.33C903.908 840.33 900.458 836.73 900.458 832.29ZM908.378 838.68C911.888 838.68 914.588 835.83 914.588 832.29C914.588 828.72 911.888 825.87 908.378 825.87C904.868 825.87 902.198 828.72 902.198 832.29C902.198 835.83 904.868 838.68 908.378 838.68ZM924.786 840H923.076L918.336 824.52H920.136L923.976 837.39L928.446 824.52H930.186L934.626 837.39L938.466 824.52H940.266L935.526 840H933.816L929.316 826.95L924.786 840ZM956.334 840L956.244 836.46C955.524 837.84 953.544 840.33 949.734 840.33C945.414 840.33 942.264 836.67 942.264 832.29C942.264 827.91 945.414 824.19 949.734 824.19C953.244 824.19 955.134 826.56 955.974 827.82V817.41H957.684V840H956.334ZM950.034 838.68C953.424 838.68 956.004 835.65 956.004 832.26C956.004 828.87 953.424 825.87 950.034 825.87C946.494 825.87 944.004 828.72 944.004 832.29C944.004 835.83 946.494 838.68 950.034 838.68ZM977.275 833.1H964.045C964.405 836.25 966.955 838.68 970.195 838.68C972.475 838.68 973.615 838.08 975.355 836.76L976.285 838.14C974.305 839.61 972.685 840.33 970.195 840.33C965.695 840.33 962.245 836.73 962.245 832.29C962.245 827.82 965.755 824.19 970.165 824.19C974.695 824.19 977.275 827.94 977.275 832.35V833.1ZM964.045 831.51H975.565C975.385 828.51 973.435 825.84 970.195 825.84C966.955 825.84 964.405 828.3 964.045 831.51ZM983.533 840H981.823V824.52H983.173L983.353 828.27C983.953 826.95 985.453 824.07 990.043 824.19L989.803 826.02C985.663 825.84 983.533 829.14 983.533 832.56V840ZM1011.14 836.7L1012.34 837.9C1010.57 839.61 1008.71 840.33 1006.61 840.33C1002.14 840.33 998.691 836.73 998.691 832.29C998.691 827.82 1002.14 824.19 1006.61 824.19C1008.71 824.19 1010.69 825 1012.31 826.62L1011.14 827.82C1009.97 826.68 1008.5 825.87 1006.61 825.87C1003.1 825.87 1000.43 828.72 1000.43 832.29C1000.43 835.83 1003.1 838.68 1006.61 838.68C1008.44 838.68 1009.85 837.99 1011.14 836.7ZM1015.1 832.29C1015.1 827.82 1018.55 824.19 1023.02 824.19C1027.52 824.19 1030.97 827.82 1030.97 832.29C1030.97 836.73 1027.52 840.33 1023.02 840.33C1018.55 840.33 1015.1 836.73 1015.1 832.29ZM1023.02 838.68C1026.53 838.68 1029.23 835.83 1029.23 832.29C1029.23 828.72 1026.53 825.87 1023.02 825.87C1019.51 825.87 1016.84 828.72 1016.84 832.29C1016.84 835.83 1019.51 838.68 1023.02 838.68ZM1045.93 840L1045.69 836.85C1044.7 839.07 1042.63 840.33 1039.9 840.33C1036.75 840.33 1034.29 838.35 1034.29 835.38C1034.29 832.2 1036.99 830.64 1040.56 830.64C1042.57 830.64 1044.07 831 1045.57 831.48C1045.57 826.89 1044.64 825.87 1041.01 825.87C1039.06 825.87 1037.17 826.2 1036 826.5L1035.61 824.88C1036.27 824.61 1038.97 824.19 1041.19 824.19C1046.2 824.19 1047.31 826.23 1047.31 831.45V840H1045.93ZM1045.57 833.46V833.07C1044.1 832.56 1042.66 832.2 1040.68 832.2C1037.89 832.2 1036.03 833.28 1036.03 835.38C1036.03 837.45 1037.68 838.68 1040.08 838.68C1043.92 838.68 1045.57 836.13 1045.57 833.46ZM1060.51 838.05L1061.14 839.55C1060.12 840.09 1058.89 840.33 1057.78 840.33C1054.81 840.33 1053.28 838.56 1053.28 835.29V826.17H1051.09V824.58H1053.31V821.01H1055.02V824.58H1060.69V826.17H1055.02V835.29C1055.02 837.54 1055.86 838.68 1057.78 838.68C1058.77 838.68 1059.61 838.44 1060.51 838.05ZM1078.96 833.1H1065.73C1066.09 836.25 1068.64 838.68 1071.88 838.68C1074.16 838.68 1075.3 838.08 1077.04 836.76L1077.97 838.14C1075.99 839.61 1074.37 840.33 1071.88 840.33C1067.38 840.33 1063.93 836.73 1063.93 832.29C1063.93 827.82 1067.44 824.19 1071.85 824.19C1076.38 824.19 1078.96 827.94 1078.96 832.35V833.1ZM1065.73 831.51H1077.25C1077.07 828.51 1075.12 825.84 1071.88 825.84C1068.64 825.84 1066.09 828.3 1065.73 831.51ZM1095.99 840L1095.9 836.46C1095.18 837.84 1093.2 840.33 1089.39 840.33C1085.07 840.33 1081.92 836.67 1081.92 832.29C1081.92 827.91 1085.07 824.19 1089.39 824.19C1092.9 824.19 1094.79 826.56 1095.63 827.82V817.41H1097.34V840H1095.99ZM1089.69 838.68C1093.08 838.68 1095.66 835.65 1095.66 832.26C1095.66 828.87 1093.08 825.87 1089.69 825.87C1086.15 825.87 1083.66 828.72 1083.66 832.29C1083.66 835.83 1086.15 838.68 1089.69 838.68ZM1110.85 840H1109.5V817.41H1111.21V827.82C1112.05 826.56 1113.94 824.19 1117.45 824.19C1121.77 824.19 1124.92 827.91 1124.92 832.29C1124.92 836.67 1121.77 840.33 1117.45 840.33C1113.64 840.33 1111.66 837.84 1110.94 836.46L1110.85 840ZM1117.15 838.68C1120.69 838.68 1123.18 835.83 1123.18 832.29C1123.18 828.72 1120.69 825.87 1117.15 825.87C1113.76 825.87 1111.21 828.87 1111.21 832.26C1111.21 835.65 1113.76 838.68 1117.15 838.68ZM1127.89 832.29C1127.89 827.82 1131.34 824.19 1135.81 824.19C1140.31 824.19 1143.76 827.82 1143.76 832.29C1143.76 836.73 1140.31 840.33 1135.81 840.33C1131.34 840.33 1127.89 836.73 1127.89 832.29ZM1135.81 838.68C1139.32 838.68 1142.02 835.83 1142.02 832.29C1142.02 828.72 1139.32 825.87 1135.81 825.87C1132.3 825.87 1129.63 828.72 1129.63 832.29C1129.63 835.83 1132.3 838.68 1135.81 838.68ZM1160.8 840L1160.71 836.46C1159.99 837.84 1158.01 840.33 1154.2 840.33C1149.88 840.33 1146.73 836.67 1146.73 832.29C1146.73 827.91 1149.88 824.19 1154.2 824.19C1157.71 824.19 1159.6 826.56 1160.44 827.82V817.41H1162.15V840H1160.8ZM1154.5 838.68C1157.89 838.68 1160.47 835.65 1160.47 832.26C1160.47 828.87 1157.89 825.87 1154.5 825.87C1150.96 825.87 1148.47 828.72 1148.47 832.29C1148.47 835.83 1150.96 838.68 1154.5 838.68ZM1171.42 845.76H1169.59L1171.99 839.88L1165.69 824.52H1167.52L1172.89 837.72H1172.95L1178.32 824.52H1180.15L1171.42 845.76Z" fill="#FFAF5F"/>
<path d="M807.01 1101H805.27V1080H807.01V1101ZM815.061 1101H813.351V1085.52H814.671L814.881 1089.03C815.331 1087.71 817.041 1085.19 820.401 1085.19C823.521 1085.19 826.221 1087.2 826.221 1091.82V1101H824.481V1092.18C824.481 1088.37 822.531 1086.87 819.951 1086.87C817.071 1086.87 815.061 1089.57 815.061 1092.57V1101ZM839.423 1099.05L840.053 1100.55C839.033 1101.09 837.803 1101.33 836.693 1101.33C833.723 1101.33 832.193 1099.56 832.193 1096.29V1087.17H830.003V1085.58H832.223V1082.01H833.933V1085.58H839.603V1087.17H833.933V1096.29C833.933 1098.54 834.773 1099.68 836.693 1099.68C837.683 1099.68 838.523 1099.44 839.423 1099.05ZM857.875 1094.1H844.645C845.005 1097.25 847.555 1099.68 850.795 1099.68C853.075 1099.68 854.215 1099.08 855.955 1097.76L856.885 1099.14C854.905 1100.61 853.285 1101.33 850.795 1101.33C846.295 1101.33 842.845 1097.73 842.845 1093.29C842.845 1088.82 846.355 1085.19 850.765 1085.19C855.295 1085.19 857.875 1088.94 857.875 1093.35V1094.1ZM844.645 1092.51H856.165C855.985 1089.51 854.035 1086.84 850.795 1086.84C847.555 1086.84 845.005 1089.3 844.645 1092.51ZM864.133 1101H862.423V1085.52H863.773L863.953 1089.27C864.553 1087.95 866.053 1085.07 870.643 1085.19L870.403 1087.02C866.263 1086.84 864.133 1090.14 864.133 1093.56V1101ZM885.442 1097.7L886.642 1098.9C884.872 1100.61 883.012 1101.33 880.912 1101.33C876.442 1101.33 872.992 1097.73 872.992 1093.29C872.992 1088.82 876.442 1085.19 880.912 1085.19C883.012 1085.19 884.992 1086 886.612 1087.62L885.442 1088.82C884.272 1087.68 882.802 1086.87 880.912 1086.87C877.402 1086.87 874.732 1089.72 874.732 1093.29C874.732 1096.83 877.402 1099.68 880.912 1099.68C882.742 1099.68 884.152 1098.99 885.442 1097.7ZM892.728 1101H890.988V1078.41H892.728V1088.64C893.148 1087.59 894.768 1085.19 898.038 1085.19C901.188 1085.19 903.858 1087.2 903.858 1091.82V1101H902.148V1092.18C902.148 1088.37 900.198 1086.87 897.618 1086.87C894.738 1086.87 892.728 1089.57 892.728 1092.57V1101ZM919.88 1101L919.64 1097.85C918.65 1100.07 916.58 1101.33 913.85 1101.33C910.7 1101.33 908.24 1099.35 908.24 1096.38C908.24 1093.2 910.94 1091.64 914.51 1091.64C916.52 1091.64 918.02 1092 919.52 1092.48C919.52 1087.89 918.59 1086.87 914.96 1086.87C913.01 1086.87 911.12 1087.2 909.95 1087.5L909.56 1085.88C910.22 1085.61 912.92 1085.19 915.14 1085.19C920.15 1085.19 921.26 1087.23 921.26 1092.45V1101H919.88ZM919.52 1094.46V1094.07C918.05 1093.56 916.61 1093.2 914.63 1093.2C911.84 1093.2 909.98 1094.28 909.98 1096.38C909.98 1098.45 911.63 1099.68 914.03 1099.68C917.87 1099.68 919.52 1097.13 919.52 1094.46ZM928.762 1101H927.052V1085.52H928.372L928.582 1089.03C929.032 1087.71 930.742 1085.19 934.102 1085.19C937.222 1085.19 939.922 1087.2 939.922 1091.82V1101H938.182V1092.18C938.182 1088.37 936.232 1086.87 933.652 1086.87C930.772 1086.87 928.762 1089.57 928.762 1092.57V1101ZM946.344 1106.01L946.884 1104.36C948.114 1104.9 949.764 1105.44 951.894 1105.44C956.934 1105.44 957.834 1102.44 957.834 1098.9V1097.34C956.994 1098.63 955.104 1100.88 951.594 1100.88C947.274 1100.88 944.124 1097.46 944.124 1093.08C944.124 1088.7 947.274 1085.19 951.594 1085.19C955.404 1085.19 957.384 1087.71 958.104 1089.09L958.194 1085.52H959.544V1098.78C959.544 1104.24 957.414 1107.09 951.954 1107.09C949.404 1107.09 947.394 1106.43 946.344 1106.01ZM951.894 1099.23C955.284 1099.23 957.864 1096.44 957.864 1093.08C957.864 1089.81 955.284 1086.87 951.894 1086.87C948.354 1086.87 945.864 1089.54 945.864 1093.08C945.864 1096.65 948.354 1099.23 951.894 1099.23ZM979.135 1094.1H965.905C966.265 1097.25 968.815 1099.68 972.055 1099.68C974.335 1099.68 975.475 1099.08 977.215 1097.76L978.145 1099.14C976.165 1100.61 974.545 1101.33 972.055 1101.33C967.555 1101.33 964.105 1097.73 964.105 1093.29C964.105 1088.82 967.615 1085.19 972.025 1085.19C976.555 1085.19 979.135 1088.94 979.135 1093.35V1094.1ZM965.905 1092.51H977.425C977.245 1089.51 975.295 1086.84 972.055 1086.84C968.815 1086.84 966.265 1089.3 965.905 1092.51ZM985.033 1101H983.683V1078.41H985.393V1088.82C986.233 1087.56 988.123 1085.19 991.633 1085.19C995.953 1085.19 999.103 1088.91 999.103 1093.29C999.103 1097.67 995.953 1101.33 991.633 1101.33C987.823 1101.33 985.843 1098.84 985.123 1097.46L985.033 1101ZM991.333 1099.68C994.873 1099.68 997.363 1096.83 997.363 1093.29C997.363 1089.72 994.873 1086.87 991.333 1086.87C987.943 1086.87 985.393 1089.87 985.393 1093.26C985.393 1096.65 987.943 1099.68 991.333 1099.68ZM1005.37 1101H1003.63V1078.41H1005.37V1101ZM1024.93 1094.1H1011.7C1012.06 1097.25 1014.61 1099.68 1017.85 1099.68C1020.13 1099.68 1021.27 1099.08 1023.01 1097.76L1023.94 1099.14C1021.96 1100.61 1020.34 1101.33 1017.85 1101.33C1013.35 1101.33 1009.9 1097.73 1009.9 1093.29C1009.9 1088.82 1013.41 1085.19 1017.82 1085.19C1022.35 1085.19 1024.93 1088.94 1024.93 1093.35V1094.1ZM1011.7 1092.51H1023.22C1023.04 1089.51 1021.09 1086.84 1017.85 1086.84C1014.61 1086.84 1012.06 1089.3 1011.7 1092.51ZM1039.38 1101H1037.67L1032.93 1085.52H1034.73L1038.57 1098.39L1043.04 1085.52H1044.78L1049.22 1098.39L1053.06 1085.52H1054.86L1050.12 1101H1048.41L1043.91 1087.95L1039.38 1101ZM1056.86 1093.29C1056.86 1088.82 1060.31 1085.19 1064.78 1085.19C1069.28 1085.19 1072.73 1088.82 1072.73 1093.29C1072.73 1097.73 1069.28 1101.33 1064.78 1101.33C1060.31 1101.33 1056.86 1097.73 1056.86 1093.29ZM1064.78 1099.68C1068.29 1099.68 1070.99 1096.83 1070.99 1093.29C1070.99 1089.72 1068.29 1086.87 1064.78 1086.87C1061.27 1086.87 1058.6 1089.72 1058.6 1093.29C1058.6 1096.83 1061.27 1099.68 1064.78 1099.68ZM1075.7 1093.29C1075.7 1088.82 1079.15 1085.19 1083.62 1085.19C1088.12 1085.19 1091.57 1088.82 1091.57 1093.29C1091.57 1097.73 1088.12 1101.33 1083.62 1101.33C1079.15 1101.33 1075.7 1097.73 1075.7 1093.29ZM1083.62 1099.68C1087.13 1099.68 1089.83 1096.83 1089.83 1093.29C1089.83 1089.72 1087.13 1086.87 1083.62 1086.87C1080.11 1086.87 1077.44 1089.72 1077.44 1093.29C1077.44 1096.83 1080.11 1099.68 1083.62 1099.68ZM1108.6 1101L1108.51 1097.46C1107.79 1098.84 1105.81 1101.33 1102 1101.33C1097.68 1101.33 1094.53 1097.67 1094.53 1093.29C1094.53 1088.91 1097.68 1085.19 1102 1085.19C1105.51 1085.19 1107.4 1087.56 1108.24 1088.82V1078.41H1109.95V1101H1108.6ZM1102.3 1099.68C1105.69 1099.68 1108.27 1096.65 1108.27 1093.26C1108.27 1089.87 1105.69 1086.87 1102.3 1086.87C1098.76 1086.87 1096.27 1089.72 1096.27 1093.29C1096.27 1096.83 1098.76 1099.68 1102.3 1099.68ZM1123.82 1101H1122.08V1078.41H1123.82V1101ZM1143.37 1094.1H1130.14C1130.5 1097.25 1133.05 1099.68 1136.29 1099.68C1138.57 1099.68 1139.71 1099.08 1141.45 1097.76L1142.38 1099.14C1140.4 1100.61 1138.78 1101.33 1136.29 1101.33C1131.79 1101.33 1128.34 1097.73 1128.34 1093.29C1128.34 1088.82 1131.85 1085.19 1136.26 1085.19C1140.79 1085.19 1143.37 1088.94 1143.37 1093.35V1094.1ZM1130.14 1092.51H1141.66C1141.48 1089.51 1139.53 1086.84 1136.29 1086.84C1133.05 1086.84 1130.5 1089.3 1130.14 1092.51ZM1148.55 1106.01L1149.09 1104.36C1150.32 1104.9 1151.97 1105.44 1154.1 1105.44C1159.14 1105.44 1160.04 1102.44 1160.04 1098.9V1097.34C1159.2 1098.63 1157.31 1100.88 1153.8 1100.88C1149.48 1100.88 1146.33 1097.46 1146.33 1093.08C1146.33 1088.7 1149.48 1085.19 1153.8 1085.19C1157.61 1085.19 1159.59 1087.71 1160.31 1089.09L1160.4 1085.52H1161.75V1098.78C1161.75 1104.24 1159.62 1107.09 1154.16 1107.09C1151.61 1107.09 1149.6 1106.43 1148.55 1106.01ZM1154.1 1099.23C1157.49 1099.23 1160.07 1096.44 1160.07 1093.08C1160.07 1089.81 1157.49 1086.87 1154.1 1086.87C1150.56 1086.87 1148.07 1089.54 1148.07 1093.08C1148.07 1096.65 1150.56 1099.23 1154.1 1099.23ZM1166.43 1099.26L1167.3 1097.7C1169.13 1098.99 1170.96 1099.68 1172.94 1099.68C1176.12 1099.68 1177.29 1098.33 1177.29 1096.74C1177.29 1094.94 1175.82 1094.46 1172.79 1094.04C1169.91 1093.65 1167 1093.08 1167 1089.84C1167 1087.08 1169.16 1085.19 1172.67 1085.19C1174.41 1085.19 1176.6 1085.67 1178.58 1086.99L1177.74 1088.55C1176 1087.32 1174.26 1086.87 1172.67 1086.87C1169.97 1086.87 1168.71 1087.95 1168.71 1089.75C1168.71 1091.61 1170.18 1092 1173.15 1092.39C1176.03 1092.81 1179 1093.44 1179 1096.65C1179 1099.32 1176.87 1101.33 1172.91 1101.33C1171.23 1101.33 1168.77 1100.91 1166.43 1099.26Z" fill="#FFAF5F"/>
<path d="M839.17 338.56L840.34 339.85C838.42 342.04 835.36 343.39 832.36 343.39C826.36 343.39 821.62 338.56 821.62 332.5C821.62 326.44 826.36 321.61 832.36 321.61C835.45 321.61 838.42 322.99 840.4 325.15L839.14 326.47C837.73 324.82 835.36 323.29 832.36 323.29C827.32 323.29 823.39 327.52 823.39 332.5C823.39 337.48 827.32 341.71 832.36 341.71C835.36 341.71 837.64 340.27 839.17 338.56ZM855.38 343L855.14 339.85C854.15 342.07 852.08 343.33 849.35 343.33C846.2 343.33 843.74 341.35 843.74 338.38C843.74 335.2 846.44 333.64 850.01 333.64C852.02 333.64 853.52 334 855.02 334.48C855.02 329.89 854.09 328.87 850.46 328.87C848.51 328.87 846.62 329.2 845.45 329.5L845.06 327.88C845.72 327.61 848.42 327.19 850.64 327.19C855.65 327.19 856.76 329.23 856.76 334.45V343H855.38ZM855.02 336.46V336.07C853.55 335.56 852.11 335.2 850.13 335.2C847.34 335.2 845.48 336.28 845.48 338.38C845.48 340.45 847.13 341.68 849.53 341.68C853.37 341.68 855.02 339.13 855.02 336.46ZM864.262 348.76H862.552V327.52H863.902L863.992 331.06C864.712 329.71 866.692 327.19 870.502 327.19C874.822 327.19 877.972 330.88 877.972 335.26C877.972 339.64 874.822 343.33 870.502 343.33C866.992 343.33 865.102 340.99 864.262 339.7V348.76ZM870.202 341.68C873.742 341.68 876.232 338.83 876.232 335.26C876.232 331.72 873.742 328.87 870.202 328.87C866.812 328.87 864.262 331.87 864.262 335.26C864.262 338.65 866.812 341.68 870.202 341.68ZM892.938 343L892.698 339.85C891.708 342.07 889.638 343.33 886.908 343.33C883.758 343.33 881.298 341.35 881.298 338.38C881.298 335.2 883.998 333.64 887.568 333.64C889.578 333.64 891.078 334 892.578 334.48C892.578 329.89 891.648 328.87 888.018 328.87C886.068 328.87 884.178 329.2 883.008 329.5L882.618 327.88C883.278 327.61 885.978 327.19 888.198 327.19C893.208 327.19 894.318 329.23 894.318 334.45V343H892.938ZM892.578 336.46V336.07C891.108 335.56 889.668 335.2 887.688 335.2C884.898 335.2 883.038 336.28 883.038 338.38C883.038 340.45 884.688 341.68 887.088 341.68C890.928 341.68 892.578 339.13 892.578 336.46ZM911.001 339.7L912.201 340.9C910.431 342.61 908.571 343.33 906.471 343.33C902.001 343.33 898.551 339.73 898.551 335.29C898.551 330.82 902.001 327.19 906.471 327.19C908.571 327.19 910.551 328 912.171 329.62L911.001 330.82C909.831 329.68 908.361 328.87 906.471 328.87C902.961 328.87 900.291 331.72 900.291 335.29C900.291 338.83 902.961 341.68 906.471 341.68C908.301 341.68 909.711 340.99 911.001 339.7ZM916.006 321.67C916.006 320.89 916.576 320.26 917.386 320.26C918.136 320.26 918.766 320.89 918.766 321.67C918.766 322.42 918.136 323.05 917.386 323.05C916.576 323.05 916.006 322.42 916.006 321.67ZM918.256 343H916.516V327.52H918.256V343ZM931.779 341.05L932.409 342.55C931.389 343.09 930.159 343.33 929.049 343.33C926.079 343.33 924.549 341.56 924.549 338.29V329.17H922.359V327.58H924.579V324.01H926.289V327.58H931.959V329.17H926.289V338.29C926.289 340.54 927.129 341.68 929.049 341.68C930.039 341.68 930.879 341.44 931.779 341.05ZM939.91 348.76H938.08L940.48 342.88L934.18 327.52H936.01L941.38 340.72H941.44L946.81 327.52H948.64L939.91 348.76ZM956.558 335.29C956.558 330.82 960.008 327.19 964.478 327.19C968.978 327.19 972.428 330.82 972.428 335.29C972.428 339.73 968.978 343.33 964.478 343.33C960.008 343.33 956.558 339.73 956.558 335.29ZM964.478 341.68C967.988 341.68 970.688 338.83 970.688 335.29C970.688 331.72 967.988 328.87 964.478 328.87C960.968 328.87 958.298 331.72 958.298 335.29C958.298 338.83 960.968 341.68 964.478 341.68ZM979.086 343H977.376V329.17H974.826V327.58H977.376V324.73C977.376 321.73 978.966 320.08 981.696 320.08C982.746 320.08 983.856 320.29 984.996 320.8L984.426 322.33C983.316 321.91 982.626 321.73 981.696 321.73C979.986 321.73 979.086 322.69 979.086 324.76V327.58H984.486V329.17H979.086V343ZM998.834 343H997.094V324.07L992.954 325.63L992.354 324.04L997.694 322H998.834V343ZM1004.57 341.83C1004.57 340.99 1005.2 340.33 1006.07 340.33C1006.91 340.33 1007.57 340.99 1007.57 341.83C1007.57 342.64 1006.91 343.33 1006.07 343.33C1005.2 343.33 1004.57 342.64 1004.57 341.83ZM1016.2 332.26V332.2C1015.45 331.96 1012.21 330.88 1012.21 327.31C1012.21 323.98 1014.82 321.61 1019.11 321.61C1023.37 321.61 1026.01 323.98 1026.01 327.31C1026.01 330.88 1022.74 331.96 1021.99 332.2V332.26C1022.83 332.47 1026.55 333.58 1026.55 337.54C1026.55 340.72 1024.3 343.39 1019.11 343.39C1013.89 343.39 1011.64 340.72 1011.64 337.54C1011.64 333.58 1015.36 332.47 1016.2 332.26ZM1013.95 327.37C1013.95 330.07 1016.35 331.42 1019.11 331.42C1021.84 331.42 1024.24 330.07 1024.24 327.37C1024.24 324.91 1022.23 323.29 1019.11 323.29C1015.96 323.29 1013.95 324.91 1013.95 327.37ZM1013.41 337.48C1013.41 339.79 1015 341.71 1019.11 341.71C1023.19 341.71 1024.78 339.79 1024.78 337.48C1024.78 334.57 1022.2 333.1 1019.11 333.1C1015.99 333.1 1013.41 334.57 1013.41 337.48ZM1038.96 343H1037.22V320.41H1038.96V343ZM1044.53 321.67C1044.53 320.89 1045.1 320.26 1045.91 320.26C1046.66 320.26 1047.29 320.89 1047.29 321.67C1047.29 322.42 1046.66 323.05 1045.91 323.05C1045.1 323.05 1044.53 322.42 1044.53 321.67ZM1046.78 343H1045.04V327.52H1046.78V343ZM1060.3 341.05L1060.93 342.55C1059.91 343.09 1058.68 343.33 1057.57 343.33C1054.6 343.33 1053.07 341.56 1053.07 338.29V329.17H1050.88V327.58H1053.1V324.01H1054.81V327.58H1060.48V329.17H1054.81V338.29C1054.81 340.54 1055.65 341.68 1057.57 341.68C1058.56 341.68 1059.4 341.44 1060.3 341.05ZM1078.76 336.1H1065.53C1065.89 339.25 1068.44 341.68 1071.68 341.68C1073.96 341.68 1075.1 341.08 1076.84 339.76L1077.77 341.14C1075.79 342.61 1074.17 343.33 1071.68 343.33C1067.18 343.33 1063.73 339.73 1063.73 335.29C1063.73 330.82 1067.24 327.19 1071.65 327.19C1076.18 327.19 1078.76 330.94 1078.76 335.35V336.1ZM1065.53 334.51H1077.05C1076.87 331.51 1074.92 328.84 1071.68 328.84C1068.44 328.84 1065.89 331.3 1065.53 334.51ZM1085.01 343H1083.3V327.52H1084.65L1084.83 331.27C1085.43 329.95 1086.93 327.07 1091.52 327.19L1091.28 329.02C1087.14 328.84 1085.01 332.14 1085.01 335.56V343ZM1094.26 341.26L1095.13 339.7C1096.96 340.99 1098.79 341.68 1100.77 341.68C1103.95 341.68 1105.12 340.33 1105.12 338.74C1105.12 336.94 1103.65 336.46 1100.62 336.04C1097.74 335.65 1094.83 335.08 1094.83 331.84C1094.83 329.08 1096.99 327.19 1100.5 327.19C1102.24 327.19 1104.43 327.67 1106.41 328.99L1105.57 330.55C1103.83 329.32 1102.09 328.87 1100.5 328.87C1097.8 328.87 1096.54 329.95 1096.54 331.75C1096.54 333.61 1098.01 334 1100.98 334.39C1103.86 334.81 1106.83 335.44 1106.83 338.65C1106.83 341.32 1104.7 343.33 1100.74 343.33C1099.06 343.33 1096.6 342.91 1094.26 341.26Z" fill="#FFAF5F"/>
</svg>
