<svg width="1000" height="1200" viewBox="0 0 1000 1200" fill="none" xmlns="http://www.w3.org/2000/svg">
<g clip-path="url(#clip0_1955_64)">
<path d="M302.214 278H297.094V264H302.214C306.194 264 309.114 266.96 309.114 271C309.114 275.04 306.194 278 302.214 278ZM298.254 265.12V276.88H302.194C305.594 276.88 307.934 274.3 307.934 271C307.934 267.7 305.594 265.12 302.194 265.12H298.254ZM311.867 263.78C311.867 263.26 312.247 262.84 312.787 262.84C313.287 262.84 313.707 263.26 313.707 263.78C313.707 264.28 313.287 264.7 312.787 264.7C312.247 264.7 311.867 264.28 311.867 263.78ZM313.367 278H312.207V267.68H313.367V278ZM317.862 281.34L318.222 280.24C319.042 280.6 320.142 280.96 321.562 280.96C324.922 280.96 325.522 278.96 325.522 276.6V275.56C324.962 276.42 323.702 277.92 321.362 277.92C318.482 277.92 316.382 275.64 316.382 272.72C316.382 269.8 318.482 267.46 321.362 267.46C323.902 267.46 325.222 269.14 325.702 270.06L325.762 267.68H326.662V276.52C326.662 280.16 325.242 282.06 321.602 282.06C319.902 282.06 318.562 281.62 317.862 281.34ZM321.562 276.82C323.822 276.82 325.542 274.96 325.542 272.72C325.542 270.54 323.822 268.58 321.562 268.58C319.202 268.58 317.542 270.36 317.542 272.72C317.542 275.1 319.202 276.82 321.562 276.82ZM330.402 263.78C330.402 263.26 330.782 262.84 331.322 262.84C331.822 262.84 332.242 263.26 332.242 263.78C332.242 264.28 331.822 264.7 331.322 264.7C330.782 264.7 330.402 264.28 330.402 263.78ZM331.902 278H330.742V267.68H331.902V278ZM340.917 276.7L341.337 277.7C340.657 278.06 339.837 278.22 339.097 278.22C337.117 278.22 336.097 277.04 336.097 274.86V268.78H334.637V267.72H336.117V265.34H337.257V267.72H341.037V268.78H337.257V274.86C337.257 276.36 337.817 277.12 339.097 277.12C339.757 277.12 340.317 276.96 340.917 276.7ZM351.235 278L351.075 275.9C350.415 277.38 349.035 278.22 347.215 278.22C345.115 278.22 343.475 276.9 343.475 274.92C343.475 272.8 345.275 271.76 347.655 271.76C348.995 271.76 349.995 272 350.995 272.32C350.995 269.26 350.375 268.58 347.955 268.58C346.655 268.58 345.395 268.8 344.615 269L344.355 267.92C344.795 267.74 346.595 267.46 348.075 267.46C351.415 267.46 352.155 268.82 352.155 272.3V278H351.235ZM350.995 273.64V273.38C350.015 273.04 349.055 272.8 347.735 272.8C345.875 272.8 344.635 273.52 344.635 274.92C344.635 276.3 345.735 277.12 347.335 277.12C349.895 277.12 350.995 275.42 350.995 273.64ZM357.156 278H355.996V262.94H357.156V278ZM367.835 278H366.695L363.535 267.68H364.735L367.295 276.26L370.275 267.68H371.435L374.395 276.26L376.955 267.68H378.155L374.995 278H373.855L370.855 269.3L367.835 278ZM387.368 278L387.208 275.9C386.548 277.38 385.168 278.22 383.348 278.22C381.248 278.22 379.608 276.9 379.608 274.92C379.608 272.8 381.408 271.76 383.788 271.76C385.128 271.76 386.128 272 387.128 272.32C387.128 269.26 386.508 268.58 384.088 268.58C382.788 268.58 381.528 268.8 380.748 269L380.488 267.92C380.928 267.74 382.728 267.46 384.208 267.46C387.548 267.46 388.288 268.82 388.288 272.3V278H387.368ZM387.128 273.64V273.38C386.148 273.04 385.188 272.8 383.868 272.8C382.008 272.8 380.768 273.52 380.768 274.92C380.768 276.3 381.868 277.12 383.468 277.12C386.028 277.12 387.128 275.42 387.128 273.64ZM397.089 276.7L397.509 277.7C396.829 278.06 396.009 278.22 395.269 278.22C393.289 278.22 392.269 277.04 392.269 274.86V268.78H390.809V267.72H392.289V265.34H393.429V267.72H397.209V268.78H393.429V274.86C393.429 276.36 393.989 277.12 395.269 277.12C395.929 277.12 396.489 276.96 397.089 276.7ZM409.39 273.4H400.57C400.81 275.5 402.51 277.12 404.67 277.12C406.19 277.12 406.95 276.72 408.11 275.84L408.73 276.76C407.41 277.74 406.33 278.22 404.67 278.22C401.67 278.22 399.37 275.82 399.37 272.86C399.37 269.88 401.71 267.46 404.65 267.46C407.67 267.46 409.39 269.96 409.39 272.9V273.4ZM400.57 272.34H408.25C408.13 270.34 406.83 268.56 404.67 268.56C402.51 268.56 400.81 270.2 400.57 272.34ZM413.563 278H412.423V267.68H413.323L413.443 270.18C413.843 269.3 414.843 267.38 417.903 267.46L417.743 268.68C414.983 268.56 413.563 270.76 413.563 273.04V278ZM425.848 278H424.688V262.94H425.848V278ZM438.883 273.4H430.063C430.303 275.5 432.003 277.12 434.163 277.12C435.683 277.12 436.443 276.72 437.603 275.84L438.223 276.76C436.903 277.74 435.823 278.22 434.163 278.22C431.163 278.22 428.863 275.82 428.863 272.86C428.863 269.88 431.203 267.46 434.143 267.46C437.163 267.46 438.883 269.96 438.883 272.9V273.4ZM430.063 272.34H437.743C437.623 270.34 436.323 268.56 434.163 268.56C432.003 268.56 430.303 270.2 430.063 272.34ZM445.575 278H444.415L440.155 267.68H441.395L444.975 276.48H445.015L448.595 267.68H449.815L445.575 278ZM461.09 273.4H452.27C452.51 275.5 454.21 277.12 456.37 277.12C457.89 277.12 458.65 276.72 459.81 275.84L460.43 276.76C459.11 277.74 458.03 278.22 456.37 278.22C453.37 278.22 451.07 275.82 451.07 272.86C451.07 269.88 453.41 267.46 456.35 267.46C459.37 267.46 461.09 269.96 461.09 272.9V273.4ZM452.27 272.34H459.95C459.83 270.34 458.53 268.56 456.37 268.56C454.21 268.56 452.51 270.2 452.27 272.34ZM465.262 278H464.102V262.94H465.262V278ZM476.984 263.78C476.984 263.26 477.364 262.84 477.904 262.84C478.404 262.84 478.824 263.26 478.824 263.78C478.824 264.28 478.404 264.7 477.904 264.7C477.364 264.7 476.984 264.28 476.984 263.78ZM478.484 278H477.324V267.68H478.484V278ZM483.699 278H482.559V267.68H483.439L483.579 270.02C483.879 269.14 485.019 267.46 487.259 267.46C489.339 267.46 491.139 268.8 491.139 271.88V278H489.979V272.12C489.979 269.58 488.679 268.58 486.959 268.58C485.039 268.58 483.699 270.38 483.699 272.38V278ZM503.321 278L503.261 275.64C502.781 276.56 501.461 278.22 498.921 278.22C496.041 278.22 493.941 275.78 493.941 272.86C493.941 269.94 496.041 267.46 498.921 267.46C501.261 267.46 502.521 269.04 503.081 269.88V262.94H504.221V278H503.321ZM499.121 277.12C501.381 277.12 503.101 275.1 503.101 272.84C503.101 270.58 501.381 268.58 499.121 268.58C496.761 268.58 495.101 270.48 495.101 272.86C495.101 275.22 496.761 277.12 499.121 277.12ZM507.961 263.78C507.961 263.26 508.341 262.84 508.881 262.84C509.381 262.84 509.801 263.26 509.801 263.78C509.801 264.28 509.381 264.7 508.881 264.7C508.341 264.7 507.961 264.28 507.961 263.78ZM509.461 278H508.301V267.68H509.461V278ZM520.796 275.8L521.596 276.6C520.416 277.74 519.176 278.22 517.776 278.22C514.796 278.22 512.496 275.82 512.496 272.86C512.496 269.88 514.796 267.46 517.776 267.46C519.176 267.46 520.496 268 521.576 269.08L520.796 269.88C520.016 269.12 519.036 268.58 517.776 268.58C515.436 268.58 513.656 270.48 513.656 272.86C513.656 275.22 515.436 277.12 517.776 277.12C518.996 277.12 519.936 276.66 520.796 275.8ZM531.567 278L531.407 275.9C530.747 277.38 529.367 278.22 527.547 278.22C525.447 278.22 523.807 276.9 523.807 274.92C523.807 272.8 525.607 271.76 527.987 271.76C529.327 271.76 530.327 272 531.327 272.32C531.327 269.26 530.707 268.58 528.287 268.58C526.987 268.58 525.727 268.8 524.947 269L524.687 267.92C525.127 267.74 526.927 267.46 528.407 267.46C531.747 267.46 532.487 268.82 532.487 272.3V278H531.567ZM531.327 273.64V273.38C530.347 273.04 529.387 272.8 528.067 272.8C526.207 272.8 524.967 273.52 524.967 274.92C524.967 276.3 526.067 277.12 527.667 277.12C530.227 277.12 531.327 275.42 531.327 273.64ZM541.288 276.7L541.708 277.7C541.028 278.06 540.208 278.22 539.468 278.22C537.488 278.22 536.468 277.04 536.468 274.86V268.78H535.008V267.72H536.488V265.34H537.628V267.72H541.408V268.78H537.628V274.86C537.628 276.36 538.188 277.12 539.468 277.12C540.128 277.12 540.688 276.96 541.288 276.7ZM543.57 272.86C543.57 269.88 545.87 267.46 548.85 267.46C551.85 267.46 554.15 269.88 554.15 272.86C554.15 275.82 551.85 278.22 548.85 278.22C545.87 278.22 543.57 275.82 543.57 272.86ZM548.85 277.12C551.19 277.12 552.99 275.22 552.99 272.86C552.99 270.48 551.19 268.58 548.85 268.58C546.51 268.58 544.73 270.48 544.73 272.86C544.73 275.22 546.51 277.12 548.85 277.12ZM558.328 278H557.188V267.68H558.088L558.208 270.18C558.608 269.3 559.608 267.38 562.668 267.46L562.508 268.68C559.748 268.56 558.328 270.76 558.328 273.04V278ZM570.373 278H569.473V262.94H570.613V269.88C571.173 269.04 572.433 267.46 574.773 267.46C577.653 267.46 579.753 269.94 579.753 272.86C579.753 275.78 577.653 278.22 574.773 278.22C572.233 278.22 570.913 276.56 570.433 275.64L570.373 278ZM574.573 277.12C576.933 277.12 578.593 275.22 578.593 272.86C578.593 270.48 576.933 268.58 574.573 268.58C572.313 268.58 570.613 270.58 570.613 272.84C570.613 275.1 572.313 277.12 574.573 277.12ZM590.214 278L590.114 275.8C589.794 276.66 588.614 278.22 586.374 278.22C584.294 278.22 582.594 277 582.594 273.92V267.68H583.734V273.66C583.734 276.24 584.974 277.12 586.674 277.12C588.594 277.12 589.954 275.3 589.954 273.3V267.68H591.114V278H590.214ZM594.816 263.78C594.816 263.26 595.196 262.84 595.736 262.84C596.236 262.84 596.656 263.26 596.656 263.78C596.656 264.28 596.236 264.7 595.736 264.7C595.196 264.7 594.816 264.28 594.816 263.78ZM596.316 278H595.156V267.68H596.316V278ZM601.531 278H600.371V262.94H601.531V278ZM610.546 276.7L610.966 277.7C610.286 278.06 609.466 278.22 608.726 278.22C606.746 278.22 605.726 277.04 605.726 274.86V268.78H604.266V267.72H605.746V265.34H606.886V267.72H610.666V268.78H606.886V274.86C606.886 276.36 607.446 277.12 608.726 277.12C609.386 277.12 609.946 276.96 610.546 276.7ZM617.531 263.78C617.531 263.26 617.911 262.84 618.451 262.84C618.951 262.84 619.371 263.26 619.371 263.78C619.371 264.28 618.951 264.7 618.451 264.7C617.911 264.7 617.531 264.28 617.531 263.78ZM619.031 278H617.871V267.68H619.031V278ZM624.246 278H623.106V267.68H623.986L624.126 270.02C624.426 269.14 625.566 267.46 627.806 267.46C629.886 267.46 631.686 268.8 631.686 271.88V278H630.526V272.12C630.526 269.58 629.226 268.58 627.506 268.58C625.586 268.58 624.246 270.38 624.246 272.38V278ZM647.871 278L647.811 275.64C647.331 276.56 646.011 278.22 643.471 278.22C640.591 278.22 638.491 275.78 638.491 272.86C638.491 269.94 640.591 267.46 643.471 267.46C645.811 267.46 647.071 269.04 647.631 269.88V262.94H648.771V278H647.871ZM643.671 277.12C645.931 277.12 647.651 275.1 647.651 272.84C647.651 270.58 645.931 268.58 643.671 268.58C641.311 268.58 639.651 270.48 639.651 272.86C639.651 275.22 641.311 277.12 643.671 277.12ZM652.512 263.78C652.512 263.26 652.892 262.84 653.432 262.84C653.932 262.84 654.352 263.26 654.352 263.78C654.352 264.28 653.932 264.7 653.432 264.7C652.892 264.7 652.512 264.28 652.512 263.78ZM654.012 278H652.852V267.68H654.012V278ZM657.107 276.84L657.687 275.8C658.907 276.66 660.127 277.12 661.447 277.12C663.567 277.12 664.347 276.22 664.347 275.16C664.347 273.96 663.367 273.64 661.347 273.36C659.427 273.1 657.487 272.72 657.487 270.56C657.487 268.72 658.927 267.46 661.267 267.46C662.427 267.46 663.887 267.78 665.207 268.66L664.647 269.7C663.487 268.88 662.327 268.58 661.267 268.58C659.467 268.58 658.627 269.3 658.627 270.5C658.627 271.74 659.607 272 661.587 272.26C663.507 272.54 665.487 272.96 665.487 275.1C665.487 276.88 664.067 278.22 661.427 278.22C660.307 278.22 658.667 277.94 657.107 276.84ZM669.754 281.84H668.614V267.68H669.514L669.574 270.04C670.054 269.14 671.374 267.46 673.914 267.46C676.794 267.46 678.894 269.92 678.894 272.84C678.894 275.76 676.794 278.22 673.914 278.22C671.574 278.22 670.314 276.66 669.754 275.8V281.84ZM673.714 277.12C676.074 277.12 677.734 275.22 677.734 272.84C677.734 270.48 676.074 268.58 673.714 268.58C671.454 268.58 669.754 270.58 669.754 272.84C669.754 275.1 671.454 277.12 673.714 277.12ZM683.074 278H681.914V262.94H683.074V278ZM693.969 278L693.809 275.9C693.149 277.38 691.769 278.22 689.949 278.22C687.849 278.22 686.209 276.9 686.209 274.92C686.209 272.8 688.009 271.76 690.389 271.76C691.729 271.76 692.729 272 693.729 272.32C693.729 269.26 693.109 268.58 690.689 268.58C689.389 268.58 688.129 268.8 687.349 269L687.089 267.92C687.529 267.74 689.329 267.46 690.809 267.46C694.149 267.46 694.889 268.82 694.889 272.3V278H693.969ZM693.729 273.64V273.38C692.749 273.04 691.789 272.8 690.469 272.8C688.609 272.8 687.369 273.52 687.369 274.92C687.369 276.3 688.469 277.12 690.069 277.12C692.629 277.12 693.729 275.42 693.729 273.64ZM700.831 281.84H699.611L701.211 277.92L697.011 267.68H698.231L701.811 276.48H701.851L705.431 267.68H706.651L700.831 281.84Z" fill="#FFAF5F"/>
<line x1="123" y1="290.324" x2="834" y2="290.324" stroke="#FFAF5F" stroke-width="2"/>
<path d="M406.549 634.527H405.249L411.489 620.527H412.449L418.689 634.527H417.369L415.709 630.807H408.209L406.549 634.527ZM411.949 622.427L408.729 629.627H415.189L411.969 622.427H411.949ZM422.172 634.527H421.032V624.207H421.912L422.052 626.547C422.352 625.667 423.492 623.987 425.732 623.987C427.812 623.987 429.612 625.327 429.612 628.407V634.527H428.452V628.647C428.452 626.107 427.152 625.107 425.432 625.107C423.512 625.107 422.172 626.907 422.172 628.907V634.527ZM438.414 633.227L438.834 634.227C438.154 634.587 437.334 634.747 436.594 634.747C434.614 634.747 433.594 633.567 433.594 631.387V625.307H432.134V624.247H433.614V621.867H434.754V624.247H438.534V625.307H434.754V631.387C434.754 632.887 435.314 633.647 436.594 633.647C437.254 633.647 437.814 633.487 438.414 633.227ZM441.395 620.307C441.395 619.787 441.775 619.367 442.315 619.367C442.815 619.367 443.235 619.787 443.235 620.307C443.235 620.807 442.815 621.227 442.315 621.227C441.775 621.227 441.395 620.807 441.395 620.307ZM442.895 634.527H441.735V624.207H442.895V634.527ZM454.05 628.007H447.35V626.887H454.05V628.007ZM457.533 633.367L458.113 632.327C459.333 633.187 460.553 633.647 461.873 633.647C463.993 633.647 464.773 632.747 464.773 631.687C464.773 630.487 463.793 630.167 461.773 629.887C459.853 629.627 457.913 629.247 457.913 627.087C457.913 625.247 459.353 623.987 461.693 623.987C462.853 623.987 464.313 624.307 465.633 625.187L465.073 626.227C463.913 625.407 462.753 625.107 461.693 625.107C459.893 625.107 459.053 625.827 459.053 627.027C459.053 628.267 460.033 628.527 462.013 628.787C463.933 629.067 465.913 629.487 465.913 631.627C465.913 633.407 464.493 634.747 461.853 634.747C460.733 634.747 459.093 634.467 457.533 633.367ZM470.18 634.527H469.02V619.467H470.18V634.527ZM483.215 629.927H474.395C474.635 632.027 476.335 633.647 478.495 633.647C480.015 633.647 480.775 633.247 481.935 632.367L482.555 633.287C481.235 634.267 480.155 634.747 478.495 634.747C475.495 634.747 473.195 632.347 473.195 629.387C473.195 626.407 475.535 623.987 478.475 623.987C481.495 623.987 483.215 626.487 483.215 629.427V629.927ZM474.395 628.867H482.075C481.955 626.867 480.655 625.087 478.495 625.087C476.335 625.087 474.635 626.727 474.395 628.867ZM495.207 629.927H486.387C486.627 632.027 488.327 633.647 490.487 633.647C492.007 633.647 492.767 633.247 493.927 632.367L494.547 633.287C493.227 634.267 492.147 634.747 490.487 634.747C487.487 634.747 485.187 632.347 485.187 629.387C485.187 626.407 487.527 623.987 490.467 623.987C493.487 623.987 495.207 626.487 495.207 629.427V629.927ZM486.387 628.867H494.067C493.947 626.867 492.647 625.087 490.487 625.087C488.327 625.087 486.627 626.727 486.387 628.867ZM499.379 638.367H498.239V624.207H499.139L499.199 626.567C499.679 625.667 500.999 623.987 503.539 623.987C506.419 623.987 508.519 626.447 508.519 629.367C508.519 632.287 506.419 634.747 503.539 634.747C501.199 634.747 499.939 633.187 499.379 632.327V638.367ZM503.339 633.647C505.699 633.647 507.359 631.747 507.359 629.367C507.359 627.007 505.699 625.107 503.339 625.107C501.079 625.107 499.379 627.107 499.379 629.367C499.379 631.627 501.079 633.647 503.339 633.647ZM516.964 634.527H515.824V625.307H514.124V624.247H515.824V622.347C515.824 620.347 516.884 619.247 518.704 619.247C519.404 619.247 520.144 619.387 520.904 619.727L520.524 620.747C519.784 620.467 519.324 620.347 518.704 620.347C517.564 620.347 516.964 620.987 516.964 622.367V624.247H520.564V625.307H516.964V634.527ZM531.907 629.927H523.087C523.327 632.027 525.027 633.647 527.187 633.647C528.707 633.647 529.467 633.247 530.627 632.367L531.247 633.287C529.927 634.267 528.847 634.747 527.187 634.747C524.187 634.747 521.887 632.347 521.887 629.387C521.887 626.407 524.227 623.987 527.167 623.987C530.187 623.987 531.907 626.487 531.907 629.427V629.927ZM523.087 628.867H530.767C530.647 626.867 529.347 625.087 527.187 625.087C525.027 625.087 523.327 626.727 523.087 628.867ZM543.899 629.927H535.079C535.319 632.027 537.019 633.647 539.179 633.647C540.699 633.647 541.459 633.247 542.619 632.367L543.239 633.287C541.919 634.267 540.839 634.747 539.179 634.747C536.179 634.747 533.879 632.347 533.879 629.387C533.879 626.407 536.219 623.987 539.159 623.987C542.179 623.987 543.899 626.487 543.899 629.427V629.927ZM535.079 628.867H542.759C542.639 626.867 541.339 625.087 539.179 625.087C537.019 625.087 535.319 626.727 535.079 628.867ZM551.871 633.227L552.291 634.227C551.611 634.587 550.791 634.747 550.051 634.747C548.071 634.747 547.051 633.567 547.051 631.387V625.307H545.591V624.247H547.071V621.867H548.211V624.247H551.991V625.307H548.211V631.387C548.211 632.887 548.771 633.647 550.051 633.647C550.711 633.647 551.271 633.487 551.871 633.227Z" fill="#FFAF5F"/>
<line x1="123" y1="646.851" x2="834" y2="646.851" stroke="#FFAF5F" stroke-width="2"/>
<path d="M409.046 348.863H403.586V334.863H408.546C410.826 334.863 413.406 335.803 413.406 338.603C413.406 340.723 411.806 341.503 410.966 341.743V341.763C411.666 341.943 413.906 342.683 413.906 345.203C413.906 347.803 411.686 348.863 409.046 348.863ZM404.746 335.983V341.223H409.026C410.826 341.223 412.226 340.423 412.226 338.663C412.226 336.783 410.726 335.983 408.446 335.983H404.746ZM404.746 342.343V347.743H408.926C411.586 347.743 412.726 346.743 412.726 345.143C412.726 343.363 411.166 342.343 409.146 342.343H404.746ZM416.155 343.723C416.155 340.743 418.455 338.323 421.435 338.323C424.435 338.323 426.735 340.743 426.735 343.723C426.735 346.683 424.435 349.083 421.435 349.083C418.455 349.083 416.155 346.683 416.155 343.723ZM421.435 347.983C423.775 347.983 425.575 346.083 425.575 343.723C425.575 341.343 423.775 339.443 421.435 339.443C419.095 339.443 417.315 341.343 417.315 343.723C417.315 346.083 419.095 347.983 421.435 347.983ZM429.414 334.643C429.414 334.123 429.794 333.703 430.334 333.703C430.834 333.703 431.254 334.123 431.254 334.643C431.254 335.143 430.834 335.563 430.334 335.563C429.794 335.563 429.414 335.143 429.414 334.643ZM430.914 348.863H429.754V338.543H430.914V348.863ZM436.129 348.863H434.969V333.803H436.129V348.863ZM447.283 342.343H440.583V341.223H447.283V342.343ZM460.066 348.863L460.006 346.503C459.526 347.423 458.206 349.083 455.666 349.083C452.786 349.083 450.686 346.643 450.686 343.723C450.686 340.803 452.786 338.323 455.666 338.323C458.006 338.323 459.266 339.903 459.826 340.743V333.803H460.966V348.863H460.066ZM455.866 347.983C458.126 347.983 459.846 345.963 459.846 343.703C459.846 341.443 458.126 339.443 455.866 339.443C453.506 339.443 451.846 341.343 451.846 343.723C451.846 346.083 453.506 347.983 455.866 347.983ZM466.207 348.863H465.067V338.543H465.967L466.087 341.043C466.487 340.163 467.487 338.243 470.547 338.323L470.387 339.543C467.627 339.423 466.207 341.623 466.207 343.903V348.863ZM475.428 352.703H474.208L475.808 348.783L471.608 338.543H472.828L476.408 347.343H476.448L480.028 338.543H481.248L475.428 352.703ZM488.726 352.703H487.586V338.543H488.486L488.546 340.903C489.026 340.003 490.346 338.323 492.886 338.323C495.766 338.323 497.866 340.783 497.866 343.703C497.866 346.623 495.766 349.083 492.886 349.083C490.546 349.083 489.286 347.523 488.726 346.663V352.703ZM492.686 347.983C495.046 347.983 496.706 346.083 496.706 343.703C496.706 341.343 495.046 339.443 492.686 339.443C490.426 339.443 488.726 341.443 488.726 343.703C488.726 345.963 490.426 347.983 492.686 347.983ZM502.047 348.863H500.907V338.543H501.807L501.927 341.043C502.327 340.163 503.327 338.243 506.387 338.323L506.227 339.543C503.467 339.423 502.047 341.623 502.047 343.903V348.863ZM507.933 343.723C507.933 340.743 510.233 338.323 513.213 338.323C516.213 338.323 518.513 340.743 518.513 343.723C518.513 346.683 516.213 349.083 513.213 349.083C510.233 349.083 507.933 346.683 507.933 343.723ZM513.213 347.983C515.553 347.983 517.353 346.083 517.353 343.723C517.353 341.343 515.553 339.443 513.213 339.443C510.873 339.443 509.093 341.343 509.093 343.723C509.093 346.083 510.873 347.983 513.213 347.983ZM526.491 347.563L526.911 348.563C526.231 348.923 525.411 349.083 524.671 349.083C522.691 349.083 521.671 347.903 521.671 345.723V339.643H520.211V338.583H521.691V336.203H522.831V338.583H526.611V339.643H522.831V345.723C522.831 347.223 523.391 347.983 524.671 347.983C525.331 347.983 525.891 347.823 526.491 347.563ZM538.792 344.263H529.972C530.212 346.363 531.912 347.983 534.072 347.983C535.592 347.983 536.352 347.583 537.512 346.703L538.132 347.623C536.812 348.603 535.732 349.083 534.072 349.083C531.072 349.083 528.772 346.683 528.772 343.723C528.772 340.743 531.112 338.323 534.052 338.323C537.072 338.323 538.792 340.823 538.792 343.763V344.263ZM529.972 343.203H537.652C537.532 341.203 536.232 339.423 534.072 339.423C531.912 339.423 530.212 341.063 529.972 343.203ZM549.085 346.663L549.885 347.463C548.705 348.603 547.465 349.083 546.065 349.083C543.085 349.083 540.785 346.683 540.785 343.723C540.785 340.743 543.085 338.323 546.065 338.323C547.465 338.323 548.785 338.863 549.865 339.943L549.085 340.743C548.305 339.983 547.325 339.443 546.065 339.443C543.725 339.443 541.945 341.343 541.945 343.723C541.945 346.083 543.725 347.983 546.065 347.983C547.285 347.983 548.225 347.523 549.085 346.663ZM557.722 347.563L558.142 348.563C557.462 348.923 556.642 349.083 555.902 349.083C553.922 349.083 552.902 347.903 552.902 345.723V339.643H551.442V338.583H552.922V336.203H554.062V338.583H557.842V339.643H554.062V345.723C554.062 347.223 554.622 347.983 555.902 347.983C556.562 347.983 557.122 347.823 557.722 347.563ZM560.703 334.643C560.703 334.123 561.083 333.703 561.623 333.703C562.123 333.703 562.543 334.123 562.543 334.643C562.543 335.143 562.123 335.563 561.623 335.563C561.083 335.563 560.703 335.143 560.703 334.643ZM562.203 348.863H561.043V338.543H562.203V348.863ZM565.218 343.723C565.218 340.743 567.518 338.323 570.498 338.323C573.498 338.323 575.798 340.743 575.798 343.723C575.798 346.683 573.498 349.083 570.498 349.083C567.518 349.083 565.218 346.683 565.218 343.723ZM570.498 347.983C572.838 347.983 574.638 346.083 574.638 343.723C574.638 341.343 572.838 339.443 570.498 339.443C568.158 339.443 566.378 341.343 566.378 343.723C566.378 346.083 568.158 347.983 570.498 347.983ZM579.976 348.863H578.836V338.543H579.716L579.856 340.883C580.156 340.003 581.296 338.323 583.536 338.323C585.616 338.323 587.416 339.663 587.416 342.743V348.863H586.256V342.983C586.256 340.443 584.956 339.443 583.236 339.443C581.316 339.443 579.976 341.243 579.976 343.243V348.863Z" fill="#FFAF5F"/>
<line x1="123" y1="360.079" x2="834" y2="360.079" stroke="#FFAF5F" stroke-width="2"/>
<path d="M282.034 718.676H280.734L286.974 704.676H287.934L294.174 718.676H292.854L291.194 714.956H283.694L282.034 718.676ZM287.434 706.576L284.214 713.776H290.674L287.454 706.576H287.434ZM303.937 718.676L303.837 716.476C303.517 717.336 302.337 718.896 300.097 718.896C298.017 718.896 296.317 717.676 296.317 714.596V708.356H297.457V714.336C297.457 716.916 298.697 717.796 300.397 717.796C302.317 717.796 303.677 715.976 303.677 713.976V708.356H304.837V718.676H303.937ZM313.84 717.376L314.26 718.376C313.58 718.736 312.76 718.896 312.02 718.896C310.04 718.896 309.02 717.716 309.02 715.536V709.456H307.56V708.396H309.04V706.016H310.18V708.396H313.96V709.456H310.18V715.536C310.18 717.036 310.74 717.796 312.02 717.796C312.68 717.796 313.24 717.636 313.84 717.376ZM316.121 713.536C316.121 710.556 318.421 708.136 321.401 708.136C324.401 708.136 326.701 710.556 326.701 713.536C326.701 716.496 324.401 718.896 321.401 718.896C318.421 718.896 316.121 716.496 316.121 713.536ZM321.401 717.796C323.741 717.796 325.541 715.896 325.541 713.536C325.541 711.156 323.741 709.256 321.401 709.256C319.061 709.256 317.281 711.156 317.281 713.536C317.281 715.896 319.061 717.796 321.401 717.796ZM332.763 717.516L333.343 716.476C334.563 717.336 335.783 717.796 337.103 717.796C339.223 717.796 340.003 716.896 340.003 715.836C340.003 714.636 339.023 714.316 337.003 714.036C335.083 713.776 333.143 713.396 333.143 711.236C333.143 709.396 334.583 708.136 336.923 708.136C338.083 708.136 339.543 708.456 340.863 709.336L340.303 710.376C339.143 709.556 337.983 709.256 336.923 709.256C335.123 709.256 334.283 709.976 334.283 711.176C334.283 712.416 335.263 712.676 337.243 712.936C339.163 713.216 341.143 713.636 341.143 715.776C341.143 717.556 339.723 718.896 337.083 718.896C335.963 718.896 334.323 718.616 332.763 717.516ZM345.431 718.676H344.271V703.616H345.431V710.436C345.711 709.736 346.791 708.136 348.971 708.136C351.071 708.136 352.851 709.476 352.851 712.556V718.676H351.711V712.796C351.711 710.256 350.411 709.256 348.691 709.256C346.771 709.256 345.431 711.056 345.431 713.056V718.676ZM364.132 718.676L364.032 716.476C363.712 717.336 362.532 718.896 360.292 718.896C358.212 718.896 356.512 717.676 356.512 714.596V708.356H357.652V714.336C357.652 716.916 358.892 717.796 360.592 717.796C362.512 717.796 363.872 715.976 363.872 713.976V708.356H365.032V718.676H364.132ZM374.035 717.376L374.455 718.376C373.775 718.736 372.955 718.896 372.215 718.896C370.235 718.896 369.215 717.716 369.215 715.536V709.456H367.755V708.396H369.235V706.016H370.375V708.396H374.155V709.456H370.375V715.536C370.375 717.036 370.935 717.796 372.215 717.796C372.875 717.796 373.435 717.636 374.035 717.376ZM384.456 712.156H377.756V711.036H384.456V712.156ZM387.859 713.536C387.859 710.556 390.159 708.136 393.139 708.136C396.139 708.136 398.439 710.556 398.439 713.536C398.439 716.496 396.139 718.896 393.139 718.896C390.159 718.896 387.859 716.496 387.859 713.536ZM393.139 717.796C395.479 717.796 397.279 715.896 397.279 713.536C397.279 711.156 395.479 709.256 393.139 709.256C390.799 709.256 389.019 711.156 389.019 713.536C389.019 715.896 390.799 717.796 393.139 717.796ZM402.878 718.676H401.738V709.416H400.038V708.356H401.738V706.496C401.738 704.496 402.798 703.396 404.618 703.396C405.318 703.396 406.058 703.536 406.818 703.876L406.438 704.896C405.698 704.616 405.238 704.496 404.618 704.496C403.478 704.496 402.878 705.136 402.878 706.516V708.356H408.858V706.496C408.858 704.496 409.918 703.396 411.758 703.396C412.438 703.396 413.198 703.536 413.958 703.876L413.558 704.896C412.838 704.616 412.358 704.496 411.738 704.496C410.598 704.496 410.018 705.136 410.018 706.516V708.356H413.598V709.416H410.018V718.676H408.858V709.416H402.878V718.676ZM422.652 718.676H421.512L418.352 708.356H419.552L422.112 716.936L425.092 708.356H426.252L429.212 716.936L431.772 708.356H432.972L429.812 718.676H428.672L425.672 709.976L422.652 718.676ZM436.524 718.676H435.364V703.616H436.524V710.436C436.804 709.736 437.884 708.136 440.064 708.136C442.164 708.136 443.944 709.476 443.944 712.556V718.676H442.804V712.796C442.804 710.256 441.504 709.256 439.784 709.256C437.864 709.256 436.524 711.056 436.524 713.056V718.676ZM456.766 714.076H447.946C448.186 716.176 449.886 717.796 452.046 717.796C453.566 717.796 454.326 717.396 455.486 716.516L456.106 717.436C454.786 718.416 453.706 718.896 452.046 718.896C449.046 718.896 446.746 716.496 446.746 713.536C446.746 710.556 449.086 708.136 452.026 708.136C455.046 708.136 456.766 710.636 456.766 713.576V714.076ZM447.946 713.016H455.626C455.506 711.016 454.206 709.236 452.046 709.236C449.886 709.236 448.186 710.876 447.946 713.016ZM460.938 718.676H459.798V708.356H460.678L460.818 710.696C461.118 709.816 462.258 708.136 464.498 708.136C466.578 708.136 468.378 709.476 468.378 712.556V718.676H467.218V712.796C467.218 710.256 465.918 709.256 464.198 709.256C462.278 709.256 460.938 711.056 460.938 713.056V718.676ZM482.847 718.676H481.707L478.547 708.356H479.747L482.307 716.936L485.287 708.356H486.447L489.407 716.936L491.967 708.356H493.167L490.007 718.676H488.867L485.867 709.976L482.847 718.676ZM502.38 718.676L502.22 716.576C501.56 718.056 500.18 718.896 498.36 718.896C496.26 718.896 494.62 717.576 494.62 715.596C494.62 713.476 496.42 712.436 498.8 712.436C500.14 712.436 501.14 712.676 502.14 712.996C502.14 709.936 501.52 709.256 499.1 709.256C497.8 709.256 496.54 709.476 495.76 709.676L495.5 708.596C495.94 708.416 497.74 708.136 499.22 708.136C502.56 708.136 503.3 709.496 503.3 712.976V718.676H502.38ZM502.14 714.316V714.056C501.16 713.716 500.2 713.476 498.88 713.476C497.02 713.476 495.78 714.196 495.78 715.596C495.78 716.976 496.88 717.796 498.48 717.796C501.04 717.796 502.14 716.096 502.14 714.316ZM512.101 717.376L512.521 718.376C511.841 718.736 511.021 718.896 510.281 718.896C508.301 718.896 507.281 717.716 507.281 715.536V709.456H505.821V708.396H507.301V706.016H508.441V708.396H512.221V709.456H508.441V715.536C508.441 717.036 509.001 717.796 510.281 717.796C510.941 717.796 511.501 717.636 512.101 717.376ZM524.403 714.076H515.583C515.823 716.176 517.523 717.796 519.683 717.796C521.203 717.796 521.963 717.396 523.123 716.516L523.743 717.436C522.423 718.416 521.343 718.896 519.683 718.896C516.683 718.896 514.383 716.496 514.383 713.536C514.383 710.556 516.723 708.136 519.663 708.136C522.683 708.136 524.403 710.636 524.403 713.576V714.076ZM515.583 713.016H523.263C523.143 711.016 521.843 709.236 519.683 709.236C517.523 709.236 515.823 710.876 515.583 713.016ZM528.575 718.676H527.435V708.356H528.335L528.455 710.856C528.855 709.976 529.855 708.056 532.915 708.136L532.755 709.356C529.995 709.236 528.575 711.436 528.575 713.716V718.676ZM539.36 704.456C539.36 703.936 539.74 703.516 540.28 703.516C540.78 703.516 541.2 703.936 541.2 704.456C541.2 704.956 540.78 705.376 540.28 705.376C539.74 705.376 539.36 704.956 539.36 704.456ZM540.86 718.676H539.7V708.356H540.86V718.676ZM543.955 717.516L544.535 716.476C545.755 717.336 546.975 717.796 548.295 717.796C550.415 717.796 551.195 716.896 551.195 715.836C551.195 714.636 550.215 714.316 548.195 714.036C546.275 713.776 544.335 713.396 544.335 711.236C544.335 709.396 545.775 708.136 548.115 708.136C549.275 708.136 550.735 708.456 552.055 709.336L551.495 710.376C550.335 709.556 549.175 709.256 548.115 709.256C546.315 709.256 545.475 709.976 545.475 711.176C545.475 712.416 546.455 712.676 548.435 712.936C550.355 713.216 552.335 713.636 552.335 715.776C552.335 717.556 550.915 718.896 548.275 718.896C547.155 718.896 545.515 718.616 543.955 717.516ZM560.606 718.676H559.466V708.356H560.346L560.486 710.696C560.786 709.816 561.926 708.136 564.166 708.136C566.246 708.136 568.046 709.476 568.046 712.556V718.676H566.886V712.796C566.886 710.256 565.586 709.256 563.866 709.256C561.946 709.256 560.606 711.056 560.606 713.056V718.676ZM570.847 713.536C570.847 710.556 573.147 708.136 576.127 708.136C579.127 708.136 581.427 710.556 581.427 713.536C581.427 716.496 579.127 718.896 576.127 718.896C573.147 718.896 570.847 716.496 570.847 713.536ZM576.127 717.796C578.467 717.796 580.267 715.896 580.267 713.536C580.267 711.156 578.467 709.256 576.127 709.256C573.787 709.256 572.007 711.156 572.007 713.536C572.007 715.896 573.787 717.796 576.127 717.796ZM589.406 717.376L589.826 718.376C589.146 718.736 588.326 718.896 587.586 718.896C585.606 718.896 584.586 717.716 584.586 715.536V709.456H583.126V708.396H584.606V706.016H585.746V708.396H589.526V709.456H585.746V715.536C585.746 717.036 586.306 717.796 587.586 717.796C588.246 717.796 588.806 717.636 589.406 717.376ZM605.071 718.676L605.011 716.316C604.531 717.236 603.211 718.896 600.671 718.896C597.791 718.896 595.691 716.456 595.691 713.536C595.691 710.616 597.791 708.136 600.671 708.136C603.011 708.136 604.271 709.716 604.831 710.556V703.616H605.971V718.676H605.071ZM600.871 717.796C603.131 717.796 604.851 715.776 604.851 713.516C604.851 711.256 603.131 709.256 600.871 709.256C598.511 709.256 596.851 711.156 596.851 713.536C596.851 715.896 598.511 717.796 600.871 717.796ZM619.031 714.076H610.211C610.451 716.176 612.151 717.796 614.311 717.796C615.831 717.796 616.591 717.396 617.751 716.516L618.371 717.436C617.051 718.416 615.971 718.896 614.311 718.896C611.311 718.896 609.011 716.496 609.011 713.536C609.011 710.556 611.351 708.136 614.291 708.136C617.311 708.136 619.031 710.636 619.031 713.576V714.076ZM610.211 713.016H617.891C617.771 711.016 616.471 709.236 614.311 709.236C612.151 709.236 610.451 710.876 610.211 713.016ZM629.324 716.476L630.124 717.276C628.944 718.416 627.704 718.896 626.304 718.896C623.324 718.896 621.024 716.496 621.024 713.536C621.024 710.556 623.324 708.136 626.304 708.136C627.704 708.136 629.024 708.676 630.104 709.756L629.324 710.556C628.544 709.796 627.564 709.256 626.304 709.256C623.964 709.256 622.184 711.156 622.184 713.536C622.184 715.896 623.964 717.796 626.304 717.796C627.524 717.796 628.464 717.336 629.324 716.476ZM641.981 714.076H633.161C633.401 716.176 635.101 717.796 637.261 717.796C638.781 717.796 639.541 717.396 640.701 716.516L641.321 717.436C640.001 718.416 638.921 718.896 637.261 718.896C634.261 718.896 631.961 716.496 631.961 713.536C631.961 710.556 634.301 708.136 637.241 708.136C640.261 708.136 641.981 710.636 641.981 713.576V714.076ZM633.161 713.016H640.841C640.721 711.016 639.421 709.236 637.261 709.236C635.101 709.236 633.401 710.876 633.161 713.016ZM649.953 717.376L650.373 718.376C649.693 718.736 648.873 718.896 648.133 718.896C646.153 718.896 645.133 717.716 645.133 715.536V709.456H643.673V708.396H645.153V706.016H646.293V708.396H650.073V709.456H646.293V715.536C646.293 717.036 646.853 717.796 648.133 717.796C648.793 717.796 649.353 717.636 649.953 717.376ZM662.254 714.076H653.434C653.674 716.176 655.374 717.796 657.534 717.796C659.054 717.796 659.814 717.396 660.974 716.516L661.594 717.436C660.274 718.416 659.194 718.896 657.534 718.896C654.534 718.896 652.234 716.496 652.234 713.536C652.234 710.556 654.574 708.136 657.514 708.136C660.534 708.136 662.254 710.636 662.254 713.576V714.076ZM653.434 713.016H661.114C660.994 711.016 659.694 709.236 657.534 709.236C655.374 709.236 653.674 710.876 653.434 713.016ZM673.606 718.676L673.546 716.316C673.066 717.236 671.746 718.896 669.206 718.896C666.326 718.896 664.226 716.456 664.226 713.536C664.226 710.616 666.326 708.136 669.206 708.136C671.546 708.136 672.806 709.716 673.366 710.556V703.616H674.506V718.676H673.606ZM669.406 717.796C671.666 717.796 673.386 715.776 673.386 713.516C673.386 711.256 671.666 709.256 669.406 709.256C667.046 709.256 665.386 711.156 665.386 713.536C665.386 715.896 667.046 717.796 669.406 717.796Z" fill="#FFAF5F"/>
<line x1="123" y1="731" x2="834" y2="731" stroke="#FFAF5F" stroke-width="2"/>
</g>
<defs>
<clipPath id="clip0_1955_64">
<rect width="1000" height="1200" fill="white"/>
</clipPath>
</defs>
</svg>
