<svg width="1000" height="1078" viewBox="0 0 1000 1078" fill="none" xmlns="http://www.w3.org/2000/svg">
<path d="M400.061 378.04L400.841 378.9C399.561 380.36 397.521 381.26 395.521 381.26C391.521 381.26 388.361 378.04 388.361 374C388.361 369.96 391.521 366.74 395.521 366.74C397.581 366.74 399.561 367.66 400.881 369.1L400.041 369.98C399.101 368.88 397.521 367.86 395.521 367.86C392.161 367.86 389.541 370.68 389.541 374C389.541 377.32 392.161 380.14 395.521 380.14C397.521 380.14 399.041 379.18 400.061 378.04ZM402.753 375.86C402.753 372.88 405.053 370.46 408.033 370.46C411.033 370.46 413.333 372.88 413.333 375.86C413.333 378.82 411.033 381.22 408.033 381.22C405.053 381.22 402.753 378.82 402.753 375.86ZM408.033 380.12C410.373 380.12 412.173 378.22 412.173 375.86C412.173 373.48 410.373 371.58 408.033 371.58C405.693 371.58 403.913 373.48 403.913 375.86C403.913 378.22 405.693 380.12 408.033 380.12ZM417.512 381H416.372V370.68H417.252L417.392 373.02C417.692 372.14 418.832 370.46 421.072 370.46C423.152 370.46 424.952 371.8 424.952 374.88V381H423.792V375.12C423.792 372.58 422.492 371.58 420.772 371.58C418.852 371.58 417.512 373.38 417.512 375.38V381ZM436.073 378.8L436.873 379.6C435.693 380.74 434.453 381.22 433.053 381.22C430.073 381.22 427.773 378.82 427.773 375.86C427.773 372.88 430.073 370.46 433.053 370.46C434.453 370.46 435.773 371 436.853 372.08L436.073 372.88C435.293 372.12 434.313 371.58 433.053 371.58C430.713 371.58 428.933 373.48 428.933 375.86C428.933 378.22 430.713 380.12 433.053 380.12C434.273 380.12 435.213 379.66 436.073 378.8ZM448.73 376.4H439.91C440.15 378.5 441.85 380.12 444.01 380.12C445.53 380.12 446.29 379.72 447.45 378.84L448.07 379.76C446.75 380.74 445.67 381.22 444.01 381.22C441.01 381.22 438.71 378.82 438.71 375.86C438.71 372.88 441.05 370.46 443.99 370.46C447.01 370.46 448.73 372.96 448.73 375.9V376.4ZM439.91 375.34H447.59C447.47 373.34 446.17 371.56 444.01 371.56C441.85 371.56 440.15 373.2 439.91 375.34ZM458.7 381L458.54 378.9C457.88 380.38 456.5 381.22 454.68 381.22C452.58 381.22 450.94 379.9 450.94 377.92C450.94 375.8 452.74 374.76 455.12 374.76C456.46 374.76 457.46 375 458.46 375.32C458.46 372.26 457.84 371.58 455.42 371.58C454.12 371.58 452.86 371.8 452.08 372L451.82 370.92C452.26 370.74 454.06 370.46 455.54 370.46C458.88 370.46 459.62 371.82 459.62 375.3V381H458.7ZM458.46 376.64V376.38C457.48 376.04 456.52 375.8 455.2 375.8C453.34 375.8 452.1 376.52 452.1 377.92C452.1 379.3 453.2 380.12 454.8 380.12C457.36 380.12 458.46 378.42 458.46 376.64ZM464.621 381H463.461V365.94H464.621V381ZM477.656 376.4H468.836C469.076 378.5 470.776 380.12 472.936 380.12C474.456 380.12 475.216 379.72 476.376 378.84L476.996 379.76C475.676 380.74 474.596 381.22 472.936 381.22C469.936 381.22 467.636 378.82 467.636 375.86C467.636 372.88 469.976 370.46 472.916 370.46C475.936 370.46 477.656 372.96 477.656 375.9V376.4ZM468.836 375.34H476.516C476.396 373.34 475.096 371.56 472.936 371.56C470.776 371.56 469.076 373.2 468.836 375.34ZM489.008 381L488.948 378.64C488.468 379.56 487.148 381.22 484.608 381.22C481.728 381.22 479.628 378.78 479.628 375.86C479.628 372.94 481.728 370.46 484.608 370.46C486.948 370.46 488.208 372.04 488.768 372.88V365.94H489.908V381H489.008ZM484.808 380.12C487.068 380.12 488.788 378.1 488.788 375.84C488.788 373.58 487.068 371.58 484.808 371.58C482.448 371.58 480.788 373.48 480.788 375.86C480.788 378.22 482.448 380.12 484.808 380.12ZM499.172 381H498.012V365.94H499.172V372.76C499.452 372.06 500.532 370.46 502.712 370.46C504.812 370.46 506.592 371.8 506.592 374.88V381H505.452V375.12C505.452 372.58 504.152 371.58 502.432 371.58C500.512 371.58 499.172 373.38 499.172 375.38V381ZM519.414 376.4H510.594C510.834 378.5 512.534 380.12 514.694 380.12C516.214 380.12 516.974 379.72 518.134 378.84L518.754 379.76C517.434 380.74 516.354 381.22 514.694 381.22C511.694 381.22 509.394 378.82 509.394 375.86C509.394 372.88 511.734 370.46 514.674 370.46C517.694 370.46 519.414 372.96 519.414 375.9V376.4ZM510.594 375.34H518.274C518.154 373.34 516.854 371.56 514.694 371.56C512.534 371.56 510.834 373.2 510.594 375.34ZM529.383 381L529.223 378.9C528.563 380.38 527.183 381.22 525.363 381.22C523.263 381.22 521.623 379.9 521.623 377.92C521.623 375.8 523.423 374.76 525.803 374.76C527.143 374.76 528.143 375 529.143 375.32C529.143 372.26 528.523 371.58 526.103 371.58C524.803 371.58 523.543 371.8 522.763 372L522.503 370.92C522.943 370.74 524.743 370.46 526.223 370.46C529.563 370.46 530.303 371.82 530.303 375.3V381H529.383ZM529.143 376.64V376.38C528.163 376.04 527.203 375.8 525.883 375.8C524.023 375.8 522.783 376.52 522.783 377.92C522.783 379.3 523.883 380.12 525.483 380.12C528.043 380.12 529.143 378.42 529.143 376.64ZM539.105 379.7L539.525 380.7C538.845 381.06 538.025 381.22 537.285 381.22C535.305 381.22 534.285 380.04 534.285 377.86V371.78H532.825V370.72H534.305V368.34H535.445V370.72H539.225V371.78H535.445V377.86C535.445 379.36 536.005 380.12 537.285 380.12C537.945 380.12 538.505 379.96 539.105 379.7ZM542.086 366.78C542.086 366.26 542.466 365.84 543.006 365.84C543.506 365.84 543.926 366.26 543.926 366.78C543.926 367.28 543.506 367.7 543.006 367.7C542.466 367.7 542.086 367.28 542.086 366.78ZM543.586 381H542.426V370.68H543.586V381ZM548.801 381H547.661V370.68H548.541L548.681 373.02C548.981 372.14 550.121 370.46 552.361 370.46C554.441 370.46 556.241 371.8 556.241 374.88V381H555.081V375.12C555.081 372.58 553.781 371.58 552.061 371.58C550.141 371.58 548.801 373.38 548.801 375.38V381ZM560.522 384.34L560.882 383.24C561.702 383.6 562.802 383.96 564.222 383.96C567.582 383.96 568.182 381.96 568.182 379.6V378.56C567.622 379.42 566.362 380.92 564.022 380.92C561.142 380.92 559.042 378.64 559.042 375.72C559.042 372.8 561.142 370.46 564.022 370.46C566.562 370.46 567.882 372.14 568.362 373.06L568.422 370.68H569.322V379.52C569.322 383.16 567.902 385.06 564.262 385.06C562.562 385.06 561.222 384.62 560.522 384.34ZM564.222 379.82C566.482 379.82 568.202 377.96 568.202 375.72C568.202 373.54 566.482 371.58 564.222 371.58C561.862 371.58 560.202 373.36 560.202 375.72C560.202 378.1 561.862 379.82 564.222 379.82ZM586.387 376.4H577.567C577.807 378.5 579.507 380.12 581.667 380.12C583.187 380.12 583.947 379.72 585.107 378.84L585.727 379.76C584.407 380.74 583.327 381.22 581.667 381.22C578.667 381.22 576.367 378.82 576.367 375.86C576.367 372.88 578.707 370.46 581.647 370.46C584.667 370.46 586.387 372.96 586.387 375.9V376.4ZM577.567 375.34H585.247C585.127 373.34 583.827 371.56 581.667 371.56C579.507 371.56 577.807 373.2 577.567 375.34ZM590.559 381H589.399V365.94H590.559V381ZM603.594 376.4H594.774C595.014 378.5 596.714 380.12 598.874 380.12C600.394 380.12 601.154 379.72 602.314 378.84L602.934 379.76C601.614 380.74 600.534 381.22 598.874 381.22C595.874 381.22 593.574 378.82 593.574 375.86C593.574 372.88 595.914 370.46 598.854 370.46C601.874 370.46 603.594 372.96 603.594 375.9V376.4ZM594.774 375.34H602.454C602.334 373.34 601.034 371.56 598.874 371.56C596.714 371.56 595.014 373.2 594.774 375.34ZM607.766 381H606.626V370.68H607.526L607.626 373.02C607.946 372.14 608.886 370.46 611.126 370.46C612.766 370.46 613.986 371.28 614.406 373.14C614.746 372.06 615.766 370.46 617.966 370.46C620.046 370.46 621.446 371.8 621.446 374.88V381H620.286V375.12C620.286 372.58 619.386 371.58 617.666 371.58C615.946 371.58 614.826 373.04 614.606 374.8V381H613.466V375.12C613.466 372.58 612.546 371.58 610.826 371.58C608.906 371.58 607.766 373.38 607.766 375.38V381ZM634.277 376.4H625.457C625.697 378.5 627.397 380.12 629.557 380.12C631.077 380.12 631.837 379.72 632.997 378.84L633.617 379.76C632.297 380.74 631.217 381.22 629.557 381.22C626.557 381.22 624.257 378.82 624.257 375.86C624.257 372.88 626.597 370.46 629.537 370.46C632.557 370.46 634.277 372.96 634.277 375.9V376.4ZM625.457 375.34H633.137C633.017 373.34 631.717 371.56 629.557 371.56C627.397 371.56 625.697 373.2 625.457 375.34ZM638.449 381H637.309V370.68H638.189L638.329 373.02C638.629 372.14 639.769 370.46 642.009 370.46C644.089 370.46 645.889 371.8 645.889 374.88V381H644.729V375.12C644.729 372.58 643.429 371.58 641.709 371.58C639.789 371.58 638.449 373.38 638.449 375.38V381ZM654.691 379.7L655.111 380.7C654.431 381.06 653.611 381.22 652.871 381.22C650.891 381.22 649.871 380.04 649.871 377.86V371.78H648.411V370.72H649.891V368.34H651.031V370.72H654.811V371.78H651.031V377.86C651.031 379.36 651.591 380.12 652.871 380.12C653.531 380.12 654.091 379.96 654.691 379.7Z" fill="#FFAF5F"/>
<line x1="154" y1="392.818" x2="845.636" y2="392.818" stroke="#FFAF5F" stroke-width="2"/>
<path d="M237.844 732.273H236.544L242.784 718.273H243.744L249.984 732.273H248.664L247.004 728.553H239.504L237.844 732.273ZM243.244 720.173L240.024 727.373H246.484L243.264 720.173H243.244ZM259.747 732.273L259.647 730.073C259.327 730.933 258.147 732.493 255.907 732.493C253.827 732.493 252.127 731.273 252.127 728.193V721.953H253.267V727.933C253.267 730.513 254.507 731.393 256.207 731.393C258.127 731.393 259.487 729.573 259.487 727.573V721.953H260.647V732.273H259.747ZM269.65 730.973L270.07 731.973C269.39 732.333 268.57 732.493 267.83 732.493C265.85 732.493 264.83 731.313 264.83 729.133V723.053H263.37V721.993H264.85V719.613H265.99V721.993H269.77V723.053H265.99V729.133C265.99 730.633 266.55 731.393 267.83 731.393C268.49 731.393 269.05 731.233 269.65 730.973ZM271.931 727.133C271.931 724.153 274.231 721.733 277.211 721.733C280.211 721.733 282.511 724.153 282.511 727.133C282.511 730.093 280.211 732.493 277.211 732.493C274.231 732.493 271.931 730.093 271.931 727.133ZM277.211 731.393C279.551 731.393 281.351 729.493 281.351 727.133C281.351 724.753 279.551 722.853 277.211 722.853C274.871 722.853 273.091 724.753 273.091 727.133C273.091 729.493 274.871 731.393 277.211 731.393ZM286.69 732.273H285.55V721.953H286.45L286.55 724.293C286.87 723.413 287.81 721.733 290.05 721.733C291.69 721.733 292.91 722.553 293.33 724.413C293.67 723.333 294.69 721.733 296.89 721.733C298.97 721.733 300.37 723.073 300.37 726.153V732.273H299.21V726.393C299.21 723.853 298.31 722.853 296.59 722.853C294.87 722.853 293.75 724.313 293.53 726.073V732.273H292.39V726.393C292.39 723.853 291.47 722.853 289.75 722.853C287.83 722.853 286.69 724.653 286.69 726.653V732.273ZM303.181 727.133C303.181 724.153 305.481 721.733 308.461 721.733C311.461 721.733 313.761 724.153 313.761 727.133C313.761 730.093 311.461 732.493 308.461 732.493C305.481 732.493 303.181 730.093 303.181 727.133ZM308.461 731.393C310.801 731.393 312.601 729.493 312.601 727.133C312.601 724.753 310.801 722.853 308.461 722.853C306.121 722.853 304.341 724.753 304.341 727.133C304.341 729.493 306.121 731.393 308.461 731.393ZM321.74 730.973L322.16 731.973C321.48 732.333 320.66 732.493 319.92 732.493C317.94 732.493 316.92 731.313 316.92 729.133V723.053H315.46V721.993H316.94V719.613H318.08V721.993H321.86V723.053H318.08V729.133C318.08 730.633 318.64 731.393 319.92 731.393C320.58 731.393 321.14 731.233 321.74 730.973ZM324.721 718.053C324.721 717.533 325.101 717.113 325.641 717.113C326.141 717.113 326.561 717.533 326.561 718.053C326.561 718.553 326.141 718.973 325.641 718.973C325.101 718.973 324.721 718.553 324.721 718.053ZM326.221 732.273H325.061V721.953H326.221V732.273ZM333.976 732.273H332.816L328.556 721.953H329.796L333.376 730.753H333.416L336.996 721.953H338.216L333.976 732.273ZM349.49 727.673H340.67C340.91 729.773 342.61 731.393 344.77 731.393C346.29 731.393 347.05 730.993 348.21 730.113L348.83 731.033C347.51 732.013 346.43 732.493 344.77 732.493C341.77 732.493 339.47 730.093 339.47 727.133C339.47 724.153 341.81 721.733 344.75 721.733C347.77 721.733 349.49 724.233 349.49 727.173V727.673ZM340.67 726.613H348.35C348.23 724.613 346.93 722.833 344.77 722.833C342.61 722.833 340.91 724.473 340.67 726.613ZM355.706 730.833L356.366 729.813C357.826 730.833 359.546 731.413 361.106 731.413C363.586 731.413 365.106 730.253 365.106 728.433C365.106 726.533 363.226 726.133 361.226 725.813C358.746 725.393 356.066 725.213 356.066 722.093C356.066 719.633 358.146 718.013 361.026 718.013C362.806 718.013 364.126 718.353 365.886 719.413L365.286 720.433C363.766 719.493 362.486 719.133 361.066 719.133C358.786 719.133 357.226 720.213 357.226 722.093C357.226 724.093 359.106 724.253 361.226 724.573C363.626 724.933 366.266 725.433 366.266 728.393C366.266 730.893 364.266 732.533 361.166 732.533C359.226 732.533 357.306 731.973 355.706 730.833ZM374.494 730.973L374.914 731.973C374.234 732.333 373.414 732.493 372.674 732.493C370.694 732.493 369.674 731.313 369.674 729.133V723.053H368.214V721.993H369.694V719.613H370.834V721.993H374.614V723.053H370.834V729.133C370.834 730.633 371.394 731.393 372.674 731.393C373.334 731.393 373.894 731.233 374.494 730.973ZM384.811 732.273L384.651 730.173C383.991 731.653 382.611 732.493 380.791 732.493C378.691 732.493 377.051 731.173 377.051 729.193C377.051 727.073 378.851 726.033 381.231 726.033C382.571 726.033 383.571 726.273 384.571 726.593C384.571 723.533 383.951 722.853 381.531 722.853C380.231 722.853 378.971 723.073 378.191 723.273L377.931 722.193C378.371 722.013 380.171 721.733 381.651 721.733C384.991 721.733 385.731 723.093 385.731 726.573V732.273H384.811ZM384.571 727.913V727.653C383.591 727.313 382.631 727.073 381.311 727.073C379.451 727.073 378.211 727.793 378.211 729.193C378.211 730.573 379.311 731.393 380.911 731.393C383.471 731.393 384.571 729.693 384.571 727.913ZM389.233 718.053C389.233 717.533 389.613 717.113 390.153 717.113C390.653 717.113 391.073 717.533 391.073 718.053C391.073 718.553 390.653 718.973 390.153 718.973C389.613 718.973 389.233 718.553 389.233 718.053ZM390.733 732.273H389.573V721.953H390.733V732.273ZM395.948 732.273H394.808V721.953H395.688L395.828 724.293C396.128 723.413 397.268 721.733 399.508 721.733C401.588 721.733 403.388 723.073 403.388 726.153V732.273H402.228V726.393C402.228 723.853 400.928 722.853 399.208 722.853C397.288 722.853 395.948 724.653 395.948 726.653V732.273ZM408.389 732.273H407.229V717.213H408.389V732.273ZM421.424 727.673H412.604C412.844 729.773 414.544 731.393 416.704 731.393C418.224 731.393 418.984 730.993 420.144 730.113L420.764 731.033C419.444 732.013 418.364 732.493 416.704 732.493C413.704 732.493 411.404 730.093 411.404 727.133C411.404 724.153 413.744 721.733 416.684 721.733C419.704 721.733 421.424 724.233 421.424 727.173V727.673ZM412.604 726.613H420.284C420.164 724.613 418.864 722.833 416.704 722.833C414.544 722.833 412.844 724.473 412.604 726.613ZM423.476 731.113L424.056 730.073C425.276 730.933 426.496 731.393 427.816 731.393C429.936 731.393 430.716 730.493 430.716 729.433C430.716 728.233 429.736 727.913 427.716 727.633C425.796 727.373 423.856 726.993 423.856 724.833C423.856 722.993 425.296 721.733 427.636 721.733C428.796 721.733 430.256 722.053 431.576 722.933L431.016 723.973C429.856 723.153 428.696 722.853 427.636 722.853C425.836 722.853 424.996 723.573 424.996 724.773C424.996 726.013 425.976 726.273 427.956 726.533C429.876 726.813 431.856 727.233 431.856 729.373C431.856 731.153 430.436 732.493 427.796 732.493C426.676 732.493 425.036 732.213 423.476 731.113ZM434.003 731.113L434.583 730.073C435.803 730.933 437.023 731.393 438.343 731.393C440.463 731.393 441.243 730.493 441.243 729.433C441.243 728.233 440.263 727.913 438.243 727.633C436.323 727.373 434.383 726.993 434.383 724.833C434.383 722.993 435.823 721.733 438.163 721.733C439.323 721.733 440.783 722.053 442.103 722.933L441.543 723.973C440.383 723.153 439.223 722.853 438.163 722.853C436.363 722.853 435.523 723.573 435.523 724.773C435.523 726.013 436.503 726.273 438.483 726.533C440.403 726.813 442.383 727.233 442.383 729.373C442.383 731.153 440.963 732.493 438.323 732.493C437.203 732.493 435.563 732.213 434.003 731.113ZM448.535 731.113L449.115 730.073C450.335 730.933 451.555 731.393 452.875 731.393C454.995 731.393 455.775 730.493 455.775 729.433C455.775 728.233 454.795 727.913 452.775 727.633C450.855 727.373 448.915 726.993 448.915 724.833C448.915 722.993 450.355 721.733 452.695 721.733C453.855 721.733 455.315 722.053 456.635 722.933L456.075 723.973C454.915 723.153 453.755 722.853 452.695 722.853C450.895 722.853 450.055 723.573 450.055 724.773C450.055 726.013 451.035 726.273 453.015 726.533C454.935 726.813 456.915 727.233 456.915 729.373C456.915 731.153 455.495 732.493 452.855 732.493C451.735 732.493 450.095 732.213 448.535 731.113ZM464.982 730.973L465.402 731.973C464.722 732.333 463.902 732.493 463.162 732.493C461.182 732.493 460.162 731.313 460.162 729.133V723.053H458.702V721.993H460.182V719.613H461.322V721.993H465.102V723.053H461.322V729.133C461.322 730.633 461.882 731.393 463.162 731.393C463.822 731.393 464.382 731.233 464.982 730.973ZM477.283 727.673H468.463C468.703 729.773 470.403 731.393 472.563 731.393C474.083 731.393 474.843 730.993 476.003 730.113L476.623 731.033C475.303 732.013 474.223 732.493 472.563 732.493C469.563 732.493 467.263 730.093 467.263 727.133C467.263 724.153 469.603 721.733 472.543 721.733C475.563 721.733 477.283 724.233 477.283 727.173V727.673ZM468.463 726.613H476.143C476.023 724.613 474.723 722.833 472.563 722.833C470.403 722.833 468.703 724.473 468.463 726.613ZM489.275 727.673H480.455C480.695 729.773 482.395 731.393 484.555 731.393C486.075 731.393 486.835 730.993 487.995 730.113L488.615 731.033C487.295 732.013 486.215 732.493 484.555 732.493C481.555 732.493 479.255 730.093 479.255 727.133C479.255 724.153 481.595 721.733 484.535 721.733C487.555 721.733 489.275 724.233 489.275 727.173V727.673ZM480.455 726.613H488.135C488.015 724.613 486.715 722.833 484.555 722.833C482.395 722.833 480.695 724.473 480.455 726.613ZM493.448 732.273H492.288V717.213H493.448V732.273ZM502.666 732.273H501.526V721.953H502.426L502.526 724.293C502.846 723.413 503.786 721.733 506.026 721.733C507.666 721.733 508.886 722.553 509.306 724.413C509.646 723.333 510.666 721.733 512.866 721.733C514.946 721.733 516.346 723.073 516.346 726.153V732.273H515.186V726.393C515.186 723.853 514.286 722.853 512.566 722.853C510.846 722.853 509.726 724.313 509.506 726.073V732.273H508.366V726.393C508.366 723.853 507.446 722.853 505.726 722.853C503.806 722.853 502.666 724.653 502.666 726.653V732.273ZM527.038 732.273L526.878 730.173C526.218 731.653 524.838 732.493 523.018 732.493C520.918 732.493 519.278 731.173 519.278 729.193C519.278 727.073 521.078 726.033 523.458 726.033C524.798 726.033 525.798 726.273 526.798 726.593C526.798 723.533 526.178 722.853 523.758 722.853C522.458 722.853 521.198 723.073 520.418 723.273L520.158 722.193C520.598 722.013 522.398 721.733 523.878 721.733C527.218 721.733 527.958 723.093 527.958 726.573V732.273H527.038ZM526.798 727.913V727.653C525.818 727.313 524.858 727.073 523.538 727.073C521.678 727.073 520.438 727.793 520.438 729.193C520.438 730.573 521.538 731.393 523.138 731.393C525.698 731.393 526.798 729.693 526.798 727.913ZM536.759 730.973L537.179 731.973C536.499 732.333 535.679 732.493 534.939 732.493C532.959 732.493 531.939 731.313 531.939 729.133V723.053H530.479V721.993H531.959V719.613H533.099V721.993H536.879V723.053H533.099V729.133C533.099 730.633 533.659 731.393 534.939 731.393C535.599 731.393 536.159 731.233 536.759 730.973ZM545.041 730.973L545.461 731.973C544.781 732.333 543.961 732.493 543.221 732.493C541.241 732.493 540.221 731.313 540.221 729.133V723.053H538.761V721.993H540.241V719.613H541.381V721.993H545.161V723.053H541.381V729.133C541.381 730.633 541.941 731.393 543.221 731.393C543.881 731.393 544.441 731.233 545.041 730.973ZM557.342 727.673H548.522C548.762 729.773 550.462 731.393 552.622 731.393C554.142 731.393 554.902 730.993 556.062 730.113L556.682 731.033C555.362 732.013 554.282 732.493 552.622 732.493C549.622 732.493 547.322 730.093 547.322 727.133C547.322 724.153 549.662 721.733 552.602 721.733C555.622 721.733 557.342 724.233 557.342 727.173V727.673ZM548.522 726.613H556.202C556.082 724.613 554.782 722.833 552.622 722.833C550.462 722.833 548.762 724.473 548.522 726.613ZM565.518 736.113H564.378V721.953H565.278L565.338 724.313C565.818 723.413 567.138 721.733 569.678 721.733C572.558 721.733 574.658 724.193 574.658 727.113C574.658 730.033 572.558 732.493 569.678 732.493C567.338 732.493 566.078 730.933 565.518 730.073V736.113ZM569.478 731.393C571.838 731.393 573.498 729.493 573.498 727.113C573.498 724.753 571.838 722.853 569.478 722.853C567.218 722.853 565.518 724.853 565.518 727.113C565.518 729.373 567.218 731.393 569.478 731.393ZM576.638 727.133C576.638 724.153 578.938 721.733 581.918 721.733C584.918 721.733 587.218 724.153 587.218 727.133C587.218 730.093 584.918 732.493 581.918 732.493C578.938 732.493 576.638 730.093 576.638 727.133ZM581.918 731.393C584.258 731.393 586.058 729.493 586.058 727.133C586.058 724.753 584.258 722.853 581.918 722.853C579.578 722.853 577.798 724.753 577.798 727.133C577.798 729.493 579.578 731.393 581.918 731.393ZM592.857 732.273H591.717L588.557 721.953H589.757L592.317 730.533L595.297 721.953H596.457L599.417 730.533L601.977 721.953H603.177L600.017 732.273H598.877L595.877 723.573L592.857 732.273ZM613.889 732.273L613.829 729.913C613.349 730.833 612.029 732.493 609.489 732.493C606.609 732.493 604.509 730.053 604.509 727.133C604.509 724.213 606.609 721.733 609.489 721.733C611.829 721.733 613.089 723.313 613.649 724.153V717.213H614.789V732.273H613.889ZM609.689 731.393C611.949 731.393 613.669 729.373 613.669 727.113C613.669 724.853 611.949 722.853 609.689 722.853C607.329 722.853 605.669 724.753 605.669 727.133C605.669 729.493 607.329 731.393 609.689 731.393ZM627.85 727.673H619.03C619.27 729.773 620.97 731.393 623.13 731.393C624.65 731.393 625.41 730.993 626.57 730.113L627.19 731.033C625.87 732.013 624.79 732.493 623.13 732.493C620.13 732.493 617.83 730.093 617.83 727.133C617.83 724.153 620.17 721.733 623.11 721.733C626.13 721.733 627.85 724.233 627.85 727.173V727.673ZM619.03 726.613H626.71C626.59 724.613 625.29 722.833 623.13 722.833C620.97 722.833 619.27 724.473 619.03 726.613ZM632.022 732.273H630.882V721.953H631.782L631.902 724.453C632.302 723.573 633.302 721.653 636.362 721.733L636.202 722.953C633.442 722.833 632.022 725.033 632.022 727.313V732.273ZM650.427 730.073L651.227 730.873C650.047 732.013 648.807 732.493 647.407 732.493C644.427 732.493 642.127 730.093 642.127 727.133C642.127 724.153 644.427 721.733 647.407 721.733C648.807 721.733 650.127 722.273 651.207 723.353L650.427 724.153C649.647 723.393 648.667 722.853 647.407 722.853C645.067 722.853 643.287 724.753 643.287 727.133C643.287 729.493 645.067 731.393 647.407 731.393C648.627 731.393 649.567 730.933 650.427 730.073ZM653.064 727.133C653.064 724.153 655.364 721.733 658.344 721.733C661.344 721.733 663.644 724.153 663.644 727.133C663.644 730.093 661.344 732.493 658.344 732.493C655.364 732.493 653.064 730.093 653.064 727.133ZM658.344 731.393C660.684 731.393 662.484 729.493 662.484 727.133C662.484 724.753 660.684 722.853 658.344 722.853C656.004 722.853 654.224 724.753 654.224 727.133C654.224 729.493 656.004 731.393 658.344 731.393ZM673.62 732.273L673.46 730.173C672.8 731.653 671.42 732.493 669.6 732.493C667.5 732.493 665.86 731.173 665.86 729.193C665.86 727.073 667.66 726.033 670.04 726.033C671.38 726.033 672.38 726.273 673.38 726.593C673.38 723.533 672.76 722.853 670.34 722.853C669.04 722.853 667.78 723.073 667 723.273L666.74 722.193C667.18 722.013 668.98 721.733 670.46 721.733C673.8 721.733 674.54 723.093 674.54 726.573V732.273H673.62ZM673.38 727.913V727.653C672.4 727.313 671.44 727.073 670.12 727.073C668.26 727.073 667.02 727.793 667.02 729.193C667.02 730.573 668.12 731.393 669.72 731.393C672.28 731.393 673.38 729.693 673.38 727.913ZM683.341 730.973L683.761 731.973C683.081 732.333 682.261 732.493 681.521 732.493C679.541 732.493 678.521 731.313 678.521 729.133V723.053H677.061V721.993H678.541V719.613H679.681V721.993H683.461V723.053H679.681V729.133C679.681 730.633 680.241 731.393 681.521 731.393C682.181 731.393 682.741 731.233 683.341 730.973ZM695.643 727.673H686.823C687.063 729.773 688.763 731.393 690.923 731.393C692.443 731.393 693.203 730.993 694.363 730.113L694.983 731.033C693.663 732.013 692.583 732.493 690.923 732.493C687.923 732.493 685.623 730.093 685.623 727.133C685.623 724.153 687.963 721.733 690.903 721.733C693.923 721.733 695.643 724.233 695.643 727.173V727.673ZM686.823 726.613H694.503C694.383 724.613 693.083 722.833 690.923 722.833C688.763 722.833 687.063 724.473 686.823 726.613ZM706.995 732.273L706.935 729.913C706.455 730.833 705.135 732.493 702.595 732.493C699.715 732.493 697.615 730.053 697.615 727.133C697.615 724.213 699.715 721.733 702.595 721.733C704.935 721.733 706.195 723.313 706.755 724.153V717.213H707.895V732.273H706.995ZM702.795 731.393C705.055 731.393 706.775 729.373 706.775 727.113C706.775 724.853 705.055 722.853 702.795 722.853C700.435 722.853 698.775 724.753 698.775 727.133C698.775 729.493 700.435 731.393 702.795 731.393ZM716.899 732.273H715.999V717.213H717.139V724.153C717.699 723.313 718.959 721.733 721.299 721.733C724.179 721.733 726.279 724.213 726.279 727.133C726.279 730.053 724.179 732.493 721.299 732.493C718.759 732.493 717.439 730.833 716.959 729.913L716.899 732.273ZM721.099 731.393C723.459 731.393 725.119 729.493 725.119 727.133C725.119 724.753 723.459 722.853 721.099 722.853C718.839 722.853 717.139 724.853 717.139 727.113C717.139 729.373 718.839 731.393 721.099 731.393ZM728.259 727.133C728.259 724.153 730.559 721.733 733.539 721.733C736.539 721.733 738.839 724.153 738.839 727.133C738.839 730.093 736.539 732.493 733.539 732.493C730.559 732.493 728.259 730.093 728.259 727.133ZM733.539 731.393C735.879 731.393 737.679 729.493 737.679 727.133C737.679 724.753 735.879 722.853 733.539 722.853C731.199 722.853 729.419 724.753 729.419 727.133C729.419 729.493 731.199 731.393 733.539 731.393ZM750.198 732.273L750.138 729.913C749.658 730.833 748.338 732.493 745.798 732.493C742.918 732.493 740.818 730.053 740.818 727.133C740.818 724.213 742.918 721.733 745.798 721.733C748.138 721.733 749.398 723.313 749.958 724.153V717.213H751.098V732.273H750.198ZM745.998 731.393C748.258 731.393 749.978 729.373 749.978 727.113C749.978 724.853 748.258 722.853 745.998 722.853C743.638 722.853 741.978 724.753 741.978 727.133C741.978 729.493 743.638 731.393 745.998 731.393ZM757.278 736.113H756.058L757.658 732.193L753.458 721.953H754.678L758.258 730.753H758.298L761.878 721.953H763.098L757.278 736.113Z" fill="#FFAF5F"/>
<line x1="154" y1="744.091" x2="845.636" y2="744.091" stroke="#FFAF5F" stroke-width="2"/>
<path d="M433.354 447.858L434.134 448.718C432.854 450.178 430.814 451.078 428.814 451.078C424.814 451.078 421.654 447.858 421.654 443.818C421.654 439.778 424.814 436.558 428.814 436.558C430.874 436.558 432.854 437.478 434.174 438.918L433.334 439.798C432.394 438.698 430.814 437.678 428.814 437.678C425.454 437.678 422.834 440.498 422.834 443.818C422.834 447.138 425.454 449.958 428.814 449.958C430.814 449.958 432.334 448.998 433.354 447.858ZM444.161 450.818L444.001 448.718C443.341 450.198 441.961 451.038 440.141 451.038C438.041 451.038 436.401 449.718 436.401 447.738C436.401 445.618 438.201 444.578 440.581 444.578C441.921 444.578 442.921 444.818 443.921 445.138C443.921 442.078 443.301 441.398 440.881 441.398C439.581 441.398 438.321 441.618 437.541 441.818L437.281 440.738C437.721 440.558 439.521 440.278 441.001 440.278C444.341 440.278 445.081 441.638 445.081 445.118V450.818H444.161ZM443.921 446.458V446.198C442.941 445.858 441.981 445.618 440.661 445.618C438.801 445.618 437.561 446.338 437.561 447.738C437.561 449.118 438.661 449.938 440.261 449.938C442.821 449.938 443.921 448.238 443.921 446.458ZM450.083 454.658H448.943V440.498H449.843L449.903 442.858C450.383 441.958 451.703 440.278 454.243 440.278C457.123 440.278 459.223 442.738 459.223 445.658C459.223 448.578 457.123 451.038 454.243 451.038C451.903 451.038 450.643 449.478 450.083 448.618V454.658ZM454.043 449.938C456.403 449.938 458.063 448.038 458.063 445.658C458.063 443.298 456.403 441.398 454.043 441.398C451.783 441.398 450.083 443.398 450.083 445.658C450.083 447.918 451.783 449.938 454.043 449.938ZM469.2 450.818L469.04 448.718C468.38 450.198 467 451.038 465.18 451.038C463.08 451.038 461.44 449.718 461.44 447.738C461.44 445.618 463.24 444.578 465.62 444.578C466.96 444.578 467.96 444.818 468.96 445.138C468.96 442.078 468.34 441.398 465.92 441.398C464.62 441.398 463.36 441.618 462.58 441.818L462.32 440.738C462.76 440.558 464.56 440.278 466.04 440.278C469.38 440.278 470.12 441.638 470.12 445.118V450.818H469.2ZM468.96 446.458V446.198C467.98 445.858 467.02 445.618 465.7 445.618C463.84 445.618 462.6 446.338 462.6 447.738C462.6 449.118 463.7 449.938 465.3 449.938C467.86 449.938 468.96 448.238 468.96 446.458ZM481.242 448.618L482.042 449.418C480.862 450.558 479.622 451.038 478.222 451.038C475.242 451.038 472.942 448.638 472.942 445.678C472.942 442.698 475.242 440.278 478.222 440.278C479.622 440.278 480.942 440.818 482.022 441.898L481.242 442.698C480.462 441.938 479.482 441.398 478.222 441.398C475.882 441.398 474.102 443.298 474.102 445.678C474.102 448.038 475.882 449.938 478.222 449.938C479.442 449.938 480.382 449.478 481.242 448.618ZM484.579 436.598C484.579 436.078 484.959 435.658 485.499 435.658C485.999 435.658 486.419 436.078 486.419 436.598C486.419 437.098 485.999 437.518 485.499 437.518C484.959 437.518 484.579 437.098 484.579 436.598ZM486.079 450.818H484.919V440.498H486.079V450.818ZM495.094 449.518L495.514 450.518C494.834 450.878 494.014 451.038 493.274 451.038C491.294 451.038 490.274 449.858 490.274 447.678V441.598H488.814V440.538H490.294V438.158H491.434V440.538H495.214V441.598H491.434V447.678C491.434 449.178 491.994 449.938 493.274 449.938C493.934 449.938 494.494 449.778 495.094 449.518ZM500.515 454.658H499.295L500.895 450.738L496.695 440.498H497.915L501.495 449.298H501.535L505.115 440.498H506.335L500.515 454.658ZM511.613 445.678C511.613 442.698 513.913 440.278 516.893 440.278C519.893 440.278 522.193 442.698 522.193 445.678C522.193 448.638 519.893 451.038 516.893 451.038C513.913 451.038 511.613 448.638 511.613 445.678ZM516.893 449.938C519.233 449.938 521.033 448.038 521.033 445.678C521.033 443.298 519.233 441.398 516.893 441.398C514.553 441.398 512.773 443.298 512.773 445.678C512.773 448.038 514.553 449.938 516.893 449.938ZM526.632 450.818H525.492V441.598H523.792V440.538H525.492V438.638C525.492 436.638 526.552 435.538 528.372 435.538C529.072 435.538 529.812 435.678 530.572 436.018L530.192 437.038C529.452 436.758 528.992 436.638 528.372 436.638C527.232 436.638 526.632 437.278 526.632 438.658V440.538H530.232V441.598H526.632V450.818ZM539.797 450.818H538.637V438.198L535.877 439.238L535.477 438.178L539.037 436.818H539.797V450.818ZM543.621 450.038C543.621 449.478 544.041 449.038 544.621 449.038C545.181 449.038 545.621 449.478 545.621 450.038C545.621 450.578 545.181 451.038 544.621 451.038C544.041 451.038 543.621 450.578 543.621 450.038ZM551.374 443.658V443.618C550.874 443.458 548.714 442.738 548.714 440.358C548.714 438.138 550.454 436.558 553.314 436.558C556.154 436.558 557.914 438.138 557.914 440.358C557.914 442.738 555.734 443.458 555.234 443.618V443.658C555.794 443.798 558.274 444.538 558.274 447.178C558.274 449.298 556.774 451.078 553.314 451.078C549.834 451.078 548.334 449.298 548.334 447.178C548.334 444.538 550.814 443.798 551.374 443.658ZM549.874 440.398C549.874 442.198 551.474 443.098 553.314 443.098C555.134 443.098 556.734 442.198 556.734 440.398C556.734 438.758 555.394 437.678 553.314 437.678C551.214 437.678 549.874 438.758 549.874 440.398ZM549.514 447.138C549.514 448.678 550.574 449.958 553.314 449.958C556.034 449.958 557.094 448.678 557.094 447.138C557.094 445.198 555.374 444.218 553.314 444.218C551.234 444.218 549.514 445.198 549.514 447.138ZM566.547 450.818H565.387V435.758H566.547V450.818ZM570.262 436.598C570.262 436.078 570.642 435.658 571.182 435.658C571.682 435.658 572.102 436.078 572.102 436.598C572.102 437.098 571.682 437.518 571.182 437.518C570.642 437.518 570.262 437.098 570.262 436.598ZM571.762 450.818H570.602V440.498H571.762V450.818ZM580.777 449.518L581.197 450.518C580.517 450.878 579.697 451.038 578.957 451.038C576.977 451.038 575.957 449.858 575.957 447.678V441.598H574.497V440.538H575.977V438.158H577.117V440.538H580.897V441.598H577.117V447.678C577.117 449.178 577.677 449.938 578.957 449.938C579.617 449.938 580.177 449.778 580.777 449.518ZM593.078 446.218H584.258C584.498 448.318 586.198 449.938 588.358 449.938C589.878 449.938 590.638 449.538 591.798 448.658L592.418 449.578C591.098 450.558 590.018 451.038 588.358 451.038C585.358 451.038 583.058 448.638 583.058 445.678C583.058 442.698 585.398 440.278 588.338 440.278C591.358 440.278 593.078 442.778 593.078 445.718V446.218ZM584.258 445.158H591.938C591.818 443.158 590.518 441.378 588.358 441.378C586.198 441.378 584.498 443.018 584.258 445.158ZM597.251 450.818H596.111V440.498H597.011L597.131 442.998C597.531 442.118 598.531 440.198 601.591 440.278L601.431 441.498C598.671 441.378 597.251 443.578 597.251 445.858V450.818ZM603.412 449.658L603.992 448.618C605.212 449.478 606.432 449.938 607.752 449.938C609.872 449.938 610.652 449.038 610.652 447.978C610.652 446.778 609.672 446.458 607.652 446.178C605.732 445.918 603.792 445.538 603.792 443.378C603.792 441.538 605.232 440.278 607.572 440.278C608.732 440.278 610.192 440.598 611.512 441.478L610.952 442.518C609.792 441.698 608.632 441.398 607.572 441.398C605.772 441.398 604.932 442.118 604.932 443.318C604.932 444.558 605.912 444.818 607.892 445.078C609.812 445.358 611.792 445.778 611.792 447.918C611.792 449.698 610.372 451.038 607.732 451.038C606.612 451.038 604.972 450.758 603.412 449.658Z" fill="#FFAF5F"/>
<line x1="154" y1="461.545" x2="845.636" y2="461.545" stroke="#FFAF5F" stroke-width="2"/>
<path d="M376.948 815.182H375.788V801.182H376.948V815.182ZM382.315 815.182H381.175V804.862H382.055L382.195 807.202C382.495 806.322 383.635 804.642 385.875 804.642C387.955 804.642 389.755 805.982 389.755 809.062V815.182H388.595V809.302C388.595 806.762 387.295 805.762 385.575 805.762C383.655 805.762 382.315 807.562 382.315 809.562V815.182ZM398.556 813.882L398.976 814.882C398.296 815.242 397.476 815.402 396.736 815.402C394.756 815.402 393.736 814.222 393.736 812.042V805.962H392.276V804.902H393.756V802.522H394.896V804.902H398.676V805.962H394.896V812.042C394.896 813.542 395.456 814.302 396.736 814.302C397.396 814.302 397.956 814.142 398.556 813.882ZM410.858 810.582H402.038C402.278 812.682 403.978 814.302 406.138 814.302C407.658 814.302 408.418 813.902 409.578 813.022L410.198 813.942C408.878 814.922 407.798 815.402 406.138 815.402C403.138 815.402 400.838 813.002 400.838 810.042C400.838 807.062 403.178 804.642 406.118 804.642C409.138 804.642 410.858 807.142 410.858 810.082V810.582ZM402.038 809.522H409.718C409.598 807.522 408.298 805.742 406.138 805.742C403.978 805.742 402.278 807.382 402.038 809.522ZM415.03 815.182H413.89V804.862H414.79L414.91 807.362C415.31 806.482 416.31 804.562 419.37 804.642L419.21 805.862C416.45 805.742 415.03 807.942 415.03 810.222V815.182ZM429.236 812.982L430.036 813.782C428.856 814.922 427.616 815.402 426.216 815.402C423.236 815.402 420.936 813.002 420.936 810.042C420.936 807.062 423.236 804.642 426.216 804.642C427.616 804.642 428.936 805.182 430.016 806.262L429.236 807.062C428.456 806.302 427.476 805.762 426.216 805.762C423.876 805.762 422.096 807.662 422.096 810.042C422.096 812.402 423.876 814.302 426.216 814.302C427.436 814.302 428.376 813.842 429.236 812.982ZM434.093 815.182H432.933V800.122H434.093V806.942C434.373 806.242 435.453 804.642 437.633 804.642C439.733 804.642 441.513 805.982 441.513 809.062V815.182H440.373V809.302C440.373 806.762 439.073 805.762 437.353 805.762C435.433 805.762 434.093 807.562 434.093 809.562V815.182ZM452.194 815.182L452.034 813.082C451.374 814.562 449.994 815.402 448.174 815.402C446.074 815.402 444.434 814.082 444.434 812.102C444.434 809.982 446.234 808.942 448.614 808.942C449.954 808.942 450.954 809.182 451.954 809.502C451.954 806.442 451.334 805.762 448.914 805.762C447.614 805.762 446.354 805.982 445.574 806.182L445.314 805.102C445.754 804.922 447.554 804.642 449.034 804.642C452.374 804.642 453.114 806.002 453.114 809.482V815.182H452.194ZM451.954 810.822V810.562C450.974 810.222 450.014 809.982 448.694 809.982C446.834 809.982 445.594 810.702 445.594 812.102C445.594 813.482 446.694 814.302 448.294 814.302C450.854 814.302 451.954 812.602 451.954 810.822ZM458.116 815.182H456.976V804.862H457.856L457.996 807.202C458.296 806.322 459.436 804.642 461.676 804.642C463.756 804.642 465.556 805.982 465.556 809.062V815.182H464.396V809.302C464.396 806.762 463.096 805.762 461.376 805.762C459.456 805.762 458.116 807.562 458.116 809.562V815.182ZM469.837 818.522L470.197 817.422C471.017 817.782 472.117 818.142 473.537 818.142C476.897 818.142 477.497 816.142 477.497 813.782V812.742C476.937 813.602 475.677 815.102 473.337 815.102C470.457 815.102 468.357 812.822 468.357 809.902C468.357 806.982 470.457 804.642 473.337 804.642C475.877 804.642 477.197 806.322 477.677 807.242L477.737 804.862H478.637V813.702C478.637 817.342 477.217 819.242 473.577 819.242C471.877 819.242 470.537 818.802 469.837 818.522ZM473.537 814.002C475.797 814.002 477.517 812.142 477.517 809.902C477.517 807.722 475.797 805.762 473.537 805.762C471.177 805.762 469.517 807.542 469.517 809.902C469.517 812.282 471.177 814.002 473.537 814.002ZM491.697 810.582H482.877C483.117 812.682 484.817 814.302 486.977 814.302C488.497 814.302 489.257 813.902 490.417 813.022L491.037 813.942C489.717 814.922 488.637 815.402 486.977 815.402C483.977 815.402 481.677 813.002 481.677 810.042C481.677 807.062 484.017 804.642 486.957 804.642C489.977 804.642 491.697 807.142 491.697 810.082V810.582ZM482.877 809.522H490.557C490.437 807.522 489.137 805.742 486.977 805.742C484.817 805.742 483.117 807.382 482.877 809.522ZM495.63 815.182H494.73V800.122H495.87V807.062C496.43 806.222 497.69 804.642 500.03 804.642C502.91 804.642 505.01 807.122 505.01 810.042C505.01 812.962 502.91 815.402 500.03 815.402C497.49 815.402 496.17 813.742 495.69 812.822L495.63 815.182ZM499.83 814.302C502.19 814.302 503.85 812.402 503.85 810.042C503.85 807.662 502.19 805.762 499.83 805.762C497.57 805.762 495.87 807.762 495.87 810.022C495.87 812.282 497.57 814.302 499.83 814.302ZM509.19 815.182H508.03V800.122H509.19V815.182ZM522.225 810.582H513.405C513.645 812.682 515.345 814.302 517.505 814.302C519.025 814.302 519.785 813.902 520.945 813.022L521.565 813.942C520.245 814.922 519.165 815.402 517.505 815.402C514.505 815.402 512.205 813.002 512.205 810.042C512.205 807.062 514.545 804.642 517.485 804.642C520.505 804.642 522.225 807.142 522.225 810.082V810.582ZM513.405 809.522H521.085C520.965 807.522 519.665 805.742 517.505 805.742C515.345 805.742 513.645 807.382 513.405 809.522ZM531.861 815.182H530.721L527.561 804.862H528.761L531.321 813.442L534.301 804.862H535.461L538.421 813.442L540.981 804.862H542.181L539.021 815.182H537.881L534.881 806.482L531.861 815.182ZM543.513 810.042C543.513 807.062 545.813 804.642 548.793 804.642C551.793 804.642 554.093 807.062 554.093 810.042C554.093 813.002 551.793 815.402 548.793 815.402C545.813 815.402 543.513 813.002 543.513 810.042ZM548.793 814.302C551.133 814.302 552.933 812.402 552.933 810.042C552.933 807.662 551.133 805.762 548.793 805.762C546.453 805.762 544.673 807.662 544.673 810.042C544.673 812.402 546.453 814.302 548.793 814.302ZM556.072 810.042C556.072 807.062 558.372 804.642 561.352 804.642C564.352 804.642 566.652 807.062 566.652 810.042C566.652 813.002 564.352 815.402 561.352 815.402C558.372 815.402 556.072 813.002 556.072 810.042ZM561.352 814.302C563.692 814.302 565.492 812.402 565.492 810.042C565.492 807.662 563.692 805.762 561.352 805.762C559.012 805.762 557.232 807.662 557.232 810.042C557.232 812.402 559.012 814.302 561.352 814.302ZM578.011 815.182L577.951 812.822C577.471 813.742 576.151 815.402 573.611 815.402C570.731 815.402 568.631 812.962 568.631 810.042C568.631 807.122 570.731 804.642 573.611 804.642C575.951 804.642 577.211 806.222 577.771 807.062V800.122H578.911V815.182H578.011ZM573.811 814.302C576.071 814.302 577.791 812.282 577.791 810.022C577.791 807.762 576.071 805.762 573.811 805.762C571.451 805.762 569.791 807.662 569.791 810.042C569.791 812.402 571.451 814.302 573.811 814.302ZM588.155 815.182H586.995V800.122H588.155V815.182ZM601.19 810.582H592.37C592.61 812.682 594.31 814.302 596.47 814.302C597.99 814.302 598.75 813.902 599.91 813.022L600.53 813.942C599.21 814.922 598.13 815.402 596.47 815.402C593.47 815.402 591.17 813.002 591.17 810.042C591.17 807.062 593.51 804.642 596.45 804.642C599.47 804.642 601.19 807.142 601.19 810.082V810.582ZM592.37 809.522H600.05C599.93 807.522 598.63 805.742 596.47 805.742C594.31 805.742 592.61 807.382 592.37 809.522ZM604.642 818.522L605.002 817.422C605.822 817.782 606.922 818.142 608.342 818.142C611.702 818.142 612.302 816.142 612.302 813.782V812.742C611.742 813.602 610.482 815.102 608.142 815.102C605.262 815.102 603.162 812.822 603.162 809.902C603.162 806.982 605.262 804.642 608.142 804.642C610.682 804.642 612.002 806.322 612.482 807.242L612.542 804.862H613.442V813.702C613.442 817.342 612.022 819.242 608.382 819.242C606.682 819.242 605.342 818.802 604.642 818.522ZM608.342 814.002C610.602 814.002 612.322 812.142 612.322 809.902C612.322 807.722 610.602 805.762 608.342 805.762C605.982 805.762 604.322 807.542 604.322 809.902C604.322 812.282 605.982 814.002 608.342 814.002ZM616.562 814.022L617.142 812.982C618.362 813.842 619.582 814.302 620.902 814.302C623.022 814.302 623.802 813.402 623.802 812.342C623.802 811.142 622.822 810.822 620.802 810.542C618.882 810.282 616.942 809.902 616.942 807.742C616.942 805.902 618.382 804.642 620.722 804.642C621.882 804.642 623.342 804.962 624.662 805.842L624.102 806.882C622.942 806.062 621.782 805.762 620.722 805.762C618.922 805.762 618.082 806.482 618.082 807.682C618.082 808.922 619.062 809.182 621.042 809.442C622.962 809.722 624.942 810.142 624.942 812.282C624.942 814.062 623.522 815.402 620.882 815.402C619.762 815.402 618.122 815.122 616.562 814.022Z" fill="#FFAF5F"/>
<line x1="154" y1="827" x2="845.636" y2="827" stroke="#FFAF5F" stroke-width="2"/>
</svg>
