<svg width="56" height="48" viewBox="0 0 56 48" fill="none" xmlns="http://www.w3.org/2000/svg">
<g clip-path="url(#clip0_1710_409)">
<path d="M28.0813 2.37037L26.9074 1.00561L0 24.009L28.1354 48L56 24.009L28.0813 0L26.9074 1.00561L28.0813 2.37037L26.9074 3.73513L50.4921 24.009L28.1174 43.2593L5.54402 24.009L29.2551 3.73513L28.0813 2.37037L26.9074 3.73513L28.0813 2.37037Z" fill="#FFAF5F"/>
<path d="M28.0632 11.5646L26.8714 10.1998L10.3838 24.2963L28.0813 39.3985L45.6163 24.2963L28.0632 9.19421L26.8714 10.1998L28.0632 11.5646L26.8714 12.9293L40.1084 24.2963L28.0813 34.6398L15.9278 24.2963L29.2371 12.9293L28.0632 11.5646L26.8714 12.9293L28.0632 11.5646Z" fill="#FFAF5F"/>
</g>
<defs>
<clipPath id="clip0_1710_409">
<rect width="56" height="48" fill="white"/>
</clipPath>
</defs>
</svg>
