<svg width="123" height="1080" viewBox="0 0 123 1080" fill="none" xmlns="http://www.w3.org/2000/svg">
<path d="M117.424 540.043L117.424 1080H123L123 540.043H117.424Z" fill="#FFAF5F"/>
<path d="M61.0539 657.135L23.8083 701.744L25.3694 703.62L61.0818 746.613L98.3275 701.658L61.0539 657.135ZM61.0539 737.784L31.1403 701.773L61.0539 665.965L90.9676 701.715L61.0539 737.784Z" fill="#FFAF5F"/>
<path d="M38.0542 701.803L39.6154 703.678L61.5 730.022L84.9458 701.745L61.5 673.727L38.0542 701.803ZM77.5859 701.774L61.5 721.164L45.4141 701.803L61.5 682.557L77.5859 701.774Z" fill="#FFAF5F"/>
<path d="M60.6915 638.784L97.9372 593.829L60.6915 549.277L23.418 593.886L24.9791 595.762L60.6915 638.784ZM90.6052 593.829L60.7194 629.897L30.8058 593.886L60.7194 558.078L90.6052 593.829Z" fill="#FFAF5F"/>
<path d="M39.2529 595.819L61.1376 622.164L84.5834 593.886L61.1376 565.868L37.6917 593.944L39.2529 595.819ZM77.2235 593.915L61.1376 613.305L45.0517 593.944L61.1376 574.698L77.2235 593.915Z" fill="#FFAF5F"/>
<path d="M61.0539 765.167L23.8083 809.777L25.3694 811.652L61.0539 854.674L98.2996 809.719L61.0539 765.167ZM61.0539 845.816L31.1403 809.805L61.0539 773.997L90.9676 809.719L61.0539 845.816Z" fill="#FFAF5F"/>
<path d="M38.0542 809.834L39.6154 811.709L61.5 838.054L84.9458 809.776L61.5 781.758L38.0542 809.834ZM77.5859 809.805L61.5 829.195L45.4141 809.834L61.5 790.588L77.5859 809.805Z" fill="#FFAF5F"/>
<path d="M61.0539 873.257L23.8083 917.866L25.3694 919.741L61.0539 962.735L98.2996 917.779L61.0539 873.257ZM61.0539 953.876L31.1403 917.866L61.0539 882.086L90.9676 917.808L61.0539 953.876Z" fill="#FFAF5F"/>
<path d="M38.0542 917.924L39.6154 919.8L61.5 946.144L84.9458 917.866L61.5 889.849L38.0542 917.924ZM77.5859 917.895L61.5 937.286L45.4141 917.924L61.5 898.678L77.5859 917.895Z" fill="#FFAF5F"/>
<path d="M61.5 981.26L24.2543 1025.87L25.8155 1027.74L61.5 1070.77L98.7457 1025.81L61.5 981.26ZM61.5 1061.91L31.5864 1025.9L61.5 990.089L91.4136 1025.81L61.5 1061.91Z" fill="#FFAF5F"/>
<path d="M20.0447 1004.31L24.9513 998.399L46.9753 971.853L20.0725 939.68L20.0725 1004.31H20.0447ZM39.5875 971.853L25.6204 988.733L25.6204 955.146L39.5875 971.853Z" fill="#FFAF5F"/>
<path d="M96.9336 945.538L74.9096 971.853L101.812 1004.31V939.651L96.9336 945.538ZM82.2695 971.853L96.2366 955.146V988.733L82.2695 971.853Z" fill="#FFAF5F"/>
<path d="M19.961 896.312L24.8676 890.396L46.8917 863.85L19.9889 831.677L19.9889 896.312H19.961ZM39.5039 863.85L25.5367 880.73L25.5367 847.143L39.5039 863.85Z" fill="#FFAF5F"/>
<path d="M97.1009 837.505L75.0768 863.821L101.98 896.282V831.619L97.1009 837.505ZM82.4646 863.85L96.4318 847.143V880.73L82.4646 863.85Z" fill="#FFAF5F"/>
<path d="M19.961 788.28L24.8676 782.365L46.8917 755.819L19.9889 723.646L19.9889 788.28H19.961ZM39.5039 755.819L25.5367 772.699L25.5367 739.112L39.5039 755.819Z" fill="#FFAF5F"/>
<path d="M96.8221 729.475L74.798 755.79L101.729 788.28V723.646L96.8221 729.475ZM82.1858 755.819L96.153 739.112V772.699L82.1858 755.819Z" fill="#FFAF5F"/>
<path d="M24.8676 674.39L46.8917 647.844L19.9889 615.671L19.9889 680.334L24.8676 674.39ZM39.5039 647.844L25.5367 664.724L25.5367 631.137L39.5039 647.844Z" fill="#FFAF5F"/>
<path d="M96.8221 621.5L74.798 647.815L101.701 680.277V615.614L96.8221 621.5ZM82.1858 647.844L96.153 631.137V664.724L82.1858 647.844Z" fill="#FFAF5F"/>
<path d="M38.5002 1025.93L40.0614 1027.8L61.9461 1054.15L85.3919 1025.87L61.9461 997.851L38.5002 1025.93ZM78.032 1025.9L61.9461 1045.29L45.8602 1025.93L61.9461 1006.68L78.032 1025.9Z" fill="#FFAF5F"/>
<path d="M47.0868 540.043H39.7269L25.6482 556.837L25.6482 540.043H20.0725L20.0725 572.332L47.0868 540.043Z" fill="#FFAF5F"/>
<path d="M101.868 540.043H96.2924V556.837L82.2137 540.043H74.8538L101.868 572.332V540.043Z" fill="#FFAF5F"/>
<path d="M20.0725 1047.71L20.0725 1080H25.6482V1063.18L39.7269 1080H47.0868L45.4141 1078.01L20.0725 1047.71Z" fill="#FFAF5F"/>
<path d="M74.8538 1080H82.2137L96.2924 1063.18V1080H101.868V1047.71L74.8538 1080Z" fill="#FFAF5F"/>
<path d="M16.3368 1080L16.3368 1034.53L54.1401 1080H61.5L16.6156 1026.01L61.5 972.026L16.6156 917.981L61.3606 864.023L16.6156 809.978L61.5 756.02L16.6156 701.889L61.5 648.017L16.6156 594.03L61.5 540.043H54.1401L16.3368 585.518L16.3368 540.043H10.7611L10.7611 1080H16.3368ZM16.3368 1017.47L16.3368 926.436L54.1401 971.997L16.3368 1017.47ZM16.3368 909.411L16.3368 818.519L54.0007 863.994L16.3368 909.411ZM16.3368 801.466L16.3368 710.401L54.1401 755.991L16.3368 801.466ZM54.1401 648.017L16.3368 693.377L16.3368 602.514L54.1401 648.017Z" fill="#FFAF5F"/>
<path d="M0 540.043L0 1080H5.5757L5.5757 540.043H0Z" fill="#FFAF5F"/>
<path d="M106.134 594.348L61.5 648.017L106.134 701.572V702.206L61.5 756.02L106.134 809.661V810.296L61.6673 863.994L106.134 917.635V918.27L61.5 971.997L106.134 1025.67V1026.33L61.5 1080H68.8599L106.106 1035.19V1080H111.681L111.681 540.043H106.106L106.106 584.855L68.8599 540.043H61.5L106.134 593.713V594.348ZM68.8878 648.017L106.134 603.206V692.713L68.8878 648.017ZM68.8878 755.991L106.134 711.065L106.134 800.803L68.8878 755.991ZM69.0272 863.994L106.134 819.183V908.748L69.0272 863.994ZM68.8878 971.997L106.134 927.128L106.134 1016.81L68.8878 971.997Z" fill="#FFAF5F"/>
<path d="M117.424 0.0579834L117.424 540.015H123L123 0.0579834H117.424Z" fill="#FFAF5F"/>
<path d="M61.0818 117.15L23.8083 161.759L25.3694 163.635L61.0818 206.628L98.3275 161.672L61.0818 117.15ZM61.0818 197.798L31.1682 161.788L61.0818 125.979L90.9676 161.73L61.0818 197.798Z" fill="#FFAF5F"/>
<path d="M38.0821 161.817L39.6432 163.692L61.5279 190.037L84.9737 161.759L61.5279 133.741L38.0821 161.817ZM77.5859 161.788L61.5 181.178L45.4141 161.817L61.5 142.571L77.5859 161.788Z" fill="#FFAF5F"/>
<path d="M60.7194 98.7979L97.9651 53.8423L60.7194 9.2908L23.4458 53.9L25.007 55.7756L60.7194 98.7979ZM90.6052 53.8423L60.7194 89.9106L30.8058 53.9L60.7194 18.0915L90.6052 53.8423Z" fill="#FFAF5F"/>
<path d="M39.2808 55.8335L61.1655 82.1777L84.6113 53.9002L61.1655 25.8824L37.7196 53.958L39.2808 55.8335ZM77.2235 53.9291L61.1376 73.3194L45.0517 53.958L61.1376 34.7119L77.2235 53.9291Z" fill="#FFAF5F"/>
<path d="M61.0818 225.182L23.8083 269.791L25.3694 271.667L61.0818 314.66L98.3275 269.705L61.0818 225.182ZM61.0818 305.831L31.1682 269.82L61.0818 234.011L90.9676 269.762L61.0818 305.831Z" fill="#FFAF5F"/>
<path d="M38.0821 269.849L39.6432 271.724L61.5279 298.068L84.9737 269.791L61.5279 241.773L38.0821 269.849ZM77.5859 269.82L61.5 289.21L45.4141 269.849L61.5 250.602L77.5859 269.82Z" fill="#FFAF5F"/>
<path d="M61.0818 333.271L23.8083 377.881L25.3694 379.756L61.0818 422.75L98.3275 377.794L61.0818 333.271ZM61.0818 413.891L31.1682 377.881L61.0818 342.072L90.9676 377.823L61.0818 413.891Z" fill="#FFAF5F"/>
<path d="M38.0821 377.909L39.6432 379.785L61.5279 406.129L84.9737 377.851L61.5279 349.833L38.0821 377.909ZM77.5859 377.909L61.5 397.299L45.4141 377.938L61.5 358.692L77.5859 377.909Z" fill="#FFAF5F"/>
<path d="M61.5279 441.274L24.2543 485.883L25.8155 487.759L61.5279 530.752L98.7736 485.796L61.5279 441.274ZM61.5279 521.894L31.6142 485.883L61.5279 450.103L91.4136 485.854L61.5279 521.894Z" fill="#FFAF5F"/>
<path d="M20.0447 464.329L24.9513 458.413L46.9753 431.867L20.0725 399.694L20.0725 464.329H20.0447ZM39.5875 431.867L25.6204 448.747L25.6204 415.16L39.5875 431.867Z" fill="#FFAF5F"/>
<path d="M96.9336 405.523L74.9096 431.838L101.812 464.3V399.637L96.9336 405.523ZM82.2695 431.867L96.2366 415.16V448.747L82.2695 431.867Z" fill="#FFAF5F"/>
<path d="M19.961 356.326L24.8676 350.41L46.8917 323.864L19.9889 291.691L19.9889 356.326H19.961ZM39.5039 323.864L25.5367 340.744L25.5367 307.157L39.5039 323.864Z" fill="#FFAF5F"/>
<path d="M97.1287 297.52L75.1047 323.835L102.007 356.326V291.662L97.1287 297.52ZM82.4646 323.864L96.4318 307.157V340.744L82.4646 323.864Z" fill="#FFAF5F"/>
<path d="M19.961 248.294L24.8676 242.379L46.8917 215.832L19.9889 183.66L19.9889 248.294H19.961ZM39.5039 215.832L25.5367 232.712L25.5367 199.126L39.5039 215.832Z" fill="#FFAF5F"/>
<path d="M96.85 189.488L74.8259 215.803L101.729 248.265V183.601L96.85 189.488ZM82.1859 215.832L96.153 199.125V232.712L82.1859 215.832Z" fill="#FFAF5F"/>
<path d="M24.8676 134.405L46.8917 107.858L19.9889 75.6854L19.9889 140.349L24.8676 134.405ZM39.5039 107.858L25.5367 124.738L25.5367 91.1515L39.5039 107.858Z" fill="#FFAF5F"/>
<path d="M96.85 81.5141L74.8259 107.83L101.729 140.291V75.6278L96.85 81.5141ZM82.1859 107.858L96.153 91.1516V124.738L82.1859 107.858Z" fill="#FFAF5F"/>
<path d="M38.5281 485.941L40.0893 487.816L61.9739 514.161L85.4198 485.883L61.9739 457.865L38.5281 485.941ZM78.032 485.912L61.9461 505.302L45.8602 485.941L61.9461 466.695L78.032 485.912Z" fill="#FFAF5F"/>
<path d="M47.1147 0.0290031L39.7269 0.0290031L25.6761 16.8513L25.6761 0.0290031H20.1004L20.1004 32.3462L47.1147 0.0290031Z" fill="#FFAF5F"/>
<path d="M101.868 0.0290031L96.2924 0.0290031V16.8513L82.2137 0.0290031H74.8538L101.868 32.3462V0.0290031Z" fill="#FFAF5F"/>
<path d="M20.1004 507.697L20.1004 540.015H25.6761V523.192L39.7269 540.015H47.1147L45.442 537.995L20.1004 507.697Z" fill="#FFAF5F"/>
<path d="M74.8538 540.015H82.2137L96.2924 523.192V540.015H101.868V507.697L74.8538 540.015Z" fill="#FFAF5F"/>
<path d="M16.3368 540.015L16.3368 494.54L54.1401 540.015H61.5L16.6156 486.028L61.5 432.041L16.6156 377.996L61.3606 324.038L16.6156 270.022L61.5 216.064L16.6156 161.932L61.5 108.061L16.6156 54.0739L61.5 0.086792H54.1401L16.3368 45.5328L16.3368 0.0579834H10.7611L10.7611 540.015H16.3368ZM16.3368 477.487L16.3368 386.45L54.1401 431.983L16.3368 477.487ZM16.3368 369.426L16.3368 278.534L54.0007 324.009L16.3368 369.426ZM16.3368 261.481L16.3368 170.416L54.1401 216.006L16.3368 261.481ZM54.1401 108.032L16.3368 153.391L16.3368 62.5283L54.1401 108.032Z" fill="#FFAF5F"/>
<path d="M0 0.0579834L0 540.015H5.5757L5.5757 0.0579834H0Z" fill="#FFAF5F"/>
<path d="M106.134 54.362L61.5 108.032L106.134 161.557V162.192L61.5 216.006L106.134 269.646V270.281L61.6673 324.008L106.134 377.62V378.255L61.5 431.982L106.134 485.652V486.287L61.5 539.957H68.8599L106.106 495.145V539.957H111.681L111.681 -0.00012207H106.106L106.106 44.8111L68.8599 -0.00012207H61.5L106.134 53.6695V54.362ZM68.8878 108.032L106.134 63.2203V152.727L68.8878 108.032ZM68.8878 216.006L106.134 171.079L106.134 260.817L68.8878 216.006ZM69.0272 324.008L106.134 279.197V368.733L69.0272 324.008ZM68.8878 432.011L106.134 387.142L106.134 476.823L68.8878 432.011Z" fill="#FFAF5F"/>
</svg>
