<svg width="460" height="625" viewBox="0 0 460 625" fill="none" xmlns="http://www.w3.org/2000/svg">
<path d="M203.133 548.382C295.368 548.382 370.14 473.705 370.14 381.586C370.14 289.467 295.368 214.79 203.133 214.79C110.897 214.79 36.1255 289.467 36.1255 381.586C36.1255 473.705 110.897 548.382 203.133 548.382Z" stroke="#FFAF5F" stroke-miterlimit="10"/>
<path d="M118.875 525.784L70.1733 600.035L44.7451 599.82L85.6888 500.388" stroke="#FFAF5F" stroke-miterlimit="10"/>
<path d="M217.355 547.736L221.234 567.967C221.234 567.967 242.999 574.423 243.645 568.828C244.292 563.232 241.49 543.647 241.49 543.647" stroke="#FFAF5F" stroke-miterlimit="10"/>
<path d="M269.72 527.505L311.094 601.326C311.094 601.326 334.799 604.985 336.307 598.528C338.031 592.071 305.276 504.907 305.276 504.907C305.276 504.907 276.4 495.868 269.72 527.505Z" stroke="#FFAF5F" stroke-miterlimit="10"/>
<path d="M362.813 332.3C366.476 321.97 281.141 36.8029 281.141 36.8029C281.141 36.8029 167.576 25.3962 134.821 37.2333C131.373 38.3094 96.8943 107.61 92.369 133.867C92.369 133.867 92.369 134.082 92.1535 134.728C88.0591 148.502 38.0647 319.818 39.7887 350.164" stroke="#FFAF5F" stroke-miterlimit="10"/>
<path d="M133.528 38.5245C133.528 38.5245 82.8876 33.3593 79.8707 40.2463C76.8538 47.1334 91.5073 133.006 91.5073 133.006" stroke="#FFAF5F" stroke-miterlimit="10"/>
<path d="M276.615 35.9417C276.615 35.9417 170.162 13.3435 126.632 37.233" stroke="#FFAF5F" stroke-miterlimit="10"/>
<path d="M284.804 49.0703C284.804 49.0703 321.438 53.5899 350.314 83.5056C375.742 109.978 390.18 153.022 417.979 287.75L384.577 290.117L365.614 212.853C365.614 212.853 351.607 199.079 357.21 182.722C346.435 165.289 346.866 170.67 349.883 153.237C334.583 140.754 341.263 129.778 341.263 129.778C341.263 129.778 340.186 111.484 300.535 101.799" stroke="#FFAF5F" stroke-miterlimit="10"/>
<path d="M200.239 221.877C269.722 220.279 325.7 203.86 325.27 185.204C324.84 166.548 268.164 152.72 198.681 154.318C129.198 155.916 73.2198 172.336 73.65 190.991C74.0802 209.647 130.756 223.475 200.239 221.877Z" stroke="#FFAF5F" stroke-miterlimit="10"/>
<path d="M204.981 468.078C293.501 466.042 364.816 445.126 364.268 421.361C363.72 397.595 291.516 379.98 202.997 382.016C114.477 384.052 43.1625 404.968 43.7105 428.734C44.2585 452.499 116.462 470.114 204.981 468.078Z" stroke="#FFAF5F" stroke-miterlimit="10"/>
<g opacity="0.5">
<path d="M43.4521 624.785L213.907 299.156" stroke="#FFAF5F" stroke-width="0.75" stroke-miterlimit="10"/>
<path d="M190.634 289.902L329.411 615.53" stroke="#FFAF5F" stroke-width="0.75" stroke-miterlimit="10"/>
<path d="M199.469 281.724L235.888 621.126" stroke="#FFAF5F" stroke-width="0.75" stroke-miterlimit="10"/>
<path d="M132.235 8.17871C132.235 8.17871 75.3451 189.609 73.8366 191.116C72.3282 192.407 132.235 8.17871 132.235 8.17871Z" stroke="#FFAF5F" stroke-width="0.75" stroke-miterlimit="10"/>
<path d="M61.3379 241.478C61.3379 241.478 15.8689 457.128 14.5759 458.635C13.283 460.141 61.3379 241.478 61.3379 241.478Z" stroke="#FFAF5F" stroke-width="0.75" stroke-miterlimit="10"/>
<path d="M340.617 237.173C340.617 237.173 387.379 447.228 386.948 449.165C386.517 451.102 340.617 237.173 340.617 237.173Z" stroke="#FFAF5F" stroke-width="0.75" stroke-miterlimit="10"/>
<path d="M76.6382 12.4829L95.6016 150.009" stroke="#FFAF5F" stroke-width="0.75" stroke-miterlimit="10"/>
<path d="M270.151 6.88721L325.317 185.305" stroke="#FFAF5F" stroke-width="0.75" stroke-miterlimit="10"/>
<path d="M1 446.582L393.844 437.113" stroke="#FFAF5F" stroke-width="0.75" stroke-miterlimit="10"/>
<path d="M346.004 6.67188L459.354 444.215" stroke="#FFAF5F" stroke-width="0.75" stroke-miterlimit="10"/>
<path d="M422.72 445.076L312.818 0.215332" stroke="#FFAF5F" stroke-width="0.75" stroke-miterlimit="10"/>
</g>
</svg>
