<svg width="1000" height="114" viewBox="0 0 1000 114" fill="none" xmlns="http://www.w3.org/2000/svg">
<path d="M499.96 107.887L0 107.887L0 113.01L499.96 113.01V107.887Z" fill="#FFAF5F"/>
<path d="M391.543 56.0937L350.238 21.8732L348.501 23.3076L308.692 56.1193L350.318 90.3399L391.543 56.0937ZM316.868 56.0937L350.211 28.6097L383.367 56.0937L350.264 83.5778L316.868 56.0937Z" fill="#FFAF5F"/>
<path d="M350.183 34.9631L348.447 36.3975L324.054 56.5046L350.237 78.0461L376.179 56.5046L350.183 34.9631ZM350.21 71.284L332.256 56.5046L350.183 41.7252L368.004 56.5046L350.21 71.284Z" fill="#FFAF5F"/>
<path d="M408.535 55.761L450.161 89.9816L491.412 55.761L450.107 21.5148L448.371 22.9492L408.535 55.761ZM450.161 83.245L416.764 55.7866L450.107 28.3026L483.263 55.7866L450.161 83.245Z" fill="#FFAF5F"/>
<path d="M448.316 36.0643L423.923 56.1715L450.106 77.713L476.048 56.1715L450.052 34.6299L448.316 36.0643ZM450.079 70.9509L432.125 56.1715L450.052 41.3921L467.873 56.1715L450.079 70.9509Z" fill="#FFAF5F"/>
<path d="M291.512 56.0937L250.207 21.8732L248.47 23.3076L208.635 56.0937L250.26 90.3143L291.512 56.0937ZM216.837 56.0937L250.18 28.6097L283.336 56.0937L250.26 83.5777L216.837 56.0937Z" fill="#FFAF5F"/>
<path d="M250.154 34.9631L248.417 36.3975L224.024 56.5046L250.207 78.0461L276.15 56.5046L250.154 34.9631ZM250.181 71.284L232.227 56.5046L250.154 41.7252L267.974 56.5046L250.181 71.284Z" fill="#FFAF5F"/>
<path d="M191.429 56.0937L150.124 21.8732L148.388 23.3076L108.579 56.0937L150.205 90.3143L191.429 56.0937ZM116.781 56.0937L150.124 28.6097L183.254 56.0937L150.178 83.5777L116.781 56.0937Z" fill="#FFAF5F"/>
<path d="M150.072 34.9631L148.335 36.3975L123.942 56.5046L150.125 78.0461L176.068 56.5046L150.072 34.9631ZM150.099 71.284L132.145 56.5046L150.072 41.7252L167.892 56.5046L150.099 71.284Z" fill="#FFAF5F"/>
<path d="M91.4267 56.5047L50.1219 22.2842L48.3852 23.7186L8.5498 56.5047L50.1753 90.7253L91.4267 56.5047ZM16.752 56.5047L50.0951 29.0207L83.2513 56.5047L50.1753 83.9888L16.752 56.5047Z" fill="#FFAF5F"/>
<path d="M70.0791 18.4165L75.5561 22.9246L100.136 43.1598L129.926 18.4421L70.0791 18.4421V18.4165ZM100.136 36.372L84.5064 23.5393L115.605 23.5393L100.136 36.372Z" fill="#FFAF5F"/>
<path d="M124.502 89.0613L100.136 68.826L70.0791 93.5437H129.952L124.502 89.0613ZM100.136 75.5882L115.605 88.4209H84.5064L100.136 75.5882Z" fill="#FFAF5F"/>
<path d="M170.082 18.3398L175.559 22.8479L200.139 43.0831L229.929 18.3655L170.082 18.3655V18.3398ZM200.139 36.2954L184.509 23.4627L215.608 23.4627L200.139 36.2954Z" fill="#FFAF5F"/>
<path d="M224.531 89.2129L200.165 68.9777L170.108 93.6954H229.982L224.531 89.2129ZM200.139 75.7654L215.608 88.5981H184.509L200.139 75.7654Z" fill="#FFAF5F"/>
<path d="M270.111 18.3398L275.588 22.8479L300.168 43.0831L329.958 18.3655L270.111 18.3655V18.3398ZM300.168 36.2954L284.539 23.4627L315.638 23.4627L300.168 36.2954Z" fill="#FFAF5F"/>
<path d="M324.561 88.9576L300.195 68.7224L270.111 93.4657H329.958L324.561 88.9576ZM300.168 75.5102L315.638 88.3429H284.539L300.168 75.5102Z" fill="#FFAF5F"/>
<path d="M375.564 22.8475L400.144 43.0827L429.934 18.365L370.061 18.365L375.564 22.8475ZM400.144 36.2949L384.515 23.4622L415.613 23.4622L400.144 36.2949Z" fill="#FFAF5F"/>
<path d="M424.538 88.9576L400.172 68.7224L370.115 93.4401H429.989L424.538 88.9576ZM400.145 75.5102L415.615 88.3429H384.516L400.145 75.5102Z" fill="#FFAF5F"/>
<path d="M50.0689 35.3735L48.3323 36.8079L23.9395 56.915L50.1224 78.4565L76.0648 56.915L50.0689 35.3735ZM50.0956 71.6944L32.1417 56.915L50.0689 42.1356L67.8893 56.915L50.0956 71.6944Z" fill="#FFAF5F"/>
<path d="M499.961 43.2613V36.4991L484.412 23.5639L499.961 23.5639V18.4411L470.064 18.4411L499.961 43.2613Z" fill="#FFAF5F"/>
<path d="M499.961 93.5929V88.47H484.412L499.961 75.5349V68.7727L470.064 93.5929H499.961Z" fill="#FFAF5F"/>
<path d="M29.8966 18.4411L0 18.4411L0 23.5639H15.5762L0 36.4991L0 43.2613L1.84349 41.7244L29.8966 18.4411Z" fill="#FFAF5F"/>
<path d="M0 68.7727L0 75.5349L15.5762 88.47H0L0 93.5929H29.8966L0 68.7727Z" fill="#FFAF5F"/>
<path d="M0 15.0091L42.1064 15.0091L0 49.7419L0 56.5041L49.988 15.2652L99.976 56.5041L150.017 15.2652L199.979 56.376L250.02 15.2652L299.981 56.5041L350.103 15.2652L399.984 56.5041L449.972 15.2652L499.96 56.5041V49.7419L457.854 15.0091L499.96 15.0091V9.88623L0 9.88623L0 15.0091ZM57.8963 15.0091L142.189 15.0091L100.003 49.7419L57.8963 15.0091ZM157.952 15.0091L242.112 15.0091L200.005 49.6138L157.952 15.0091ZM257.902 15.0091L342.221 15.0091L300.008 49.7419L257.902 15.0091ZM399.984 49.7419L357.984 15.0091L442.117 15.0091L399.984 49.7419Z" fill="#FFAF5F"/>
<path d="M499.96 0L0 0L0 5.12284L499.96 5.12284V0Z" fill="#FFAF5F"/>
<path d="M449.678 97.5131L399.984 56.5048L350.397 97.5131H349.809L299.981 56.5048L250.314 97.5131H249.726L200.005 56.6585L150.338 97.5131H149.75L100.003 56.5048L50.3086 97.5131H49.6941L0 56.5048L0 63.267L41.4919 97.4875H0L0 102.61L499.96 102.61V97.4875L458.468 97.4875L499.96 63.267V56.5048L450.266 97.5131H449.678ZM399.984 63.2926L441.476 97.5131H358.599L399.984 63.2926ZM300.008 63.2926L341.607 97.5131H258.516L300.008 63.2926ZM200.005 63.4207L241.497 97.5131L158.567 97.5131L200.005 63.4207ZM100.003 63.2926L141.548 97.5131L58.5108 97.5131L100.003 63.2926Z" fill="#FFAF5F"/>
<path d="M999.946 107.887L499.986 107.887V113.01L999.946 113.01V107.887Z" fill="#FFAF5F"/>
<path d="M891.528 56.1193L850.223 21.8732L848.486 23.3076L808.678 56.1193L850.303 90.3399L891.528 56.1193ZM816.853 56.1193L850.196 28.6353L883.352 56.1193L850.25 83.5778L816.853 56.1193Z" fill="#FFAF5F"/>
<path d="M850.171 34.9888L848.434 36.4232L824.041 56.5303L850.224 78.0718L876.166 56.5303L850.171 34.9888ZM850.197 71.2841L832.243 56.5047L850.171 41.7253L867.991 56.5047L850.197 71.2841Z" fill="#FFAF5F"/>
<path d="M908.521 55.7868L950.147 90.0073L991.398 55.7868L950.094 21.5406L948.357 22.975L908.521 55.7868ZM950.147 83.2452L916.75 55.7868L950.094 28.3027L983.25 55.7868L950.147 83.2452Z" fill="#FFAF5F"/>
<path d="M948.303 36.0901L923.91 56.1972L950.093 77.7388L976.035 56.1972L950.04 34.6557L948.303 36.0901ZM950.066 70.951L932.112 56.1716L950.04 41.3922L967.86 56.1716L950.066 70.951Z" fill="#FFAF5F"/>
<path d="M791.5 56.1193L750.195 21.8732L748.458 23.3076L708.649 56.1193L750.275 90.3399L791.5 56.1193ZM716.825 56.1193L750.168 28.6353L783.324 56.1193L750.222 83.5778L716.825 56.1193Z" fill="#FFAF5F"/>
<path d="M750.139 34.9888L748.403 36.4232L724.01 56.5303L750.193 78.0718L776.135 56.5303L750.139 34.9888ZM750.166 71.2841L732.212 56.5047L750.139 41.7253L767.96 56.5047L750.166 71.2841Z" fill="#FFAF5F"/>
<path d="M691.417 56.1193L650.112 21.8732L648.375 23.3076L608.566 56.1193L650.192 90.3399L691.417 56.1193ZM616.769 56.1193L650.112 28.6353L683.268 56.1193L650.165 83.5778L616.769 56.1193Z" fill="#FFAF5F"/>
<path d="M650.084 34.9888L648.347 36.4232L623.954 56.5303L650.137 78.0718L676.079 56.5303L650.084 34.9888ZM650.084 71.2841L632.13 56.5047L650.057 41.7253L667.877 56.5047L650.084 71.2841Z" fill="#FFAF5F"/>
<path d="M591.414 56.5304L550.109 22.2842L548.372 23.7186L508.563 56.5304L550.189 90.7509L591.414 56.5304ZM516.766 56.5304L550.109 29.0463L583.238 56.5304L550.136 83.9888L516.766 56.5304Z" fill="#FFAF5F"/>
<path d="M570.065 18.4165L575.542 22.9246L600.122 43.1598L629.912 18.4421L570.065 18.4421V18.4165ZM600.122 36.372L584.493 23.5393L615.592 23.5393L600.122 36.372Z" fill="#FFAF5F"/>
<path d="M624.517 89.0613L600.151 68.826L570.094 93.5437H629.967L624.517 89.0613ZM600.124 75.5882L615.593 88.4209H584.494L600.124 75.5882Z" fill="#FFAF5F"/>
<path d="M670.069 18.3398L675.546 22.8479L700.126 43.0831L729.916 18.3655L670.069 18.3655V18.3398ZM700.126 36.2954L684.497 23.4627L715.596 23.4627L700.126 36.2954Z" fill="#FFAF5F"/>
<path d="M724.52 89.2398L700.154 69.0046L670.07 93.7223H729.944L724.52 89.2398ZM700.127 75.7667L715.596 88.5994H684.498L700.127 75.7667Z" fill="#FFAF5F"/>
<path d="M770.099 18.3398L775.576 22.8479L800.156 43.0831L829.945 18.3655L770.099 18.3655V18.3398ZM800.156 36.2954L784.526 23.4627L815.625 23.4627L800.156 36.2954Z" fill="#FFAF5F"/>
<path d="M824.547 88.9834L800.181 68.7482L770.124 93.4659H829.997L824.547 88.9834ZM800.154 75.5103L815.624 88.343H784.525L800.154 75.5103Z" fill="#FFAF5F"/>
<path d="M875.551 22.8475L900.131 43.0827L929.92 18.3651L870.047 18.3651L875.551 22.8475ZM900.131 36.295L884.501 23.4623L915.6 23.4623L900.131 36.295Z" fill="#FFAF5F"/>
<path d="M924.524 88.9834L900.158 68.7482L870.101 93.4659H929.974L924.524 88.9834ZM900.131 75.5103L915.6 88.343H884.501L900.131 75.5103Z" fill="#FFAF5F"/>
<path d="M550.055 35.3981L548.319 36.8325L523.926 56.9396L550.109 78.4811L576.051 56.9396L550.055 35.3981ZM550.082 71.6934L532.128 56.914L550.055 42.1346L567.876 56.914L550.082 71.6934Z" fill="#FFAF5F"/>
<path d="M999.974 43.2871V36.4993L984.398 23.5898L999.974 23.5898V18.4669L970.051 18.4669L999.974 43.2871Z" fill="#FFAF5F"/>
<path d="M999.974 93.5929V88.47H984.398L999.974 75.5349V68.7727L970.051 93.5929H999.974Z" fill="#FFAF5F"/>
<path d="M529.91 18.4669L499.986 18.4669V23.5898H515.562L499.986 36.4993V43.2871L501.857 41.7502L529.91 18.4669Z" fill="#FFAF5F"/>
<path d="M499.986 68.7727V75.5349L515.562 88.47H499.986V93.5929H529.91L499.986 68.7727Z" fill="#FFAF5F"/>
<path d="M499.986 15.0091L542.093 15.0091L499.986 49.7419V56.5041L549.974 15.2652L599.962 56.5041L650.004 15.2652L699.965 56.376L749.98 15.2652L799.941 56.5041L850.062 15.2652L899.944 56.5041L949.932 15.2652L999.92 56.5041V49.7419L957.84 15.0091L999.946 15.0091V9.88623L499.986 9.88623V15.0091ZM557.883 15.0091L642.176 15.0091L600.016 49.7419L557.883 15.0091ZM657.939 15.0091L742.098 15.0091L699.992 49.6138L657.939 15.0091ZM757.888 15.0091L842.208 15.0091L799.994 49.7419L757.888 15.0091ZM899.97 49.7419L857.971 15.0091L942.103 15.0091L899.97 49.7419Z" fill="#FFAF5F"/>
<path d="M999.946 0L499.986 0V5.12284L999.946 5.12284V0Z" fill="#FFAF5F"/>
<path d="M949.665 97.5131L899.971 56.5048L850.41 97.5131H849.822L799.995 56.5048L750.327 97.5131H749.739L699.992 56.6585L650.351 97.5131H649.764L600.016 56.5048L550.322 97.5131H549.734L500.04 56.5048V63.267L541.532 97.4875H500.04V102.61L1000 102.61V97.4875L958.508 97.4875L1000 63.267V56.5048L950.306 97.5131H949.665ZM899.971 63.2926L941.463 97.5131H858.586L899.971 63.2926ZM799.995 63.2926L841.593 97.5131H758.503L799.995 63.2926ZM699.992 63.4207L741.484 97.5131L658.58 97.5131L699.992 63.4207ZM599.989 63.2926L641.535 97.5131L558.497 97.5131L599.989 63.2926Z" fill="#FFAF5F"/>
</svg>
